M48
; DRILL file {KiCad 9.0.6} date 2026-07-15T15:39:03+0500
; FORMAT={-:-/ absolute / inch / decimal}
; #@! TF.CreationDate,2026-07-15T15:39:03+05:00
; #@! TF.GenerationSoftware,Kicad,Pcbnew,9.0.6
; #@! TF.FileFunction,Plated,1,6,PTH
FMAT,2
INCH
; #@! TA.AperFunction,Plated,PTH,ViaDrill
T1C0.0039
; #@! TA.AperFunction,Plated,PTH,ViaDrill
T2C0.0059
; #@! TA.AperFunction,Plated,PTH,ViaDrill
T3C0.0079
; #@! TA.AperFunction,Plated,PTH,ViaDrill
T4C0.0118
; #@! TA.AperFunction,Plated,PTH,ComponentDrill
T5C0.0236
; #@! TA.AperFunction,Plated,PTH,ComponentDrill
T6C0.0394
%
G90
G05
T1
X3.9407Y-3.9533
X3.9546Y-3.9672
T2
X3.65Y-4.2488
X3.6937Y-4.5571
X3.7122Y-4.148
X3.7445Y-3.6835
X3.7657Y-3.7102
X3.7984Y-3.9031
X3.8047Y-3.9655
X3.8221Y-3.939
X3.828Y-4.0594
X3.8461Y-3.9165
X3.8631Y-3.9117
X3.8711Y-3.9672
X3.8732Y-4.0197
X3.8839Y-3.7906
X3.884Y-4.1021
X3.885Y-3.9533
X3.885Y-3.9812
X3.8882Y-3.8744
X3.8917Y-4.0559
X3.8941Y-4.0327
X3.8989Y-3.9116
X3.8989Y-3.9672
X3.9016Y-4.1043
X3.9075Y-3.8051
X3.9083Y-4.063
X3.9098Y-3.8378
X3.9128Y-3.9533
X3.9267Y-3.9394
X3.9407Y-3.8976
X3.9407Y-3.9255
X3.9407Y-3.9812
X3.9407Y-4.009
X3.9546Y-3.9116
X3.9546Y-4.0229
X3.9556Y-3.7897
X3.9669Y-4.0909
X3.9685Y-3.9255
X3.9685Y-4.009
X3.9776Y-3.4713
X3.9783Y-3.8571
X3.9784Y-3.4937
X3.9824Y-3.9672
X3.9824Y-3.9951
X3.9846Y-4.0807
X3.9945Y-4.063
X3.9963Y-3.9255
X3.9963Y-3.9533
X4.0Y-3.8268
X4.0022Y-3.8917
X4.0103Y-3.9672
X4.0456Y-3.9319
X4.0525Y-3.9155
X4.0748Y-4.0067
X4.1138Y-3.8728
X4.1295Y-3.8567
X4.139Y-3.8728
X4.1776Y-4.0867
X4.1902Y-3.8925
X4.2012Y-3.9276
X4.2087Y-4.0185
X4.2098Y-4.187
X4.2157Y-3.9071
X4.2358Y-4.3209
T3
X3.7374Y-3.3787
X3.7406Y-3.4374
X3.7457Y-3.9437
X3.8181Y-3.8913
X3.928Y-4.2496
T4
X3.6492Y-3.3579
X3.6748Y-3.0602
X3.7723Y-3.92
X3.7839Y-3.6445
X3.8427Y-4.5217
X3.952Y-2.8547
X4.0461Y-3.7047
X4.128Y-3.924
X4.1567Y-3.9945
X4.1714Y-4.0439
X4.1929Y-3.3579
X4.2362Y-2.9331
X4.2417Y-3.5472
X4.2677Y-3.7996
T6
X3.4646Y-2.7953
X3.4646Y-2.8953
X3.4646Y-2.9953
X3.4646Y-3.0953
X3.4646Y-3.1953
X3.4646Y-3.2953
X3.4646Y-3.3953
X3.4646Y-3.4953
X3.4646Y-3.5953
X3.4646Y-3.6953
X3.4646Y-3.7953
X3.4646Y-3.8953
X3.4646Y-3.9953
X3.4646Y-4.0953
X3.4646Y-4.1953
X3.4646Y-4.2953
X3.4646Y-4.3953
X3.4646Y-4.4953
X3.4646Y-4.5953
X3.4646Y-4.6953
X3.4646Y-4.7953
X3.4646Y-4.8953
X3.4646Y-4.9953
X3.4646Y-5.0953
X3.6795Y-5.2047
X3.7795Y-5.2047
X3.8795Y-5.2047
X3.9795Y-5.2047
X4.0795Y-5.2047
X4.1795Y-5.2047
X4.3898Y-2.7953
X4.3898Y-2.8953
X4.3898Y-2.9953
X4.3898Y-3.0953
X4.3898Y-3.1953
X4.3898Y-3.2953
X4.3898Y-3.3953
X4.3898Y-3.4953
X4.3898Y-3.5953
X4.3898Y-3.6953
X4.3898Y-3.7953
X4.3898Y-3.8953
X4.3898Y-3.9953
X4.3898Y-4.0953
X4.3898Y-4.1953
X4.3898Y-4.2953
X4.3898Y-4.3953
X4.3898Y-4.4953
X4.3898Y-4.5953
X4.3898Y-4.6953
X4.3898Y-4.7953
X4.3898Y-4.8953
X4.3898Y-4.9953
X4.3898Y-5.0953
T5
G00X3.7717Y-2.7913
M15
G01X3.7717Y-2.7677
M16
G05
G00X3.7717Y-2.9657
M15
G01X3.7717Y-2.9224
M16
G05
G00X4.1118Y-2.7913
M15
G01X4.1118Y-2.7677
M16
G05
G00X4.1118Y-2.9657
M15
G01X4.1118Y-2.9224
M16
G05
M30
