%TF.GenerationSoftware,KiCad,Pcbnew,9.0.6*%
%TF.CreationDate,2026-07-15T15:39:03+05:00*%
%TF.ProjectId,NS FPGA,4e532046-5047-4412-9e6b-696361645f70,rev?*%
%TF.SameCoordinates,Original*%
%TF.FileFunction,Legend,Top*%
%TF.FilePolarity,Positive*%
%FSLAX46Y46*%
G04 Gerber Fmt 4.6, Leading zero omitted, Abs format (unit mm)*
G04 Created by KiCad (PCBNEW 9.0.6) date 2026-07-15 15:39:03*
%MOMM*%
%LPD*%
G01*
G04 APERTURE LIST*
G04 Aperture macros list*
%AMRoundRect*
0 Rectangle with rounded corners*
0 $1 Rounding radius*
0 $2 $3 $4 $5 $6 $7 $8 $9 X,Y pos of 4 corners*
0 Add a 4 corners polygon primitive as box body*
4,1,4,$2,$3,$4,$5,$6,$7,$8,$9,$2,$3,0*
0 Add four circle primitives for the rounded corners*
1,1,$1+$1,$2,$3*
1,1,$1+$1,$4,$5*
1,1,$1+$1,$6,$7*
1,1,$1+$1,$8,$9*
0 Add four rect primitives between the rounded corners*
20,1,$1+$1,$2,$3,$4,$5,0*
20,1,$1+$1,$4,$5,$6,$7,0*
20,1,$1+$1,$6,$7,$8,$9,0*
20,1,$1+$1,$8,$9,$2,$3,0*%
G04 Aperture macros list end*
%ADD10C,0.150000*%
%ADD11C,0.250000*%
%ADD12C,0.125000*%
%ADD13C,0.000000*%
%ADD14C,0.200000*%
%ADD15C,0.120000*%
%ADD16C,0.100000*%
%ADD17C,0.230000*%
%ADD18C,1.000000*%
%ADD19RoundRect,0.250000X-0.450000X-0.350000X0.450000X-0.350000X0.450000X0.350000X-0.450000X0.350000X0*%
%ADD20RoundRect,0.150000X-0.150000X0.512500X-0.150000X-0.512500X0.150000X-0.512500X0.150000X0.512500X0*%
%ADD21RoundRect,0.062500X-0.062500X0.350000X-0.062500X-0.350000X0.062500X-0.350000X0.062500X0.350000X0*%
%ADD22RoundRect,0.062500X-0.350000X0.062500X-0.350000X-0.062500X0.350000X-0.062500X0.350000X0.062500X0*%
%ADD23R,2.600000X2.600000*%
%ADD24RoundRect,0.250000X-0.250000X0.475000X-0.250000X-0.475000X0.250000X-0.475000X0.250000X0.475000X0*%
%ADD25RoundRect,0.135000X0.185000X-0.135000X0.185000X0.135000X-0.185000X0.135000X-0.185000X-0.135000X0*%
%ADD26RoundRect,0.100000X-0.130000X-0.100000X0.130000X-0.100000X0.130000X0.100000X-0.130000X0.100000X0*%
%ADD27RoundRect,0.100000X0.100000X-0.130000X0.100000X0.130000X-0.100000X0.130000X-0.100000X-0.130000X0*%
%ADD28RoundRect,0.135000X-0.135000X-0.185000X0.135000X-0.185000X0.135000X0.185000X-0.135000X0.185000X0*%
%ADD29RoundRect,0.100000X-0.162635X0.021213X0.021213X-0.162635X0.162635X-0.021213X-0.021213X0.162635X0*%
%ADD30RoundRect,0.100000X0.130000X0.100000X-0.130000X0.100000X-0.130000X-0.100000X0.130000X-0.100000X0*%
%ADD31RoundRect,0.135000X-0.185000X0.135000X-0.185000X-0.135000X0.185000X-0.135000X0.185000X0.135000X0*%
%ADD32RoundRect,0.150000X0.150000X-0.587500X0.150000X0.587500X-0.150000X0.587500X-0.150000X-0.587500X0*%
%ADD33R,1.700000X1.700000*%
%ADD34C,1.700000*%
%ADD35C,0.650000*%
%ADD36RoundRect,0.150000X0.150000X0.500000X-0.150000X0.500000X-0.150000X-0.500000X0.150000X-0.500000X0*%
%ADD37RoundRect,0.075000X0.075000X0.575000X-0.075000X0.575000X-0.075000X-0.575000X0.075000X-0.575000X0*%
%ADD38O,1.000000X2.100000*%
%ADD39O,1.000000X1.600000*%
%ADD40RoundRect,0.100000X-0.021213X-0.162635X0.162635X0.021213X0.021213X0.162635X-0.162635X-0.021213X0*%
%ADD41RoundRect,0.140000X-0.140000X-0.170000X0.140000X-0.170000X0.140000X0.170000X-0.140000X0.170000X0*%
%ADD42RoundRect,0.140000X0.140000X0.170000X-0.140000X0.170000X-0.140000X-0.170000X0.140000X-0.170000X0*%
%ADD43RoundRect,0.140000X0.170000X-0.140000X0.170000X0.140000X-0.170000X0.140000X-0.170000X-0.140000X0*%
%ADD44RoundRect,0.140000X-0.170000X0.140000X-0.170000X-0.140000X0.170000X-0.140000X0.170000X0.140000X0*%
G04 APERTURE END LIST*
D10*
X92327969Y-129888771D02*
X92402969Y-129288771D01*
X92402969Y-129288771D02*
X92545826Y-129288771D01*
X92545826Y-129288771D02*
X92627969Y-129317342D01*
X92627969Y-129317342D02*
X92677969Y-129374485D01*
X92677969Y-129374485D02*
X92699398Y-129431628D01*
X92699398Y-129431628D02*
X92713684Y-129545914D01*
X92713684Y-129545914D02*
X92702969Y-129631628D01*
X92702969Y-129631628D02*
X92660112Y-129745914D01*
X92660112Y-129745914D02*
X92624398Y-129803057D01*
X92624398Y-129803057D02*
X92560112Y-129860200D01*
X92560112Y-129860200D02*
X92470826Y-129888771D01*
X92470826Y-129888771D02*
X92327969Y-129888771D01*
X93160112Y-129860200D02*
X93099398Y-129888771D01*
X93099398Y-129888771D02*
X92985112Y-129888771D01*
X92985112Y-129888771D02*
X92931541Y-129860200D01*
X92931541Y-129860200D02*
X92910112Y-129803057D01*
X92910112Y-129803057D02*
X92938684Y-129574485D01*
X92938684Y-129574485D02*
X92974398Y-129517342D01*
X92974398Y-129517342D02*
X93035112Y-129488771D01*
X93035112Y-129488771D02*
X93149398Y-129488771D01*
X93149398Y-129488771D02*
X93202969Y-129517342D01*
X93202969Y-129517342D02*
X93224398Y-129574485D01*
X93224398Y-129574485D02*
X93217255Y-129631628D01*
X93217255Y-129631628D02*
X92924398Y-129688771D01*
X93417255Y-129860200D02*
X93470827Y-129888771D01*
X93470827Y-129888771D02*
X93585112Y-129888771D01*
X93585112Y-129888771D02*
X93645827Y-129860200D01*
X93645827Y-129860200D02*
X93681541Y-129803057D01*
X93681541Y-129803057D02*
X93685112Y-129774485D01*
X93685112Y-129774485D02*
X93663684Y-129717342D01*
X93663684Y-129717342D02*
X93610112Y-129688771D01*
X93610112Y-129688771D02*
X93524398Y-129688771D01*
X93524398Y-129688771D02*
X93470827Y-129660200D01*
X93470827Y-129660200D02*
X93449398Y-129603057D01*
X93449398Y-129603057D02*
X93452970Y-129574485D01*
X93452970Y-129574485D02*
X93488684Y-129517342D01*
X93488684Y-129517342D02*
X93549398Y-129488771D01*
X93549398Y-129488771D02*
X93635112Y-129488771D01*
X93635112Y-129488771D02*
X93688684Y-129517342D01*
X93927969Y-129888771D02*
X93977969Y-129488771D01*
X94002969Y-129288771D02*
X93970826Y-129317342D01*
X93970826Y-129317342D02*
X93995826Y-129345914D01*
X93995826Y-129345914D02*
X94027969Y-129317342D01*
X94027969Y-129317342D02*
X94002969Y-129288771D01*
X94002969Y-129288771D02*
X93995826Y-129345914D01*
X94520826Y-129488771D02*
X94460112Y-129974485D01*
X94460112Y-129974485D02*
X94424398Y-130031628D01*
X94424398Y-130031628D02*
X94392255Y-130060200D01*
X94392255Y-130060200D02*
X94331540Y-130088771D01*
X94331540Y-130088771D02*
X94245826Y-130088771D01*
X94245826Y-130088771D02*
X94192255Y-130060200D01*
X94474398Y-129860200D02*
X94413683Y-129888771D01*
X94413683Y-129888771D02*
X94299398Y-129888771D01*
X94299398Y-129888771D02*
X94245826Y-129860200D01*
X94245826Y-129860200D02*
X94220826Y-129831628D01*
X94220826Y-129831628D02*
X94199398Y-129774485D01*
X94199398Y-129774485D02*
X94220826Y-129603057D01*
X94220826Y-129603057D02*
X94256540Y-129545914D01*
X94256540Y-129545914D02*
X94288683Y-129517342D01*
X94288683Y-129517342D02*
X94349398Y-129488771D01*
X94349398Y-129488771D02*
X94463683Y-129488771D01*
X94463683Y-129488771D02*
X94517255Y-129517342D01*
X94806540Y-129488771D02*
X94756540Y-129888771D01*
X94799397Y-129545914D02*
X94831540Y-129517342D01*
X94831540Y-129517342D02*
X94892255Y-129488771D01*
X94892255Y-129488771D02*
X94977969Y-129488771D01*
X94977969Y-129488771D02*
X95031540Y-129517342D01*
X95031540Y-129517342D02*
X95052969Y-129574485D01*
X95052969Y-129574485D02*
X95013683Y-129888771D01*
X95531540Y-129860200D02*
X95470826Y-129888771D01*
X95470826Y-129888771D02*
X95356540Y-129888771D01*
X95356540Y-129888771D02*
X95302969Y-129860200D01*
X95302969Y-129860200D02*
X95281540Y-129803057D01*
X95281540Y-129803057D02*
X95310112Y-129574485D01*
X95310112Y-129574485D02*
X95345826Y-129517342D01*
X95345826Y-129517342D02*
X95406540Y-129488771D01*
X95406540Y-129488771D02*
X95520826Y-129488771D01*
X95520826Y-129488771D02*
X95574397Y-129517342D01*
X95574397Y-129517342D02*
X95595826Y-129574485D01*
X95595826Y-129574485D02*
X95588683Y-129631628D01*
X95588683Y-129631628D02*
X95295826Y-129688771D01*
X96070826Y-129888771D02*
X96145826Y-129288771D01*
X96074398Y-129860200D02*
X96013683Y-129888771D01*
X96013683Y-129888771D02*
X95899398Y-129888771D01*
X95899398Y-129888771D02*
X95845826Y-129860200D01*
X95845826Y-129860200D02*
X95820826Y-129831628D01*
X95820826Y-129831628D02*
X95799398Y-129774485D01*
X95799398Y-129774485D02*
X95820826Y-129603057D01*
X95820826Y-129603057D02*
X95856540Y-129545914D01*
X95856540Y-129545914D02*
X95888683Y-129517342D01*
X95888683Y-129517342D02*
X95949398Y-129488771D01*
X95949398Y-129488771D02*
X96063683Y-129488771D01*
X96063683Y-129488771D02*
X96117255Y-129517342D01*
X96813683Y-129888771D02*
X96888683Y-129288771D01*
X96860112Y-129517342D02*
X96920826Y-129488771D01*
X96920826Y-129488771D02*
X97035112Y-129488771D01*
X97035112Y-129488771D02*
X97088683Y-129517342D01*
X97088683Y-129517342D02*
X97113683Y-129545914D01*
X97113683Y-129545914D02*
X97135112Y-129603057D01*
X97135112Y-129603057D02*
X97113683Y-129774485D01*
X97113683Y-129774485D02*
X97077969Y-129831628D01*
X97077969Y-129831628D02*
X97045826Y-129860200D01*
X97045826Y-129860200D02*
X96985112Y-129888771D01*
X96985112Y-129888771D02*
X96870826Y-129888771D01*
X96870826Y-129888771D02*
X96817255Y-129860200D01*
X97349397Y-129488771D02*
X97442255Y-129888771D01*
X97635112Y-129488771D02*
X97442255Y-129888771D01*
X97442255Y-129888771D02*
X97367255Y-130031628D01*
X97367255Y-130031628D02*
X97335112Y-130060200D01*
X97335112Y-130060200D02*
X97274397Y-130088771D01*
X97820826Y-129831628D02*
X97845826Y-129860200D01*
X97845826Y-129860200D02*
X97813683Y-129888771D01*
X97813683Y-129888771D02*
X97788683Y-129860200D01*
X97788683Y-129860200D02*
X97820826Y-129831628D01*
X97820826Y-129831628D02*
X97813683Y-129888771D01*
X97860112Y-129517342D02*
X97885112Y-129545914D01*
X97885112Y-129545914D02*
X97852969Y-129574485D01*
X97852969Y-129574485D02*
X97827969Y-129545914D01*
X97827969Y-129545914D02*
X97860112Y-129517342D01*
X97860112Y-129517342D02*
X97852969Y-129574485D01*
X98556540Y-129888771D02*
X98631540Y-129288771D01*
X98631540Y-129288771D02*
X98777969Y-129717342D01*
X98777969Y-129717342D02*
X99031540Y-129288771D01*
X99031540Y-129288771D02*
X98956540Y-129888771D01*
X99549397Y-129488771D02*
X99499397Y-129888771D01*
X99292254Y-129488771D02*
X99252969Y-129803057D01*
X99252969Y-129803057D02*
X99274397Y-129860200D01*
X99274397Y-129860200D02*
X99327969Y-129888771D01*
X99327969Y-129888771D02*
X99413683Y-129888771D01*
X99413683Y-129888771D02*
X99474397Y-129860200D01*
X99474397Y-129860200D02*
X99506540Y-129831628D01*
X99785111Y-129888771D02*
X99860111Y-129288771D01*
X100042254Y-129888771D02*
X100081540Y-129574485D01*
X100081540Y-129574485D02*
X100060111Y-129517342D01*
X100060111Y-129517342D02*
X100006540Y-129488771D01*
X100006540Y-129488771D02*
X99920826Y-129488771D01*
X99920826Y-129488771D02*
X99860111Y-129517342D01*
X99860111Y-129517342D02*
X99827968Y-129545914D01*
X100585111Y-129888771D02*
X100624397Y-129574485D01*
X100624397Y-129574485D02*
X100602968Y-129517342D01*
X100602968Y-129517342D02*
X100549397Y-129488771D01*
X100549397Y-129488771D02*
X100435111Y-129488771D01*
X100435111Y-129488771D02*
X100374397Y-129517342D01*
X100588683Y-129860200D02*
X100527968Y-129888771D01*
X100527968Y-129888771D02*
X100385111Y-129888771D01*
X100385111Y-129888771D02*
X100331540Y-129860200D01*
X100331540Y-129860200D02*
X100310111Y-129803057D01*
X100310111Y-129803057D02*
X100317254Y-129745914D01*
X100317254Y-129745914D02*
X100352968Y-129688771D01*
X100352968Y-129688771D02*
X100413683Y-129660200D01*
X100413683Y-129660200D02*
X100556540Y-129660200D01*
X100556540Y-129660200D02*
X100617254Y-129631628D01*
X100870825Y-129888771D02*
X100920825Y-129488771D01*
X100913682Y-129545914D02*
X100945825Y-129517342D01*
X100945825Y-129517342D02*
X101006540Y-129488771D01*
X101006540Y-129488771D02*
X101092254Y-129488771D01*
X101092254Y-129488771D02*
X101145825Y-129517342D01*
X101145825Y-129517342D02*
X101167254Y-129574485D01*
X101167254Y-129574485D02*
X101127968Y-129888771D01*
X101167254Y-129574485D02*
X101202968Y-129517342D01*
X101202968Y-129517342D02*
X101263682Y-129488771D01*
X101263682Y-129488771D02*
X101349397Y-129488771D01*
X101349397Y-129488771D02*
X101402968Y-129517342D01*
X101402968Y-129517342D02*
X101424397Y-129574485D01*
X101424397Y-129574485D02*
X101385111Y-129888771D01*
X101670825Y-129888771D02*
X101720825Y-129488771D01*
X101713682Y-129545914D02*
X101745825Y-129517342D01*
X101745825Y-129517342D02*
X101806540Y-129488771D01*
X101806540Y-129488771D02*
X101892254Y-129488771D01*
X101892254Y-129488771D02*
X101945825Y-129517342D01*
X101945825Y-129517342D02*
X101967254Y-129574485D01*
X101967254Y-129574485D02*
X101927968Y-129888771D01*
X101967254Y-129574485D02*
X102002968Y-129517342D01*
X102002968Y-129517342D02*
X102063682Y-129488771D01*
X102063682Y-129488771D02*
X102149397Y-129488771D01*
X102149397Y-129488771D02*
X102202968Y-129517342D01*
X102202968Y-129517342D02*
X102224397Y-129574485D01*
X102224397Y-129574485D02*
X102185111Y-129888771D01*
X102727968Y-129888771D02*
X102767254Y-129574485D01*
X102767254Y-129574485D02*
X102745825Y-129517342D01*
X102745825Y-129517342D02*
X102692254Y-129488771D01*
X102692254Y-129488771D02*
X102577968Y-129488771D01*
X102577968Y-129488771D02*
X102517254Y-129517342D01*
X102731540Y-129860200D02*
X102670825Y-129888771D01*
X102670825Y-129888771D02*
X102527968Y-129888771D01*
X102527968Y-129888771D02*
X102474397Y-129860200D01*
X102474397Y-129860200D02*
X102452968Y-129803057D01*
X102452968Y-129803057D02*
X102460111Y-129745914D01*
X102460111Y-129745914D02*
X102495825Y-129688771D01*
X102495825Y-129688771D02*
X102556540Y-129660200D01*
X102556540Y-129660200D02*
X102699397Y-129660200D01*
X102699397Y-129660200D02*
X102760111Y-129631628D01*
X103270825Y-129888771D02*
X103345825Y-129288771D01*
X103274397Y-129860200D02*
X103213682Y-129888771D01*
X103213682Y-129888771D02*
X103099397Y-129888771D01*
X103099397Y-129888771D02*
X103045825Y-129860200D01*
X103045825Y-129860200D02*
X103020825Y-129831628D01*
X103020825Y-129831628D02*
X102999397Y-129774485D01*
X102999397Y-129774485D02*
X103020825Y-129603057D01*
X103020825Y-129603057D02*
X103056539Y-129545914D01*
X103056539Y-129545914D02*
X103088682Y-129517342D01*
X103088682Y-129517342D02*
X103149397Y-129488771D01*
X103149397Y-129488771D02*
X103263682Y-129488771D01*
X103263682Y-129488771D02*
X103317254Y-129517342D01*
X104088682Y-129288771D02*
X104027968Y-129774485D01*
X104027968Y-129774485D02*
X104049397Y-129831628D01*
X104049397Y-129831628D02*
X104074397Y-129860200D01*
X104074397Y-129860200D02*
X104127968Y-129888771D01*
X104127968Y-129888771D02*
X104242254Y-129888771D01*
X104242254Y-129888771D02*
X104302968Y-129860200D01*
X104302968Y-129860200D02*
X104335111Y-129831628D01*
X104335111Y-129831628D02*
X104370825Y-129774485D01*
X104370825Y-129774485D02*
X104431539Y-129288771D01*
X104635110Y-129488771D02*
X104949396Y-129488771D01*
X104949396Y-129488771D02*
X104585110Y-129888771D01*
X104585110Y-129888771D02*
X104899396Y-129888771D01*
X105120824Y-129488771D02*
X105435110Y-129488771D01*
X105435110Y-129488771D02*
X105070824Y-129888771D01*
X105070824Y-129888771D02*
X105385110Y-129888771D01*
X105870824Y-129888771D02*
X105910110Y-129574485D01*
X105910110Y-129574485D02*
X105888681Y-129517342D01*
X105888681Y-129517342D02*
X105835110Y-129488771D01*
X105835110Y-129488771D02*
X105720824Y-129488771D01*
X105720824Y-129488771D02*
X105660110Y-129517342D01*
X105874396Y-129860200D02*
X105813681Y-129888771D01*
X105813681Y-129888771D02*
X105670824Y-129888771D01*
X105670824Y-129888771D02*
X105617253Y-129860200D01*
X105617253Y-129860200D02*
X105595824Y-129803057D01*
X105595824Y-129803057D02*
X105602967Y-129745914D01*
X105602967Y-129745914D02*
X105638681Y-129688771D01*
X105638681Y-129688771D02*
X105699396Y-129660200D01*
X105699396Y-129660200D02*
X105842253Y-129660200D01*
X105842253Y-129660200D02*
X105902967Y-129631628D01*
X106156538Y-129888771D02*
X106206538Y-129488771D01*
X106199395Y-129545914D02*
X106231538Y-129517342D01*
X106231538Y-129517342D02*
X106292253Y-129488771D01*
X106292253Y-129488771D02*
X106377967Y-129488771D01*
X106377967Y-129488771D02*
X106431538Y-129517342D01*
X106431538Y-129517342D02*
X106452967Y-129574485D01*
X106452967Y-129574485D02*
X106413681Y-129888771D01*
X106452967Y-129574485D02*
X106488681Y-129517342D01*
X106488681Y-129517342D02*
X106549395Y-129488771D01*
X106549395Y-129488771D02*
X106635110Y-129488771D01*
X106635110Y-129488771D02*
X106688681Y-129517342D01*
X106688681Y-129517342D02*
X106710110Y-129574485D01*
X106710110Y-129574485D02*
X106670824Y-129888771D01*
X107652967Y-129574485D02*
X107735110Y-129603057D01*
X107735110Y-129603057D02*
X107760110Y-129631628D01*
X107760110Y-129631628D02*
X107781538Y-129688771D01*
X107781538Y-129688771D02*
X107770824Y-129774485D01*
X107770824Y-129774485D02*
X107735110Y-129831628D01*
X107735110Y-129831628D02*
X107702967Y-129860200D01*
X107702967Y-129860200D02*
X107642253Y-129888771D01*
X107642253Y-129888771D02*
X107413681Y-129888771D01*
X107413681Y-129888771D02*
X107488681Y-129288771D01*
X107488681Y-129288771D02*
X107688681Y-129288771D01*
X107688681Y-129288771D02*
X107742253Y-129317342D01*
X107742253Y-129317342D02*
X107767253Y-129345914D01*
X107767253Y-129345914D02*
X107788681Y-129403057D01*
X107788681Y-129403057D02*
X107781538Y-129460200D01*
X107781538Y-129460200D02*
X107745824Y-129517342D01*
X107745824Y-129517342D02*
X107713681Y-129545914D01*
X107713681Y-129545914D02*
X107652967Y-129574485D01*
X107652967Y-129574485D02*
X107452967Y-129574485D01*
X108320824Y-129488771D02*
X108270824Y-129888771D01*
X108063681Y-129488771D02*
X108024396Y-129803057D01*
X108024396Y-129803057D02*
X108045824Y-129860200D01*
X108045824Y-129860200D02*
X108099396Y-129888771D01*
X108099396Y-129888771D02*
X108185110Y-129888771D01*
X108185110Y-129888771D02*
X108245824Y-129860200D01*
X108245824Y-129860200D02*
X108277967Y-129831628D01*
X108520824Y-129488771D02*
X108749395Y-129488771D01*
X108631538Y-129288771D02*
X108567253Y-129803057D01*
X108567253Y-129803057D02*
X108588681Y-129860200D01*
X108588681Y-129860200D02*
X108642253Y-129888771D01*
X108642253Y-129888771D02*
X108699395Y-129888771D01*
X108863681Y-129488771D02*
X109092252Y-129488771D01*
X108974395Y-129288771D02*
X108910110Y-129803057D01*
X108910110Y-129803057D02*
X108931538Y-129860200D01*
X108931538Y-129860200D02*
X108985110Y-129888771D01*
X108985110Y-129888771D02*
X109042252Y-129888771D01*
D11*
X93879949Y-127947952D02*
X93796615Y-128614619D01*
X93868044Y-128043190D02*
X93921615Y-127995571D01*
X93921615Y-127995571D02*
X94022806Y-127947952D01*
X94022806Y-127947952D02*
X94165663Y-127947952D01*
X94165663Y-127947952D02*
X94254949Y-127995571D01*
X94254949Y-127995571D02*
X94290663Y-128090809D01*
X94290663Y-128090809D02*
X94225187Y-128614619D01*
X94844235Y-128614619D02*
X94754949Y-128567000D01*
X94754949Y-128567000D02*
X94713282Y-128519380D01*
X94713282Y-128519380D02*
X94677568Y-128424142D01*
X94677568Y-128424142D02*
X94713282Y-128138428D01*
X94713282Y-128138428D02*
X94772806Y-128043190D01*
X94772806Y-128043190D02*
X94826377Y-127995571D01*
X94826377Y-127995571D02*
X94927568Y-127947952D01*
X94927568Y-127947952D02*
X95070425Y-127947952D01*
X95070425Y-127947952D02*
X95159711Y-127995571D01*
X95159711Y-127995571D02*
X95201377Y-128043190D01*
X95201377Y-128043190D02*
X95237092Y-128138428D01*
X95237092Y-128138428D02*
X95201377Y-128424142D01*
X95201377Y-128424142D02*
X95141854Y-128519380D01*
X95141854Y-128519380D02*
X95088282Y-128567000D01*
X95088282Y-128567000D02*
X94987092Y-128614619D01*
X94987092Y-128614619D02*
X94844235Y-128614619D01*
X95606139Y-128614619D02*
X95689473Y-127947952D01*
X95665663Y-128138428D02*
X95725187Y-128043190D01*
X95725187Y-128043190D02*
X95778758Y-127995571D01*
X95778758Y-127995571D02*
X95879949Y-127947952D01*
X95879949Y-127947952D02*
X95975187Y-127947952D01*
X96165664Y-127947952D02*
X96546616Y-127947952D01*
X96350187Y-127614619D02*
X96243045Y-128471761D01*
X96243045Y-128471761D02*
X96278759Y-128567000D01*
X96278759Y-128567000D02*
X96368045Y-128614619D01*
X96368045Y-128614619D02*
X96463283Y-128614619D01*
X96796616Y-128614619D02*
X96921616Y-127614619D01*
X97225188Y-128614619D02*
X97290664Y-128090809D01*
X97290664Y-128090809D02*
X97254950Y-127995571D01*
X97254950Y-127995571D02*
X97165664Y-127947952D01*
X97165664Y-127947952D02*
X97022807Y-127947952D01*
X97022807Y-127947952D02*
X96921616Y-127995571D01*
X96921616Y-127995571D02*
X96868045Y-128043190D01*
X98088283Y-128567000D02*
X97987093Y-128614619D01*
X97987093Y-128614619D02*
X97796616Y-128614619D01*
X97796616Y-128614619D02*
X97707331Y-128567000D01*
X97707331Y-128567000D02*
X97671616Y-128471761D01*
X97671616Y-128471761D02*
X97719236Y-128090809D01*
X97719236Y-128090809D02*
X97778759Y-127995571D01*
X97778759Y-127995571D02*
X97879950Y-127947952D01*
X97879950Y-127947952D02*
X98070426Y-127947952D01*
X98070426Y-127947952D02*
X98159712Y-127995571D01*
X98159712Y-127995571D02*
X98195426Y-128090809D01*
X98195426Y-128090809D02*
X98183521Y-128186047D01*
X98183521Y-128186047D02*
X97695426Y-128281285D01*
X98558521Y-128614619D02*
X98641855Y-127947952D01*
X98618045Y-128138428D02*
X98677569Y-128043190D01*
X98677569Y-128043190D02*
X98731140Y-127995571D01*
X98731140Y-127995571D02*
X98832331Y-127947952D01*
X98832331Y-127947952D02*
X98927569Y-127947952D01*
X99260903Y-127947952D02*
X99177569Y-128614619D01*
X99248998Y-128043190D02*
X99302569Y-127995571D01*
X99302569Y-127995571D02*
X99403760Y-127947952D01*
X99403760Y-127947952D02*
X99546617Y-127947952D01*
X99546617Y-127947952D02*
X99635903Y-127995571D01*
X99635903Y-127995571D02*
X99671617Y-128090809D01*
X99671617Y-128090809D02*
X99606141Y-128614619D01*
X100040665Y-128567000D02*
X100129950Y-128614619D01*
X100129950Y-128614619D02*
X100320427Y-128614619D01*
X100320427Y-128614619D02*
X100421617Y-128567000D01*
X100421617Y-128567000D02*
X100481141Y-128471761D01*
X100481141Y-128471761D02*
X100487093Y-128424142D01*
X100487093Y-128424142D02*
X100451379Y-128328904D01*
X100451379Y-128328904D02*
X100362093Y-128281285D01*
X100362093Y-128281285D02*
X100219236Y-128281285D01*
X100219236Y-128281285D02*
X100129950Y-128233666D01*
X100129950Y-128233666D02*
X100094236Y-128138428D01*
X100094236Y-128138428D02*
X100100189Y-128090809D01*
X100100189Y-128090809D02*
X100159712Y-127995571D01*
X100159712Y-127995571D02*
X100260903Y-127947952D01*
X100260903Y-127947952D02*
X100403760Y-127947952D01*
X100403760Y-127947952D02*
X100493046Y-127995571D01*
X100832332Y-127947952D02*
X101213284Y-127947952D01*
X101016855Y-127614619D02*
X100909713Y-128471761D01*
X100909713Y-128471761D02*
X100945427Y-128567000D01*
X100945427Y-128567000D02*
X101034713Y-128614619D01*
X101034713Y-128614619D02*
X101129951Y-128614619D01*
X101975189Y-127947952D02*
X101891856Y-128614619D01*
X101546618Y-127947952D02*
X101481142Y-128471761D01*
X101481142Y-128471761D02*
X101516856Y-128567000D01*
X101516856Y-128567000D02*
X101606142Y-128614619D01*
X101606142Y-128614619D02*
X101748999Y-128614619D01*
X101748999Y-128614619D02*
X101850189Y-128567000D01*
X101850189Y-128567000D02*
X101903761Y-128519380D01*
X102796618Y-128614619D02*
X102921618Y-127614619D01*
X102802570Y-128567000D02*
X102701380Y-128614619D01*
X102701380Y-128614619D02*
X102510904Y-128614619D01*
X102510904Y-128614619D02*
X102421618Y-128567000D01*
X102421618Y-128567000D02*
X102379951Y-128519380D01*
X102379951Y-128519380D02*
X102344237Y-128424142D01*
X102344237Y-128424142D02*
X102379951Y-128138428D01*
X102379951Y-128138428D02*
X102439475Y-128043190D01*
X102439475Y-128043190D02*
X102493046Y-127995571D01*
X102493046Y-127995571D02*
X102594237Y-127947952D01*
X102594237Y-127947952D02*
X102784713Y-127947952D01*
X102784713Y-127947952D02*
X102873999Y-127995571D01*
X103272808Y-128614619D02*
X103356142Y-127947952D01*
X103397808Y-127614619D02*
X103344237Y-127662238D01*
X103344237Y-127662238D02*
X103385904Y-127709857D01*
X103385904Y-127709857D02*
X103439475Y-127662238D01*
X103439475Y-127662238D02*
X103397808Y-127614619D01*
X103397808Y-127614619D02*
X103385904Y-127709857D01*
X103891856Y-128614619D02*
X103802570Y-128567000D01*
X103802570Y-128567000D02*
X103760903Y-128519380D01*
X103760903Y-128519380D02*
X103725189Y-128424142D01*
X103725189Y-128424142D02*
X103760903Y-128138428D01*
X103760903Y-128138428D02*
X103820427Y-128043190D01*
X103820427Y-128043190D02*
X103873998Y-127995571D01*
X103873998Y-127995571D02*
X103975189Y-127947952D01*
X103975189Y-127947952D02*
X104118046Y-127947952D01*
X104118046Y-127947952D02*
X104207332Y-127995571D01*
X104207332Y-127995571D02*
X104248998Y-128043190D01*
X104248998Y-128043190D02*
X104284713Y-128138428D01*
X104284713Y-128138428D02*
X104248998Y-128424142D01*
X104248998Y-128424142D02*
X104189475Y-128519380D01*
X104189475Y-128519380D02*
X104135903Y-128567000D01*
X104135903Y-128567000D02*
X104034713Y-128614619D01*
X104034713Y-128614619D02*
X103891856Y-128614619D01*
X104612094Y-128567000D02*
X104701379Y-128614619D01*
X104701379Y-128614619D02*
X104891856Y-128614619D01*
X104891856Y-128614619D02*
X104993046Y-128567000D01*
X104993046Y-128567000D02*
X105052570Y-128471761D01*
X105052570Y-128471761D02*
X105058522Y-128424142D01*
X105058522Y-128424142D02*
X105022808Y-128328904D01*
X105022808Y-128328904D02*
X104933522Y-128281285D01*
X104933522Y-128281285D02*
X104790665Y-128281285D01*
X104790665Y-128281285D02*
X104701379Y-128233666D01*
X104701379Y-128233666D02*
X104665665Y-128138428D01*
X104665665Y-128138428D02*
X104671618Y-128090809D01*
X104671618Y-128090809D02*
X104731141Y-127995571D01*
X104731141Y-127995571D02*
X104832332Y-127947952D01*
X104832332Y-127947952D02*
X104975189Y-127947952D01*
X104975189Y-127947952D02*
X105064475Y-127995571D01*
X105475189Y-128519380D02*
X105516856Y-128567000D01*
X105516856Y-128567000D02*
X105463284Y-128614619D01*
X105463284Y-128614619D02*
X105421618Y-128567000D01*
X105421618Y-128567000D02*
X105475189Y-128519380D01*
X105475189Y-128519380D02*
X105463284Y-128614619D01*
X106373998Y-128567000D02*
X106272808Y-128614619D01*
X106272808Y-128614619D02*
X106082332Y-128614619D01*
X106082332Y-128614619D02*
X105993046Y-128567000D01*
X105993046Y-128567000D02*
X105951379Y-128519380D01*
X105951379Y-128519380D02*
X105915665Y-128424142D01*
X105915665Y-128424142D02*
X105951379Y-128138428D01*
X105951379Y-128138428D02*
X106010903Y-128043190D01*
X106010903Y-128043190D02*
X106064474Y-127995571D01*
X106064474Y-127995571D02*
X106165665Y-127947952D01*
X106165665Y-127947952D02*
X106356141Y-127947952D01*
X106356141Y-127947952D02*
X106445427Y-127995571D01*
X107231141Y-128567000D02*
X107129951Y-128614619D01*
X107129951Y-128614619D02*
X106939475Y-128614619D01*
X106939475Y-128614619D02*
X106850189Y-128567000D01*
X106850189Y-128567000D02*
X106808522Y-128519380D01*
X106808522Y-128519380D02*
X106772808Y-128424142D01*
X106772808Y-128424142D02*
X106808522Y-128138428D01*
X106808522Y-128138428D02*
X106868046Y-128043190D01*
X106868046Y-128043190D02*
X106921617Y-127995571D01*
X106921617Y-127995571D02*
X107022808Y-127947952D01*
X107022808Y-127947952D02*
X107213284Y-127947952D01*
X107213284Y-127947952D02*
X107302570Y-127995571D01*
X91804619Y-127803384D02*
X90804619Y-127678384D01*
X90804619Y-127678384D02*
X91804619Y-127231955D01*
X91804619Y-127231955D02*
X90804619Y-127106955D01*
X92137952Y-125797431D02*
X90709380Y-125618860D01*
X91804619Y-124279574D02*
X90804619Y-124154574D01*
X90804619Y-124154574D02*
X91804619Y-123708145D01*
X91804619Y-123708145D02*
X90804619Y-123583145D01*
X91804619Y-123089098D02*
X91757000Y-123178383D01*
X91757000Y-123178383D02*
X91709380Y-123220050D01*
X91709380Y-123220050D02*
X91614142Y-123255764D01*
X91614142Y-123255764D02*
X91328428Y-123220050D01*
X91328428Y-123220050D02*
X91233190Y-123160526D01*
X91233190Y-123160526D02*
X91185571Y-123106955D01*
X91185571Y-123106955D02*
X91137952Y-123005764D01*
X91137952Y-123005764D02*
X91137952Y-122862907D01*
X91137952Y-122862907D02*
X91185571Y-122773621D01*
X91185571Y-122773621D02*
X91233190Y-122731955D01*
X91233190Y-122731955D02*
X91328428Y-122696240D01*
X91328428Y-122696240D02*
X91614142Y-122731955D01*
X91614142Y-122731955D02*
X91709380Y-122791478D01*
X91709380Y-122791478D02*
X91757000Y-122845050D01*
X91757000Y-122845050D02*
X91804619Y-122946240D01*
X91804619Y-122946240D02*
X91804619Y-123089098D01*
X91804619Y-122327193D02*
X91137952Y-122243859D01*
X91328428Y-122267669D02*
X91233190Y-122208145D01*
X91233190Y-122208145D02*
X91185571Y-122154574D01*
X91185571Y-122154574D02*
X91137952Y-122053383D01*
X91137952Y-122053383D02*
X91137952Y-121958145D01*
X91137952Y-121767668D02*
X91137952Y-121386716D01*
X90804619Y-121583145D02*
X91661761Y-121690288D01*
X91661761Y-121690288D02*
X91757000Y-121654573D01*
X91757000Y-121654573D02*
X91804619Y-121565288D01*
X91804619Y-121565288D02*
X91804619Y-121470049D01*
X91804619Y-121136716D02*
X90804619Y-121011716D01*
X91804619Y-120708144D02*
X91280809Y-120642668D01*
X91280809Y-120642668D02*
X91185571Y-120678382D01*
X91185571Y-120678382D02*
X91137952Y-120767668D01*
X91137952Y-120767668D02*
X91137952Y-120910525D01*
X91137952Y-120910525D02*
X91185571Y-121011716D01*
X91185571Y-121011716D02*
X91233190Y-121065287D01*
X91757000Y-119845049D02*
X91804619Y-119946239D01*
X91804619Y-119946239D02*
X91804619Y-120136716D01*
X91804619Y-120136716D02*
X91757000Y-120226001D01*
X91757000Y-120226001D02*
X91661761Y-120261716D01*
X91661761Y-120261716D02*
X91280809Y-120214097D01*
X91280809Y-120214097D02*
X91185571Y-120154573D01*
X91185571Y-120154573D02*
X91137952Y-120053382D01*
X91137952Y-120053382D02*
X91137952Y-119862906D01*
X91137952Y-119862906D02*
X91185571Y-119773620D01*
X91185571Y-119773620D02*
X91280809Y-119737906D01*
X91280809Y-119737906D02*
X91376047Y-119749811D01*
X91376047Y-119749811D02*
X91471285Y-120237906D01*
X91804619Y-119374811D02*
X91137952Y-119291477D01*
X91328428Y-119315287D02*
X91233190Y-119255763D01*
X91233190Y-119255763D02*
X91185571Y-119202192D01*
X91185571Y-119202192D02*
X91137952Y-119101001D01*
X91137952Y-119101001D02*
X91137952Y-119005763D01*
X91137952Y-118672429D02*
X91804619Y-118755763D01*
X91233190Y-118684334D02*
X91185571Y-118630763D01*
X91185571Y-118630763D02*
X91137952Y-118529572D01*
X91137952Y-118529572D02*
X91137952Y-118386715D01*
X91137952Y-118386715D02*
X91185571Y-118297429D01*
X91185571Y-118297429D02*
X91280809Y-118261715D01*
X91280809Y-118261715D02*
X91804619Y-118327191D01*
X91757000Y-117892667D02*
X91804619Y-117755763D01*
X91804619Y-117755763D02*
X91804619Y-117517667D01*
X91804619Y-117517667D02*
X91757000Y-117416477D01*
X91757000Y-117416477D02*
X91709380Y-117362905D01*
X91709380Y-117362905D02*
X91614142Y-117303382D01*
X91614142Y-117303382D02*
X91518904Y-117291477D01*
X91518904Y-117291477D02*
X91423666Y-117327191D01*
X91423666Y-117327191D02*
X91376047Y-117368858D01*
X91376047Y-117368858D02*
X91328428Y-117458144D01*
X91328428Y-117458144D02*
X91280809Y-117642667D01*
X91280809Y-117642667D02*
X91233190Y-117731953D01*
X91233190Y-117731953D02*
X91185571Y-117773620D01*
X91185571Y-117773620D02*
X91090333Y-117809334D01*
X91090333Y-117809334D02*
X90995095Y-117797429D01*
X90995095Y-117797429D02*
X90899857Y-117737905D01*
X90899857Y-117737905D02*
X90852238Y-117684334D01*
X90852238Y-117684334D02*
X90804619Y-117583144D01*
X90804619Y-117583144D02*
X90804619Y-117345048D01*
X90804619Y-117345048D02*
X90852238Y-117208144D01*
X91137952Y-116958143D02*
X91137952Y-116577191D01*
X90804619Y-116773620D02*
X91661761Y-116880763D01*
X91661761Y-116880763D02*
X91757000Y-116845048D01*
X91757000Y-116845048D02*
X91804619Y-116755763D01*
X91804619Y-116755763D02*
X91804619Y-116660524D01*
X91137952Y-115815286D02*
X91804619Y-115898619D01*
X91137952Y-116243857D02*
X91661761Y-116309334D01*
X91661761Y-116309334D02*
X91757000Y-116273619D01*
X91757000Y-116273619D02*
X91804619Y-116184334D01*
X91804619Y-116184334D02*
X91804619Y-116041476D01*
X91804619Y-116041476D02*
X91757000Y-115940286D01*
X91757000Y-115940286D02*
X91709380Y-115886714D01*
X91804619Y-114993857D02*
X90804619Y-114868857D01*
X91757000Y-114987905D02*
X91804619Y-115089095D01*
X91804619Y-115089095D02*
X91804619Y-115279572D01*
X91804619Y-115279572D02*
X91757000Y-115368857D01*
X91757000Y-115368857D02*
X91709380Y-115410524D01*
X91709380Y-115410524D02*
X91614142Y-115446238D01*
X91614142Y-115446238D02*
X91328428Y-115410524D01*
X91328428Y-115410524D02*
X91233190Y-115351000D01*
X91233190Y-115351000D02*
X91185571Y-115297429D01*
X91185571Y-115297429D02*
X91137952Y-115196238D01*
X91137952Y-115196238D02*
X91137952Y-115005762D01*
X91137952Y-115005762D02*
X91185571Y-114916476D01*
X91804619Y-114517667D02*
X91137952Y-114434333D01*
X90804619Y-114392667D02*
X90852238Y-114446238D01*
X90852238Y-114446238D02*
X90899857Y-114404571D01*
X90899857Y-114404571D02*
X90852238Y-114351000D01*
X90852238Y-114351000D02*
X90804619Y-114392667D01*
X90804619Y-114392667D02*
X90899857Y-114404571D01*
X91804619Y-113898620D02*
X91757000Y-113987905D01*
X91757000Y-113987905D02*
X91709380Y-114029572D01*
X91709380Y-114029572D02*
X91614142Y-114065286D01*
X91614142Y-114065286D02*
X91328428Y-114029572D01*
X91328428Y-114029572D02*
X91233190Y-113970048D01*
X91233190Y-113970048D02*
X91185571Y-113916477D01*
X91185571Y-113916477D02*
X91137952Y-113815286D01*
X91137952Y-113815286D02*
X91137952Y-113672429D01*
X91137952Y-113672429D02*
X91185571Y-113583143D01*
X91185571Y-113583143D02*
X91233190Y-113541477D01*
X91233190Y-113541477D02*
X91328428Y-113505762D01*
X91328428Y-113505762D02*
X91614142Y-113541477D01*
X91614142Y-113541477D02*
X91709380Y-113601000D01*
X91709380Y-113601000D02*
X91757000Y-113654572D01*
X91757000Y-113654572D02*
X91804619Y-113755762D01*
X91804619Y-113755762D02*
X91804619Y-113898620D01*
X91757000Y-113178381D02*
X91804619Y-113089096D01*
X91804619Y-113089096D02*
X91804619Y-112898619D01*
X91804619Y-112898619D02*
X91757000Y-112797429D01*
X91757000Y-112797429D02*
X91661761Y-112737905D01*
X91661761Y-112737905D02*
X91614142Y-112731953D01*
X91614142Y-112731953D02*
X91518904Y-112767667D01*
X91518904Y-112767667D02*
X91471285Y-112856953D01*
X91471285Y-112856953D02*
X91471285Y-112999810D01*
X91471285Y-112999810D02*
X91423666Y-113089096D01*
X91423666Y-113089096D02*
X91328428Y-113124810D01*
X91328428Y-113124810D02*
X91280809Y-113118858D01*
X91280809Y-113118858D02*
X91185571Y-113059334D01*
X91185571Y-113059334D02*
X91137952Y-112958143D01*
X91137952Y-112958143D02*
X91137952Y-112815286D01*
X91137952Y-112815286D02*
X91185571Y-112726000D01*
D10*
X96338095Y-111206819D02*
X96909523Y-111206819D01*
X96623809Y-112206819D02*
X96623809Y-111206819D01*
X97242857Y-112206819D02*
X97242857Y-111206819D01*
X97242857Y-111206819D02*
X97623809Y-111206819D01*
X97623809Y-111206819D02*
X97719047Y-111254438D01*
X97719047Y-111254438D02*
X97766666Y-111302057D01*
X97766666Y-111302057D02*
X97814285Y-111397295D01*
X97814285Y-111397295D02*
X97814285Y-111540152D01*
X97814285Y-111540152D02*
X97766666Y-111635390D01*
X97766666Y-111635390D02*
X97719047Y-111683009D01*
X97719047Y-111683009D02*
X97623809Y-111730628D01*
X97623809Y-111730628D02*
X97242857Y-111730628D01*
X98671428Y-111540152D02*
X98671428Y-112206819D01*
X98433333Y-111159200D02*
X98195238Y-111873485D01*
X98195238Y-111873485D02*
X98814285Y-111873485D01*
X103738095Y-84206819D02*
X104309523Y-84206819D01*
X104023809Y-85206819D02*
X104023809Y-84206819D01*
X104642857Y-85206819D02*
X104642857Y-84206819D01*
X104642857Y-84206819D02*
X105023809Y-84206819D01*
X105023809Y-84206819D02*
X105119047Y-84254438D01*
X105119047Y-84254438D02*
X105166666Y-84302057D01*
X105166666Y-84302057D02*
X105214285Y-84397295D01*
X105214285Y-84397295D02*
X105214285Y-84540152D01*
X105214285Y-84540152D02*
X105166666Y-84635390D01*
X105166666Y-84635390D02*
X105119047Y-84683009D01*
X105119047Y-84683009D02*
X105023809Y-84730628D01*
X105023809Y-84730628D02*
X104642857Y-84730628D01*
X105547619Y-84206819D02*
X106166666Y-84206819D01*
X106166666Y-84206819D02*
X105833333Y-84587771D01*
X105833333Y-84587771D02*
X105976190Y-84587771D01*
X105976190Y-84587771D02*
X106071428Y-84635390D01*
X106071428Y-84635390D02*
X106119047Y-84683009D01*
X106119047Y-84683009D02*
X106166666Y-84778247D01*
X106166666Y-84778247D02*
X106166666Y-85016342D01*
X106166666Y-85016342D02*
X106119047Y-85111580D01*
X106119047Y-85111580D02*
X106071428Y-85159200D01*
X106071428Y-85159200D02*
X105976190Y-85206819D01*
X105976190Y-85206819D02*
X105690476Y-85206819D01*
X105690476Y-85206819D02*
X105595238Y-85159200D01*
X105595238Y-85159200D02*
X105547619Y-85111580D01*
X104338095Y-111606819D02*
X104909523Y-111606819D01*
X104623809Y-112606819D02*
X104623809Y-111606819D01*
X105242857Y-112606819D02*
X105242857Y-111606819D01*
X105242857Y-111606819D02*
X105623809Y-111606819D01*
X105623809Y-111606819D02*
X105719047Y-111654438D01*
X105719047Y-111654438D02*
X105766666Y-111702057D01*
X105766666Y-111702057D02*
X105814285Y-111797295D01*
X105814285Y-111797295D02*
X105814285Y-111940152D01*
X105814285Y-111940152D02*
X105766666Y-112035390D01*
X105766666Y-112035390D02*
X105719047Y-112083009D01*
X105719047Y-112083009D02*
X105623809Y-112130628D01*
X105623809Y-112130628D02*
X105242857Y-112130628D01*
X106195238Y-111702057D02*
X106242857Y-111654438D01*
X106242857Y-111654438D02*
X106338095Y-111606819D01*
X106338095Y-111606819D02*
X106576190Y-111606819D01*
X106576190Y-111606819D02*
X106671428Y-111654438D01*
X106671428Y-111654438D02*
X106719047Y-111702057D01*
X106719047Y-111702057D02*
X106766666Y-111797295D01*
X106766666Y-111797295D02*
X106766666Y-111892533D01*
X106766666Y-111892533D02*
X106719047Y-112035390D01*
X106719047Y-112035390D02*
X106147619Y-112606819D01*
X106147619Y-112606819D02*
X106766666Y-112606819D01*
X96738095Y-93606819D02*
X97309523Y-93606819D01*
X97023809Y-94606819D02*
X97023809Y-93606819D01*
X97642857Y-94606819D02*
X97642857Y-93606819D01*
X97642857Y-93606819D02*
X98023809Y-93606819D01*
X98023809Y-93606819D02*
X98119047Y-93654438D01*
X98119047Y-93654438D02*
X98166666Y-93702057D01*
X98166666Y-93702057D02*
X98214285Y-93797295D01*
X98214285Y-93797295D02*
X98214285Y-93940152D01*
X98214285Y-93940152D02*
X98166666Y-94035390D01*
X98166666Y-94035390D02*
X98119047Y-94083009D01*
X98119047Y-94083009D02*
X98023809Y-94130628D01*
X98023809Y-94130628D02*
X97642857Y-94130628D01*
X99166666Y-94606819D02*
X98595238Y-94606819D01*
X98880952Y-94606819D02*
X98880952Y-93606819D01*
X98880952Y-93606819D02*
X98785714Y-93749676D01*
X98785714Y-93749676D02*
X98690476Y-93844914D01*
X98690476Y-93844914D02*
X98595238Y-93892533D01*
X89854819Y-72361904D02*
X90664342Y-72361904D01*
X90664342Y-72361904D02*
X90759580Y-72314285D01*
X90759580Y-72314285D02*
X90807200Y-72266666D01*
X90807200Y-72266666D02*
X90854819Y-72171428D01*
X90854819Y-72171428D02*
X90854819Y-71980952D01*
X90854819Y-71980952D02*
X90807200Y-71885714D01*
X90807200Y-71885714D02*
X90759580Y-71838095D01*
X90759580Y-71838095D02*
X90664342Y-71790476D01*
X90664342Y-71790476D02*
X89854819Y-71790476D01*
X90188152Y-70885714D02*
X90854819Y-70885714D01*
X89807200Y-71123809D02*
X90521485Y-71361904D01*
X90521485Y-71361904D02*
X90521485Y-70742857D01*
X103254819Y-73361904D02*
X104064342Y-73361904D01*
X104064342Y-73361904D02*
X104159580Y-73314285D01*
X104159580Y-73314285D02*
X104207200Y-73266666D01*
X104207200Y-73266666D02*
X104254819Y-73171428D01*
X104254819Y-73171428D02*
X104254819Y-72980952D01*
X104254819Y-72980952D02*
X104207200Y-72885714D01*
X104207200Y-72885714D02*
X104159580Y-72838095D01*
X104159580Y-72838095D02*
X104064342Y-72790476D01*
X104064342Y-72790476D02*
X103254819Y-72790476D01*
X103254819Y-72409523D02*
X103254819Y-71790476D01*
X103254819Y-71790476D02*
X103635771Y-72123809D01*
X103635771Y-72123809D02*
X103635771Y-71980952D01*
X103635771Y-71980952D02*
X103683390Y-71885714D01*
X103683390Y-71885714D02*
X103731009Y-71838095D01*
X103731009Y-71838095D02*
X103826247Y-71790476D01*
X103826247Y-71790476D02*
X104064342Y-71790476D01*
X104064342Y-71790476D02*
X104159580Y-71838095D01*
X104159580Y-71838095D02*
X104207200Y-71885714D01*
X104207200Y-71885714D02*
X104254819Y-71980952D01*
X104254819Y-71980952D02*
X104254819Y-72266666D01*
X104254819Y-72266666D02*
X104207200Y-72361904D01*
X104207200Y-72361904D02*
X104159580Y-72409523D01*
X103084819Y-95132857D02*
X102608628Y-95466190D01*
X103084819Y-95704285D02*
X102084819Y-95704285D01*
X102084819Y-95704285D02*
X102084819Y-95323333D01*
X102084819Y-95323333D02*
X102132438Y-95228095D01*
X102132438Y-95228095D02*
X102180057Y-95180476D01*
X102180057Y-95180476D02*
X102275295Y-95132857D01*
X102275295Y-95132857D02*
X102418152Y-95132857D01*
X102418152Y-95132857D02*
X102513390Y-95180476D01*
X102513390Y-95180476D02*
X102561009Y-95228095D01*
X102561009Y-95228095D02*
X102608628Y-95323333D01*
X102608628Y-95323333D02*
X102608628Y-95704285D01*
X103084819Y-94180476D02*
X103084819Y-94751904D01*
X103084819Y-94466190D02*
X102084819Y-94466190D01*
X102084819Y-94466190D02*
X102227676Y-94561428D01*
X102227676Y-94561428D02*
X102322914Y-94656666D01*
X102322914Y-94656666D02*
X102370533Y-94751904D01*
X102180057Y-93799523D02*
X102132438Y-93751904D01*
X102132438Y-93751904D02*
X102084819Y-93656666D01*
X102084819Y-93656666D02*
X102084819Y-93418571D01*
X102084819Y-93418571D02*
X102132438Y-93323333D01*
X102132438Y-93323333D02*
X102180057Y-93275714D01*
X102180057Y-93275714D02*
X102275295Y-93228095D01*
X102275295Y-93228095D02*
X102370533Y-93228095D01*
X102370533Y-93228095D02*
X102513390Y-93275714D01*
X102513390Y-93275714D02*
X103084819Y-93847142D01*
X103084819Y-93847142D02*
X103084819Y-93228095D01*
X105212142Y-92404819D02*
X104878809Y-91928628D01*
X104640714Y-92404819D02*
X104640714Y-91404819D01*
X104640714Y-91404819D02*
X105021666Y-91404819D01*
X105021666Y-91404819D02*
X105116904Y-91452438D01*
X105116904Y-91452438D02*
X105164523Y-91500057D01*
X105164523Y-91500057D02*
X105212142Y-91595295D01*
X105212142Y-91595295D02*
X105212142Y-91738152D01*
X105212142Y-91738152D02*
X105164523Y-91833390D01*
X105164523Y-91833390D02*
X105116904Y-91881009D01*
X105116904Y-91881009D02*
X105021666Y-91928628D01*
X105021666Y-91928628D02*
X104640714Y-91928628D01*
X106164523Y-92404819D02*
X105593095Y-92404819D01*
X105878809Y-92404819D02*
X105878809Y-91404819D01*
X105878809Y-91404819D02*
X105783571Y-91547676D01*
X105783571Y-91547676D02*
X105688333Y-91642914D01*
X105688333Y-91642914D02*
X105593095Y-91690533D01*
X107116904Y-92404819D02*
X106545476Y-92404819D01*
X106831190Y-92404819D02*
X106831190Y-91404819D01*
X106831190Y-91404819D02*
X106735952Y-91547676D01*
X106735952Y-91547676D02*
X106640714Y-91642914D01*
X106640714Y-91642914D02*
X106545476Y-91690533D01*
X103757142Y-82054819D02*
X103423809Y-81578628D01*
X103185714Y-82054819D02*
X103185714Y-81054819D01*
X103185714Y-81054819D02*
X103566666Y-81054819D01*
X103566666Y-81054819D02*
X103661904Y-81102438D01*
X103661904Y-81102438D02*
X103709523Y-81150057D01*
X103709523Y-81150057D02*
X103757142Y-81245295D01*
X103757142Y-81245295D02*
X103757142Y-81388152D01*
X103757142Y-81388152D02*
X103709523Y-81483390D01*
X103709523Y-81483390D02*
X103661904Y-81531009D01*
X103661904Y-81531009D02*
X103566666Y-81578628D01*
X103566666Y-81578628D02*
X103185714Y-81578628D01*
X104709523Y-82054819D02*
X104138095Y-82054819D01*
X104423809Y-82054819D02*
X104423809Y-81054819D01*
X104423809Y-81054819D02*
X104328571Y-81197676D01*
X104328571Y-81197676D02*
X104233333Y-81292914D01*
X104233333Y-81292914D02*
X104138095Y-81340533D01*
X105328571Y-81054819D02*
X105423809Y-81054819D01*
X105423809Y-81054819D02*
X105519047Y-81102438D01*
X105519047Y-81102438D02*
X105566666Y-81150057D01*
X105566666Y-81150057D02*
X105614285Y-81245295D01*
X105614285Y-81245295D02*
X105661904Y-81435771D01*
X105661904Y-81435771D02*
X105661904Y-81673866D01*
X105661904Y-81673866D02*
X105614285Y-81864342D01*
X105614285Y-81864342D02*
X105566666Y-81959580D01*
X105566666Y-81959580D02*
X105519047Y-82007200D01*
X105519047Y-82007200D02*
X105423809Y-82054819D01*
X105423809Y-82054819D02*
X105328571Y-82054819D01*
X105328571Y-82054819D02*
X105233333Y-82007200D01*
X105233333Y-82007200D02*
X105185714Y-81959580D01*
X105185714Y-81959580D02*
X105138095Y-81864342D01*
X105138095Y-81864342D02*
X105090476Y-81673866D01*
X105090476Y-81673866D02*
X105090476Y-81435771D01*
X105090476Y-81435771D02*
X105138095Y-81245295D01*
X105138095Y-81245295D02*
X105185714Y-81150057D01*
X105185714Y-81150057D02*
X105233333Y-81102438D01*
X105233333Y-81102438D02*
X105328571Y-81054819D01*
X97854819Y-78566666D02*
X97378628Y-78899999D01*
X97854819Y-79138094D02*
X96854819Y-79138094D01*
X96854819Y-79138094D02*
X96854819Y-78757142D01*
X96854819Y-78757142D02*
X96902438Y-78661904D01*
X96902438Y-78661904D02*
X96950057Y-78614285D01*
X96950057Y-78614285D02*
X97045295Y-78566666D01*
X97045295Y-78566666D02*
X97188152Y-78566666D01*
X97188152Y-78566666D02*
X97283390Y-78614285D01*
X97283390Y-78614285D02*
X97331009Y-78661904D01*
X97331009Y-78661904D02*
X97378628Y-78757142D01*
X97378628Y-78757142D02*
X97378628Y-79138094D01*
X96950057Y-78185713D02*
X96902438Y-78138094D01*
X96902438Y-78138094D02*
X96854819Y-78042856D01*
X96854819Y-78042856D02*
X96854819Y-77804761D01*
X96854819Y-77804761D02*
X96902438Y-77709523D01*
X96902438Y-77709523D02*
X96950057Y-77661904D01*
X96950057Y-77661904D02*
X97045295Y-77614285D01*
X97045295Y-77614285D02*
X97140533Y-77614285D01*
X97140533Y-77614285D02*
X97283390Y-77661904D01*
X97283390Y-77661904D02*
X97854819Y-78233332D01*
X97854819Y-78233332D02*
X97854819Y-77614285D01*
X103024819Y-78656666D02*
X102548628Y-78989999D01*
X103024819Y-79228094D02*
X102024819Y-79228094D01*
X102024819Y-79228094D02*
X102024819Y-78847142D01*
X102024819Y-78847142D02*
X102072438Y-78751904D01*
X102072438Y-78751904D02*
X102120057Y-78704285D01*
X102120057Y-78704285D02*
X102215295Y-78656666D01*
X102215295Y-78656666D02*
X102358152Y-78656666D01*
X102358152Y-78656666D02*
X102453390Y-78704285D01*
X102453390Y-78704285D02*
X102501009Y-78751904D01*
X102501009Y-78751904D02*
X102548628Y-78847142D01*
X102548628Y-78847142D02*
X102548628Y-79228094D01*
X103024819Y-77704285D02*
X103024819Y-78275713D01*
X103024819Y-77989999D02*
X102024819Y-77989999D01*
X102024819Y-77989999D02*
X102167676Y-78085237D01*
X102167676Y-78085237D02*
X102262914Y-78180475D01*
X102262914Y-78180475D02*
X102310533Y-78275713D01*
X105400057Y-96957738D02*
X105352438Y-97052976D01*
X105352438Y-97052976D02*
X105257200Y-97148214D01*
X105257200Y-97148214D02*
X105114342Y-97291071D01*
X105114342Y-97291071D02*
X105066723Y-97386309D01*
X105066723Y-97386309D02*
X105066723Y-97481547D01*
X105304819Y-97433928D02*
X105257200Y-97529166D01*
X105257200Y-97529166D02*
X105161961Y-97624404D01*
X105161961Y-97624404D02*
X104971485Y-97672023D01*
X104971485Y-97672023D02*
X104638152Y-97672023D01*
X104638152Y-97672023D02*
X104447676Y-97624404D01*
X104447676Y-97624404D02*
X104352438Y-97529166D01*
X104352438Y-97529166D02*
X104304819Y-97433928D01*
X104304819Y-97433928D02*
X104304819Y-97243452D01*
X104304819Y-97243452D02*
X104352438Y-97148214D01*
X104352438Y-97148214D02*
X104447676Y-97052976D01*
X104447676Y-97052976D02*
X104638152Y-97005357D01*
X104638152Y-97005357D02*
X104971485Y-97005357D01*
X104971485Y-97005357D02*
X105161961Y-97052976D01*
X105161961Y-97052976D02*
X105257200Y-97148214D01*
X105257200Y-97148214D02*
X105304819Y-97243452D01*
X105304819Y-97243452D02*
X105304819Y-97433928D01*
X105304819Y-96052976D02*
X105304819Y-96624404D01*
X105304819Y-96338690D02*
X104304819Y-96338690D01*
X104304819Y-96338690D02*
X104447676Y-96433928D01*
X104447676Y-96433928D02*
X104542914Y-96529166D01*
X104542914Y-96529166D02*
X104590533Y-96624404D01*
X107994819Y-132533333D02*
X108709104Y-132533333D01*
X108709104Y-132533333D02*
X108851961Y-132580952D01*
X108851961Y-132580952D02*
X108947200Y-132676190D01*
X108947200Y-132676190D02*
X108994819Y-132819047D01*
X108994819Y-132819047D02*
X108994819Y-132914285D01*
X108328152Y-131628571D02*
X108994819Y-131628571D01*
X107947200Y-131866666D02*
X108661485Y-132104761D01*
X108661485Y-132104761D02*
X108661485Y-131485714D01*
X111166666Y-68074819D02*
X111166666Y-68789104D01*
X111166666Y-68789104D02*
X111119047Y-68931961D01*
X111119047Y-68931961D02*
X111023809Y-69027200D01*
X111023809Y-69027200D02*
X110880952Y-69074819D01*
X110880952Y-69074819D02*
X110785714Y-69074819D01*
X111547619Y-68074819D02*
X112166666Y-68074819D01*
X112166666Y-68074819D02*
X111833333Y-68455771D01*
X111833333Y-68455771D02*
X111976190Y-68455771D01*
X111976190Y-68455771D02*
X112071428Y-68503390D01*
X112071428Y-68503390D02*
X112119047Y-68551009D01*
X112119047Y-68551009D02*
X112166666Y-68646247D01*
X112166666Y-68646247D02*
X112166666Y-68884342D01*
X112166666Y-68884342D02*
X112119047Y-68979580D01*
X112119047Y-68979580D02*
X112071428Y-69027200D01*
X112071428Y-69027200D02*
X111976190Y-69074819D01*
X111976190Y-69074819D02*
X111690476Y-69074819D01*
X111690476Y-69074819D02*
X111595238Y-69027200D01*
X111595238Y-69027200D02*
X111547619Y-68979580D01*
X87666666Y-68074819D02*
X87666666Y-68789104D01*
X87666666Y-68789104D02*
X87619047Y-68931961D01*
X87619047Y-68931961D02*
X87523809Y-69027200D01*
X87523809Y-69027200D02*
X87380952Y-69074819D01*
X87380952Y-69074819D02*
X87285714Y-69074819D01*
X88095238Y-68170057D02*
X88142857Y-68122438D01*
X88142857Y-68122438D02*
X88238095Y-68074819D01*
X88238095Y-68074819D02*
X88476190Y-68074819D01*
X88476190Y-68074819D02*
X88571428Y-68122438D01*
X88571428Y-68122438D02*
X88619047Y-68170057D01*
X88619047Y-68170057D02*
X88666666Y-68265295D01*
X88666666Y-68265295D02*
X88666666Y-68360533D01*
X88666666Y-68360533D02*
X88619047Y-68503390D01*
X88619047Y-68503390D02*
X88047619Y-69074819D01*
X88047619Y-69074819D02*
X88666666Y-69074819D01*
X109054819Y-94138094D02*
X108054819Y-94138094D01*
X108054819Y-94138094D02*
X108054819Y-93899999D01*
X108054819Y-93899999D02*
X108102438Y-93757142D01*
X108102438Y-93757142D02*
X108197676Y-93661904D01*
X108197676Y-93661904D02*
X108292914Y-93614285D01*
X108292914Y-93614285D02*
X108483390Y-93566666D01*
X108483390Y-93566666D02*
X108626247Y-93566666D01*
X108626247Y-93566666D02*
X108816723Y-93614285D01*
X108816723Y-93614285D02*
X108911961Y-93661904D01*
X108911961Y-93661904D02*
X109007200Y-93757142D01*
X109007200Y-93757142D02*
X109054819Y-93899999D01*
X109054819Y-93899999D02*
X109054819Y-94138094D01*
X108150057Y-93185713D02*
X108102438Y-93138094D01*
X108102438Y-93138094D02*
X108054819Y-93042856D01*
X108054819Y-93042856D02*
X108054819Y-92804761D01*
X108054819Y-92804761D02*
X108102438Y-92709523D01*
X108102438Y-92709523D02*
X108150057Y-92661904D01*
X108150057Y-92661904D02*
X108245295Y-92614285D01*
X108245295Y-92614285D02*
X108340533Y-92614285D01*
X108340533Y-92614285D02*
X108483390Y-92661904D01*
X108483390Y-92661904D02*
X109054819Y-93233332D01*
X109054819Y-93233332D02*
X109054819Y-92614285D01*
D12*
X108478571Y-70577190D02*
X108454762Y-70601000D01*
X108454762Y-70601000D02*
X108383333Y-70624809D01*
X108383333Y-70624809D02*
X108335714Y-70624809D01*
X108335714Y-70624809D02*
X108264286Y-70601000D01*
X108264286Y-70601000D02*
X108216667Y-70553380D01*
X108216667Y-70553380D02*
X108192857Y-70505761D01*
X108192857Y-70505761D02*
X108169048Y-70410523D01*
X108169048Y-70410523D02*
X108169048Y-70339095D01*
X108169048Y-70339095D02*
X108192857Y-70243857D01*
X108192857Y-70243857D02*
X108216667Y-70196238D01*
X108216667Y-70196238D02*
X108264286Y-70148619D01*
X108264286Y-70148619D02*
X108335714Y-70124809D01*
X108335714Y-70124809D02*
X108383333Y-70124809D01*
X108383333Y-70124809D02*
X108454762Y-70148619D01*
X108454762Y-70148619D02*
X108478571Y-70172428D01*
X108954762Y-70624809D02*
X108669048Y-70624809D01*
X108811905Y-70624809D02*
X108811905Y-70124809D01*
X108811905Y-70124809D02*
X108764286Y-70196238D01*
X108764286Y-70196238D02*
X108716667Y-70243857D01*
X108716667Y-70243857D02*
X108669048Y-70267666D01*
X109264285Y-70124809D02*
X109311904Y-70124809D01*
X109311904Y-70124809D02*
X109359523Y-70148619D01*
X109359523Y-70148619D02*
X109383333Y-70172428D01*
X109383333Y-70172428D02*
X109407142Y-70220047D01*
X109407142Y-70220047D02*
X109430952Y-70315285D01*
X109430952Y-70315285D02*
X109430952Y-70434333D01*
X109430952Y-70434333D02*
X109407142Y-70529571D01*
X109407142Y-70529571D02*
X109383333Y-70577190D01*
X109383333Y-70577190D02*
X109359523Y-70601000D01*
X109359523Y-70601000D02*
X109311904Y-70624809D01*
X109311904Y-70624809D02*
X109264285Y-70624809D01*
X109264285Y-70624809D02*
X109216666Y-70601000D01*
X109216666Y-70601000D02*
X109192857Y-70577190D01*
X109192857Y-70577190D02*
X109169047Y-70529571D01*
X109169047Y-70529571D02*
X109145238Y-70434333D01*
X109145238Y-70434333D02*
X109145238Y-70315285D01*
X109145238Y-70315285D02*
X109169047Y-70220047D01*
X109169047Y-70220047D02*
X109192857Y-70172428D01*
X109192857Y-70172428D02*
X109216666Y-70148619D01*
X109216666Y-70148619D02*
X109264285Y-70124809D01*
D10*
X109359580Y-76566666D02*
X109407200Y-76614285D01*
X109407200Y-76614285D02*
X109454819Y-76757142D01*
X109454819Y-76757142D02*
X109454819Y-76852380D01*
X109454819Y-76852380D02*
X109407200Y-76995237D01*
X109407200Y-76995237D02*
X109311961Y-77090475D01*
X109311961Y-77090475D02*
X109216723Y-77138094D01*
X109216723Y-77138094D02*
X109026247Y-77185713D01*
X109026247Y-77185713D02*
X108883390Y-77185713D01*
X108883390Y-77185713D02*
X108692914Y-77138094D01*
X108692914Y-77138094D02*
X108597676Y-77090475D01*
X108597676Y-77090475D02*
X108502438Y-76995237D01*
X108502438Y-76995237D02*
X108454819Y-76852380D01*
X108454819Y-76852380D02*
X108454819Y-76757142D01*
X108454819Y-76757142D02*
X108502438Y-76614285D01*
X108502438Y-76614285D02*
X108550057Y-76566666D01*
X109454819Y-76090475D02*
X109454819Y-75899999D01*
X109454819Y-75899999D02*
X109407200Y-75804761D01*
X109407200Y-75804761D02*
X109359580Y-75757142D01*
X109359580Y-75757142D02*
X109216723Y-75661904D01*
X109216723Y-75661904D02*
X109026247Y-75614285D01*
X109026247Y-75614285D02*
X108645295Y-75614285D01*
X108645295Y-75614285D02*
X108550057Y-75661904D01*
X108550057Y-75661904D02*
X108502438Y-75709523D01*
X108502438Y-75709523D02*
X108454819Y-75804761D01*
X108454819Y-75804761D02*
X108454819Y-75995237D01*
X108454819Y-75995237D02*
X108502438Y-76090475D01*
X108502438Y-76090475D02*
X108550057Y-76138094D01*
X108550057Y-76138094D02*
X108645295Y-76185713D01*
X108645295Y-76185713D02*
X108883390Y-76185713D01*
X108883390Y-76185713D02*
X108978628Y-76138094D01*
X108978628Y-76138094D02*
X109026247Y-76090475D01*
X109026247Y-76090475D02*
X109073866Y-75995237D01*
X109073866Y-75995237D02*
X109073866Y-75804761D01*
X109073866Y-75804761D02*
X109026247Y-75709523D01*
X109026247Y-75709523D02*
X108978628Y-75661904D01*
X108978628Y-75661904D02*
X108883390Y-75614285D01*
X91433333Y-76959580D02*
X91385714Y-77007200D01*
X91385714Y-77007200D02*
X91242857Y-77054819D01*
X91242857Y-77054819D02*
X91147619Y-77054819D01*
X91147619Y-77054819D02*
X91004762Y-77007200D01*
X91004762Y-77007200D02*
X90909524Y-76911961D01*
X90909524Y-76911961D02*
X90861905Y-76816723D01*
X90861905Y-76816723D02*
X90814286Y-76626247D01*
X90814286Y-76626247D02*
X90814286Y-76483390D01*
X90814286Y-76483390D02*
X90861905Y-76292914D01*
X90861905Y-76292914D02*
X90909524Y-76197676D01*
X90909524Y-76197676D02*
X91004762Y-76102438D01*
X91004762Y-76102438D02*
X91147619Y-76054819D01*
X91147619Y-76054819D02*
X91242857Y-76054819D01*
X91242857Y-76054819D02*
X91385714Y-76102438D01*
X91385714Y-76102438D02*
X91433333Y-76150057D01*
X92004762Y-76483390D02*
X91909524Y-76435771D01*
X91909524Y-76435771D02*
X91861905Y-76388152D01*
X91861905Y-76388152D02*
X91814286Y-76292914D01*
X91814286Y-76292914D02*
X91814286Y-76245295D01*
X91814286Y-76245295D02*
X91861905Y-76150057D01*
X91861905Y-76150057D02*
X91909524Y-76102438D01*
X91909524Y-76102438D02*
X92004762Y-76054819D01*
X92004762Y-76054819D02*
X92195238Y-76054819D01*
X92195238Y-76054819D02*
X92290476Y-76102438D01*
X92290476Y-76102438D02*
X92338095Y-76150057D01*
X92338095Y-76150057D02*
X92385714Y-76245295D01*
X92385714Y-76245295D02*
X92385714Y-76292914D01*
X92385714Y-76292914D02*
X92338095Y-76388152D01*
X92338095Y-76388152D02*
X92290476Y-76435771D01*
X92290476Y-76435771D02*
X92195238Y-76483390D01*
X92195238Y-76483390D02*
X92004762Y-76483390D01*
X92004762Y-76483390D02*
X91909524Y-76531009D01*
X91909524Y-76531009D02*
X91861905Y-76578628D01*
X91861905Y-76578628D02*
X91814286Y-76673866D01*
X91814286Y-76673866D02*
X91814286Y-76864342D01*
X91814286Y-76864342D02*
X91861905Y-76959580D01*
X91861905Y-76959580D02*
X91909524Y-77007200D01*
X91909524Y-77007200D02*
X92004762Y-77054819D01*
X92004762Y-77054819D02*
X92195238Y-77054819D01*
X92195238Y-77054819D02*
X92290476Y-77007200D01*
X92290476Y-77007200D02*
X92338095Y-76959580D01*
X92338095Y-76959580D02*
X92385714Y-76864342D01*
X92385714Y-76864342D02*
X92385714Y-76673866D01*
X92385714Y-76673866D02*
X92338095Y-76578628D01*
X92338095Y-76578628D02*
X92290476Y-76531009D01*
X92290476Y-76531009D02*
X92195238Y-76483390D01*
X93633333Y-70759580D02*
X93585714Y-70807200D01*
X93585714Y-70807200D02*
X93442857Y-70854819D01*
X93442857Y-70854819D02*
X93347619Y-70854819D01*
X93347619Y-70854819D02*
X93204762Y-70807200D01*
X93204762Y-70807200D02*
X93109524Y-70711961D01*
X93109524Y-70711961D02*
X93061905Y-70616723D01*
X93061905Y-70616723D02*
X93014286Y-70426247D01*
X93014286Y-70426247D02*
X93014286Y-70283390D01*
X93014286Y-70283390D02*
X93061905Y-70092914D01*
X93061905Y-70092914D02*
X93109524Y-69997676D01*
X93109524Y-69997676D02*
X93204762Y-69902438D01*
X93204762Y-69902438D02*
X93347619Y-69854819D01*
X93347619Y-69854819D02*
X93442857Y-69854819D01*
X93442857Y-69854819D02*
X93585714Y-69902438D01*
X93585714Y-69902438D02*
X93633333Y-69950057D01*
X93966667Y-69854819D02*
X94633333Y-69854819D01*
X94633333Y-69854819D02*
X94204762Y-70854819D01*
X93433333Y-78759580D02*
X93385714Y-78807200D01*
X93385714Y-78807200D02*
X93242857Y-78854819D01*
X93242857Y-78854819D02*
X93147619Y-78854819D01*
X93147619Y-78854819D02*
X93004762Y-78807200D01*
X93004762Y-78807200D02*
X92909524Y-78711961D01*
X92909524Y-78711961D02*
X92861905Y-78616723D01*
X92861905Y-78616723D02*
X92814286Y-78426247D01*
X92814286Y-78426247D02*
X92814286Y-78283390D01*
X92814286Y-78283390D02*
X92861905Y-78092914D01*
X92861905Y-78092914D02*
X92909524Y-77997676D01*
X92909524Y-77997676D02*
X93004762Y-77902438D01*
X93004762Y-77902438D02*
X93147619Y-77854819D01*
X93147619Y-77854819D02*
X93242857Y-77854819D01*
X93242857Y-77854819D02*
X93385714Y-77902438D01*
X93385714Y-77902438D02*
X93433333Y-77950057D01*
X93814286Y-77950057D02*
X93861905Y-77902438D01*
X93861905Y-77902438D02*
X93957143Y-77854819D01*
X93957143Y-77854819D02*
X94195238Y-77854819D01*
X94195238Y-77854819D02*
X94290476Y-77902438D01*
X94290476Y-77902438D02*
X94338095Y-77950057D01*
X94338095Y-77950057D02*
X94385714Y-78045295D01*
X94385714Y-78045295D02*
X94385714Y-78140533D01*
X94385714Y-78140533D02*
X94338095Y-78283390D01*
X94338095Y-78283390D02*
X93766667Y-78854819D01*
X93766667Y-78854819D02*
X94385714Y-78854819D01*
X106633333Y-78159580D02*
X106585714Y-78207200D01*
X106585714Y-78207200D02*
X106442857Y-78254819D01*
X106442857Y-78254819D02*
X106347619Y-78254819D01*
X106347619Y-78254819D02*
X106204762Y-78207200D01*
X106204762Y-78207200D02*
X106109524Y-78111961D01*
X106109524Y-78111961D02*
X106061905Y-78016723D01*
X106061905Y-78016723D02*
X106014286Y-77826247D01*
X106014286Y-77826247D02*
X106014286Y-77683390D01*
X106014286Y-77683390D02*
X106061905Y-77492914D01*
X106061905Y-77492914D02*
X106109524Y-77397676D01*
X106109524Y-77397676D02*
X106204762Y-77302438D01*
X106204762Y-77302438D02*
X106347619Y-77254819D01*
X106347619Y-77254819D02*
X106442857Y-77254819D01*
X106442857Y-77254819D02*
X106585714Y-77302438D01*
X106585714Y-77302438D02*
X106633333Y-77350057D01*
X107585714Y-78254819D02*
X107014286Y-78254819D01*
X107300000Y-78254819D02*
X107300000Y-77254819D01*
X107300000Y-77254819D02*
X107204762Y-77397676D01*
X107204762Y-77397676D02*
X107109524Y-77492914D01*
X107109524Y-77492914D02*
X107014286Y-77540533D01*
D13*
%TO.C,G\u002A\u002A\u002A*%
G36*
X97380000Y-124610000D02*
G01*
X97380000Y-125450000D01*
X96540000Y-125450000D01*
X95700000Y-125450000D01*
X95700000Y-125210000D01*
X95940000Y-125210000D01*
X96540000Y-125210000D01*
X97140000Y-125210000D01*
X97140000Y-124610000D01*
X97140000Y-124010000D01*
X96540000Y-124010000D01*
X95940000Y-124010000D01*
X95940000Y-124610000D01*
X95940000Y-125210000D01*
X95700000Y-125210000D01*
X95700000Y-124610000D01*
X95700000Y-123770000D01*
X96540000Y-123770000D01*
X97380000Y-123770000D01*
X97380000Y-124610000D01*
G37*
G36*
X99300000Y-116810000D02*
G01*
X99300000Y-117050000D01*
X99180000Y-117050000D01*
X99060000Y-117050000D01*
X99060000Y-116930000D01*
X99060000Y-116810000D01*
X98820000Y-116810000D01*
X98580000Y-116810000D01*
X98580000Y-116930000D01*
X98580000Y-117050000D01*
X98460000Y-117050000D01*
X98340000Y-117050000D01*
X98340000Y-117170000D01*
X98340000Y-117290000D01*
X98460000Y-117290000D01*
X98580000Y-117290000D01*
X98580000Y-117170000D01*
X98580000Y-117050000D01*
X98700000Y-117050000D01*
X98820000Y-117050000D01*
X98820000Y-117290000D01*
X98820000Y-117530000D01*
X98940000Y-117530000D01*
X99060000Y-117530000D01*
X99060000Y-117410000D01*
X99060000Y-117290000D01*
X99300000Y-117290000D01*
X99540000Y-117290000D01*
X99540000Y-116930000D01*
X99540000Y-116570000D01*
X99660000Y-116570000D01*
X99780000Y-116570000D01*
X99780000Y-117050000D01*
X99780000Y-117530000D01*
X99420000Y-117530000D01*
X99060000Y-117530000D01*
X99060000Y-117650000D01*
X99060000Y-117770000D01*
X98940000Y-117770000D01*
X98820000Y-117770000D01*
X98820000Y-118010000D01*
X98820000Y-118250000D01*
X98940000Y-118250000D01*
X99060000Y-118250000D01*
X99060000Y-118130000D01*
X99060000Y-118010000D01*
X99180000Y-118010000D01*
X99300000Y-118010000D01*
X99300000Y-117890000D01*
X99300000Y-117770000D01*
X99540000Y-117770000D01*
X99780000Y-117770000D01*
X99780000Y-118010000D01*
X99780000Y-118250000D01*
X99900000Y-118250000D01*
X100020000Y-118250000D01*
X100020000Y-117650000D01*
X100020000Y-117530000D01*
X100260000Y-117530000D01*
X100380000Y-117530000D01*
X100500000Y-117530000D01*
X100500000Y-117410000D01*
X100500000Y-117290000D01*
X100380000Y-117290000D01*
X100260000Y-117290000D01*
X100260000Y-117410000D01*
X100260000Y-117530000D01*
X100020000Y-117530000D01*
X100020000Y-117410000D01*
X100020000Y-117050000D01*
X100140000Y-117050000D01*
X100260000Y-117050000D01*
X100260000Y-116810000D01*
X100260000Y-116570000D01*
X100380000Y-116570000D01*
X100500000Y-116570000D01*
X100500000Y-116930000D01*
X100500000Y-117290000D01*
X100620000Y-117290000D01*
X100740000Y-117290000D01*
X100740000Y-117170000D01*
X100740000Y-117050000D01*
X100860000Y-117050000D01*
X100980000Y-117050000D01*
X100980000Y-116930000D01*
X100980000Y-116810000D01*
X101100000Y-116810000D01*
X101220000Y-116810000D01*
X101220000Y-116690000D01*
X101220000Y-116570000D01*
X101340000Y-116570000D01*
X101460000Y-116570000D01*
X101460000Y-116810000D01*
X101460000Y-117050000D01*
X101220000Y-117050000D01*
X100980000Y-117050000D01*
X100980000Y-117170000D01*
X100980000Y-117290000D01*
X100860000Y-117290000D01*
X100740000Y-117290000D01*
X100740000Y-117410000D01*
X100740000Y-117530000D01*
X100860000Y-117530000D01*
X100980000Y-117530000D01*
X100980000Y-117650000D01*
X100980000Y-117770000D01*
X101100000Y-117770000D01*
X101220000Y-117770000D01*
X101220000Y-118010000D01*
X101220000Y-118250000D01*
X101100000Y-118250000D01*
X100980000Y-118250000D01*
X100980000Y-118490000D01*
X100980000Y-118730000D01*
X101220000Y-118730000D01*
X101460000Y-118730000D01*
X101460000Y-118610000D01*
X101460000Y-118490000D01*
X101580000Y-118490000D01*
X101700000Y-118490000D01*
X101700000Y-118370000D01*
X101700000Y-118250000D01*
X101820000Y-118250000D01*
X101940000Y-118250000D01*
X101940000Y-118130000D01*
X101940000Y-118010000D01*
X101820000Y-118010000D01*
X101700000Y-118010000D01*
X101700000Y-118130000D01*
X101700000Y-118250000D01*
X101580000Y-118250000D01*
X101460000Y-118250000D01*
X101460000Y-118130000D01*
X101460000Y-118010000D01*
X101580000Y-118010000D01*
X101700000Y-118010000D01*
X101700000Y-117410000D01*
X101700000Y-117050000D01*
X101940000Y-117050000D01*
X102060000Y-117050000D01*
X102180000Y-117050000D01*
X102180000Y-116930000D01*
X102180000Y-116810000D01*
X102060000Y-116810000D01*
X101940000Y-116810000D01*
X101940000Y-116930000D01*
X101940000Y-117050000D01*
X101700000Y-117050000D01*
X101700000Y-116930000D01*
X101700000Y-116810000D01*
X101820000Y-116810000D01*
X101940000Y-116810000D01*
X101940000Y-116690000D01*
X101940000Y-116570000D01*
X102060000Y-116570000D01*
X102180000Y-116570000D01*
X102180000Y-116690000D01*
X102180000Y-116810000D01*
X102300000Y-116810000D01*
X102420000Y-116810000D01*
X102420000Y-116690000D01*
X102420000Y-116570000D01*
X102540000Y-116570000D01*
X102660000Y-116570000D01*
X102660000Y-117050000D01*
X102660000Y-117530000D01*
X102540000Y-117530000D01*
X102420000Y-117530000D01*
X102420000Y-117410000D01*
X102420000Y-117290000D01*
X102300000Y-117290000D01*
X102180000Y-117290000D01*
X102180000Y-117410000D01*
X102180000Y-117530000D01*
X102060000Y-117530000D01*
X101940000Y-117530000D01*
X101940000Y-117650000D01*
X101940000Y-117770000D01*
X102180000Y-117770000D01*
X102420000Y-117770000D01*
X102420000Y-117890000D01*
X102420000Y-118010000D01*
X102300000Y-118010000D01*
X102180000Y-118010000D01*
X102180000Y-118130000D01*
X102180000Y-118250000D01*
X102300000Y-118250000D01*
X102420000Y-118250000D01*
X102420000Y-118130000D01*
X102420000Y-118010000D01*
X102540000Y-118010000D01*
X102660000Y-118010000D01*
X102660000Y-118250000D01*
X102660000Y-118490000D01*
X102540000Y-118490000D01*
X102420000Y-118490000D01*
X102420000Y-118610000D01*
X102420000Y-118730000D01*
X102540000Y-118730000D01*
X102660000Y-118730000D01*
X102660000Y-118610000D01*
X102660000Y-118490000D01*
X103020000Y-118490000D01*
X103380000Y-118490000D01*
X103380000Y-118610000D01*
X103380000Y-118730000D01*
X103260000Y-118730000D01*
X103140000Y-118730000D01*
X103140000Y-118970000D01*
X103140000Y-119210000D01*
X103020000Y-119210000D01*
X102900000Y-119210000D01*
X102900000Y-119090000D01*
X102900000Y-118970000D01*
X102660000Y-118970000D01*
X102420000Y-118970000D01*
X102420000Y-119090000D01*
X102420000Y-119210000D01*
X102180000Y-119210000D01*
X101940000Y-119210000D01*
X101940000Y-119810000D01*
X101940000Y-120410000D01*
X102060000Y-120410000D01*
X102180000Y-120410000D01*
X102180000Y-120290000D01*
X102180000Y-120170000D01*
X102300000Y-120170000D01*
X102420000Y-120170000D01*
X102420000Y-120050000D01*
X102420000Y-119930000D01*
X102300000Y-119930000D01*
X102180000Y-119930000D01*
X102180000Y-119810000D01*
X102180000Y-119690000D01*
X102420000Y-119690000D01*
X102660000Y-119690000D01*
X102660000Y-120410000D01*
X102660000Y-121130000D01*
X102780000Y-121130000D01*
X102900000Y-121130000D01*
X102900000Y-121250000D01*
X102900000Y-121370000D01*
X102300000Y-121370000D01*
X101700000Y-121370000D01*
X101700000Y-121610000D01*
X101700000Y-121850000D01*
X101820000Y-121850000D01*
X101940000Y-121850000D01*
X101940000Y-121730000D01*
X101940000Y-121610000D01*
X102420000Y-121610000D01*
X102900000Y-121610000D01*
X102900000Y-122090000D01*
X102900000Y-122570000D01*
X102780000Y-122570000D01*
X102660000Y-122570000D01*
X102660000Y-122330000D01*
X102660000Y-122090000D01*
X102420000Y-122090000D01*
X102180000Y-122090000D01*
X102180000Y-122330000D01*
X102180000Y-122570000D01*
X102300000Y-122570000D01*
X102420000Y-122570000D01*
X102420000Y-122930000D01*
X102420000Y-123290000D01*
X102660000Y-123290000D01*
X102900000Y-123290000D01*
X102900000Y-123170000D01*
X102900000Y-123050000D01*
X102780000Y-123050000D01*
X102660000Y-123050000D01*
X102660000Y-122930000D01*
X102660000Y-122810000D01*
X102780000Y-122810000D01*
X102900000Y-122810000D01*
X102900000Y-122930000D01*
X102900000Y-123050000D01*
X103020000Y-123050000D01*
X103140000Y-123050000D01*
X103140000Y-122930000D01*
X103140000Y-122810000D01*
X103260000Y-122810000D01*
X103380000Y-122810000D01*
X103380000Y-122570000D01*
X103380000Y-122330000D01*
X103260000Y-122330000D01*
X103140000Y-122330000D01*
X103140000Y-122210000D01*
X103380000Y-122210000D01*
X103380000Y-122330000D01*
X103740000Y-122330000D01*
X104100000Y-122330000D01*
X104100000Y-122090000D01*
X104100000Y-121850000D01*
X103860000Y-121850000D01*
X103620000Y-121850000D01*
X103620000Y-121970000D01*
X103620000Y-122090000D01*
X103500000Y-122090000D01*
X103380000Y-122090000D01*
X103380000Y-122210000D01*
X103140000Y-122210000D01*
X103140000Y-122090000D01*
X103140000Y-121850000D01*
X103140000Y-121370000D01*
X103260000Y-121370000D01*
X103380000Y-121370000D01*
X103380000Y-121610000D01*
X103380000Y-121850000D01*
X103500000Y-121850000D01*
X103620000Y-121850000D01*
X103620000Y-121490000D01*
X103620000Y-121130000D01*
X103740000Y-121130000D01*
X103860000Y-121130000D01*
X103860000Y-121250000D01*
X103860000Y-121370000D01*
X103980000Y-121370000D01*
X104100000Y-121370000D01*
X104100000Y-121490000D01*
X104100000Y-121610000D01*
X104220000Y-121610000D01*
X104340000Y-121610000D01*
X104340000Y-121370000D01*
X104340000Y-121130000D01*
X104220000Y-121130000D01*
X104100000Y-121130000D01*
X104100000Y-121010000D01*
X104100000Y-120890000D01*
X104340000Y-120890000D01*
X104580000Y-120890000D01*
X104580000Y-121490000D01*
X104580000Y-122090000D01*
X104460000Y-122090000D01*
X104340000Y-122090000D01*
X104340000Y-122210000D01*
X104340000Y-122330000D01*
X104220000Y-122330000D01*
X104100000Y-122330000D01*
X104100000Y-122450000D01*
X104100000Y-122570000D01*
X104340000Y-122570000D01*
X104580000Y-122570000D01*
X104580000Y-122690000D01*
X104580000Y-122810000D01*
X104460000Y-122810000D01*
X104340000Y-122810000D01*
X104340000Y-122930000D01*
X104340000Y-123050000D01*
X104220000Y-123050000D01*
X104100000Y-123050000D01*
X104100000Y-122930000D01*
X104100000Y-122810000D01*
X103860000Y-122810000D01*
X103620000Y-122810000D01*
X103620000Y-122930000D01*
X103620000Y-123050000D01*
X103380000Y-123050000D01*
X103140000Y-123050000D01*
X103140000Y-123170000D01*
X103140000Y-123290000D01*
X103380000Y-123290000D01*
X103620000Y-123290000D01*
X103620000Y-123410000D01*
X103620000Y-123530000D01*
X103860000Y-123530000D01*
X104100000Y-123530000D01*
X104100000Y-123410000D01*
X104100000Y-123290000D01*
X104220000Y-123290000D01*
X104340000Y-123290000D01*
X104340000Y-123170000D01*
X104340000Y-123050000D01*
X104460000Y-123050000D01*
X104580000Y-123050000D01*
X104580000Y-123530000D01*
X104580000Y-124010000D01*
X104460000Y-124010000D01*
X104340000Y-124010000D01*
X104340000Y-124130000D01*
X104340000Y-124250000D01*
X104220000Y-124250000D01*
X104100000Y-124250000D01*
X104100000Y-124610000D01*
X104100000Y-124970000D01*
X103860000Y-124970000D01*
X103620000Y-124970000D01*
X103620000Y-125090000D01*
X103620000Y-125210000D01*
X103860000Y-125210000D01*
X104100000Y-125210000D01*
X104100000Y-125330000D01*
X104100000Y-125450000D01*
X103380000Y-125450000D01*
X102660000Y-125450000D01*
X102660000Y-125330000D01*
X102660000Y-125210000D01*
X102540000Y-125210000D01*
X102420000Y-125210000D01*
X102420000Y-125330000D01*
X102420000Y-125450000D01*
X102180000Y-125450000D01*
X101940000Y-125450000D01*
X101940000Y-125330000D01*
X101940000Y-125210000D01*
X101580000Y-125210000D01*
X101220000Y-125210000D01*
X101220000Y-125330000D01*
X101220000Y-125450000D01*
X101100000Y-125450000D01*
X100980000Y-125450000D01*
X100980000Y-125330000D01*
X100980000Y-125210000D01*
X100740000Y-125210000D01*
X100500000Y-125210000D01*
X100500000Y-125330000D01*
X100500000Y-125450000D01*
X100140000Y-125450000D01*
X99780000Y-125450000D01*
X99780000Y-125330000D01*
X99780000Y-125210000D01*
X99660000Y-125210000D01*
X99540000Y-125210000D01*
X99540000Y-125330000D01*
X99540000Y-125450000D01*
X99180000Y-125450000D01*
X98820000Y-125450000D01*
X98820000Y-125330000D01*
X98820000Y-125210000D01*
X99060000Y-125210000D01*
X99180000Y-125210000D01*
X99300000Y-125210000D01*
X99300000Y-125090000D01*
X99300000Y-124970000D01*
X99180000Y-124970000D01*
X99060000Y-124970000D01*
X99060000Y-125090000D01*
X99060000Y-125210000D01*
X98820000Y-125210000D01*
X98700000Y-125210000D01*
X98580000Y-125210000D01*
X98580000Y-125330000D01*
X98580000Y-125450000D01*
X98100000Y-125450000D01*
X97620000Y-125450000D01*
X97620000Y-125330000D01*
X97620000Y-125210000D01*
X97740000Y-125210000D01*
X97860000Y-125210000D01*
X97860000Y-125090000D01*
X97860000Y-124970000D01*
X97740000Y-124970000D01*
X97620000Y-124970000D01*
X97620000Y-124730000D01*
X97620000Y-124490000D01*
X97740000Y-124490000D01*
X97860000Y-124490000D01*
X97860000Y-124730000D01*
X97860000Y-124970000D01*
X97980000Y-124970000D01*
X98100000Y-124970000D01*
X98100000Y-124850000D01*
X98100000Y-124730000D01*
X98220000Y-124730000D01*
X98340000Y-124730000D01*
X98340000Y-124970000D01*
X98340000Y-125210000D01*
X98460000Y-125210000D01*
X98580000Y-125210000D01*
X98580000Y-125090000D01*
X98580000Y-124850000D01*
X98580000Y-124490000D01*
X98820000Y-124490000D01*
X99060000Y-124490000D01*
X99060000Y-124610000D01*
X99060000Y-124730000D01*
X98940000Y-124730000D01*
X98820000Y-124730000D01*
X98820000Y-124850000D01*
X98820000Y-124970000D01*
X98940000Y-124970000D01*
X99060000Y-124970000D01*
X99060000Y-124850000D01*
X99060000Y-124730000D01*
X99180000Y-124730000D01*
X99300000Y-124730000D01*
X99300000Y-124850000D01*
X99300000Y-124970000D01*
X99420000Y-124970000D01*
X99540000Y-124970000D01*
X99780000Y-124970000D01*
X99780000Y-125210000D01*
X99900000Y-125210000D01*
X100020000Y-125210000D01*
X100020000Y-125090000D01*
X100020000Y-124970000D01*
X100140000Y-124970000D01*
X100260000Y-124970000D01*
X100260000Y-125090000D01*
X100260000Y-125210000D01*
X100380000Y-125210000D01*
X100500000Y-125210000D01*
X100500000Y-125090000D01*
X100500000Y-124970000D01*
X100620000Y-124970000D01*
X100740000Y-124970000D01*
X101220000Y-124970000D01*
X101460000Y-124970000D01*
X101700000Y-124970000D01*
X101700000Y-124850000D01*
X101700000Y-124730000D01*
X101580000Y-124730000D01*
X101460000Y-124730000D01*
X101460000Y-124610000D01*
X101460000Y-124490000D01*
X101340000Y-124490000D01*
X101220000Y-124490000D01*
X101220000Y-124730000D01*
X101220000Y-124970000D01*
X100740000Y-124970000D01*
X100740000Y-124850000D01*
X100740000Y-124730000D01*
X100860000Y-124730000D01*
X100980000Y-124730000D01*
X100980000Y-124370000D01*
X100980000Y-124010000D01*
X101100000Y-124010000D01*
X101220000Y-124010000D01*
X101220000Y-124130000D01*
X101220000Y-124250000D01*
X101460000Y-124250000D01*
X101700000Y-124250000D01*
X101700000Y-124370000D01*
X101700000Y-124490000D01*
X101820000Y-124490000D01*
X101940000Y-124490000D01*
X101940000Y-124610000D01*
X101940000Y-124730000D01*
X102060000Y-124730000D01*
X102180000Y-124730000D01*
X102180000Y-124850000D01*
X102180000Y-124970000D01*
X102060000Y-124970000D01*
X101940000Y-124970000D01*
X101940000Y-125090000D01*
X101940000Y-125210000D01*
X102180000Y-125210000D01*
X102420000Y-125210000D01*
X102420000Y-125090000D01*
X102420000Y-124970000D01*
X102540000Y-124970000D01*
X102660000Y-124970000D01*
X102660000Y-125090000D01*
X102660000Y-125210000D01*
X102900000Y-125210000D01*
X103140000Y-125210000D01*
X103140000Y-125090000D01*
X103140000Y-124970000D01*
X103020000Y-124970000D01*
X102900000Y-124970000D01*
X102900000Y-124850000D01*
X102900000Y-124730000D01*
X103140000Y-124730000D01*
X103380000Y-124730000D01*
X103380000Y-124850000D01*
X103380000Y-124970000D01*
X103500000Y-124970000D01*
X103620000Y-124970000D01*
X103620000Y-124850000D01*
X103620000Y-124730000D01*
X103740000Y-124730000D01*
X103860000Y-124730000D01*
X103860000Y-124610000D01*
X103860000Y-124490000D01*
X103740000Y-124490000D01*
X103620000Y-124490000D01*
X103620000Y-124610000D01*
X103620000Y-124730000D01*
X103500000Y-124730000D01*
X103380000Y-124730000D01*
X103380000Y-124610000D01*
X103380000Y-124490000D01*
X102900000Y-124490000D01*
X102420000Y-124490000D01*
X102420000Y-124250000D01*
X102660000Y-124250000D01*
X103020000Y-124250000D01*
X103380000Y-124250000D01*
X103620000Y-124250000D01*
X103860000Y-124250000D01*
X104100000Y-124250000D01*
X104100000Y-124130000D01*
X104100000Y-124010000D01*
X104220000Y-124010000D01*
X104340000Y-124010000D01*
X104340000Y-123890000D01*
X104340000Y-123770000D01*
X103980000Y-123770000D01*
X103620000Y-123770000D01*
X103620000Y-124010000D01*
X103620000Y-124250000D01*
X103380000Y-124250000D01*
X103380000Y-124010000D01*
X103380000Y-123890000D01*
X103380000Y-123530000D01*
X103020000Y-123530000D01*
X102660000Y-123530000D01*
X102660000Y-123890000D01*
X102660000Y-124250000D01*
X102420000Y-124250000D01*
X102420000Y-124010000D01*
X102300000Y-124010000D01*
X102180000Y-124010000D01*
X102180000Y-124250000D01*
X102180000Y-124490000D01*
X102060000Y-124490000D01*
X101940000Y-124490000D01*
X101940000Y-124370000D01*
X101940000Y-124250000D01*
X101820000Y-124250000D01*
X101700000Y-124250000D01*
X101700000Y-124130000D01*
X101700000Y-124010000D01*
X101820000Y-124010000D01*
X101940000Y-124010000D01*
X101940000Y-123890000D01*
X101940000Y-123770000D01*
X102180000Y-123770000D01*
X102300000Y-123770000D01*
X102420000Y-123770000D01*
X102420000Y-123650000D01*
X102420000Y-123530000D01*
X102300000Y-123530000D01*
X102180000Y-123530000D01*
X102180000Y-123650000D01*
X102180000Y-123770000D01*
X101940000Y-123770000D01*
X101820000Y-123770000D01*
X101700000Y-123770000D01*
X101700000Y-123890000D01*
X101700000Y-124010000D01*
X101580000Y-124010000D01*
X101460000Y-124010000D01*
X101460000Y-123890000D01*
X101460000Y-123770000D01*
X101220000Y-123770000D01*
X100980000Y-123770000D01*
X100980000Y-123890000D01*
X100980000Y-124010000D01*
X100860000Y-124010000D01*
X100740000Y-124010000D01*
X100740000Y-124250000D01*
X100740000Y-124490000D01*
X100500000Y-124490000D01*
X100260000Y-124490000D01*
X100260000Y-124610000D01*
X100260000Y-124730000D01*
X100020000Y-124730000D01*
X99780000Y-124730000D01*
X99780000Y-124970000D01*
X99540000Y-124970000D01*
X99540000Y-124730000D01*
X99540000Y-124490000D01*
X99660000Y-124490000D01*
X99780000Y-124490000D01*
X99780000Y-124370000D01*
X99780000Y-124250000D01*
X99660000Y-124250000D01*
X99540000Y-124250000D01*
X99540000Y-124130000D01*
X99540000Y-124010000D01*
X99420000Y-124010000D01*
X99300000Y-124010000D01*
X99300000Y-123890000D01*
X99300000Y-123770000D01*
X99420000Y-123770000D01*
X99540000Y-123770000D01*
X99540000Y-123530000D01*
X99540000Y-123290000D01*
X100020000Y-123290000D01*
X100500000Y-123290000D01*
X100500000Y-123170000D01*
X100500000Y-123050000D01*
X100140000Y-123050000D01*
X99780000Y-123050000D01*
X99780000Y-122810000D01*
X100260000Y-122810000D01*
X100380000Y-122810000D01*
X100500000Y-122810000D01*
X100500000Y-122690000D01*
X100500000Y-122570000D01*
X100380000Y-122570000D01*
X100260000Y-122570000D01*
X100260000Y-122690000D01*
X100260000Y-122810000D01*
X99780000Y-122810000D01*
X99780000Y-122690000D01*
X99780000Y-122570000D01*
X99660000Y-122570000D01*
X99540000Y-122570000D01*
X99540000Y-122810000D01*
X99540000Y-123050000D01*
X99420000Y-123050000D01*
X99300000Y-123050000D01*
X99300000Y-122810000D01*
X99300000Y-122570000D01*
X99060000Y-122570000D01*
X98820000Y-122570000D01*
X98820000Y-122690000D01*
X98820000Y-122810000D01*
X98580000Y-122810000D01*
X98340000Y-122810000D01*
X98340000Y-122570000D01*
X98340000Y-122330000D01*
X98700000Y-122330000D01*
X99060000Y-122330000D01*
X99060000Y-122210000D01*
X99060000Y-122090000D01*
X98940000Y-122090000D01*
X98820000Y-122090000D01*
X98820000Y-121970000D01*
X98820000Y-121850000D01*
X98700000Y-121850000D01*
X98580000Y-121850000D01*
X98580000Y-121970000D01*
X98580000Y-122090000D01*
X98460000Y-122090000D01*
X98340000Y-122090000D01*
X98340000Y-121490000D01*
X98340000Y-120890000D01*
X98220000Y-120890000D01*
X98100000Y-120890000D01*
X98100000Y-121250000D01*
X98100000Y-121610000D01*
X97980000Y-121610000D01*
X97860000Y-121610000D01*
X97860000Y-121730000D01*
X97860000Y-121850000D01*
X97740000Y-121850000D01*
X97620000Y-121850000D01*
X97620000Y-121970000D01*
X97620000Y-122090000D01*
X97740000Y-122090000D01*
X97860000Y-122090000D01*
X97860000Y-121970000D01*
X97860000Y-121850000D01*
X97980000Y-121850000D01*
X98100000Y-121850000D01*
X98100000Y-121970000D01*
X98100000Y-122090000D01*
X97980000Y-122090000D01*
X97860000Y-122090000D01*
X97860000Y-122210000D01*
X97860000Y-122330000D01*
X97740000Y-122330000D01*
X97620000Y-122330000D01*
X97620000Y-122450000D01*
X97620000Y-122570000D01*
X97740000Y-122570000D01*
X97860000Y-122570000D01*
X97860000Y-122450000D01*
X97860000Y-122330000D01*
X97980000Y-122330000D01*
X98100000Y-122330000D01*
X98100000Y-122450000D01*
X98100000Y-122570000D01*
X97980000Y-122570000D01*
X97860000Y-122570000D01*
X97860000Y-122690000D01*
X97860000Y-122810000D01*
X97740000Y-122810000D01*
X97620000Y-122810000D01*
X97620000Y-122690000D01*
X97620000Y-122570000D01*
X97380000Y-122570000D01*
X97140000Y-122570000D01*
X97140000Y-122450000D01*
X97140000Y-122330000D01*
X97260000Y-122330000D01*
X97380000Y-122330000D01*
X97380000Y-122210000D01*
X97380000Y-122090000D01*
X97140000Y-122090000D01*
X96900000Y-122090000D01*
X96900000Y-122210000D01*
X96900000Y-122330000D01*
X96660000Y-122330000D01*
X96420000Y-122330000D01*
X96420000Y-122450000D01*
X96420000Y-122570000D01*
X96300000Y-122570000D01*
X96180000Y-122570000D01*
X96180000Y-122810000D01*
X96180000Y-123050000D01*
X96300000Y-123050000D01*
X96420000Y-123050000D01*
X96420000Y-122810000D01*
X96420000Y-122570000D01*
X96660000Y-122570000D01*
X96900000Y-122570000D01*
X96900000Y-122690000D01*
X96900000Y-122810000D01*
X96780000Y-122810000D01*
X96660000Y-122810000D01*
X96660000Y-122930000D01*
X96660000Y-123050000D01*
X96900000Y-123050000D01*
X97140000Y-123050000D01*
X97140000Y-122930000D01*
X97140000Y-122810000D01*
X97260000Y-122810000D01*
X97380000Y-122810000D01*
X97380000Y-122930000D01*
X97380000Y-123050000D01*
X97260000Y-123050000D01*
X97140000Y-123050000D01*
X97140000Y-123170000D01*
X97140000Y-123290000D01*
X97260000Y-123290000D01*
X97380000Y-123290000D01*
X97380000Y-123410000D01*
X97380000Y-123530000D01*
X97140000Y-123530000D01*
X96900000Y-123530000D01*
X96900000Y-123410000D01*
X96900000Y-123290000D01*
X96780000Y-123290000D01*
X96660000Y-123290000D01*
X96660000Y-123170000D01*
X96660000Y-123050000D01*
X96540000Y-123050000D01*
X96420000Y-123050000D01*
X96420000Y-123290000D01*
X96420000Y-123530000D01*
X96180000Y-123530000D01*
X95940000Y-123530000D01*
X95940000Y-123410000D01*
X95940000Y-123290000D01*
X95820000Y-123290000D01*
X95700000Y-123290000D01*
X95700000Y-122930000D01*
X95700000Y-122570000D01*
X95820000Y-122570000D01*
X95940000Y-122570000D01*
X95940000Y-122450000D01*
X95940000Y-122330000D01*
X95820000Y-122330000D01*
X95700000Y-122330000D01*
X95700000Y-122210000D01*
X95700000Y-122090000D01*
X95820000Y-122090000D01*
X95940000Y-122090000D01*
X95940000Y-121970000D01*
X95940000Y-121850000D01*
X95820000Y-121850000D01*
X95700000Y-121850000D01*
X95700000Y-121730000D01*
X95700000Y-121610000D01*
X95820000Y-121610000D01*
X95940000Y-121610000D01*
X95940000Y-121490000D01*
X95940000Y-121370000D01*
X96060000Y-121370000D01*
X96180000Y-121370000D01*
X96180000Y-121250000D01*
X96180000Y-121130000D01*
X95940000Y-121130000D01*
X95700000Y-121130000D01*
X95700000Y-121010000D01*
X95700000Y-120890000D01*
X96180000Y-120890000D01*
X96660000Y-120890000D01*
X96660000Y-120770000D01*
X96660000Y-120650000D01*
X96540000Y-120650000D01*
X96420000Y-120650000D01*
X96420000Y-120530000D01*
X96420000Y-120410000D01*
X96180000Y-120410000D01*
X95940000Y-120410000D01*
X95940000Y-120530000D01*
X95940000Y-120650000D01*
X95820000Y-120650000D01*
X95700000Y-120650000D01*
X95700000Y-120530000D01*
X95700000Y-120410000D01*
X95820000Y-120410000D01*
X95940000Y-120410000D01*
X95940000Y-120290000D01*
X95940000Y-120170000D01*
X95820000Y-120170000D01*
X95700000Y-120170000D01*
X95700000Y-120050000D01*
X95700000Y-119930000D01*
X95820000Y-119930000D01*
X95940000Y-119930000D01*
X95940000Y-119690000D01*
X95940000Y-119450000D01*
X95820000Y-119450000D01*
X95700000Y-119450000D01*
X95700000Y-119330000D01*
X95700000Y-119210000D01*
X95820000Y-119210000D01*
X95940000Y-119210000D01*
X95940000Y-119090000D01*
X95940000Y-118970000D01*
X95820000Y-118970000D01*
X95700000Y-118970000D01*
X95700000Y-118730000D01*
X95700000Y-118490000D01*
X95820000Y-118490000D01*
X95940000Y-118490000D01*
X95940000Y-118610000D01*
X95940000Y-118730000D01*
X96060000Y-118730000D01*
X96180000Y-118730000D01*
X96180000Y-118610000D01*
X96180000Y-118490000D01*
X96420000Y-118490000D01*
X96660000Y-118490000D01*
X96660000Y-118850000D01*
X96660000Y-119210000D01*
X96900000Y-119210000D01*
X97140000Y-119210000D01*
X97140000Y-119090000D01*
X97140000Y-118970000D01*
X97260000Y-118970000D01*
X97380000Y-118970000D01*
X97380000Y-119090000D01*
X97380000Y-119210000D01*
X97260000Y-119210000D01*
X97140000Y-119210000D01*
X97140000Y-119330000D01*
X97140000Y-119450000D01*
X97020000Y-119450000D01*
X96900000Y-119450000D01*
X96900000Y-119570000D01*
X96900000Y-119690000D01*
X96780000Y-119690000D01*
X96660000Y-119690000D01*
X96660000Y-119570000D01*
X96660000Y-119450000D01*
X96420000Y-119450000D01*
X96180000Y-119450000D01*
X96180000Y-119570000D01*
X96180000Y-119690000D01*
X96420000Y-119690000D01*
X96660000Y-119690000D01*
X96660000Y-119810000D01*
X96660000Y-119930000D01*
X96540000Y-119930000D01*
X96420000Y-119930000D01*
X96420000Y-120170000D01*
X96420000Y-120410000D01*
X96540000Y-120410000D01*
X96660000Y-120410000D01*
X96660000Y-120290000D01*
X96660000Y-120170000D01*
X96900000Y-120170000D01*
X97140000Y-120170000D01*
X97140000Y-120290000D01*
X97140000Y-120410000D01*
X97260000Y-120410000D01*
X97380000Y-120410000D01*
X97380000Y-120290000D01*
X97380000Y-120170000D01*
X97500000Y-120170000D01*
X97620000Y-120170000D01*
X97620000Y-120410000D01*
X97620000Y-120650000D01*
X97380000Y-120650000D01*
X97140000Y-120650000D01*
X97140000Y-120770000D01*
X97140000Y-120890000D01*
X96900000Y-120890000D01*
X96660000Y-120890000D01*
X96660000Y-121130000D01*
X96660000Y-121370000D01*
X96540000Y-121370000D01*
X96420000Y-121370000D01*
X96420000Y-121490000D01*
X96420000Y-121610000D01*
X96300000Y-121610000D01*
X96180000Y-121610000D01*
X96180000Y-121730000D01*
X96180000Y-121850000D01*
X96540000Y-121850000D01*
X96900000Y-121850000D01*
X96900000Y-121730000D01*
X96900000Y-121610000D01*
X97020000Y-121610000D01*
X97140000Y-121610000D01*
X97140000Y-121730000D01*
X97140000Y-121850000D01*
X97260000Y-121850000D01*
X97380000Y-121850000D01*
X97380000Y-121730000D01*
X97380000Y-121610000D01*
X97500000Y-121610000D01*
X97620000Y-121610000D01*
X97620000Y-121490000D01*
X97620000Y-121370000D01*
X97500000Y-121370000D01*
X97380000Y-121370000D01*
X97380000Y-121250000D01*
X97380000Y-121130000D01*
X97500000Y-121130000D01*
X97620000Y-121130000D01*
X97620000Y-121010000D01*
X97620000Y-120890000D01*
X97740000Y-120890000D01*
X97860000Y-120890000D01*
X97860000Y-120770000D01*
X97860000Y-120650000D01*
X97980000Y-120650000D01*
X98100000Y-120650000D01*
X98100000Y-120530000D01*
X98100000Y-120410000D01*
X98220000Y-120410000D01*
X98340000Y-120410000D01*
X98340000Y-120650000D01*
X98340000Y-120890000D01*
X98460000Y-120890000D01*
X98580000Y-120890000D01*
X98580000Y-120530000D01*
X98580000Y-120170000D01*
X98700000Y-120170000D01*
X98820000Y-120170000D01*
X98820000Y-119930000D01*
X98820000Y-119690000D01*
X98580000Y-119690000D01*
X98340000Y-119690000D01*
X98340000Y-119930000D01*
X98340000Y-120170000D01*
X98220000Y-120170000D01*
X98100000Y-120170000D01*
X98100000Y-120290000D01*
X98100000Y-120410000D01*
X97980000Y-120410000D01*
X97860000Y-120410000D01*
X97860000Y-120170000D01*
X97860000Y-119930000D01*
X97740000Y-119930000D01*
X97620000Y-119930000D01*
X97620000Y-119570000D01*
X97620000Y-119210000D01*
X97980000Y-119210000D01*
X98340000Y-119210000D01*
X98340000Y-119330000D01*
X98340000Y-119450000D01*
X98460000Y-119450000D01*
X98580000Y-119450000D01*
X98580000Y-119330000D01*
X98580000Y-119210000D01*
X98940000Y-119210000D01*
X99300000Y-119210000D01*
X99300000Y-119330000D01*
X99300000Y-119450000D01*
X99180000Y-119450000D01*
X99060000Y-119450000D01*
X99060000Y-119690000D01*
X99060000Y-119930000D01*
X99300000Y-119930000D01*
X99540000Y-119930000D01*
X99540000Y-120290000D01*
X99540000Y-120650000D01*
X99420000Y-120650000D01*
X99300000Y-120650000D01*
X99300000Y-120530000D01*
X99300000Y-120410000D01*
X99180000Y-120410000D01*
X99060000Y-120410000D01*
X99060000Y-120530000D01*
X99060000Y-120650000D01*
X98940000Y-120650000D01*
X98820000Y-120650000D01*
X98820000Y-120890000D01*
X98820000Y-121130000D01*
X98940000Y-121130000D01*
X99060000Y-121130000D01*
X99060000Y-121250000D01*
X99060000Y-121370000D01*
X98940000Y-121370000D01*
X98820000Y-121370000D01*
X98820000Y-121490000D01*
X98820000Y-121610000D01*
X99060000Y-121610000D01*
X99300000Y-121610000D01*
X99300000Y-121490000D01*
X99300000Y-121370000D01*
X99420000Y-121370000D01*
X99540000Y-121370000D01*
X99540000Y-121490000D01*
X99540000Y-121610000D01*
X99660000Y-121610000D01*
X99780000Y-121610000D01*
X99780000Y-121250000D01*
X99780000Y-120890000D01*
X99900000Y-120890000D01*
X100020000Y-120890000D01*
X100020000Y-121130000D01*
X100020000Y-121370000D01*
X100140000Y-121370000D01*
X100260000Y-121370000D01*
X100260000Y-121490000D01*
X100260000Y-121610000D01*
X100140000Y-121610000D01*
X100020000Y-121610000D01*
X100020000Y-121730000D01*
X100020000Y-121850000D01*
X99900000Y-121850000D01*
X99780000Y-121850000D01*
X99780000Y-121970000D01*
X99780000Y-122090000D01*
X99660000Y-122090000D01*
X99540000Y-122090000D01*
X99540000Y-121970000D01*
X99540000Y-121850000D01*
X99420000Y-121850000D01*
X99300000Y-121850000D01*
X99300000Y-121970000D01*
X99300000Y-122090000D01*
X99420000Y-122090000D01*
X99540000Y-122090000D01*
X99540000Y-122210000D01*
X99540000Y-122330000D01*
X99660000Y-122330000D01*
X99780000Y-122330000D01*
X99780000Y-122210000D01*
X99780000Y-122090000D01*
X99900000Y-122090000D01*
X100020000Y-122090000D01*
X100020000Y-122330000D01*
X100020000Y-122570000D01*
X100140000Y-122570000D01*
X100260000Y-122570000D01*
X100260000Y-122450000D01*
X100260000Y-122330000D01*
X100620000Y-122330000D01*
X100980000Y-122330000D01*
X100980000Y-122450000D01*
X100980000Y-122570000D01*
X100860000Y-122570000D01*
X100740000Y-122570000D01*
X100740000Y-122690000D01*
X100740000Y-122810000D01*
X100860000Y-122810000D01*
X100980000Y-122810000D01*
X100980000Y-122930000D01*
X100980000Y-123050000D01*
X100860000Y-123050000D01*
X100740000Y-123050000D01*
X100740000Y-123290000D01*
X100740000Y-123530000D01*
X100620000Y-123530000D01*
X100500000Y-123530000D01*
X100500000Y-123650000D01*
X100500000Y-123770000D01*
X100380000Y-123770000D01*
X100260000Y-123770000D01*
X100260000Y-123650000D01*
X100260000Y-123530000D01*
X100140000Y-123530000D01*
X100020000Y-123530000D01*
X100020000Y-123770000D01*
X100020000Y-124010000D01*
X100260000Y-124010000D01*
X100500000Y-124010000D01*
X100500000Y-123890000D01*
X100500000Y-123770000D01*
X100620000Y-123770000D01*
X100740000Y-123770000D01*
X100740000Y-123650000D01*
X100740000Y-123530000D01*
X101100000Y-123530000D01*
X101460000Y-123530000D01*
X101460000Y-123290000D01*
X101460000Y-123050000D01*
X101580000Y-123050000D01*
X101700000Y-123050000D01*
X101700000Y-123290000D01*
X101700000Y-123530000D01*
X101820000Y-123530000D01*
X101940000Y-123530000D01*
X101940000Y-123410000D01*
X101940000Y-123290000D01*
X102060000Y-123290000D01*
X102180000Y-123290000D01*
X102180000Y-123170000D01*
X102180000Y-123050000D01*
X102060000Y-123050000D01*
X101940000Y-123050000D01*
X101940000Y-122810000D01*
X101940000Y-122570000D01*
X101820000Y-122570000D01*
X101700000Y-122570000D01*
X101700000Y-122450000D01*
X101700000Y-122330000D01*
X101820000Y-122330000D01*
X101940000Y-122330000D01*
X101940000Y-122210000D01*
X101940000Y-122090000D01*
X102060000Y-122090000D01*
X102180000Y-122090000D01*
X102180000Y-121970000D01*
X102180000Y-121850000D01*
X102060000Y-121850000D01*
X101940000Y-121850000D01*
X101940000Y-121970000D01*
X101940000Y-122090000D01*
X101700000Y-122090000D01*
X101460000Y-122090000D01*
X101460000Y-121970000D01*
X101460000Y-121850000D01*
X101340000Y-121850000D01*
X101220000Y-121850000D01*
X101220000Y-121610000D01*
X101220000Y-121370000D01*
X101340000Y-121370000D01*
X101460000Y-121370000D01*
X101460000Y-121250000D01*
X101460000Y-121130000D01*
X101220000Y-121130000D01*
X100980000Y-121130000D01*
X100980000Y-121010000D01*
X100980000Y-120890000D01*
X101100000Y-120890000D01*
X101220000Y-120890000D01*
X101220000Y-120770000D01*
X101220000Y-120650000D01*
X101340000Y-120650000D01*
X101460000Y-120650000D01*
X101460000Y-120770000D01*
X101460000Y-120890000D01*
X101580000Y-120890000D01*
X101700000Y-120890000D01*
X102180000Y-120890000D01*
X102300000Y-120890000D01*
X102420000Y-120890000D01*
X102420000Y-120770000D01*
X102420000Y-120650000D01*
X102300000Y-120650000D01*
X102180000Y-120650000D01*
X102180000Y-120770000D01*
X102180000Y-120890000D01*
X101700000Y-120890000D01*
X101700000Y-120770000D01*
X101700000Y-120650000D01*
X101820000Y-120650000D01*
X101940000Y-120650000D01*
X101940000Y-120530000D01*
X101940000Y-120410000D01*
X101820000Y-120410000D01*
X101700000Y-120410000D01*
X101700000Y-120050000D01*
X101700000Y-119690000D01*
X101580000Y-119690000D01*
X101460000Y-119690000D01*
X101460000Y-119930000D01*
X101460000Y-120170000D01*
X101340000Y-120170000D01*
X101220000Y-120170000D01*
X101220000Y-120050000D01*
X101220000Y-119930000D01*
X100980000Y-119930000D01*
X100740000Y-119930000D01*
X100740000Y-119810000D01*
X100740000Y-119690000D01*
X100620000Y-119690000D01*
X100500000Y-119690000D01*
X100500000Y-120050000D01*
X100500000Y-120410000D01*
X100740000Y-120410000D01*
X100980000Y-120410000D01*
X100980000Y-120650000D01*
X100980000Y-120890000D01*
X100860000Y-120890000D01*
X100740000Y-120890000D01*
X100740000Y-120770000D01*
X100740000Y-120650000D01*
X100500000Y-120650000D01*
X100260000Y-120650000D01*
X100260000Y-120530000D01*
X100260000Y-120410000D01*
X100140000Y-120410000D01*
X100020000Y-120410000D01*
X100020000Y-120290000D01*
X100020000Y-120170000D01*
X99900000Y-120170000D01*
X99780000Y-120170000D01*
X99780000Y-119570000D01*
X100020000Y-119570000D01*
X100020000Y-119930000D01*
X100140000Y-119930000D01*
X100260000Y-119930000D01*
X100260000Y-119810000D01*
X100260000Y-119690000D01*
X100380000Y-119690000D01*
X100500000Y-119690000D01*
X100500000Y-119570000D01*
X100980000Y-119570000D01*
X100980000Y-119690000D01*
X101100000Y-119690000D01*
X101220000Y-119690000D01*
X101220000Y-119570000D01*
X101220000Y-119450000D01*
X101340000Y-119450000D01*
X101460000Y-119450000D01*
X101460000Y-119330000D01*
X101460000Y-119210000D01*
X101580000Y-119210000D01*
X101700000Y-119210000D01*
X101700000Y-119090000D01*
X101700000Y-118970000D01*
X101820000Y-118970000D01*
X101940000Y-118970000D01*
X101940000Y-118730000D01*
X101940000Y-118490000D01*
X101820000Y-118490000D01*
X101700000Y-118490000D01*
X101700000Y-118730000D01*
X101700000Y-118970000D01*
X101460000Y-118970000D01*
X101220000Y-118970000D01*
X101220000Y-119210000D01*
X101220000Y-119450000D01*
X101100000Y-119450000D01*
X100980000Y-119450000D01*
X100980000Y-119570000D01*
X100500000Y-119570000D01*
X100500000Y-119450000D01*
X100620000Y-119450000D01*
X100740000Y-119450000D01*
X100740000Y-119330000D01*
X100740000Y-119210000D01*
X100860000Y-119210000D01*
X100980000Y-119210000D01*
X100980000Y-119090000D01*
X100980000Y-118970000D01*
X100860000Y-118970000D01*
X100740000Y-118970000D01*
X100740000Y-119090000D01*
X100740000Y-119210000D01*
X100620000Y-119210000D01*
X100500000Y-119210000D01*
X100500000Y-119090000D01*
X100500000Y-118970000D01*
X100380000Y-118970000D01*
X100260000Y-118970000D01*
X100260000Y-119090000D01*
X100260000Y-119210000D01*
X100140000Y-119210000D01*
X100020000Y-119210000D01*
X100020000Y-119570000D01*
X99780000Y-119570000D01*
X99780000Y-119450000D01*
X99780000Y-119210000D01*
X99780000Y-118730000D01*
X99900000Y-118730000D01*
X100020000Y-118730000D01*
X100020000Y-118610000D01*
X100020000Y-118490000D01*
X100140000Y-118490000D01*
X100260000Y-118490000D01*
X100260000Y-118610000D01*
X100260000Y-118730000D01*
X100500000Y-118730000D01*
X100740000Y-118730000D01*
X100740000Y-118610000D01*
X100740000Y-118490000D01*
X100620000Y-118490000D01*
X100500000Y-118490000D01*
X100500000Y-118250000D01*
X100740000Y-118250000D01*
X100860000Y-118250000D01*
X100980000Y-118250000D01*
X100980000Y-118130000D01*
X100980000Y-118010000D01*
X100860000Y-118010000D01*
X100740000Y-118010000D01*
X100740000Y-118130000D01*
X100740000Y-118250000D01*
X100500000Y-118250000D01*
X100500000Y-118130000D01*
X100500000Y-118010000D01*
X100620000Y-118010000D01*
X100740000Y-118010000D01*
X100740000Y-117890000D01*
X100740000Y-117770000D01*
X100500000Y-117770000D01*
X100260000Y-117770000D01*
X100260000Y-118010000D01*
X100260000Y-118250000D01*
X100140000Y-118250000D01*
X100020000Y-118250000D01*
X100020000Y-118370000D01*
X100020000Y-118490000D01*
X99900000Y-118490000D01*
X99780000Y-118490000D01*
X99780000Y-118370000D01*
X99780000Y-118250000D01*
X99660000Y-118250000D01*
X99540000Y-118250000D01*
X99540000Y-118130000D01*
X99540000Y-118010000D01*
X99420000Y-118010000D01*
X99300000Y-118010000D01*
X99300000Y-118250000D01*
X99300000Y-118490000D01*
X99540000Y-118490000D01*
X99780000Y-118490000D01*
X99780000Y-118610000D01*
X99780000Y-118730000D01*
X99540000Y-118730000D01*
X99300000Y-118730000D01*
X99300000Y-118850000D01*
X99300000Y-118970000D01*
X99180000Y-118970000D01*
X99060000Y-118970000D01*
X99060000Y-118850000D01*
X99060000Y-118730000D01*
X98940000Y-118730000D01*
X98820000Y-118730000D01*
X98820000Y-118850000D01*
X98820000Y-118970000D01*
X98700000Y-118970000D01*
X98580000Y-118970000D01*
X98580000Y-118730000D01*
X98580000Y-118490000D01*
X98700000Y-118490000D01*
X98820000Y-118490000D01*
X98820000Y-118370000D01*
X98820000Y-118250000D01*
X98700000Y-118250000D01*
X98580000Y-118250000D01*
X98580000Y-118370000D01*
X98580000Y-118490000D01*
X98460000Y-118490000D01*
X98340000Y-118490000D01*
X98340000Y-118730000D01*
X98340000Y-118970000D01*
X98220000Y-118970000D01*
X98100000Y-118970000D01*
X98100000Y-118730000D01*
X98100000Y-118490000D01*
X97980000Y-118490000D01*
X97860000Y-118490000D01*
X97860000Y-118730000D01*
X97860000Y-118970000D01*
X97620000Y-118970000D01*
X97380000Y-118970000D01*
X97380000Y-118850000D01*
X97380000Y-118730000D01*
X97260000Y-118730000D01*
X97140000Y-118730000D01*
X97140000Y-118850000D01*
X97140000Y-118970000D01*
X97020000Y-118970000D01*
X96900000Y-118970000D01*
X96900000Y-118730000D01*
X96900000Y-118490000D01*
X97260000Y-118490000D01*
X97620000Y-118490000D01*
X97620000Y-118250000D01*
X97860000Y-118250000D01*
X97980000Y-118250000D01*
X98100000Y-118250000D01*
X98340000Y-118250000D01*
X98460000Y-118250000D01*
X98580000Y-118250000D01*
X98580000Y-118130000D01*
X98580000Y-118010000D01*
X98460000Y-118010000D01*
X98340000Y-118010000D01*
X98340000Y-118130000D01*
X98340000Y-118250000D01*
X98100000Y-118250000D01*
X98100000Y-118130000D01*
X98100000Y-118010000D01*
X98100000Y-117770000D01*
X98340000Y-117770000D01*
X98580000Y-117770000D01*
X98820000Y-117770000D01*
X98820000Y-117650000D01*
X98820000Y-117530000D01*
X98580000Y-117530000D01*
X98340000Y-117530000D01*
X98340000Y-117650000D01*
X98340000Y-117770000D01*
X98100000Y-117770000D01*
X97980000Y-117770000D01*
X97860000Y-117770000D01*
X97860000Y-118010000D01*
X97860000Y-118250000D01*
X97620000Y-118250000D01*
X97620000Y-118130000D01*
X97620000Y-118010000D01*
X97620000Y-117770000D01*
X97740000Y-117770000D01*
X97860000Y-117770000D01*
X97860000Y-117650000D01*
X97860000Y-117530000D01*
X97740000Y-117530000D01*
X97620000Y-117530000D01*
X97620000Y-117410000D01*
X97620000Y-117290000D01*
X97740000Y-117290000D01*
X97860000Y-117290000D01*
X97860000Y-117410000D01*
X97860000Y-117530000D01*
X98100000Y-117530000D01*
X98340000Y-117530000D01*
X98340000Y-117410000D01*
X98340000Y-117290000D01*
X98220000Y-117290000D01*
X98100000Y-117290000D01*
X98100000Y-117170000D01*
X98100000Y-117050000D01*
X97860000Y-117050000D01*
X97620000Y-117050000D01*
X97620000Y-116930000D01*
X97620000Y-116810000D01*
X97860000Y-116810000D01*
X98100000Y-116810000D01*
X98100000Y-116930000D01*
X98100000Y-117050000D01*
X98220000Y-117050000D01*
X98340000Y-117050000D01*
X98340000Y-116930000D01*
X98340000Y-116810000D01*
X98460000Y-116810000D01*
X98580000Y-116810000D01*
X98580000Y-116690000D01*
X98580000Y-116570000D01*
X98940000Y-116570000D01*
X99300000Y-116570000D01*
X99300000Y-116810000D01*
G37*
G36*
X97860000Y-123170000D02*
G01*
X97860000Y-123290000D01*
X98100000Y-123290000D01*
X98340000Y-123290000D01*
X98340000Y-123170000D01*
X98340000Y-123050000D01*
X98460000Y-123050000D01*
X98580000Y-123050000D01*
X98580000Y-123170000D01*
X98580000Y-123290000D01*
X98700000Y-123290000D01*
X98820000Y-123290000D01*
X98820000Y-123530000D01*
X98820000Y-123770000D01*
X98940000Y-123770000D01*
X99060000Y-123770000D01*
X99060000Y-124010000D01*
X99060000Y-124250000D01*
X98940000Y-124250000D01*
X98820000Y-124250000D01*
X98820000Y-124130000D01*
X98820000Y-124010000D01*
X98700000Y-124010000D01*
X98580000Y-124010000D01*
X98580000Y-124250000D01*
X98580000Y-124490000D01*
X98340000Y-124490000D01*
X98100000Y-124490000D01*
X98100000Y-124370000D01*
X98100000Y-124250000D01*
X97860000Y-124250000D01*
X97620000Y-124250000D01*
X97620000Y-123890000D01*
X97620000Y-123770000D01*
X98100000Y-123770000D01*
X98220000Y-123770000D01*
X98340000Y-123770000D01*
X98340000Y-123890000D01*
X98340000Y-124010000D01*
X98220000Y-124010000D01*
X98100000Y-124010000D01*
X98100000Y-124130000D01*
X98100000Y-124250000D01*
X98220000Y-124250000D01*
X98340000Y-124250000D01*
X98340000Y-124130000D01*
X98340000Y-124010000D01*
X98460000Y-124010000D01*
X98580000Y-124010000D01*
X98580000Y-123770000D01*
X98580000Y-123530000D01*
X98340000Y-123530000D01*
X98100000Y-123530000D01*
X98100000Y-123650000D01*
X98100000Y-123770000D01*
X97620000Y-123770000D01*
X97620000Y-123650000D01*
X97620000Y-123530000D01*
X97740000Y-123530000D01*
X97860000Y-123530000D01*
X97860000Y-123410000D01*
X97860000Y-123290000D01*
X97740000Y-123290000D01*
X97620000Y-123290000D01*
X97620000Y-123170000D01*
X97620000Y-123050000D01*
X97740000Y-123050000D01*
X97860000Y-123050000D01*
X97860000Y-123170000D01*
G37*
G36*
X104580000Y-124370000D02*
G01*
X104580000Y-124490000D01*
X104460000Y-124490000D01*
X104340000Y-124490000D01*
X104340000Y-124370000D01*
X104340000Y-124250000D01*
X104460000Y-124250000D01*
X104580000Y-124250000D01*
X104580000Y-124370000D01*
G37*
G36*
X104100000Y-120530000D02*
G01*
X104100000Y-120890000D01*
X103740000Y-120890000D01*
X103380000Y-120890000D01*
X103380000Y-121010000D01*
X103380000Y-121130000D01*
X103260000Y-121130000D01*
X103140000Y-121130000D01*
X103140000Y-121010000D01*
X103140000Y-120890000D01*
X103020000Y-120890000D01*
X102900000Y-120890000D01*
X102900000Y-120770000D01*
X102900000Y-120650000D01*
X103020000Y-120650000D01*
X103140000Y-120650000D01*
X103140000Y-120770000D01*
X103140000Y-120890000D01*
X103260000Y-120890000D01*
X103380000Y-120890000D01*
X103380000Y-120650000D01*
X103380000Y-120410000D01*
X103500000Y-120410000D01*
X103620000Y-120410000D01*
X103620000Y-120530000D01*
X103620000Y-120650000D01*
X103740000Y-120650000D01*
X103860000Y-120650000D01*
X103860000Y-120410000D01*
X103860000Y-120170000D01*
X103980000Y-120170000D01*
X104100000Y-120170000D01*
X104100000Y-120530000D01*
G37*
G36*
X102660000Y-119330000D02*
G01*
X102660000Y-119450000D01*
X102540000Y-119450000D01*
X102420000Y-119450000D01*
X102420000Y-119330000D01*
X102420000Y-119210000D01*
X102540000Y-119210000D01*
X102660000Y-119210000D01*
X102660000Y-119330000D01*
G37*
G36*
X104580000Y-125210000D02*
G01*
X104580000Y-125450000D01*
X104460000Y-125450000D01*
X104340000Y-125450000D01*
X104340000Y-125210000D01*
X104340000Y-124970000D01*
X104460000Y-124970000D01*
X104580000Y-124970000D01*
X104580000Y-125210000D01*
G37*
G36*
X99300000Y-123410000D02*
G01*
X99300000Y-123530000D01*
X99180000Y-123530000D01*
X99060000Y-123530000D01*
X99060000Y-123410000D01*
X99060000Y-123290000D01*
X99180000Y-123290000D01*
X99300000Y-123290000D01*
X99300000Y-123410000D01*
G37*
G36*
X104580000Y-120530000D02*
G01*
X104580000Y-120650000D01*
X104460000Y-120650000D01*
X104340000Y-120650000D01*
X104340000Y-120530000D01*
X104340000Y-120410000D01*
X104460000Y-120410000D01*
X104580000Y-120410000D01*
X104580000Y-120530000D01*
G37*
G36*
X103860000Y-118610000D02*
G01*
X103860000Y-118730000D01*
X103980000Y-118730000D01*
X104100000Y-118730000D01*
X104100000Y-118610000D01*
X104100000Y-118490000D01*
X104220000Y-118490000D01*
X104340000Y-118490000D01*
X104340000Y-118610000D01*
X104340000Y-118730000D01*
X104220000Y-118730000D01*
X104100000Y-118730000D01*
X104100000Y-118850000D01*
X104100000Y-118970000D01*
X104220000Y-118970000D01*
X104340000Y-118970000D01*
X104340000Y-118850000D01*
X104340000Y-118730000D01*
X104460000Y-118730000D01*
X104580000Y-118730000D01*
X104580000Y-119090000D01*
X104580000Y-119450000D01*
X104460000Y-119450000D01*
X104340000Y-119450000D01*
X104340000Y-119570000D01*
X104340000Y-119690000D01*
X104460000Y-119690000D01*
X104580000Y-119690000D01*
X104580000Y-119930000D01*
X104580000Y-120170000D01*
X104460000Y-120170000D01*
X104340000Y-120170000D01*
X104340000Y-120050000D01*
X104340000Y-119930000D01*
X104220000Y-119930000D01*
X104100000Y-119930000D01*
X104100000Y-119810000D01*
X104100000Y-119690000D01*
X103860000Y-119690000D01*
X103620000Y-119690000D01*
X103620000Y-119810000D01*
X103620000Y-119930000D01*
X103500000Y-119930000D01*
X103380000Y-119930000D01*
X103380000Y-120050000D01*
X103380000Y-120170000D01*
X103140000Y-120170000D01*
X102900000Y-120170000D01*
X102900000Y-120050000D01*
X102900000Y-119930000D01*
X103140000Y-119930000D01*
X103380000Y-119930000D01*
X103380000Y-119810000D01*
X103380000Y-119690000D01*
X103260000Y-119690000D01*
X103140000Y-119690000D01*
X103140000Y-119570000D01*
X103140000Y-119450000D01*
X103260000Y-119450000D01*
X103380000Y-119450000D01*
X103380000Y-119570000D01*
X103380000Y-119690000D01*
X103500000Y-119690000D01*
X103620000Y-119690000D01*
X103620000Y-119570000D01*
X103620000Y-119450000D01*
X103740000Y-119450000D01*
X103860000Y-119450000D01*
X104100000Y-119450000D01*
X104220000Y-119450000D01*
X104340000Y-119450000D01*
X104340000Y-119330000D01*
X104340000Y-119210000D01*
X104220000Y-119210000D01*
X104100000Y-119210000D01*
X104100000Y-119330000D01*
X104100000Y-119450000D01*
X103860000Y-119450000D01*
X103860000Y-119330000D01*
X103860000Y-119210000D01*
X103980000Y-119210000D01*
X104100000Y-119210000D01*
X104100000Y-119090000D01*
X104100000Y-118970000D01*
X103980000Y-118970000D01*
X103860000Y-118970000D01*
X103860000Y-118850000D01*
X103860000Y-118730000D01*
X103740000Y-118730000D01*
X103620000Y-118730000D01*
X103620000Y-118610000D01*
X103620000Y-118490000D01*
X103740000Y-118490000D01*
X103860000Y-118490000D01*
X103860000Y-118610000D01*
G37*
G36*
X103620000Y-119090000D02*
G01*
X103620000Y-119210000D01*
X103500000Y-119210000D01*
X103380000Y-119210000D01*
X103380000Y-119090000D01*
X103380000Y-118970000D01*
X103500000Y-118970000D01*
X103620000Y-118970000D01*
X103620000Y-119090000D01*
G37*
G36*
X97380000Y-117410000D02*
G01*
X97380000Y-118250000D01*
X96540000Y-118250000D01*
X95700000Y-118250000D01*
X95700000Y-118010000D01*
X95940000Y-118010000D01*
X96540000Y-118010000D01*
X97140000Y-118010000D01*
X97140000Y-117410000D01*
X97140000Y-116810000D01*
X96540000Y-116810000D01*
X95940000Y-116810000D01*
X95940000Y-117410000D01*
X95940000Y-118010000D01*
X95700000Y-118010000D01*
X95700000Y-117410000D01*
X95700000Y-116570000D01*
X96540000Y-116570000D01*
X97380000Y-116570000D01*
X97380000Y-117410000D01*
G37*
G36*
X104580000Y-117410000D02*
G01*
X104580000Y-118250000D01*
X103740000Y-118250000D01*
X102900000Y-118250000D01*
X102900000Y-118010000D01*
X103140000Y-118010000D01*
X103740000Y-118010000D01*
X104340000Y-118010000D01*
X104340000Y-117410000D01*
X104340000Y-116810000D01*
X103740000Y-116810000D01*
X103140000Y-116810000D01*
X103140000Y-117410000D01*
X103140000Y-118010000D01*
X102900000Y-118010000D01*
X102900000Y-117410000D01*
X102900000Y-116570000D01*
X103740000Y-116570000D01*
X104580000Y-116570000D01*
X104580000Y-117410000D01*
G37*
G36*
X96900000Y-124610000D02*
G01*
X96900000Y-124970000D01*
X96540000Y-124970000D01*
X96180000Y-124970000D01*
X96180000Y-124610000D01*
X96180000Y-124250000D01*
X96540000Y-124250000D01*
X96900000Y-124250000D01*
X96900000Y-124610000D01*
G37*
G36*
X100500000Y-124850000D02*
G01*
X100500000Y-124970000D01*
X100380000Y-124970000D01*
X100260000Y-124970000D01*
X100260000Y-124850000D01*
X100260000Y-124730000D01*
X100380000Y-124730000D01*
X100500000Y-124730000D01*
X100500000Y-124850000D01*
G37*
G36*
X103140000Y-123890000D02*
G01*
X103140000Y-124010000D01*
X103020000Y-124010000D01*
X102900000Y-124010000D01*
X102900000Y-123890000D01*
X102900000Y-123770000D01*
X103020000Y-123770000D01*
X103140000Y-123770000D01*
X103140000Y-123890000D01*
G37*
G36*
X101460000Y-122570000D02*
G01*
X101460000Y-122810000D01*
X101220000Y-122810000D01*
X100980000Y-122810000D01*
X100980000Y-122690000D01*
X100980000Y-122570000D01*
X101100000Y-122570000D01*
X101220000Y-122570000D01*
X101220000Y-122450000D01*
X101220000Y-122330000D01*
X101340000Y-122330000D01*
X101460000Y-122330000D01*
X101460000Y-122570000D01*
G37*
G36*
X101220000Y-121970000D02*
G01*
X101220000Y-122090000D01*
X101100000Y-122090000D01*
X100980000Y-122090000D01*
X100980000Y-121970000D01*
X100980000Y-121850000D01*
X101100000Y-121850000D01*
X101220000Y-121850000D01*
X101220000Y-121970000D01*
G37*
G36*
X100980000Y-121250000D02*
G01*
X100980000Y-121370000D01*
X100860000Y-121370000D01*
X100740000Y-121370000D01*
X100740000Y-121490000D01*
X100740000Y-121610000D01*
X100860000Y-121610000D01*
X100980000Y-121610000D01*
X100980000Y-121730000D01*
X100980000Y-121850000D01*
X100620000Y-121850000D01*
X100260000Y-121850000D01*
X100260000Y-121730000D01*
X100260000Y-121610000D01*
X100380000Y-121610000D01*
X100500000Y-121610000D01*
X100500000Y-121370000D01*
X100500000Y-121130000D01*
X100740000Y-121130000D01*
X100980000Y-121130000D01*
X100980000Y-121250000D01*
G37*
G36*
X100500000Y-121010000D02*
G01*
X100500000Y-121130000D01*
X100380000Y-121130000D01*
X100260000Y-121130000D01*
X100260000Y-121010000D01*
X100260000Y-120890000D01*
X100380000Y-120890000D01*
X100500000Y-120890000D01*
X100500000Y-121010000D01*
G37*
G36*
X100260000Y-120770000D02*
G01*
X100260000Y-120890000D01*
X100140000Y-120890000D01*
X100020000Y-120890000D01*
X100020000Y-120770000D01*
X100020000Y-120650000D01*
X100140000Y-120650000D01*
X100260000Y-120650000D01*
X100260000Y-120770000D01*
G37*
G36*
X100020000Y-120530000D02*
G01*
X100020000Y-120650000D01*
X99900000Y-120650000D01*
X99780000Y-120650000D01*
X99780000Y-120530000D01*
X99780000Y-120410000D01*
X99900000Y-120410000D01*
X100020000Y-120410000D01*
X100020000Y-120530000D01*
G37*
G36*
X97380000Y-121010000D02*
G01*
X97380000Y-121130000D01*
X97260000Y-121130000D01*
X97140000Y-121130000D01*
X97140000Y-121250000D01*
X97140000Y-121370000D01*
X97020000Y-121370000D01*
X96900000Y-121370000D01*
X96900000Y-121490000D01*
X96900000Y-121610000D01*
X96780000Y-121610000D01*
X96660000Y-121610000D01*
X96660000Y-121490000D01*
X96660000Y-121370000D01*
X96780000Y-121370000D01*
X96900000Y-121370000D01*
X96900000Y-121250000D01*
X96900000Y-121130000D01*
X97020000Y-121130000D01*
X97140000Y-121130000D01*
X97140000Y-121010000D01*
X97140000Y-120890000D01*
X97260000Y-120890000D01*
X97380000Y-120890000D01*
X97380000Y-121010000D01*
G37*
G36*
X97380000Y-121490000D02*
G01*
X97380000Y-121610000D01*
X97260000Y-121610000D01*
X97140000Y-121610000D01*
X97140000Y-121490000D01*
X97140000Y-121370000D01*
X97260000Y-121370000D01*
X97380000Y-121370000D01*
X97380000Y-121490000D01*
G37*
G36*
X101220000Y-120290000D02*
G01*
X101220000Y-120410000D01*
X101100000Y-120410000D01*
X100980000Y-120410000D01*
X100980000Y-120290000D01*
X100980000Y-120170000D01*
X101100000Y-120170000D01*
X101220000Y-120170000D01*
X101220000Y-120290000D01*
G37*
G36*
X97380000Y-120050000D02*
G01*
X97380000Y-120170000D01*
X97260000Y-120170000D01*
X97140000Y-120170000D01*
X97140000Y-120050000D01*
X97140000Y-119930000D01*
X97260000Y-119930000D01*
X97380000Y-119930000D01*
X97380000Y-120050000D01*
G37*
G36*
X97380000Y-119570000D02*
G01*
X97380000Y-119690000D01*
X97260000Y-119690000D01*
X97140000Y-119690000D01*
X97140000Y-119810000D01*
X97140000Y-119930000D01*
X97020000Y-119930000D01*
X96900000Y-119930000D01*
X96900000Y-119810000D01*
X96900000Y-119690000D01*
X97020000Y-119690000D01*
X97140000Y-119690000D01*
X97140000Y-119570000D01*
X97140000Y-119450000D01*
X97260000Y-119450000D01*
X97380000Y-119450000D01*
X97380000Y-119570000D01*
G37*
G36*
X98580000Y-119090000D02*
G01*
X98580000Y-119210000D01*
X98460000Y-119210000D01*
X98340000Y-119210000D01*
X98340000Y-119090000D01*
X98340000Y-118970000D01*
X98460000Y-118970000D01*
X98580000Y-118970000D01*
X98580000Y-119090000D01*
G37*
G36*
X99540000Y-119090000D02*
G01*
X99540000Y-119210000D01*
X99420000Y-119210000D01*
X99300000Y-119210000D01*
X99300000Y-119090000D01*
X99300000Y-118970000D01*
X99420000Y-118970000D01*
X99540000Y-118970000D01*
X99540000Y-119090000D01*
G37*
G36*
X104100000Y-123170000D02*
G01*
X104100000Y-123290000D01*
X103980000Y-123290000D01*
X103860000Y-123290000D01*
X103860000Y-123170000D01*
X103860000Y-123050000D01*
X103980000Y-123050000D01*
X104100000Y-123050000D01*
X104100000Y-123170000D01*
G37*
G36*
X96900000Y-117410000D02*
G01*
X96900000Y-117770000D01*
X96540000Y-117770000D01*
X96180000Y-117770000D01*
X96180000Y-117410000D01*
X96180000Y-117050000D01*
X96540000Y-117050000D01*
X96900000Y-117050000D01*
X96900000Y-117410000D01*
G37*
G36*
X104100000Y-117410000D02*
G01*
X104100000Y-117770000D01*
X103740000Y-117770000D01*
X103380000Y-117770000D01*
X103380000Y-117410000D01*
X103380000Y-117050000D01*
X103740000Y-117050000D01*
X104100000Y-117050000D01*
X104100000Y-117410000D01*
G37*
D14*
%TO.C,U1*%
X97223045Y-100767767D02*
G75*
G02*
X97023045Y-100767767I-100000J0D01*
G01*
X97023045Y-100767767D02*
G75*
G02*
X97223045Y-100767767I100000J0D01*
G01*
D15*
X103232447Y-100767767D02*
X102489985Y-100025305D01*
X100092893Y-97628213D02*
X100835355Y-98370675D01*
X102489985Y-101510229D02*
X103232447Y-100767767D01*
X99350431Y-98370675D02*
X100092893Y-97628213D01*
X100835355Y-103164859D02*
X100092893Y-103907321D01*
X100092893Y-103907321D02*
X99350431Y-103164859D01*
%TO.C,TP4*%
X98300000Y-113200000D02*
G75*
G02*
X96900000Y-113200000I-700000J0D01*
G01*
X96900000Y-113200000D02*
G75*
G02*
X98300000Y-113200000I700000J0D01*
G01*
%TO.C,TP3*%
X105700000Y-86200000D02*
G75*
G02*
X104300000Y-86200000I-700000J0D01*
G01*
X104300000Y-86200000D02*
G75*
G02*
X105700000Y-86200000I700000J0D01*
G01*
%TO.C,TP2*%
X106300000Y-113600000D02*
G75*
G02*
X104900000Y-113600000I-700000J0D01*
G01*
X104900000Y-113600000D02*
G75*
G02*
X106300000Y-113600000I700000J0D01*
G01*
%TO.C,TP1*%
X98700000Y-95600000D02*
G75*
G02*
X97300000Y-95600000I-700000J0D01*
G01*
X97300000Y-95600000D02*
G75*
G02*
X98700000Y-95600000I700000J0D01*
G01*
%TO.C,Y1*%
X98039999Y-104340000D02*
X98039999Y-107960000D01*
X98039999Y-107960000D02*
X102359999Y-107960000D01*
%TO.C,U4*%
X94010000Y-72552500D02*
X94010000Y-74372500D01*
X93960000Y-72552500D02*
X94010000Y-72552500D01*
X90890000Y-72552500D02*
X90940000Y-72552500D01*
X94010000Y-74372500D02*
X93960000Y-74372500D01*
X92840000Y-74372500D02*
X92060000Y-74372500D01*
X90940000Y-74372500D02*
X90890000Y-74372500D01*
X90890000Y-74372500D02*
X90890000Y-72552500D01*
X94290000Y-72252500D02*
X93960000Y-72012500D01*
X94290000Y-71772500D01*
X94290000Y-72252500D01*
G36*
X94290000Y-72252500D02*
G01*
X93960000Y-72012500D01*
X94290000Y-71772500D01*
X94290000Y-72252500D01*
G37*
%TO.C,U3*%
X109110000Y-72427500D02*
X109110000Y-74247500D01*
X109060000Y-72427500D02*
X109110000Y-72427500D01*
X105990000Y-72427500D02*
X106040000Y-72427500D01*
X109110000Y-74247500D02*
X109060000Y-74247500D01*
X107940000Y-74247500D02*
X107160000Y-74247500D01*
X106040000Y-74247500D02*
X105990000Y-74247500D01*
X105990000Y-74247500D02*
X105990000Y-72427500D01*
X109390000Y-72127500D02*
X109060000Y-71887500D01*
X109390000Y-71647500D01*
X109390000Y-72127500D01*
G36*
X109390000Y-72127500D02*
G01*
X109060000Y-71887500D01*
X109390000Y-71647500D01*
X109390000Y-72127500D01*
G37*
%TO.C,U2*%
X99710000Y-85490000D02*
X99710000Y-85965000D01*
X99235000Y-85490000D02*
X99710000Y-85490000D01*
X95490000Y-85490000D02*
X95965000Y-85490000D01*
X95490000Y-85965000D02*
X95490000Y-85490000D01*
X99710000Y-89235000D02*
X99710000Y-89710000D01*
X99710000Y-89710000D02*
X99235000Y-89710000D01*
X95965000Y-89710000D02*
X95490000Y-89710000D01*
X95490000Y-89710000D02*
X95490000Y-89235000D01*
X98850000Y-84990000D02*
X98610000Y-84660000D01*
X99090000Y-84660000D01*
X98850000Y-84990000D01*
G36*
X98850000Y-84990000D02*
G01*
X98610000Y-84660000D01*
X99090000Y-84660000D01*
X98850000Y-84990000D01*
G37*
%TO.C,SW1*%
X108010000Y-103315000D02*
X107760000Y-103315000D01*
X104540000Y-103315000D02*
X104290000Y-103315000D01*
X104290000Y-103315000D02*
X104290000Y-108235000D01*
X108010000Y-108235000D02*
X108010000Y-103315000D01*
X108010000Y-108235000D02*
X107760000Y-108235000D01*
X104540000Y-108235000D02*
X104290000Y-108235000D01*
%TO.C,R12*%
X103420000Y-94643641D02*
X103420000Y-94336359D01*
X104180000Y-94643641D02*
X104180000Y-94336359D01*
%TO.C,R9*%
X102646359Y-109620000D02*
X102953641Y-109620000D01*
X102646359Y-110380000D02*
X102953641Y-110380000D01*
%TO.C,R3*%
X94357500Y-84813641D02*
X94357500Y-84506359D01*
X95117500Y-84813641D02*
X95117500Y-84506359D01*
%TO.C,R2*%
X99180000Y-78356359D02*
X99180000Y-78663641D01*
X98420000Y-78356359D02*
X98420000Y-78663641D01*
%TO.C,R1*%
X101780000Y-78336359D02*
X101780000Y-78643641D01*
X101020000Y-78336359D02*
X101020000Y-78643641D01*
%TO.C,Q1*%
X105690000Y-97622500D02*
X105690000Y-96102500D01*
X105740000Y-97622500D02*
X105690000Y-97622500D01*
X107640000Y-97622500D02*
X106860000Y-97622500D01*
X108810000Y-97622500D02*
X108760000Y-97622500D01*
X105690000Y-96102500D02*
X106690000Y-96102500D01*
X107810000Y-96102500D02*
X108810000Y-96102500D01*
X108810000Y-96102500D02*
X108810000Y-97622500D01*
X107200000Y-98402500D02*
X106870000Y-98162500D01*
X107200000Y-97922500D01*
X107200000Y-98402500D01*
G36*
X107200000Y-98402500D02*
G01*
X106870000Y-98162500D01*
X107200000Y-97922500D01*
X107200000Y-98402500D01*
G37*
%TO.C,J4*%
X107540000Y-130820000D02*
X107540000Y-132200000D01*
X106160000Y-130820000D02*
X107540000Y-130820000D01*
X104890000Y-130820000D02*
X92080000Y-130820000D01*
X104890000Y-130820000D02*
X104890000Y-133580000D01*
X92080000Y-130820000D02*
X92080000Y-133580000D01*
X104890000Y-133580000D02*
X92080000Y-133580000D01*
%TO.C,J3*%
X110120000Y-69620000D02*
X111500000Y-69620000D01*
X110120000Y-71000000D02*
X110120000Y-69620000D01*
X110120000Y-72270000D02*
X110120000Y-130800000D01*
X110120000Y-72270000D02*
X112880000Y-72270000D01*
X110120000Y-130800000D02*
X112880000Y-130800000D01*
X112880000Y-72270000D02*
X112880000Y-130800000D01*
%TO.C,J2*%
X86620000Y-69620000D02*
X88000000Y-69620000D01*
X86620000Y-71000000D02*
X86620000Y-69620000D01*
X86620000Y-72270000D02*
X86620000Y-130800000D01*
X86620000Y-72270000D02*
X89380000Y-72270000D01*
X86620000Y-130800000D02*
X89380000Y-130800000D01*
X89380000Y-72270000D02*
X89380000Y-130800000D01*
%TO.C,J1*%
X104820000Y-73455000D02*
X104820000Y-71675000D01*
X102920000Y-76375000D02*
X103720000Y-76375000D01*
X95420000Y-73455000D02*
X95420000Y-71675000D01*
D16*
%TO.C,D2*%
X107450000Y-94205000D02*
G75*
G02*
X107350000Y-94205000I-50000J0D01*
G01*
X107350000Y-94205000D02*
G75*
G02*
X107450000Y-94205000I50000J0D01*
G01*
%TO.C,D1*%
X102045000Y-80400000D02*
G75*
G02*
X101945000Y-80400000I-50000J0D01*
G01*
X101945000Y-80400000D02*
G75*
G02*
X102045000Y-80400000I50000J0D01*
G01*
D15*
%TO.C,C10*%
X107012164Y-70040000D02*
X107227836Y-70040000D01*
X107012164Y-70760000D02*
X107227836Y-70760000D01*
%TO.C,C9*%
X107427836Y-76560000D02*
X107212164Y-76560000D01*
X107427836Y-75840000D02*
X107212164Y-75840000D01*
%TO.C,C8*%
X93612164Y-76240000D02*
X93827836Y-76240000D01*
X93612164Y-76960000D02*
X93827836Y-76960000D01*
%TO.C,C7*%
X91812164Y-70240000D02*
X92027836Y-70240000D01*
X91812164Y-70960000D02*
X92027836Y-70960000D01*
%TO.C,C6*%
X95977500Y-83997836D02*
X95977500Y-83782164D01*
X96697500Y-83997836D02*
X96697500Y-83782164D01*
%TO.C,C5*%
X97040000Y-83307836D02*
X97040000Y-83092164D01*
X97760000Y-83307836D02*
X97760000Y-83092164D01*
%TO.C,C4*%
X93497500Y-88162164D02*
X93497500Y-88377836D01*
X92777500Y-88162164D02*
X92777500Y-88377836D01*
%TO.C,C3*%
X92725336Y-86710000D02*
X92509664Y-86710000D01*
X92725336Y-85990000D02*
X92509664Y-85990000D01*
%TO.C,C2*%
X95787836Y-78360000D02*
X95572164Y-78360000D01*
X95787836Y-77640000D02*
X95572164Y-77640000D01*
%TO.C,C1*%
X104692164Y-77440000D02*
X104907836Y-77440000D01*
X104692164Y-78160000D02*
X104907836Y-78160000D01*
%TD*%
%LPC*%
D17*
%TO.C,U1*%
X99739340Y-100767767D03*
X102567767Y-100767767D03*
X102214213Y-101121320D03*
X101860660Y-101474874D03*
X101507107Y-101828427D03*
X101153553Y-102181981D03*
X100800000Y-102535534D03*
X100446446Y-102889087D03*
X100092893Y-103242641D03*
X102214213Y-100414214D03*
X101860660Y-100767767D03*
X101507107Y-101121320D03*
X101153553Y-101474874D03*
X100800000Y-101828427D03*
X100446446Y-102181981D03*
X100092893Y-102535534D03*
X99739340Y-102889087D03*
X101860660Y-100060660D03*
X101507107Y-100414214D03*
X101153553Y-100767767D03*
X100800000Y-101121320D03*
X100446446Y-101474874D03*
X100092893Y-101828427D03*
X99739340Y-102181981D03*
X99385786Y-102535534D03*
X101507107Y-99707107D03*
X101153553Y-100060660D03*
X100800000Y-100414214D03*
X100446446Y-100767767D03*
X100092893Y-101121320D03*
X99739340Y-101474874D03*
X99385786Y-101828427D03*
X99032233Y-102181981D03*
X101153553Y-99353553D03*
X100800000Y-99707107D03*
X100446446Y-100060660D03*
X100092893Y-100414214D03*
X99385786Y-101121320D03*
X99032233Y-101474874D03*
X98678679Y-101828427D03*
X100800000Y-99000000D03*
X100446446Y-99353553D03*
X100092893Y-99707107D03*
X99739340Y-100060660D03*
X99385786Y-100414214D03*
X99032233Y-100767767D03*
X98678679Y-101121320D03*
X98325126Y-101474874D03*
X100446446Y-98646447D03*
X100092893Y-99000000D03*
X99739340Y-99353553D03*
X99385786Y-99707107D03*
X99032233Y-100060660D03*
X98678679Y-100414214D03*
X98325126Y-100767767D03*
X97971573Y-101121320D03*
X100092893Y-98292893D03*
X99739340Y-98646447D03*
X99385786Y-99000000D03*
X99032233Y-99353553D03*
X98678679Y-99707107D03*
X98325126Y-100060660D03*
X97971573Y-100414214D03*
X97618019Y-100767767D03*
%TD*%
D18*
%TO.C,TP4*%
X97600000Y-113200000D03*
%TD*%
%TO.C,TP3*%
X105000000Y-86200000D03*
%TD*%
%TO.C,TP2*%
X105600000Y-113600000D03*
%TD*%
%TO.C,TP1*%
X98000000Y-95600000D03*
%TD*%
D19*
%TO.C,Y1*%
X98999998Y-107100000D03*
X101400000Y-107100000D03*
X101400000Y-105200000D03*
X98999998Y-105200000D03*
%TD*%
D20*
%TO.C,U4*%
X93400000Y-72325000D03*
X92450000Y-72325000D03*
X91500000Y-72325000D03*
X91500000Y-74600000D03*
X93400000Y-74600000D03*
%TD*%
%TO.C,U3*%
X108500000Y-72200000D03*
X107550000Y-72200000D03*
X106600000Y-72200000D03*
X106600000Y-74475000D03*
X108500000Y-74475000D03*
%TD*%
D21*
%TO.C,U2*%
X98850000Y-85662500D03*
X98350000Y-85662500D03*
X97850000Y-85662500D03*
X97350000Y-85662500D03*
X96850000Y-85662500D03*
X96350000Y-85662500D03*
D22*
X95662500Y-86350000D03*
X95662500Y-86850000D03*
X95662500Y-87350000D03*
X95662500Y-87850000D03*
X95662500Y-88350000D03*
X95662500Y-88850000D03*
D21*
X96350000Y-89537500D03*
X96850000Y-89537500D03*
X97350000Y-89537500D03*
X97850000Y-89537500D03*
X98350000Y-89537500D03*
X98850000Y-89537500D03*
D22*
X99537500Y-88850000D03*
X99537500Y-88350000D03*
X99537500Y-87850000D03*
X99537500Y-87350000D03*
X99537500Y-86850000D03*
X99537500Y-86350000D03*
D23*
X97600000Y-87600000D03*
%TD*%
D24*
%TO.C,SW1*%
X107000000Y-103200000D03*
X107000000Y-108350000D03*
X105300000Y-103200000D03*
X105300000Y-108350000D03*
%TD*%
D25*
%TO.C,R12*%
X103800000Y-95000000D03*
X103800000Y-93980000D03*
%TD*%
D26*
%TO.C,R11*%
X105535000Y-93000000D03*
X106175000Y-93000000D03*
%TD*%
D27*
%TO.C,R10*%
X104400000Y-80265000D03*
X104400000Y-79625000D03*
%TD*%
D28*
%TO.C,R9*%
X102290000Y-110000000D03*
X103310000Y-110000000D03*
%TD*%
D29*
%TO.C,R8*%
X102129774Y-98529774D03*
X102582322Y-98982322D03*
%TD*%
D30*
%TO.C,R7*%
X103975000Y-99600000D03*
X103335000Y-99600000D03*
%TD*%
%TO.C,R6*%
X98240000Y-103600000D03*
X97600000Y-103600000D03*
%TD*%
D27*
%TO.C,R5*%
X94337500Y-88815000D03*
X94337500Y-88175000D03*
%TD*%
%TO.C,R4*%
X94337500Y-87015000D03*
X94337500Y-86375000D03*
%TD*%
D25*
%TO.C,R3*%
X94737500Y-85170000D03*
X94737500Y-84150000D03*
%TD*%
D31*
%TO.C,R2*%
X98800000Y-78000000D03*
X98800000Y-79020000D03*
%TD*%
%TO.C,R1*%
X101400000Y-77980000D03*
X101400000Y-79000000D03*
%TD*%
D32*
%TO.C,Q1*%
X106300000Y-97800000D03*
X108200000Y-97800000D03*
X107250000Y-95925000D03*
%TD*%
D33*
%TO.C,J4*%
X106160000Y-132200000D03*
D34*
X103620000Y-132200000D03*
X101080000Y-132200000D03*
X98540000Y-132200000D03*
X96000000Y-132200000D03*
X93460000Y-132200000D03*
%TD*%
D33*
%TO.C,J3*%
X111500000Y-71000000D03*
D34*
X111500000Y-73540000D03*
X111500000Y-76080000D03*
X111500000Y-78620000D03*
X111500000Y-81160000D03*
X111500000Y-83700000D03*
X111500000Y-86240000D03*
X111500000Y-88780000D03*
X111500000Y-91320000D03*
X111500000Y-93860000D03*
X111500000Y-96400000D03*
X111500000Y-98940000D03*
X111500000Y-101480000D03*
X111500000Y-104020000D03*
X111500000Y-106560000D03*
X111500000Y-109100000D03*
X111500000Y-111640000D03*
X111500000Y-114180000D03*
X111500000Y-116720000D03*
X111500000Y-119260000D03*
X111500000Y-121800000D03*
X111500000Y-124340000D03*
X111500000Y-126880000D03*
X111500000Y-129420000D03*
%TD*%
D33*
%TO.C,J2*%
X88000000Y-71000000D03*
D34*
X88000000Y-73540000D03*
X88000000Y-76080000D03*
X88000000Y-78620000D03*
X88000000Y-81160000D03*
X88000000Y-83700000D03*
X88000000Y-86240000D03*
X88000000Y-88780000D03*
X88000000Y-91320000D03*
X88000000Y-93860000D03*
X88000000Y-96400000D03*
X88000000Y-98940000D03*
X88000000Y-101480000D03*
X88000000Y-104020000D03*
X88000000Y-106560000D03*
X88000000Y-109100000D03*
X88000000Y-111640000D03*
X88000000Y-114180000D03*
X88000000Y-116720000D03*
X88000000Y-119260000D03*
X88000000Y-121800000D03*
X88000000Y-124340000D03*
X88000000Y-126880000D03*
X88000000Y-129420000D03*
%TD*%
D35*
%TO.C,J1*%
X103010000Y-74280000D03*
X97230000Y-74280000D03*
D36*
X103320000Y-75420000D03*
X102520000Y-75420000D03*
D37*
X101370000Y-75420000D03*
X100370000Y-75420000D03*
X99870000Y-75420000D03*
X98870000Y-75420000D03*
D36*
X97720000Y-75420000D03*
X96920000Y-75420000D03*
X96920000Y-75420000D03*
X97720000Y-75420000D03*
D37*
X98370000Y-75420000D03*
X99370000Y-75420000D03*
X100870000Y-75420000D03*
X101870000Y-75420000D03*
D36*
X102520000Y-75420000D03*
X103320000Y-75420000D03*
D38*
X104440000Y-74780000D03*
D39*
X104440000Y-70600000D03*
D38*
X95800000Y-74780000D03*
D39*
X95800000Y-70600000D03*
%TD*%
D27*
%TO.C,D2*%
X107400000Y-93665000D03*
X107400000Y-93025000D03*
%TD*%
D26*
%TO.C,D1*%
X102535000Y-80400000D03*
X103175000Y-80400000D03*
%TD*%
%TO.C,C17*%
X99735000Y-108600000D03*
X100375000Y-108600000D03*
%TD*%
D40*
%TO.C,C16*%
X97217678Y-98582323D03*
X97670226Y-98129773D03*
%TD*%
D27*
%TO.C,C15*%
X104000000Y-101665000D03*
X104000000Y-101025000D03*
%TD*%
D26*
%TO.C,C14*%
X100960000Y-97200000D03*
X101600000Y-97200000D03*
%TD*%
D30*
%TO.C,C13*%
X95865000Y-102800000D03*
X95225000Y-102800000D03*
%TD*%
%TO.C,C12*%
X95840000Y-101400000D03*
X95200000Y-101400000D03*
%TD*%
D26*
%TO.C,C11*%
X95135000Y-100200000D03*
X95775000Y-100200000D03*
%TD*%
D41*
%TO.C,C10*%
X106640000Y-70400000D03*
X107600000Y-70400000D03*
%TD*%
D42*
%TO.C,C9*%
X107800000Y-76200000D03*
X106840000Y-76200000D03*
%TD*%
D41*
%TO.C,C8*%
X93240000Y-76600000D03*
X94200000Y-76600000D03*
%TD*%
%TO.C,C7*%
X91440000Y-70600000D03*
X92400000Y-70600000D03*
%TD*%
D43*
%TO.C,C6*%
X96337500Y-84370000D03*
X96337500Y-83410000D03*
%TD*%
%TO.C,C5*%
X97400000Y-83680000D03*
X97400000Y-82720000D03*
%TD*%
D44*
%TO.C,C4*%
X93137500Y-87790000D03*
X93137500Y-88750000D03*
%TD*%
D42*
%TO.C,C3*%
X93097500Y-86350000D03*
X92137500Y-86350000D03*
%TD*%
%TO.C,C2*%
X96160000Y-78000000D03*
X95200000Y-78000000D03*
%TD*%
D41*
%TO.C,C1*%
X104320000Y-77800000D03*
X105280000Y-77800000D03*
%TD*%
%LPD*%
M02*
