%TF.GenerationSoftware,KiCad,Pcbnew,9.0.6*%
%TF.CreationDate,2026-07-15T15:39:03+05:00*%
%TF.ProjectId,NS FPGA,4e532046-5047-4412-9e6b-696361645f70,rev?*%
%TF.SameCoordinates,Original*%
%TF.FileFunction,Copper,L6,Bot*%
%TF.FilePolarity,Positive*%
%FSLAX46Y46*%
G04 Gerber Fmt 4.6, Leading zero omitted, Abs format (unit mm)*
G04 Created by KiCad (PCBNEW 9.0.6) date 2026-07-15 15:39:03*
%MOMM*%
%LPD*%
G01*
G04 APERTURE LIST*
%TA.AperFunction,ComponentPad*%
%ADD10R,1.700000X1.700000*%
%TD*%
%TA.AperFunction,ComponentPad*%
%ADD11C,1.700000*%
%TD*%
%TA.AperFunction,HeatsinkPad*%
%ADD12O,1.000000X2.100000*%
%TD*%
%TA.AperFunction,HeatsinkPad*%
%ADD13O,1.000000X1.600000*%
%TD*%
%TA.AperFunction,ViaPad*%
%ADD14C,0.250000*%
%TD*%
%TA.AperFunction,ViaPad*%
%ADD15C,0.300000*%
%TD*%
%TA.AperFunction,ViaPad*%
%ADD16C,0.600000*%
%TD*%
%TA.AperFunction,Conductor*%
%ADD17C,0.200000*%
%TD*%
%TA.AperFunction,Conductor*%
%ADD18C,0.090000*%
%TD*%
%TA.AperFunction,Conductor*%
%ADD19C,0.150000*%
%TD*%
G04 APERTURE END LIST*
D10*
%TO.P,J4,1,Pin_1*%
%TO.N,+3V3*%
X106160000Y-132200000D03*
D11*
%TO.P,J4,2,Pin_2*%
%TO.N,/JTAG_TCK*%
X103620000Y-132200000D03*
%TO.P,J4,3,Pin_3*%
%TO.N,/JTAG_TDO*%
X101080000Y-132200000D03*
%TO.P,J4,4,Pin_4*%
%TO.N,/JTAG_TDI*%
X98540000Y-132200000D03*
%TO.P,J4,5,Pin_5*%
%TO.N,/JTAG_TMS*%
X96000000Y-132200000D03*
%TO.P,J4,6,Pin_6*%
%TO.N,GND*%
X93460000Y-132200000D03*
%TD*%
D10*
%TO.P,J3,1,Pin_1*%
%TO.N,/IO_H8*%
X111500000Y-71000000D03*
D11*
%TO.P,J3,2,Pin_2*%
%TO.N,/IO_H7*%
X111500000Y-73540000D03*
%TO.P,J3,3,Pin_3*%
%TO.N,GND*%
X111500000Y-76080000D03*
%TO.P,J3,4,Pin_4*%
%TO.N,/IO_H6*%
X111500000Y-78620000D03*
%TO.P,J3,5,Pin_5*%
%TO.N,/IO_H5*%
X111500000Y-81160000D03*
%TO.P,J3,6,Pin_6*%
%TO.N,/IO_H4*%
X111500000Y-83700000D03*
%TO.P,J3,7,Pin_7*%
%TO.N,/IO_H3*%
X111500000Y-86240000D03*
%TO.P,J3,8,Pin_8*%
%TO.N,+3V3*%
X111500000Y-88780000D03*
%TO.P,J3,9,Pin_9*%
%TO.N,/IO_H2*%
X111500000Y-91320000D03*
%TO.P,J3,10,Pin_10*%
%TO.N,unconnected-(J3-Pin_10-Pad10)*%
X111500000Y-93860000D03*
%TO.P,J3,11,Pin_11*%
%TO.N,/IO_F1*%
X111500000Y-96400000D03*
%TO.P,J3,12,Pin_12*%
%TO.N,unconnected-(J3-Pin_12-Pad12)*%
X111500000Y-98940000D03*
%TO.P,J3,13,Pin_13*%
%TO.N,unconnected-(J3-Pin_13-Pad13)*%
X111500000Y-101480000D03*
%TO.P,J3,14,Pin_14*%
%TO.N,GND*%
X111500000Y-104020000D03*
%TO.P,J3,15,Pin_15*%
%TO.N,/IO_E1*%
X111500000Y-106560000D03*
%TO.P,J3,16,Pin_16*%
%TO.N,/IO_G5*%
X111500000Y-109100000D03*
%TO.P,J3,17,Pin_17*%
%TO.N,unconnected-(J3-Pin_17-Pad17)*%
X111500000Y-111640000D03*
%TO.P,J3,18,Pin_18*%
%TO.N,/IO_D1*%
X111500000Y-114180000D03*
%TO.P,J3,19,Pin_19*%
%TO.N,/IO_E8*%
X111500000Y-116720000D03*
%TO.P,J3,20,Pin_20*%
%TO.N,+5V*%
X111500000Y-119260000D03*
%TO.P,J3,21,Pin_21*%
%TO.N,/IO_G4*%
X111500000Y-121800000D03*
%TO.P,J3,22,Pin_22*%
%TO.N,GND*%
X111500000Y-124340000D03*
%TO.P,J3,23,Pin_23*%
%TO.N,/IO_G3*%
X111500000Y-126880000D03*
%TO.P,J3,24,Pin_24*%
%TO.N,/IO_D8*%
X111500000Y-129420000D03*
%TD*%
D10*
%TO.P,J2,1,Pin_1*%
%TO.N,/IO_D7*%
X88000000Y-71000000D03*
D11*
%TO.P,J2,2,Pin_2*%
%TO.N,unconnected-(J2-Pin_2-Pad2)*%
X88000000Y-73540000D03*
%TO.P,J2,3,Pin_3*%
%TO.N,GND*%
X88000000Y-76080000D03*
%TO.P,J2,4,Pin_4*%
%TO.N,/IO_C8*%
X88000000Y-78620000D03*
%TO.P,J2,5,Pin_5*%
%TO.N,+5V*%
X88000000Y-81160000D03*
%TO.P,J2,6,Pin_6*%
%TO.N,/IO_C7*%
X88000000Y-83700000D03*
%TO.P,J2,7,Pin_7*%
%TO.N,/IO_C5*%
X88000000Y-86240000D03*
%TO.P,J2,8,Pin_8*%
%TO.N,/IO_C4*%
X88000000Y-88780000D03*
%TO.P,J2,9,Pin_9*%
%TO.N,/IO_C2*%
X88000000Y-91320000D03*
%TO.P,J2,10,Pin_10*%
%TO.N,/IO_A1*%
X88000000Y-93860000D03*
%TO.P,J2,11,Pin_11*%
%TO.N,GND*%
X88000000Y-96400000D03*
%TO.P,J2,12,Pin_12*%
%TO.N,/IO_A2*%
X88000000Y-98940000D03*
%TO.P,J2,13,Pin_13*%
%TO.N,/IO_A3*%
X88000000Y-101480000D03*
%TO.P,J2,14,Pin_14*%
%TO.N,/IO_A4*%
X88000000Y-104020000D03*
%TO.P,J2,15,Pin_15*%
%TO.N,/IO_A5*%
X88000000Y-106560000D03*
%TO.P,J2,16,Pin_16*%
%TO.N,/IO_A6*%
X88000000Y-109100000D03*
%TO.P,J2,17,Pin_17*%
%TO.N,+3V3*%
X88000000Y-111640000D03*
%TO.P,J2,18,Pin_18*%
%TO.N,/IO_B1*%
X88000000Y-114180000D03*
%TO.P,J2,19,Pin_19*%
%TO.N,/IO_B2*%
X88000000Y-116720000D03*
%TO.P,J2,20,Pin_20*%
%TO.N,/IO_B3*%
X88000000Y-119260000D03*
%TO.P,J2,21,Pin_21*%
%TO.N,unconnected-(J2-Pin_21-Pad21)*%
X88000000Y-121800000D03*
%TO.P,J2,22,Pin_22*%
%TO.N,GND*%
X88000000Y-124340000D03*
%TO.P,J2,23,Pin_23*%
%TO.N,+3V3*%
X88000000Y-126880000D03*
%TO.P,J2,24,Pin_24*%
%TO.N,GND*%
X88000000Y-129420000D03*
%TD*%
D12*
%TO.P,J1,S1,SHIELD*%
%TO.N,GND*%
X104440000Y-74780000D03*
D13*
X104440000Y-70600000D03*
D12*
X95800000Y-74780000D03*
D13*
X95800000Y-70600000D03*
%TD*%
D14*
%TO.N,GND*%
X101600000Y-97200000D03*
%TO.N,Net-(U2-~{RST})*%
X95010000Y-87310000D03*
X94930000Y-85820000D03*
%TO.N,+3V3*%
X99770000Y-107940000D03*
%TO.N,GND*%
X95140000Y-100170000D03*
X96980000Y-98840000D03*
D15*
X100446446Y-100767767D03*
D16*
%TO.N,+3V3*%
X107740000Y-90100000D03*
X102770000Y-94100000D03*
%TO.N,GND*%
X104850000Y-99670000D03*
X105954475Y-102716273D03*
X105580000Y-101460000D03*
X108400000Y-96510000D03*
%TO.N,+5V*%
X92690000Y-85290000D03*
%TO.N,GND*%
X97605000Y-114850000D03*
%TO.N,+1V2*%
X96110000Y-92570000D03*
X93340000Y-77730000D03*
%TO.N,+5V*%
X106500000Y-85290000D03*
%TO.N,+3V3*%
X107600000Y-74500000D03*
X100380000Y-72510000D03*
X95816829Y-99566829D03*
D14*
%TO.N,+1V2*%
X96480000Y-99140000D03*
%TO.N,/MCU_UART_RX*%
X101030000Y-88170000D03*
%TO.N,/MCU_UART_TX*%
X101051000Y-88740000D03*
X99270000Y-103200000D03*
%TO.N,/IO_F1*%
X98850000Y-103020000D03*
%TO.N,/IO_B1*%
X97230000Y-103110000D03*
D15*
%TO.N,+1V2*%
X100092893Y-100414214D03*
D14*
X98650000Y-96280000D03*
X99310000Y-97480000D03*
%TO.N,/IO_G5*%
X106430000Y-98870000D03*
%TO.N,/IO_E1*%
X107590000Y-109750000D03*
X98910000Y-102430000D03*
%TO.N,/IO_D1*%
X98380000Y-102100000D03*
%TO.N,/IO_G3*%
X100446446Y-102181981D03*
%TO.N,/IO_G4*%
X100800000Y-101828427D03*
%TO.N,Net-(U1B-MODE0)*%
X102933990Y-99454021D03*
%TO.N,Net-(Q1-G)*%
X104890000Y-97960000D03*
%TO.N,+3V3*%
X100471630Y-96258370D03*
%TO.N,/JTAG_TCK*%
X98653472Y-104194184D03*
%TO.N,/IO_A5*%
X95110000Y-93560000D03*
X99032233Y-99353553D03*
%TO.N,/IO_A4*%
X98122688Y-99356375D03*
%TO.N,/IO_A3*%
X97690000Y-99480000D03*
%TO.N,/IO_C2*%
X94289000Y-105360000D03*
%TO.N,/IO_B2*%
X93820000Y-115750000D03*
%TO.N,/IO_A2*%
X97080862Y-100050862D03*
%TO.N,/IO_A1*%
X96639000Y-100724138D03*
%TO.N,+3V3*%
X99100000Y-104250000D03*
%TO.N,Net-(U1B-RECONFIG_N)*%
X106111202Y-103801001D03*
X106930000Y-106350000D03*
X106900000Y-102070000D03*
X107080000Y-99240000D03*
X105130000Y-98370000D03*
X102758427Y-99870000D03*
%TO.N,/IO_D8*%
X106710000Y-99760000D03*
X104490000Y-98370000D03*
X101657106Y-98850000D03*
%TO.N,/JTAG_TDO*%
X92710000Y-107920000D03*
X95650000Y-94240000D03*
X101050000Y-97970000D03*
%TO.N,/IO_A6*%
X99250000Y-96650000D03*
X98760000Y-98410000D03*
%TO.N,/IO_E8*%
X101507107Y-99707107D03*
%TO.N,/MCU_UART_RX*%
X100760000Y-103910000D03*
%TO.N,/IO_H2*%
X101210000Y-103650000D03*
%TO.N,/IO_H3*%
X101460000Y-103200000D03*
%TO.N,+3V3*%
X103500000Y-101771000D03*
%TO.N,/IO_G5*%
X101153553Y-101474874D03*
%TO.N,/IO_C2*%
X98678679Y-101121320D03*
%TO.N,Net-(Q1-G)*%
X101860660Y-100767767D03*
%TO.N,Net-(U1B-MODE0)*%
X101507107Y-100414214D03*
%TO.N,/IO_D7*%
X100800000Y-99707107D03*
%TO.N,/IO_C7*%
X100446446Y-99353553D03*
%TO.N,/JTAG_TCK*%
X100092893Y-99000000D03*
%TO.N,/IO_B3*%
X98678679Y-100414214D03*
%TO.N,/IO_B2*%
X98325126Y-100767767D03*
%TO.N,/IO_C5*%
X99739340Y-100060660D03*
%TO.N,/IO_C4*%
X99385786Y-100414214D03*
%TO.N,+3V3*%
X100092893Y-101828427D03*
X100092893Y-99707107D03*
X99032233Y-100767767D03*
X101153553Y-100767767D03*
X100092893Y-101121320D03*
%TD*%
D17*
%TO.N,Net-(U2-~{RST})*%
X95010000Y-85900000D02*
X94930000Y-85820000D01*
X95010000Y-87310000D02*
X95010000Y-85900000D01*
D18*
%TO.N,GND*%
X95140000Y-100170000D02*
X95985819Y-100170000D01*
X96980000Y-99175819D02*
X96980000Y-98840000D01*
X95985819Y-100170000D02*
X96980000Y-99175819D01*
D17*
%TO.N,+3V3*%
X107740000Y-90100000D02*
X110180000Y-90100000D01*
X110180000Y-90100000D02*
X111500000Y-88780000D01*
%TO.N,GND*%
X105954475Y-101834475D02*
X105580000Y-101460000D01*
X105954475Y-102716273D02*
X105954475Y-101834475D01*
%TO.N,+1V2*%
X93340000Y-89800000D02*
X96110000Y-92570000D01*
X93340000Y-77730000D02*
X93340000Y-89800000D01*
%TO.N,+5V*%
X106701000Y-85089000D02*
X106500000Y-85290000D01*
X111976760Y-85089000D02*
X106701000Y-85089000D01*
X112651000Y-85763240D02*
X111976760Y-85089000D01*
X112651000Y-118109000D02*
X112651000Y-85763240D01*
X111500000Y-119260000D02*
X112651000Y-118109000D01*
%TO.N,+3V3*%
X100380000Y-72510000D02*
X105610000Y-72510000D01*
X105610000Y-72510000D02*
X107600000Y-74500000D01*
D18*
X100800000Y-101121320D02*
X100092893Y-101121320D01*
X101153553Y-100767767D02*
X100800000Y-101121320D01*
%TO.N,/IO_G5*%
X107234674Y-98870000D02*
X106430000Y-98870000D01*
X108691000Y-100326326D02*
X107234674Y-98870000D01*
X108691000Y-106291000D02*
X108691000Y-100326326D01*
X111500000Y-109100000D02*
X108691000Y-106291000D01*
%TO.N,/IO_E1*%
X103684614Y-109750000D02*
X107590000Y-109750000D01*
X98282472Y-104347858D02*
X103684614Y-109750000D01*
X98282472Y-103057528D02*
X98282472Y-104347858D01*
X98910000Y-102430000D02*
X98282472Y-103057528D01*
%TO.N,+3V3*%
X100090000Y-102007967D02*
X100090000Y-101831320D01*
X100110340Y-102028307D02*
X100090000Y-102007967D01*
X100110340Y-102335655D02*
X100110340Y-102028307D01*
X100090000Y-103260000D02*
X100090000Y-102355995D01*
X100090000Y-102355995D02*
X100110340Y-102335655D01*
X99100000Y-104250000D02*
X100090000Y-103260000D01*
X100090000Y-101831320D02*
X100092893Y-101828427D01*
%TO.N,Net-(Q1-G)*%
X101810780Y-99221000D02*
X101503432Y-99221000D01*
X102028106Y-99438326D02*
X101810780Y-99221000D01*
X102022432Y-97960000D02*
X104890000Y-97960000D01*
X101286106Y-98696326D02*
X102022432Y-97960000D01*
X102028106Y-100600321D02*
X102028106Y-99438326D01*
X101286106Y-99003674D02*
X101286106Y-98696326D01*
X101503432Y-99221000D02*
X101286106Y-99003674D01*
X101860660Y-100767767D02*
X102028106Y-100600321D01*
%TO.N,+3V3*%
X100207893Y-101713427D02*
X100092893Y-101828427D01*
X100207893Y-101236320D02*
X100207893Y-101713427D01*
X100092893Y-101121320D02*
X100207893Y-101236320D01*
%TO.N,/IO_A5*%
X97250000Y-93560000D02*
X95110000Y-93560000D01*
X101421000Y-98123674D02*
X101421000Y-97731000D01*
X101203674Y-98341000D02*
X101421000Y-98123674D01*
X100044786Y-98341000D02*
X101203674Y-98341000D01*
X101421000Y-97731000D02*
X97250000Y-93560000D01*
X99032233Y-99353553D02*
X100044786Y-98341000D01*
%TO.N,/IO_C4*%
X98760000Y-99421660D02*
X98230000Y-98891660D01*
X98760000Y-99500000D02*
X98760000Y-99421660D01*
X99368340Y-100108340D02*
X98760000Y-99500000D01*
X99368340Y-100396768D02*
X99368340Y-100108340D01*
X98230000Y-98891660D02*
X98230000Y-98890000D01*
X99385786Y-100414214D02*
X99368340Y-100396768D01*
%TO.N,/IO_A4*%
X86904000Y-102924000D02*
X88000000Y-104020000D01*
X86904000Y-93406021D02*
X86904000Y-102924000D01*
X87546021Y-92764000D02*
X86904000Y-93406021D01*
X91530313Y-92764000D02*
X87546021Y-92764000D01*
X98122688Y-99356375D02*
X91530313Y-92764000D01*
%TO.N,/IO_A3*%
X96819348Y-101480000D02*
X88000000Y-101480000D01*
X97690000Y-100609348D02*
X96819348Y-101480000D01*
X97690000Y-99480000D02*
X97690000Y-100609348D01*
%TO.N,/IO_C2*%
X94439999Y-105360000D02*
X94289000Y-105360000D01*
X98678679Y-101121320D02*
X94439999Y-105360000D01*
%TO.N,/IO_B3*%
X92220000Y-106348219D02*
X92220000Y-118100000D01*
X98269005Y-100299214D02*
X92220000Y-106348219D01*
X92220000Y-118100000D02*
X89160000Y-118100000D01*
X98563679Y-100299214D02*
X98269005Y-100299214D01*
X89160000Y-118100000D02*
X88000000Y-119260000D01*
X98678679Y-100414214D02*
X98563679Y-100299214D01*
%TO.N,/IO_A2*%
X97080862Y-100806950D02*
X97080862Y-100050862D01*
X96792674Y-101095138D02*
X97080862Y-100806950D01*
X90155138Y-101095138D02*
X96792674Y-101095138D01*
X88000000Y-98940000D02*
X90155138Y-101095138D01*
%TO.N,/IO_A1*%
X94864138Y-100724138D02*
X88000000Y-93860000D01*
X96639000Y-100724138D02*
X94864138Y-100724138D01*
%TO.N,Net-(U1B-RECONFIG_N)*%
X106930000Y-104619799D02*
X106111202Y-103801001D01*
X106930000Y-106350000D02*
X106930000Y-104619799D01*
X106339000Y-101509000D02*
X106900000Y-102070000D01*
X106339000Y-99606326D02*
X106339000Y-101509000D01*
X106705326Y-99240000D02*
X106339000Y-99606326D01*
X107080000Y-99240000D02*
X106705326Y-99240000D01*
X103630000Y-99870000D02*
X105130000Y-98370000D01*
X102758427Y-99870000D02*
X103630000Y-99870000D01*
%TO.N,/IO_D8*%
X108400000Y-126320000D02*
X111500000Y-129420000D01*
X108400000Y-101890000D02*
X108400000Y-126320000D01*
X106710000Y-100200000D02*
X108400000Y-101890000D01*
X106710000Y-99760000D02*
X106710000Y-100200000D01*
X102137106Y-98370000D02*
X104490000Y-98370000D01*
X101657106Y-98850000D02*
X102137106Y-98370000D01*
%TO.N,/JTAG_TDO*%
X92710000Y-123830000D02*
X101080000Y-132200000D01*
X92710000Y-107920000D02*
X92710000Y-123830000D01*
X97364674Y-94240000D02*
X95650000Y-94240000D01*
X101050000Y-97925326D02*
X97364674Y-94240000D01*
X101050000Y-97970000D02*
X101050000Y-97925326D01*
%TO.N,/IO_A6*%
X98760000Y-97140000D02*
X99250000Y-96650000D01*
X98760000Y-98410000D02*
X98760000Y-97140000D01*
X98760000Y-98410000D02*
X98750000Y-98420000D01*
%TO.N,/IO_H2*%
X106540000Y-92550000D02*
X110270000Y-92550000D01*
X105990000Y-93100000D02*
X106540000Y-92550000D01*
X105990000Y-100217210D02*
X105990000Y-93100000D01*
X102557210Y-103650000D02*
X105990000Y-100217210D01*
X101210000Y-103650000D02*
X102557210Y-103650000D01*
X110270000Y-92550000D02*
X111500000Y-91320000D01*
%TO.N,/IO_H3*%
X109940000Y-87800000D02*
X111500000Y-86240000D01*
X106600000Y-87800000D02*
X109940000Y-87800000D01*
X105530000Y-88870000D02*
X106600000Y-87800000D01*
X105530000Y-100265674D02*
X105530000Y-88870000D01*
X101460000Y-103200000D02*
X102595674Y-103200000D01*
X102595674Y-103200000D02*
X105530000Y-100265674D01*
%TO.N,+3V3*%
X103500000Y-101780000D02*
X103500000Y-101771000D01*
X102165786Y-101780000D02*
X103500000Y-101780000D01*
X101153553Y-100767767D02*
X102165786Y-101780000D01*
D19*
%TO.N,/IO_C4*%
X89350000Y-88780000D02*
X88000000Y-88780000D01*
X98230000Y-97660000D02*
X89350000Y-88780000D01*
X98230000Y-98890000D02*
X98230000Y-97660000D01*
D18*
%TO.N,+3V3*%
X99751320Y-101121320D02*
X100092893Y-101121320D01*
X99124466Y-100860000D02*
X99490000Y-100860000D01*
X99490000Y-100860000D02*
X99751320Y-101121320D01*
X99032233Y-100767767D02*
X99124466Y-100860000D01*
%TO.N,/IO_B2*%
X93820000Y-105272893D02*
X93820000Y-115750000D01*
X98325126Y-100767767D02*
X93820000Y-105272893D01*
%TD*%
M02*
