%TF.GenerationSoftware,KiCad,Pcbnew,9.0.6*%
%TF.CreationDate,2026-07-15T15:39:03+05:00*%
%TF.ProjectId,NS FPGA,4e532046-5047-4412-9e6b-696361645f70,rev?*%
%TF.SameCoordinates,Original*%
%TF.FileFunction,Copper,L5,Inr*%
%TF.FilePolarity,Positive*%
%FSLAX46Y46*%
G04 Gerber Fmt 4.6, Leading zero omitted, Abs format (unit mm)*
G04 Created by KiCad (PCBNEW 9.0.6) date 2026-07-15 15:39:03*
%MOMM*%
%LPD*%
G01*
G04 APERTURE LIST*
%TA.AperFunction,ComponentPad*%
%ADD10R,1.700000X1.700000*%
%TD*%
%TA.AperFunction,ComponentPad*%
%ADD11C,1.700000*%
%TD*%
%TA.AperFunction,HeatsinkPad*%
%ADD12O,1.000000X2.100000*%
%TD*%
%TA.AperFunction,HeatsinkPad*%
%ADD13O,1.000000X1.600000*%
%TD*%
%TA.AperFunction,ViaPad*%
%ADD14C,0.250000*%
%TD*%
%TA.AperFunction,ViaPad*%
%ADD15C,0.300000*%
%TD*%
%TA.AperFunction,ViaPad*%
%ADD16C,0.600000*%
%TD*%
%TA.AperFunction,Conductor*%
%ADD17C,0.080000*%
%TD*%
%TA.AperFunction,Conductor*%
%ADD18C,0.090000*%
%TD*%
%TA.AperFunction,Conductor*%
%ADD19C,0.200000*%
%TD*%
G04 APERTURE END LIST*
D10*
%TO.N,+3V3*%
%TO.C,J4*%
X106160000Y-132200000D03*
D11*
%TO.N,/JTAG_TCK*%
X103620000Y-132200000D03*
%TO.N,/JTAG_TDO*%
X101080000Y-132200000D03*
%TO.N,/JTAG_TDI*%
X98540000Y-132200000D03*
%TO.N,/JTAG_TMS*%
X96000000Y-132200000D03*
%TO.N,GND*%
X93460000Y-132200000D03*
%TD*%
D10*
%TO.N,/IO_H8*%
%TO.C,J3*%
X111500000Y-71000000D03*
D11*
%TO.N,/IO_H7*%
X111500000Y-73540000D03*
%TO.N,GND*%
X111500000Y-76080000D03*
%TO.N,/IO_H6*%
X111500000Y-78620000D03*
%TO.N,/IO_H5*%
X111500000Y-81160000D03*
%TO.N,/IO_H4*%
X111500000Y-83700000D03*
%TO.N,/IO_H3*%
X111500000Y-86240000D03*
%TO.N,+3V3*%
X111500000Y-88780000D03*
%TO.N,/IO_H2*%
X111500000Y-91320000D03*
%TO.N,unconnected-(J3-Pin_10-Pad10)*%
X111500000Y-93860000D03*
%TO.N,/IO_F1*%
X111500000Y-96400000D03*
%TO.N,unconnected-(J3-Pin_12-Pad12)*%
X111500000Y-98940000D03*
%TO.N,unconnected-(J3-Pin_13-Pad13)*%
X111500000Y-101480000D03*
%TO.N,GND*%
X111500000Y-104020000D03*
%TO.N,/IO_E1*%
X111500000Y-106560000D03*
%TO.N,/IO_G5*%
X111500000Y-109100000D03*
%TO.N,unconnected-(J3-Pin_17-Pad17)*%
X111500000Y-111640000D03*
%TO.N,/IO_D1*%
X111500000Y-114180000D03*
%TO.N,/IO_E8*%
X111500000Y-116720000D03*
%TO.N,+5V*%
X111500000Y-119260000D03*
%TO.N,/IO_G4*%
X111500000Y-121800000D03*
%TO.N,GND*%
X111500000Y-124340000D03*
%TO.N,/IO_G3*%
X111500000Y-126880000D03*
%TO.N,/IO_D8*%
X111500000Y-129420000D03*
%TD*%
D10*
%TO.N,/IO_D7*%
%TO.C,J2*%
X88000000Y-71000000D03*
D11*
%TO.N,unconnected-(J2-Pin_2-Pad2)*%
X88000000Y-73540000D03*
%TO.N,GND*%
X88000000Y-76080000D03*
%TO.N,/IO_C8*%
X88000000Y-78620000D03*
%TO.N,+5V*%
X88000000Y-81160000D03*
%TO.N,/IO_C7*%
X88000000Y-83700000D03*
%TO.N,/IO_C5*%
X88000000Y-86240000D03*
%TO.N,/IO_C4*%
X88000000Y-88780000D03*
%TO.N,/IO_C2*%
X88000000Y-91320000D03*
%TO.N,/IO_A1*%
X88000000Y-93860000D03*
%TO.N,GND*%
X88000000Y-96400000D03*
%TO.N,/IO_A2*%
X88000000Y-98940000D03*
%TO.N,/IO_A3*%
X88000000Y-101480000D03*
%TO.N,/IO_A4*%
X88000000Y-104020000D03*
%TO.N,/IO_A5*%
X88000000Y-106560000D03*
%TO.N,/IO_A6*%
X88000000Y-109100000D03*
%TO.N,+3V3*%
X88000000Y-111640000D03*
%TO.N,/IO_B1*%
X88000000Y-114180000D03*
%TO.N,/IO_B2*%
X88000000Y-116720000D03*
%TO.N,/IO_B3*%
X88000000Y-119260000D03*
%TO.N,unconnected-(J2-Pin_21-Pad21)*%
X88000000Y-121800000D03*
%TO.N,GND*%
X88000000Y-124340000D03*
%TO.N,+3V3*%
X88000000Y-126880000D03*
%TO.N,GND*%
X88000000Y-129420000D03*
%TD*%
D12*
%TO.N,GND*%
%TO.C,J1*%
X104440000Y-74780000D03*
D13*
X104440000Y-70600000D03*
D12*
X95800000Y-74780000D03*
D13*
X95800000Y-70600000D03*
%TD*%
D14*
%TO.N,GND*%
X101600000Y-97200000D03*
%TO.N,Net-(U2-~{RST})*%
X95010000Y-87310000D03*
X94930000Y-85820000D03*
%TO.N,+3V3*%
X99770000Y-107940000D03*
%TO.N,GND*%
X95140000Y-100170000D03*
X96980000Y-98840000D03*
D15*
X100446446Y-100767767D03*
D16*
%TO.N,+3V3*%
X107740000Y-90100000D03*
X102770000Y-94100000D03*
%TO.N,GND*%
X104850000Y-99670000D03*
X105954475Y-102716273D03*
X105580000Y-101460000D03*
X108400000Y-96510000D03*
%TO.N,+5V*%
X92690000Y-85290000D03*
%TO.N,GND*%
X97605000Y-114850000D03*
%TO.N,+1V2*%
X96110000Y-92570000D03*
X93340000Y-77730000D03*
%TO.N,+5V*%
X106500000Y-85290000D03*
%TO.N,+3V3*%
X107600000Y-74500000D03*
X100380000Y-72510000D03*
X95816829Y-99566829D03*
D14*
%TO.N,+1V2*%
X96480000Y-99140000D03*
%TO.N,/MCU_UART_RX*%
X101030000Y-88170000D03*
%TO.N,/MCU_UART_TX*%
X101051000Y-88740000D03*
X99270000Y-103200000D03*
%TO.N,/IO_F1*%
X98850000Y-103020000D03*
%TO.N,/IO_B1*%
X97230000Y-103110000D03*
D15*
%TO.N,+1V2*%
X100092893Y-100414214D03*
D14*
X98650000Y-96280000D03*
X99310000Y-97480000D03*
%TO.N,/IO_G5*%
X106430000Y-98870000D03*
%TO.N,/IO_E1*%
X107590000Y-109750000D03*
X98910000Y-102430000D03*
%TO.N,/IO_D1*%
X98380000Y-102100000D03*
%TO.N,/IO_G3*%
X100446446Y-102181981D03*
%TO.N,/IO_G4*%
X100800000Y-101828427D03*
%TO.N,Net-(U1B-MODE0)*%
X102933990Y-99454021D03*
%TO.N,Net-(Q1-G)*%
X104890000Y-97960000D03*
%TO.N,+3V3*%
X100471630Y-96258370D03*
%TO.N,/JTAG_TCK*%
X98653472Y-104194184D03*
%TO.N,/IO_A5*%
X95110000Y-93560000D03*
X99032233Y-99353553D03*
%TO.N,/IO_A4*%
X98122688Y-99356375D03*
%TO.N,/IO_A3*%
X97690000Y-99480000D03*
%TO.N,/IO_C2*%
X94289000Y-105360000D03*
%TO.N,/IO_B2*%
X93820000Y-115750000D03*
%TO.N,/IO_A2*%
X97080862Y-100050862D03*
%TO.N,/IO_A1*%
X96639000Y-100724138D03*
%TO.N,+3V3*%
X99100000Y-104250000D03*
%TO.N,Net-(U1B-RECONFIG_N)*%
X106111202Y-103801001D03*
X106930000Y-106350000D03*
X106900000Y-102070000D03*
X107080000Y-99240000D03*
X105130000Y-98370000D03*
X102758427Y-99870000D03*
%TO.N,/IO_D8*%
X106710000Y-99760000D03*
X104490000Y-98370000D03*
X101657106Y-98850000D03*
%TO.N,/JTAG_TDO*%
X92710000Y-107920000D03*
X95650000Y-94240000D03*
X101050000Y-97970000D03*
%TO.N,/IO_A6*%
X99250000Y-96650000D03*
X98760000Y-98410000D03*
%TO.N,/IO_E8*%
X101507107Y-99707107D03*
%TO.N,/MCU_UART_RX*%
X100760000Y-103910000D03*
%TO.N,/IO_H2*%
X101210000Y-103650000D03*
%TO.N,/IO_H3*%
X101460000Y-103200000D03*
%TO.N,+3V3*%
X103500000Y-101771000D03*
%TO.N,/IO_G5*%
X101153553Y-101474874D03*
%TO.N,/IO_C2*%
X98678679Y-101121320D03*
%TO.N,Net-(Q1-G)*%
X101860660Y-100767767D03*
%TO.N,Net-(U1B-MODE0)*%
X101507107Y-100414214D03*
%TO.N,/IO_D7*%
X100800000Y-99707107D03*
%TO.N,/IO_C7*%
X100446446Y-99353553D03*
%TO.N,/JTAG_TCK*%
X100092893Y-99000000D03*
%TO.N,/IO_B3*%
X98678679Y-100414214D03*
%TO.N,/IO_B2*%
X98325126Y-100767767D03*
%TO.N,/IO_C5*%
X99739340Y-100060660D03*
%TO.N,/IO_C4*%
X99385786Y-100414214D03*
%TO.N,+3V3*%
X100092893Y-101828427D03*
X100092893Y-99707107D03*
X99032233Y-100767767D03*
X101153553Y-100767767D03*
X100092893Y-101121320D03*
%TD*%
D17*
%TO.N,GND*%
X104492019Y-102547981D02*
X105580000Y-101460000D01*
X100294843Y-102547981D02*
X104492019Y-102547981D01*
X99941290Y-100755320D02*
X99723000Y-100973610D01*
X99723000Y-100973610D02*
X99723000Y-101976138D01*
X100433999Y-100755320D02*
X99941290Y-100755320D01*
X100446446Y-100767767D02*
X100433999Y-100755320D01*
X99723000Y-101976138D02*
X100294843Y-102547981D01*
D18*
%TO.N,+3V3*%
X86904000Y-125784000D02*
X88000000Y-126880000D01*
X88000000Y-111640000D02*
X86904000Y-112736000D01*
X86904000Y-112736000D02*
X86904000Y-125784000D01*
X96070000Y-111640000D02*
X88000000Y-111640000D01*
X99770000Y-107940000D02*
X96070000Y-111640000D01*
D19*
X107600000Y-84880000D02*
X107600000Y-74500000D01*
X111500000Y-88780000D02*
X107600000Y-84880000D01*
D18*
X100611630Y-96258370D02*
X102770000Y-94100000D01*
X100471630Y-96258370D02*
X100611630Y-96258370D01*
D19*
%TO.N,GND*%
X105580000Y-100400000D02*
X104850000Y-99670000D01*
X105580000Y-101460000D02*
X105580000Y-100400000D01*
X97605000Y-114850000D02*
X97490000Y-114850000D01*
X97490000Y-114850000D02*
X88000000Y-124340000D01*
D18*
%TO.N,/MCU_UART_TX*%
X101350000Y-89039000D02*
X101051000Y-88740000D01*
X101350000Y-89120000D02*
X101350000Y-89039000D01*
X99721893Y-90748107D02*
X101350000Y-89120000D01*
X99721893Y-99553433D02*
X99721893Y-90748107D01*
X99555326Y-99720000D02*
X99721893Y-99553433D01*
X99190460Y-99720000D02*
X99555326Y-99720000D01*
X99185907Y-99724553D02*
X99190460Y-99720000D01*
X97954126Y-100614093D02*
X98661233Y-99906986D01*
X98703014Y-99906986D02*
X98885447Y-99724553D01*
X98661233Y-99906986D02*
X98703014Y-99906986D01*
X97954126Y-102648800D02*
X97954126Y-100614093D01*
X98885447Y-99724553D02*
X99185907Y-99724553D01*
X98696326Y-103391000D02*
X97954126Y-102648800D01*
X99079000Y-103391000D02*
X98696326Y-103391000D01*
X99270000Y-103200000D02*
X99079000Y-103391000D01*
%TO.N,/MCU_UART_RX*%
X98279000Y-90921000D02*
X101030000Y-88170000D01*
X98279000Y-98882938D02*
X98279000Y-90921000D01*
X98586261Y-99190199D02*
X98279000Y-98882938D01*
X98586261Y-99725986D02*
X98586261Y-99190199D01*
X97663126Y-100649121D02*
X98586261Y-99725986D01*
X98575790Y-103682000D02*
X97663126Y-102769336D01*
X97663126Y-102769336D02*
X97663126Y-100649121D01*
X100532000Y-103682000D02*
X98575790Y-103682000D01*
X100760000Y-103910000D02*
X100532000Y-103682000D01*
%TO.N,/IO_F1*%
X105071000Y-102829000D02*
X111500000Y-96400000D01*
X99041000Y-102829000D02*
X105071000Y-102829000D01*
X98850000Y-103020000D02*
X99041000Y-102829000D01*
%TD*%
%TA.AperFunction,Conductor*%
%TO.N,GND*%
G36*
X98130417Y-96438643D02*
G01*
X98143499Y-96469674D01*
X98143500Y-96469950D01*
X98143500Y-98852431D01*
X98143499Y-98852445D01*
X98143499Y-98909892D01*
X98156028Y-98940138D01*
X98156027Y-98940138D01*
X98164128Y-98959693D01*
X98165957Y-98962431D01*
X98172526Y-98995460D01*
X98153816Y-99023460D01*
X98129372Y-99030875D01*
X98079835Y-99030875D01*
X98035473Y-99042761D01*
X97997052Y-99053056D01*
X97997045Y-99053059D01*
X97922827Y-99095909D01*
X97922822Y-99095913D01*
X97862226Y-99156508D01*
X97860469Y-99158799D01*
X97859512Y-99158065D01*
X97836035Y-99176058D01*
X97813286Y-99176052D01*
X97732853Y-99154500D01*
X97647147Y-99154500D01*
X97603000Y-99166329D01*
X97564364Y-99176681D01*
X97564357Y-99176684D01*
X97490139Y-99219534D01*
X97429534Y-99280139D01*
X97386684Y-99354357D01*
X97386681Y-99354364D01*
X97379382Y-99381607D01*
X97364500Y-99437147D01*
X97364500Y-99522853D01*
X97372003Y-99550854D01*
X97386681Y-99605635D01*
X97386684Y-99605642D01*
X97404820Y-99637054D01*
X97429535Y-99679862D01*
X97490138Y-99740465D01*
X97564362Y-99783318D01*
X97647147Y-99805500D01*
X97647149Y-99805500D01*
X97732851Y-99805500D01*
X97732853Y-99805500D01*
X97815638Y-99783318D01*
X97889862Y-99740465D01*
X97950465Y-99679862D01*
X97950466Y-99679859D01*
X97950468Y-99679858D01*
X97952224Y-99677570D01*
X97953188Y-99678309D01*
X97976622Y-99660325D01*
X97999401Y-99660323D01*
X98079835Y-99681875D01*
X98079837Y-99681875D01*
X98165539Y-99681875D01*
X98165541Y-99681875D01*
X98248326Y-99659693D01*
X98322550Y-99616840D01*
X98375649Y-99563740D01*
X98406761Y-99550854D01*
X98437874Y-99563741D01*
X98450761Y-99594854D01*
X98450761Y-99651633D01*
X98437874Y-99682746D01*
X97586371Y-100534249D01*
X97586370Y-100534248D01*
X97548255Y-100572364D01*
X97548255Y-100572365D01*
X97548254Y-100572367D01*
X97527626Y-100622164D01*
X97527625Y-100622170D01*
X97527625Y-100681192D01*
X97527626Y-100681201D01*
X97527626Y-102738829D01*
X97527625Y-102738843D01*
X97527625Y-102742383D01*
X97527625Y-102796289D01*
X97527625Y-102796291D01*
X97527626Y-102796292D01*
X97531930Y-102806682D01*
X97537504Y-102820138D01*
X97543610Y-102834879D01*
X97544478Y-102836975D01*
X97549755Y-102849714D01*
X97549755Y-102852071D01*
X97560353Y-102858190D01*
X97586371Y-102884208D01*
X97586372Y-102884208D01*
X98460917Y-103758753D01*
X98460918Y-103758755D01*
X98499035Y-103796872D01*
X98513622Y-103802913D01*
X98519504Y-103805349D01*
X98519506Y-103805351D01*
X98528757Y-103809183D01*
X98552569Y-103832996D01*
X98552568Y-103866672D01*
X98530144Y-103889098D01*
X98530332Y-103889424D01*
X98529118Y-103890124D01*
X98528762Y-103890481D01*
X98527838Y-103890863D01*
X98453611Y-103933718D01*
X98393006Y-103994323D01*
X98350156Y-104068541D01*
X98350154Y-104068546D01*
X98327972Y-104151331D01*
X98327972Y-104237037D01*
X98350154Y-104319822D01*
X98393007Y-104394046D01*
X98453610Y-104454649D01*
X98527834Y-104497502D01*
X98610619Y-104519684D01*
X98610621Y-104519684D01*
X98696323Y-104519684D01*
X98696325Y-104519684D01*
X98779110Y-104497502D01*
X98818382Y-104474827D01*
X98851768Y-104470432D01*
X98871491Y-104481818D01*
X98900138Y-104510465D01*
X98974362Y-104553318D01*
X99057147Y-104575500D01*
X99057149Y-104575500D01*
X99142851Y-104575500D01*
X99142853Y-104575500D01*
X99225638Y-104553318D01*
X99299862Y-104510465D01*
X99360465Y-104449862D01*
X99403318Y-104375638D01*
X99425500Y-104292853D01*
X99425500Y-104207147D01*
X99403318Y-104124362D01*
X99360465Y-104050138D01*
X99299862Y-103989535D01*
X99252797Y-103962362D01*
X99225642Y-103946684D01*
X99225639Y-103946683D01*
X99225638Y-103946682D01*
X99225636Y-103946681D01*
X99225635Y-103946681D01*
X99203452Y-103940737D01*
X99142853Y-103924500D01*
X99057147Y-103924500D01*
X99022745Y-103933718D01*
X98974364Y-103946681D01*
X98974359Y-103946683D01*
X98935089Y-103969355D01*
X98901700Y-103973749D01*
X98881978Y-103962362D01*
X98853337Y-103933722D01*
X98853334Y-103933719D01*
X98794245Y-103899604D01*
X98773745Y-103872888D01*
X98778141Y-103839500D01*
X98804858Y-103818999D01*
X98816246Y-103817500D01*
X100390864Y-103817500D01*
X100421977Y-103830387D01*
X100434864Y-103861500D01*
X100434500Y-103867048D01*
X100434500Y-103867147D01*
X100434500Y-103952853D01*
X100450737Y-104013452D01*
X100456681Y-104035635D01*
X100456684Y-104035642D01*
X100465054Y-104050139D01*
X100499535Y-104109862D01*
X100560138Y-104170465D01*
X100634362Y-104213318D01*
X100717147Y-104235500D01*
X100717149Y-104235500D01*
X100802851Y-104235500D01*
X100802853Y-104235500D01*
X100885638Y-104213318D01*
X100959862Y-104170465D01*
X101020465Y-104109862D01*
X101063318Y-104035638D01*
X101073919Y-103996069D01*
X101094418Y-103969354D01*
X101127804Y-103964958D01*
X101167147Y-103975500D01*
X101167149Y-103975500D01*
X101252851Y-103975500D01*
X101252853Y-103975500D01*
X101335638Y-103953318D01*
X101409862Y-103910465D01*
X101470465Y-103849862D01*
X101513318Y-103775638D01*
X101535500Y-103692853D01*
X101535500Y-103607147D01*
X101524289Y-103565307D01*
X101528685Y-103531920D01*
X101555401Y-103511419D01*
X101585638Y-103503318D01*
X101659862Y-103460465D01*
X101720465Y-103399862D01*
X101763318Y-103325638D01*
X101785500Y-103242853D01*
X101785500Y-103157147D01*
X101763318Y-103074362D01*
X101737993Y-103030499D01*
X101733598Y-102997112D01*
X101754099Y-102970395D01*
X101776099Y-102964500D01*
X103854701Y-102964500D01*
X103885814Y-102977387D01*
X103898699Y-103008043D01*
X103919530Y-105014765D01*
X103906966Y-105046010D01*
X103875989Y-105059220D01*
X103874769Y-105059215D01*
X94732639Y-104900739D01*
X94701755Y-104887315D01*
X94689406Y-104857359D01*
X94685480Y-104575500D01*
X94664472Y-103067147D01*
X96904500Y-103067147D01*
X96904500Y-103152853D01*
X96905651Y-103157147D01*
X96926681Y-103235635D01*
X96926684Y-103235642D01*
X96955003Y-103284692D01*
X96969535Y-103309862D01*
X97030138Y-103370465D01*
X97104362Y-103413318D01*
X97187147Y-103435500D01*
X97187149Y-103435500D01*
X97272851Y-103435500D01*
X97272853Y-103435500D01*
X97355638Y-103413318D01*
X97429862Y-103370465D01*
X97490465Y-103309862D01*
X97533318Y-103235638D01*
X97555500Y-103152853D01*
X97555500Y-103067147D01*
X97533318Y-102984362D01*
X97491137Y-102911303D01*
X97490437Y-102905980D01*
X97477994Y-102897667D01*
X97429862Y-102849535D01*
X97405120Y-102835250D01*
X97355642Y-102806684D01*
X97355639Y-102806683D01*
X97355638Y-102806682D01*
X97355636Y-102806681D01*
X97355635Y-102806681D01*
X97333452Y-102800737D01*
X97272853Y-102784500D01*
X97187147Y-102784500D01*
X97143161Y-102796286D01*
X97104364Y-102806681D01*
X97104357Y-102806684D01*
X97030139Y-102849534D01*
X96969534Y-102910139D01*
X96926684Y-102984357D01*
X96926681Y-102984364D01*
X96920214Y-103008500D01*
X96904500Y-103067147D01*
X94664472Y-103067147D01*
X94641704Y-101432372D01*
X94631244Y-100681285D01*
X96313500Y-100681285D01*
X96313500Y-100766991D01*
X96325190Y-100810618D01*
X96331300Y-100833424D01*
X96335682Y-100849776D01*
X96378535Y-100924000D01*
X96439138Y-100984603D01*
X96513362Y-101027456D01*
X96596147Y-101049638D01*
X96596149Y-101049638D01*
X96681851Y-101049638D01*
X96681853Y-101049638D01*
X96764638Y-101027456D01*
X96838862Y-100984603D01*
X96899465Y-100924000D01*
X96942318Y-100849776D01*
X96964500Y-100766991D01*
X96964500Y-100681285D01*
X96942318Y-100598500D01*
X96899465Y-100524276D01*
X96838862Y-100463673D01*
X96801786Y-100442267D01*
X96764642Y-100420822D01*
X96764639Y-100420821D01*
X96764638Y-100420820D01*
X96764636Y-100420819D01*
X96764635Y-100420819D01*
X96742452Y-100414875D01*
X96681853Y-100398638D01*
X96596147Y-100398638D01*
X96551785Y-100410524D01*
X96513364Y-100420819D01*
X96513357Y-100420822D01*
X96439139Y-100463672D01*
X96378534Y-100524277D01*
X96335684Y-100598495D01*
X96335681Y-100598502D01*
X96323993Y-100642124D01*
X96313500Y-100681285D01*
X94631244Y-100681285D01*
X94631212Y-100679014D01*
X94621867Y-100008009D01*
X96755362Y-100008009D01*
X96755362Y-100093715D01*
X96771448Y-100153748D01*
X96777543Y-100176497D01*
X96777546Y-100176504D01*
X96799398Y-100214352D01*
X96820397Y-100250724D01*
X96881000Y-100311327D01*
X96955224Y-100354180D01*
X97038009Y-100376362D01*
X97038011Y-100376362D01*
X97123713Y-100376362D01*
X97123715Y-100376362D01*
X97206500Y-100354180D01*
X97280724Y-100311327D01*
X97341327Y-100250724D01*
X97384180Y-100176500D01*
X97406362Y-100093715D01*
X97406362Y-100008009D01*
X97384180Y-99925224D01*
X97341327Y-99851000D01*
X97280724Y-99790397D01*
X97250183Y-99772764D01*
X97206504Y-99747546D01*
X97206501Y-99747545D01*
X97206500Y-99747544D01*
X97206498Y-99747543D01*
X97206497Y-99747543D01*
X97184314Y-99741599D01*
X97123715Y-99725362D01*
X97038009Y-99725362D01*
X97001442Y-99735160D01*
X96955226Y-99747543D01*
X96955219Y-99747546D01*
X96881001Y-99790396D01*
X96820396Y-99851001D01*
X96777546Y-99925219D01*
X96777543Y-99925226D01*
X96774918Y-99935024D01*
X96755362Y-100008009D01*
X94621867Y-100008009D01*
X94614988Y-99514102D01*
X95416329Y-99514102D01*
X95416329Y-99619556D01*
X95427253Y-99660325D01*
X95443621Y-99721413D01*
X95443624Y-99721420D01*
X95496346Y-99812738D01*
X95496347Y-99812739D01*
X95496349Y-99812742D01*
X95570916Y-99887309D01*
X95570918Y-99887310D01*
X95570919Y-99887311D01*
X95630137Y-99921500D01*
X95662242Y-99940036D01*
X95764102Y-99967329D01*
X95764104Y-99967329D01*
X95869554Y-99967329D01*
X95869556Y-99967329D01*
X95971416Y-99940036D01*
X96062742Y-99887309D01*
X96137309Y-99812742D01*
X96190036Y-99721416D01*
X96217329Y-99619556D01*
X96217329Y-99514102D01*
X96195245Y-99431683D01*
X96199641Y-99398298D01*
X96226358Y-99377797D01*
X96259746Y-99382193D01*
X96268854Y-99389181D01*
X96280138Y-99400465D01*
X96354362Y-99443318D01*
X96437147Y-99465500D01*
X96437149Y-99465500D01*
X96522851Y-99465500D01*
X96522853Y-99465500D01*
X96605638Y-99443318D01*
X96679862Y-99400465D01*
X96740465Y-99339862D01*
X96783318Y-99265638D01*
X96805500Y-99182853D01*
X96805500Y-99097147D01*
X96783318Y-99014362D01*
X96740465Y-98940138D01*
X96679862Y-98879535D01*
X96639067Y-98855982D01*
X96605642Y-98836684D01*
X96605639Y-98836683D01*
X96605638Y-98836682D01*
X96605636Y-98836681D01*
X96605635Y-98836681D01*
X96566753Y-98826263D01*
X96522853Y-98814500D01*
X96437147Y-98814500D01*
X96393247Y-98826263D01*
X96354364Y-98836681D01*
X96354357Y-98836684D01*
X96280139Y-98879534D01*
X96280138Y-98879534D01*
X96280138Y-98879535D01*
X96219535Y-98940138D01*
X96219534Y-98940138D01*
X96219534Y-98940139D01*
X96176684Y-99014357D01*
X96176681Y-99014364D01*
X96172257Y-99030875D01*
X96154500Y-99097147D01*
X96154500Y-99182853D01*
X96157386Y-99193622D01*
X96168826Y-99236319D01*
X96164430Y-99269707D01*
X96137713Y-99290208D01*
X96104325Y-99285812D01*
X96095216Y-99278823D01*
X96062742Y-99246349D01*
X96062739Y-99246347D01*
X96062738Y-99246346D01*
X95971420Y-99193624D01*
X95971417Y-99193623D01*
X95971416Y-99193622D01*
X95971414Y-99193621D01*
X95971413Y-99193621D01*
X95931225Y-99182853D01*
X95869556Y-99166329D01*
X95764102Y-99166329D01*
X95709518Y-99180954D01*
X95662244Y-99193621D01*
X95662237Y-99193624D01*
X95570919Y-99246346D01*
X95496346Y-99320919D01*
X95443624Y-99412237D01*
X95443621Y-99412244D01*
X95432837Y-99452491D01*
X95416329Y-99514102D01*
X94614988Y-99514102D01*
X94614956Y-99511831D01*
X94603988Y-98724357D01*
X94590597Y-97762890D01*
X94603050Y-97731602D01*
X94632860Y-97718312D01*
X95860000Y-97670000D01*
X95860000Y-96483724D01*
X95872887Y-96452611D01*
X95903722Y-96439725D01*
X98099226Y-96425952D01*
X98130417Y-96438643D01*
G37*
%TD.AperFunction*%
%TA.AperFunction,Conductor*%
G36*
X103817373Y-96402966D02*
G01*
X103830454Y-96433816D01*
X103884300Y-101620964D01*
X103871736Y-101652209D01*
X103840759Y-101665419D01*
X103809514Y-101652855D01*
X103802197Y-101643421D01*
X103760465Y-101571138D01*
X103699862Y-101510535D01*
X103675120Y-101496250D01*
X103625642Y-101467684D01*
X103625639Y-101467683D01*
X103625638Y-101467682D01*
X103625636Y-101467681D01*
X103625635Y-101467681D01*
X103603452Y-101461737D01*
X103542853Y-101445500D01*
X103457147Y-101445500D01*
X103412785Y-101457386D01*
X103374364Y-101467681D01*
X103374357Y-101467684D01*
X103300139Y-101510534D01*
X103239534Y-101571139D01*
X103196684Y-101645357D01*
X103196681Y-101645364D01*
X103188812Y-101674734D01*
X103174500Y-101728147D01*
X103174500Y-101813853D01*
X103182678Y-101844374D01*
X103196681Y-101896635D01*
X103196684Y-101896642D01*
X103198703Y-101900139D01*
X103239535Y-101970862D01*
X103300138Y-102031465D01*
X103374362Y-102074318D01*
X103457147Y-102096500D01*
X103457149Y-102096500D01*
X103542851Y-102096500D01*
X103542853Y-102096500D01*
X103625638Y-102074318D01*
X103699862Y-102031465D01*
X103760465Y-101970862D01*
X103803318Y-101896638D01*
X103803319Y-101896635D01*
X103804760Y-101894140D01*
X103805991Y-101894850D01*
X103826480Y-101874331D01*
X103860156Y-101874305D01*
X103883987Y-101898100D01*
X103887347Y-101914512D01*
X103891817Y-102345065D01*
X103894521Y-102605561D01*
X103894973Y-102649043D01*
X103882409Y-102680288D01*
X103851432Y-102693498D01*
X103850975Y-102693500D01*
X99209933Y-102693500D01*
X99178820Y-102680613D01*
X99165933Y-102649500D01*
X99171827Y-102627502D01*
X99213318Y-102555638D01*
X99235500Y-102472853D01*
X99235500Y-102387147D01*
X99213318Y-102304362D01*
X99170465Y-102230138D01*
X99109862Y-102169535D01*
X99063647Y-102142853D01*
X99035642Y-102126684D01*
X99035639Y-102126683D01*
X99035638Y-102126682D01*
X99035636Y-102126681D01*
X99035635Y-102126681D01*
X99003247Y-102118003D01*
X98952853Y-102104500D01*
X98867147Y-102104500D01*
X98822785Y-102116386D01*
X98784364Y-102126681D01*
X98784357Y-102126684D01*
X98771500Y-102134108D01*
X98738112Y-102138504D01*
X98711395Y-102118003D01*
X98705500Y-102096003D01*
X98705500Y-102057148D01*
X98705500Y-102057147D01*
X98683318Y-101974362D01*
X98640465Y-101900138D01*
X98579862Y-101839535D01*
X98512033Y-101800374D01*
X98505642Y-101796684D01*
X98505639Y-101796683D01*
X98505638Y-101796682D01*
X98505636Y-101796681D01*
X98505635Y-101796681D01*
X98483452Y-101790737D01*
X98422853Y-101774500D01*
X98337147Y-101774500D01*
X98295818Y-101785574D01*
X98254364Y-101796681D01*
X98254357Y-101796684D01*
X98180139Y-101839534D01*
X98180138Y-101839534D01*
X98180138Y-101839535D01*
X98164737Y-101854935D01*
X98133626Y-101867822D01*
X98102513Y-101854935D01*
X98089626Y-101823822D01*
X98089626Y-101083866D01*
X98102513Y-101052753D01*
X98133626Y-101039866D01*
X98155624Y-101045760D01*
X98199488Y-101071085D01*
X98282273Y-101093267D01*
X98309179Y-101093267D01*
X98340292Y-101106154D01*
X98353179Y-101137267D01*
X98353179Y-101164173D01*
X98375361Y-101246958D01*
X98418214Y-101321182D01*
X98478817Y-101381785D01*
X98553041Y-101424638D01*
X98635826Y-101446820D01*
X98635828Y-101446820D01*
X98721530Y-101446820D01*
X98721532Y-101446820D01*
X98804317Y-101424638D01*
X98878541Y-101381785D01*
X98939144Y-101321182D01*
X98981997Y-101246958D01*
X99004179Y-101164173D01*
X99004179Y-101137267D01*
X99017066Y-101106154D01*
X99048179Y-101093267D01*
X99075084Y-101093267D01*
X99075086Y-101093267D01*
X99157871Y-101071085D01*
X99232095Y-101028232D01*
X99292698Y-100967629D01*
X99335551Y-100893405D01*
X99357733Y-100810620D01*
X99357733Y-100783714D01*
X99370620Y-100752601D01*
X99401733Y-100739714D01*
X99428637Y-100739714D01*
X99428639Y-100739714D01*
X99511424Y-100717532D01*
X99585648Y-100674679D01*
X99646251Y-100614076D01*
X99689104Y-100539852D01*
X99709780Y-100462686D01*
X99730280Y-100435971D01*
X99763668Y-100431575D01*
X99790385Y-100452076D01*
X99794780Y-100462685D01*
X99812872Y-100530203D01*
X99852433Y-100598725D01*
X99908382Y-100654674D01*
X99976904Y-100694235D01*
X100044417Y-100712325D01*
X100071134Y-100732826D01*
X100075530Y-100766214D01*
X100055029Y-100792931D01*
X100044419Y-100797326D01*
X100012154Y-100805971D01*
X99967257Y-100818001D01*
X99967250Y-100818004D01*
X99893032Y-100860854D01*
X99832427Y-100921459D01*
X99789577Y-100995677D01*
X99789575Y-100995682D01*
X99767393Y-101078467D01*
X99767393Y-101164173D01*
X99789575Y-101246958D01*
X99832428Y-101321182D01*
X99893031Y-101381785D01*
X99967255Y-101424638D01*
X99996123Y-101432373D01*
X100022839Y-101452873D01*
X100027235Y-101486261D01*
X100006734Y-101512978D01*
X99996123Y-101517373D01*
X99967255Y-101525109D01*
X99967253Y-101525109D01*
X99967250Y-101525111D01*
X99893032Y-101567961D01*
X99832427Y-101628566D01*
X99789577Y-101702784D01*
X99789575Y-101702790D01*
X99767393Y-101785574D01*
X99767393Y-101871280D01*
X99775126Y-101900139D01*
X99789574Y-101954062D01*
X99789577Y-101954069D01*
X99818143Y-102003547D01*
X99832428Y-102028289D01*
X99893031Y-102088892D01*
X99967255Y-102131745D01*
X100050040Y-102153927D01*
X100076946Y-102153927D01*
X100108059Y-102166814D01*
X100120946Y-102197927D01*
X100120946Y-102224834D01*
X100127169Y-102248057D01*
X100141049Y-102299862D01*
X100143128Y-102307619D01*
X100185981Y-102381843D01*
X100246584Y-102442446D01*
X100320808Y-102485299D01*
X100403593Y-102507481D01*
X100403595Y-102507481D01*
X100489297Y-102507481D01*
X100489299Y-102507481D01*
X100572084Y-102485299D01*
X100646308Y-102442446D01*
X100706911Y-102381843D01*
X100749764Y-102307619D01*
X100771946Y-102224834D01*
X100771946Y-102197927D01*
X100784833Y-102166814D01*
X100815946Y-102153927D01*
X100842851Y-102153927D01*
X100842853Y-102153927D01*
X100925638Y-102131745D01*
X100999862Y-102088892D01*
X101060465Y-102028289D01*
X101103318Y-101954065D01*
X101125500Y-101871280D01*
X101125500Y-101844374D01*
X101138387Y-101813261D01*
X101169500Y-101800374D01*
X101196404Y-101800374D01*
X101196406Y-101800374D01*
X101279191Y-101778192D01*
X101353415Y-101735339D01*
X101414018Y-101674736D01*
X101456871Y-101600512D01*
X101479053Y-101517727D01*
X101479053Y-101432021D01*
X101456871Y-101349236D01*
X101414018Y-101275012D01*
X101353415Y-101214409D01*
X101328673Y-101200124D01*
X101279195Y-101171558D01*
X101279193Y-101171557D01*
X101279191Y-101171556D01*
X101250322Y-101163820D01*
X101223606Y-101143320D01*
X101219210Y-101109932D01*
X101239711Y-101083215D01*
X101250318Y-101078821D01*
X101279191Y-101071085D01*
X101353415Y-101028232D01*
X101414018Y-100967629D01*
X101456871Y-100893405D01*
X101464606Y-100864536D01*
X101485105Y-100837820D01*
X101518493Y-100833424D01*
X101545211Y-100853924D01*
X101549606Y-100864536D01*
X101557342Y-100893405D01*
X101600195Y-100967629D01*
X101660798Y-101028232D01*
X101735022Y-101071085D01*
X101817807Y-101093267D01*
X101817809Y-101093267D01*
X101903511Y-101093267D01*
X101903513Y-101093267D01*
X101986298Y-101071085D01*
X102060522Y-101028232D01*
X102121125Y-100967629D01*
X102163978Y-100893405D01*
X102186160Y-100810620D01*
X102186160Y-100724914D01*
X102163978Y-100642129D01*
X102121125Y-100567905D01*
X102060522Y-100507302D01*
X102035780Y-100493017D01*
X101986302Y-100464451D01*
X101986299Y-100464450D01*
X101986298Y-100464449D01*
X101986296Y-100464448D01*
X101986295Y-100464448D01*
X101958748Y-100457067D01*
X101903513Y-100442267D01*
X101903511Y-100442267D01*
X101876607Y-100442267D01*
X101845494Y-100429380D01*
X101832607Y-100398267D01*
X101832607Y-100371362D01*
X101828003Y-100354180D01*
X101810425Y-100288576D01*
X101767572Y-100214352D01*
X101706969Y-100153749D01*
X101666640Y-100130465D01*
X101632749Y-100110898D01*
X101632747Y-100110897D01*
X101632745Y-100110896D01*
X101603876Y-100103160D01*
X101577160Y-100082660D01*
X101572764Y-100049272D01*
X101593265Y-100022555D01*
X101603872Y-100018161D01*
X101632745Y-100010425D01*
X101706969Y-99967572D01*
X101767572Y-99906969D01*
X101810425Y-99832745D01*
X101811925Y-99827147D01*
X102432927Y-99827147D01*
X102432927Y-99912853D01*
X102455109Y-99995638D01*
X102497962Y-100069862D01*
X102558565Y-100130465D01*
X102632789Y-100173318D01*
X102715574Y-100195500D01*
X102715576Y-100195500D01*
X102801278Y-100195500D01*
X102801280Y-100195500D01*
X102884065Y-100173318D01*
X102958289Y-100130465D01*
X103018892Y-100069862D01*
X103061745Y-99995638D01*
X103083927Y-99912853D01*
X103083927Y-99827147D01*
X103073210Y-99787151D01*
X103077606Y-99753764D01*
X103093707Y-99737662D01*
X103133852Y-99714486D01*
X103194455Y-99653883D01*
X103237308Y-99579659D01*
X103259490Y-99496874D01*
X103259490Y-99411168D01*
X103237308Y-99328383D01*
X103194455Y-99254159D01*
X103133852Y-99193556D01*
X103104625Y-99176682D01*
X103059632Y-99150705D01*
X103059629Y-99150704D01*
X103059628Y-99150703D01*
X103059626Y-99150702D01*
X103059625Y-99150702D01*
X103037442Y-99144758D01*
X102976843Y-99128521D01*
X102891137Y-99128521D01*
X102846775Y-99140407D01*
X102808354Y-99150702D01*
X102808347Y-99150705D01*
X102734129Y-99193555D01*
X102673524Y-99254160D01*
X102630674Y-99328378D01*
X102630671Y-99328385D01*
X102627596Y-99339862D01*
X102610468Y-99403788D01*
X102608490Y-99411169D01*
X102608490Y-99496873D01*
X102619206Y-99536868D01*
X102614810Y-99570255D01*
X102598705Y-99586360D01*
X102558568Y-99609532D01*
X102497961Y-99670139D01*
X102455111Y-99744357D01*
X102455108Y-99744364D01*
X102442774Y-99790396D01*
X102432927Y-99827147D01*
X101811925Y-99827147D01*
X101832607Y-99749960D01*
X101832607Y-99664254D01*
X101810425Y-99581469D01*
X101767572Y-99507245D01*
X101706969Y-99446642D01*
X101647386Y-99412242D01*
X101632749Y-99403791D01*
X101632746Y-99403790D01*
X101632745Y-99403789D01*
X101632743Y-99403788D01*
X101632742Y-99403788D01*
X101605191Y-99396406D01*
X101549960Y-99381607D01*
X101464254Y-99381607D01*
X101419892Y-99393493D01*
X101381471Y-99403788D01*
X101381464Y-99403791D01*
X101307246Y-99446641D01*
X101246641Y-99507246D01*
X101203791Y-99581464D01*
X101203789Y-99581467D01*
X101203789Y-99581469D01*
X101200203Y-99594854D01*
X101196054Y-99610337D01*
X101175552Y-99637054D01*
X101142164Y-99641449D01*
X101115447Y-99620947D01*
X101111054Y-99610341D01*
X101103318Y-99581469D01*
X101060465Y-99507245D01*
X100999862Y-99446642D01*
X100940279Y-99412242D01*
X100925642Y-99403791D01*
X100925639Y-99403790D01*
X100925638Y-99403789D01*
X100925636Y-99403788D01*
X100925635Y-99403788D01*
X100898084Y-99396406D01*
X100842853Y-99381607D01*
X100842851Y-99381607D01*
X100815946Y-99381607D01*
X100784833Y-99368720D01*
X100771946Y-99337607D01*
X100771946Y-99310701D01*
X100763757Y-99280138D01*
X100749764Y-99227915D01*
X100706911Y-99153691D01*
X100646308Y-99093088D01*
X100598661Y-99065579D01*
X100572088Y-99050237D01*
X100572085Y-99050236D01*
X100572084Y-99050235D01*
X100572082Y-99050234D01*
X100572081Y-99050234D01*
X100549898Y-99044290D01*
X100489299Y-99028053D01*
X100489297Y-99028053D01*
X100462393Y-99028053D01*
X100431280Y-99015166D01*
X100418393Y-98984053D01*
X100418393Y-98957148D01*
X100418393Y-98957147D01*
X100396211Y-98874362D01*
X100357405Y-98807147D01*
X101331606Y-98807147D01*
X101331606Y-98892853D01*
X101353788Y-98975638D01*
X101396641Y-99049862D01*
X101457244Y-99110465D01*
X101531468Y-99153318D01*
X101614253Y-99175500D01*
X101614255Y-99175500D01*
X101699957Y-99175500D01*
X101699959Y-99175500D01*
X101782744Y-99153318D01*
X101856968Y-99110465D01*
X101917571Y-99049862D01*
X101960424Y-98975638D01*
X101982606Y-98892853D01*
X101982606Y-98807147D01*
X101960424Y-98724362D01*
X101917571Y-98650138D01*
X101856968Y-98589535D01*
X101822893Y-98569862D01*
X101782748Y-98546684D01*
X101782745Y-98546683D01*
X101782744Y-98546682D01*
X101782742Y-98546681D01*
X101782741Y-98546681D01*
X101760558Y-98540737D01*
X101699959Y-98524500D01*
X101614253Y-98524500D01*
X101572696Y-98535635D01*
X101531470Y-98546681D01*
X101531463Y-98546684D01*
X101457245Y-98589534D01*
X101396640Y-98650139D01*
X101353790Y-98724357D01*
X101353787Y-98724364D01*
X101349722Y-98739535D01*
X101331606Y-98807147D01*
X100357405Y-98807147D01*
X100353358Y-98800138D01*
X100292755Y-98739535D01*
X100247346Y-98713318D01*
X100218535Y-98696684D01*
X100218532Y-98696683D01*
X100218531Y-98696682D01*
X100218529Y-98696681D01*
X100218528Y-98696681D01*
X100196345Y-98690737D01*
X100135746Y-98674500D01*
X100050040Y-98674500D01*
X100005678Y-98686386D01*
X99967257Y-98696681D01*
X99967246Y-98696686D01*
X99923392Y-98722005D01*
X99890004Y-98726401D01*
X99863288Y-98705899D01*
X99857393Y-98683900D01*
X99857393Y-97927147D01*
X100724500Y-97927147D01*
X100724500Y-98012853D01*
X100732980Y-98044500D01*
X100746681Y-98095635D01*
X100746684Y-98095642D01*
X100753058Y-98106682D01*
X100789535Y-98169862D01*
X100850138Y-98230465D01*
X100924362Y-98273318D01*
X101007147Y-98295500D01*
X101007149Y-98295500D01*
X101092851Y-98295500D01*
X101092853Y-98295500D01*
X101175638Y-98273318D01*
X101249862Y-98230465D01*
X101310465Y-98169862D01*
X101353318Y-98095638D01*
X101375500Y-98012853D01*
X101375500Y-97927147D01*
X101353318Y-97844362D01*
X101310465Y-97770138D01*
X101249862Y-97709535D01*
X101181385Y-97670000D01*
X101175642Y-97666684D01*
X101175639Y-97666683D01*
X101175638Y-97666682D01*
X101175636Y-97666681D01*
X101175635Y-97666681D01*
X101153452Y-97660737D01*
X101092853Y-97644500D01*
X101007147Y-97644500D01*
X100978138Y-97652273D01*
X100924364Y-97666681D01*
X100924357Y-97666684D01*
X100850139Y-97709534D01*
X100789534Y-97770139D01*
X100746684Y-97844357D01*
X100746682Y-97844362D01*
X100724500Y-97927147D01*
X99857393Y-97927147D01*
X99857393Y-96458646D01*
X99870280Y-96427533D01*
X99901114Y-96414647D01*
X100159386Y-96413027D01*
X100190578Y-96425719D01*
X100197766Y-96435025D01*
X100199855Y-96438643D01*
X100211164Y-96458231D01*
X100211166Y-96458233D01*
X100211168Y-96458236D01*
X100257760Y-96504827D01*
X100271768Y-96518835D01*
X100345992Y-96561688D01*
X100428777Y-96583870D01*
X100428779Y-96583870D01*
X100514481Y-96583870D01*
X100514483Y-96583870D01*
X100597268Y-96561688D01*
X100671492Y-96518835D01*
X100732095Y-96458232D01*
X100747762Y-96431095D01*
X100774476Y-96410597D01*
X100785579Y-96409099D01*
X103786182Y-96390274D01*
X103817373Y-96402966D01*
G37*
%TD.AperFunction*%
%TA.AperFunction,Conductor*%
G36*
X101191658Y-99793264D02*
G01*
X101196053Y-99803876D01*
X101203788Y-99832743D01*
X101203791Y-99832749D01*
X101218860Y-99858849D01*
X101246642Y-99906969D01*
X101307245Y-99967572D01*
X101381469Y-100010425D01*
X101410337Y-100018160D01*
X101437053Y-100038660D01*
X101441449Y-100072048D01*
X101420948Y-100098765D01*
X101410337Y-100103160D01*
X101381469Y-100110896D01*
X101381467Y-100110896D01*
X101381464Y-100110898D01*
X101307246Y-100153748D01*
X101246641Y-100214353D01*
X101203791Y-100288571D01*
X101203788Y-100288578D01*
X101197693Y-100311327D01*
X101186212Y-100354177D01*
X101181607Y-100371362D01*
X101181607Y-100398267D01*
X101168720Y-100429380D01*
X101137607Y-100442267D01*
X101110700Y-100442267D01*
X101066338Y-100454153D01*
X101027917Y-100464448D01*
X101027910Y-100464451D01*
X100953692Y-100507301D01*
X100893087Y-100567906D01*
X100850237Y-100642124D01*
X100850234Y-100642131D01*
X100841139Y-100676076D01*
X100828053Y-100724914D01*
X100828053Y-100810620D01*
X100835341Y-100837820D01*
X100850233Y-100893400D01*
X100850235Y-100893405D01*
X100893088Y-100967629D01*
X100953691Y-101028232D01*
X101027915Y-101071085D01*
X101056783Y-101078820D01*
X101083499Y-101099320D01*
X101087895Y-101132708D01*
X101067394Y-101159425D01*
X101056783Y-101163820D01*
X101027915Y-101171556D01*
X101027913Y-101171556D01*
X101027910Y-101171558D01*
X100953692Y-101214408D01*
X100893087Y-101275013D01*
X100850237Y-101349231D01*
X100850234Y-101349238D01*
X100828053Y-101432022D01*
X100828053Y-101458927D01*
X100815166Y-101490040D01*
X100784053Y-101502927D01*
X100757147Y-101502927D01*
X100719636Y-101512978D01*
X100674364Y-101525108D01*
X100674357Y-101525111D01*
X100600139Y-101567961D01*
X100539534Y-101628566D01*
X100496684Y-101702784D01*
X100496682Y-101702787D01*
X100496682Y-101702789D01*
X100489887Y-101728148D01*
X100488947Y-101731657D01*
X100468445Y-101758374D01*
X100435057Y-101762769D01*
X100408340Y-101742267D01*
X100403947Y-101731661D01*
X100396211Y-101702789D01*
X100353358Y-101628565D01*
X100292755Y-101567962D01*
X100268013Y-101553677D01*
X100218535Y-101525111D01*
X100218533Y-101525110D01*
X100218531Y-101525109D01*
X100189662Y-101517373D01*
X100162946Y-101496873D01*
X100158550Y-101463485D01*
X100179051Y-101436768D01*
X100189658Y-101432374D01*
X100218531Y-101424638D01*
X100292755Y-101381785D01*
X100353358Y-101321182D01*
X100396211Y-101246958D01*
X100418393Y-101164173D01*
X100418393Y-101078467D01*
X100396211Y-100995682D01*
X100353358Y-100921458D01*
X100292755Y-100860855D01*
X100245243Y-100833424D01*
X100218535Y-100818004D01*
X100218532Y-100818003D01*
X100218531Y-100818002D01*
X100218529Y-100818001D01*
X100218528Y-100818001D01*
X100199551Y-100812916D01*
X100141366Y-100797326D01*
X100114651Y-100776826D01*
X100110255Y-100743438D01*
X100130756Y-100716721D01*
X100141363Y-100712327D01*
X100208882Y-100694235D01*
X100277404Y-100654674D01*
X100333353Y-100598725D01*
X100372914Y-100530203D01*
X100393393Y-100453776D01*
X100393393Y-100374652D01*
X100372914Y-100298225D01*
X100333353Y-100229703D01*
X100277404Y-100173754D01*
X100242754Y-100153749D01*
X100208886Y-100134195D01*
X100208884Y-100134194D01*
X100208882Y-100134193D01*
X100141365Y-100116101D01*
X100114650Y-100095601D01*
X100110254Y-100062212D01*
X100130755Y-100035496D01*
X100141361Y-100031102D01*
X100218531Y-100010425D01*
X100292755Y-99967572D01*
X100353358Y-99906969D01*
X100396211Y-99832745D01*
X100403946Y-99803876D01*
X100424445Y-99777160D01*
X100457833Y-99772764D01*
X100484551Y-99793264D01*
X100488946Y-99803876D01*
X100496681Y-99832743D01*
X100496684Y-99832749D01*
X100511753Y-99858849D01*
X100539535Y-99906969D01*
X100600138Y-99967572D01*
X100674362Y-100010425D01*
X100757147Y-100032607D01*
X100757149Y-100032607D01*
X100842851Y-100032607D01*
X100842853Y-100032607D01*
X100925638Y-100010425D01*
X100999862Y-99967572D01*
X101060465Y-99906969D01*
X101103318Y-99832745D01*
X101111053Y-99803876D01*
X101131552Y-99777160D01*
X101164940Y-99772764D01*
X101191658Y-99793264D01*
G37*
%TD.AperFunction*%
%TD*%
M02*
