%TF.GenerationSoftware,KiCad,Pcbnew,9.0.6*%
%TF.CreationDate,2026-07-15T15:39:03+05:00*%
%TF.ProjectId,NS FPGA,4e532046-5047-4412-9e6b-696361645f70,rev?*%
%TF.SameCoordinates,Original*%
%TF.FileFunction,Copper,L4,Inr*%
%TF.FilePolarity,Positive*%
%FSLAX46Y46*%
G04 Gerber Fmt 4.6, Leading zero omitted, Abs format (unit mm)*
G04 Created by KiCad (PCBNEW 9.0.6) date 2026-07-15 15:39:03*
%MOMM*%
%LPD*%
G01*
G04 APERTURE LIST*
%TA.AperFunction,ComponentPad*%
%ADD10R,1.700000X1.700000*%
%TD*%
%TA.AperFunction,ComponentPad*%
%ADD11C,1.700000*%
%TD*%
%TA.AperFunction,HeatsinkPad*%
%ADD12O,1.000000X2.100000*%
%TD*%
%TA.AperFunction,HeatsinkPad*%
%ADD13O,1.000000X1.600000*%
%TD*%
%TA.AperFunction,ViaPad*%
%ADD14C,0.250000*%
%TD*%
%TA.AperFunction,ViaPad*%
%ADD15C,0.300000*%
%TD*%
%TA.AperFunction,ViaPad*%
%ADD16C,0.600000*%
%TD*%
%TA.AperFunction,Conductor*%
%ADD17C,0.090000*%
%TD*%
%TA.AperFunction,Conductor*%
%ADD18C,0.200000*%
%TD*%
G04 APERTURE END LIST*
D10*
%TO.N,+3V3*%
%TO.C,J4*%
X106160000Y-132200000D03*
D11*
%TO.N,/JTAG_TCK*%
X103620000Y-132200000D03*
%TO.N,/JTAG_TDO*%
X101080000Y-132200000D03*
%TO.N,/JTAG_TDI*%
X98540000Y-132200000D03*
%TO.N,/JTAG_TMS*%
X96000000Y-132200000D03*
%TO.N,GND*%
X93460000Y-132200000D03*
%TD*%
D10*
%TO.N,/IO_H8*%
%TO.C,J3*%
X111500000Y-71000000D03*
D11*
%TO.N,/IO_H7*%
X111500000Y-73540000D03*
%TO.N,GND*%
X111500000Y-76080000D03*
%TO.N,/IO_H6*%
X111500000Y-78620000D03*
%TO.N,/IO_H5*%
X111500000Y-81160000D03*
%TO.N,/IO_H4*%
X111500000Y-83700000D03*
%TO.N,/IO_H3*%
X111500000Y-86240000D03*
%TO.N,+3V3*%
X111500000Y-88780000D03*
%TO.N,/IO_H2*%
X111500000Y-91320000D03*
%TO.N,unconnected-(J3-Pin_10-Pad10)*%
X111500000Y-93860000D03*
%TO.N,/IO_F1*%
X111500000Y-96400000D03*
%TO.N,unconnected-(J3-Pin_12-Pad12)*%
X111500000Y-98940000D03*
%TO.N,unconnected-(J3-Pin_13-Pad13)*%
X111500000Y-101480000D03*
%TO.N,GND*%
X111500000Y-104020000D03*
%TO.N,/IO_E1*%
X111500000Y-106560000D03*
%TO.N,/IO_G5*%
X111500000Y-109100000D03*
%TO.N,unconnected-(J3-Pin_17-Pad17)*%
X111500000Y-111640000D03*
%TO.N,/IO_D1*%
X111500000Y-114180000D03*
%TO.N,/IO_E8*%
X111500000Y-116720000D03*
%TO.N,+5V*%
X111500000Y-119260000D03*
%TO.N,/IO_G4*%
X111500000Y-121800000D03*
%TO.N,GND*%
X111500000Y-124340000D03*
%TO.N,/IO_G3*%
X111500000Y-126880000D03*
%TO.N,/IO_D8*%
X111500000Y-129420000D03*
%TD*%
D10*
%TO.N,/IO_D7*%
%TO.C,J2*%
X88000000Y-71000000D03*
D11*
%TO.N,unconnected-(J2-Pin_2-Pad2)*%
X88000000Y-73540000D03*
%TO.N,GND*%
X88000000Y-76080000D03*
%TO.N,/IO_C8*%
X88000000Y-78620000D03*
%TO.N,+5V*%
X88000000Y-81160000D03*
%TO.N,/IO_C7*%
X88000000Y-83700000D03*
%TO.N,/IO_C5*%
X88000000Y-86240000D03*
%TO.N,/IO_C4*%
X88000000Y-88780000D03*
%TO.N,/IO_C2*%
X88000000Y-91320000D03*
%TO.N,/IO_A1*%
X88000000Y-93860000D03*
%TO.N,GND*%
X88000000Y-96400000D03*
%TO.N,/IO_A2*%
X88000000Y-98940000D03*
%TO.N,/IO_A3*%
X88000000Y-101480000D03*
%TO.N,/IO_A4*%
X88000000Y-104020000D03*
%TO.N,/IO_A5*%
X88000000Y-106560000D03*
%TO.N,/IO_A6*%
X88000000Y-109100000D03*
%TO.N,+3V3*%
X88000000Y-111640000D03*
%TO.N,/IO_B1*%
X88000000Y-114180000D03*
%TO.N,/IO_B2*%
X88000000Y-116720000D03*
%TO.N,/IO_B3*%
X88000000Y-119260000D03*
%TO.N,unconnected-(J2-Pin_21-Pad21)*%
X88000000Y-121800000D03*
%TO.N,GND*%
X88000000Y-124340000D03*
%TO.N,+3V3*%
X88000000Y-126880000D03*
%TO.N,GND*%
X88000000Y-129420000D03*
%TD*%
D12*
%TO.N,GND*%
%TO.C,J1*%
X104440000Y-74780000D03*
D13*
X104440000Y-70600000D03*
D12*
X95800000Y-74780000D03*
D13*
X95800000Y-70600000D03*
%TD*%
D14*
%TO.N,GND*%
X101600000Y-97200000D03*
%TO.N,Net-(U2-~{RST})*%
X95010000Y-87310000D03*
X94930000Y-85820000D03*
%TO.N,+3V3*%
X99770000Y-107940000D03*
%TO.N,GND*%
X95140000Y-100170000D03*
X96980000Y-98840000D03*
D15*
X100446446Y-100767767D03*
D16*
%TO.N,+3V3*%
X107740000Y-90100000D03*
X102770000Y-94100000D03*
%TO.N,GND*%
X104850000Y-99670000D03*
X105954475Y-102716273D03*
X105580000Y-101460000D03*
X108400000Y-96510000D03*
%TO.N,+5V*%
X92690000Y-85290000D03*
%TO.N,GND*%
X97605000Y-114850000D03*
%TO.N,+1V2*%
X96110000Y-92570000D03*
X93340000Y-77730000D03*
%TO.N,+5V*%
X106500000Y-85290000D03*
%TO.N,+3V3*%
X107600000Y-74500000D03*
X100380000Y-72510000D03*
X95816829Y-99566829D03*
D14*
%TO.N,+1V2*%
X96480000Y-99140000D03*
%TO.N,/MCU_UART_RX*%
X101030000Y-88170000D03*
%TO.N,/MCU_UART_TX*%
X101051000Y-88740000D03*
X99270000Y-103200000D03*
%TO.N,/IO_F1*%
X98850000Y-103020000D03*
%TO.N,/IO_B1*%
X97230000Y-103110000D03*
D15*
%TO.N,+1V2*%
X100092893Y-100414214D03*
D14*
X98650000Y-96280000D03*
X99310000Y-97480000D03*
%TO.N,/IO_G5*%
X106430000Y-98870000D03*
%TO.N,/IO_E1*%
X107590000Y-109750000D03*
X98910000Y-102430000D03*
%TO.N,/IO_D1*%
X98380000Y-102100000D03*
%TO.N,/IO_G3*%
X100446446Y-102181981D03*
%TO.N,/IO_G4*%
X100800000Y-101828427D03*
%TO.N,Net-(U1B-MODE0)*%
X102933990Y-99454021D03*
%TO.N,Net-(Q1-G)*%
X104890000Y-97960000D03*
%TO.N,+3V3*%
X100471630Y-96258370D03*
%TO.N,/JTAG_TCK*%
X98653472Y-104194184D03*
%TO.N,/IO_A5*%
X95110000Y-93560000D03*
X99032233Y-99353553D03*
%TO.N,/IO_A4*%
X98122688Y-99356375D03*
%TO.N,/IO_A3*%
X97690000Y-99480000D03*
%TO.N,/IO_C2*%
X94289000Y-105360000D03*
%TO.N,/IO_B2*%
X93820000Y-115750000D03*
%TO.N,/IO_A2*%
X97080862Y-100050862D03*
%TO.N,/IO_A1*%
X96639000Y-100724138D03*
%TO.N,+3V3*%
X99100000Y-104250000D03*
%TO.N,Net-(U1B-RECONFIG_N)*%
X106111202Y-103801001D03*
X106930000Y-106350000D03*
X106900000Y-102070000D03*
X107080000Y-99240000D03*
X105130000Y-98370000D03*
X102758427Y-99870000D03*
%TO.N,/IO_D8*%
X106710000Y-99760000D03*
X104490000Y-98370000D03*
X101657106Y-98850000D03*
%TO.N,/JTAG_TDO*%
X92710000Y-107920000D03*
X95650000Y-94240000D03*
X101050000Y-97970000D03*
%TO.N,/IO_A6*%
X99250000Y-96650000D03*
X98760000Y-98410000D03*
%TO.N,/IO_E8*%
X101507107Y-99707107D03*
%TO.N,/MCU_UART_RX*%
X100760000Y-103910000D03*
%TO.N,/IO_H2*%
X101210000Y-103650000D03*
%TO.N,/IO_H3*%
X101460000Y-103200000D03*
%TO.N,+3V3*%
X103500000Y-101771000D03*
%TO.N,/IO_G5*%
X101153553Y-101474874D03*
%TO.N,/IO_C2*%
X98678679Y-101121320D03*
%TO.N,Net-(Q1-G)*%
X101860660Y-100767767D03*
%TO.N,Net-(U1B-MODE0)*%
X101507107Y-100414214D03*
%TO.N,/IO_D7*%
X100800000Y-99707107D03*
%TO.N,/IO_C7*%
X100446446Y-99353553D03*
%TO.N,/JTAG_TCK*%
X100092893Y-99000000D03*
%TO.N,/IO_B3*%
X98678679Y-100414214D03*
%TO.N,/IO_B2*%
X98325126Y-100767767D03*
%TO.N,/IO_C5*%
X99739340Y-100060660D03*
%TO.N,/IO_C4*%
X99385786Y-100414214D03*
%TO.N,+3V3*%
X100092893Y-101828427D03*
X100092893Y-99707107D03*
X99032233Y-100767767D03*
X101153553Y-100767767D03*
X100092893Y-101121320D03*
%TD*%
D17*
%TO.N,+1V2*%
X96480000Y-99974674D02*
X96480000Y-99140000D01*
X97997646Y-101492320D02*
X96480000Y-99974674D01*
X97997646Y-101497646D02*
X97997646Y-101492320D01*
X98150000Y-101650000D02*
X97997646Y-101497646D01*
X98307680Y-101492320D02*
X98150000Y-101650000D01*
X99049679Y-101274994D02*
X98832353Y-101492320D01*
X99049679Y-101260321D02*
X99049679Y-101274994D01*
X99185907Y-101138767D02*
X99171233Y-101138767D01*
X99874674Y-100450000D02*
X99185907Y-101138767D01*
X100057107Y-100450000D02*
X99874674Y-100450000D01*
X99171233Y-101138767D02*
X99049679Y-101260321D01*
X100092893Y-100414214D02*
X100057107Y-100450000D01*
X98832353Y-101492320D02*
X98307680Y-101492320D01*
D18*
%TO.N,+5V*%
X92130000Y-85290000D02*
X88000000Y-81160000D01*
X92690000Y-85290000D02*
X92130000Y-85290000D01*
D17*
%TO.N,/IO_G5*%
X104161233Y-101138767D02*
X101489660Y-101138767D01*
X101489660Y-101138767D02*
X101153553Y-101474874D01*
X106430000Y-98870000D02*
X104161233Y-101138767D01*
%TO.N,+3V3*%
X95816829Y-99278497D02*
X95816829Y-99566829D01*
X98074326Y-97021000D02*
X95816829Y-99278497D01*
X99709000Y-97021000D02*
X98074326Y-97021000D01*
X100471630Y-96258370D02*
X99709000Y-97021000D01*
X100092893Y-99707107D02*
X101153553Y-100767767D01*
%TO.N,/IO_B1*%
X97230000Y-104950000D02*
X88000000Y-114180000D01*
X97230000Y-103110000D02*
X97230000Y-104950000D01*
%TD*%
%TA.AperFunction,Conductor*%
%TO.N,+1V2*%
G36*
X104122404Y-91999885D02*
G01*
X104164088Y-92017249D01*
X104181272Y-92057581D01*
X104313989Y-98060823D01*
X104297634Y-98102914D01*
X104290926Y-98108930D01*
X104290142Y-98109531D01*
X104229536Y-98170136D01*
X104186681Y-98244363D01*
X104164500Y-98327145D01*
X104164500Y-98327147D01*
X104164500Y-98412853D01*
X104186682Y-98495638D01*
X104223570Y-98559531D01*
X104229537Y-98569865D01*
X104290136Y-98630464D01*
X104290138Y-98630465D01*
X104298299Y-98635177D01*
X104325790Y-98671001D01*
X104327787Y-98684969D01*
X104372557Y-100710059D01*
X104356202Y-100752150D01*
X104355290Y-100753082D01*
X104122388Y-100985986D01*
X104080669Y-101003267D01*
X102202740Y-101003267D01*
X102161021Y-100985986D01*
X102143740Y-100944267D01*
X102151645Y-100914767D01*
X102154758Y-100909373D01*
X102163978Y-100893405D01*
X102186160Y-100810620D01*
X102186160Y-100724914D01*
X102163978Y-100642129D01*
X102121125Y-100567905D01*
X102121123Y-100567903D01*
X102121122Y-100567901D01*
X102060525Y-100507304D01*
X102042009Y-100496614D01*
X101986298Y-100464449D01*
X101986297Y-100464448D01*
X101986296Y-100464448D01*
X101903514Y-100442267D01*
X101903513Y-100442267D01*
X101891607Y-100442267D01*
X101849888Y-100424986D01*
X101832607Y-100383267D01*
X101832607Y-100371360D01*
X101832606Y-100371359D01*
X101830628Y-100363978D01*
X101810425Y-100288576D01*
X101767572Y-100214352D01*
X101767570Y-100214350D01*
X101767569Y-100214348D01*
X101706972Y-100153751D01*
X101706967Y-100153748D01*
X101634233Y-100111755D01*
X101606744Y-100075930D01*
X101612638Y-100031160D01*
X101634233Y-100009565D01*
X101706969Y-99967572D01*
X101767572Y-99906969D01*
X101810425Y-99832745D01*
X101811926Y-99827145D01*
X102432927Y-99827145D01*
X102432927Y-99912854D01*
X102453726Y-99990480D01*
X102455109Y-99995638D01*
X102476452Y-100032606D01*
X102497964Y-100069865D01*
X102558561Y-100130462D01*
X102558563Y-100130463D01*
X102558565Y-100130465D01*
X102632789Y-100173318D01*
X102715574Y-100195500D01*
X102801280Y-100195500D01*
X102884065Y-100173318D01*
X102958289Y-100130465D01*
X103018892Y-100069862D01*
X103061745Y-99995638D01*
X103083927Y-99912853D01*
X103083927Y-99827147D01*
X103076189Y-99798269D01*
X103082084Y-99753499D01*
X103103679Y-99731905D01*
X103133852Y-99714486D01*
X103194455Y-99653883D01*
X103237308Y-99579659D01*
X103259490Y-99496874D01*
X103259490Y-99411168D01*
X103237308Y-99328383D01*
X103194455Y-99254159D01*
X103194453Y-99254157D01*
X103194452Y-99254155D01*
X103133855Y-99193558D01*
X103130829Y-99191811D01*
X103059628Y-99150703D01*
X103059627Y-99150702D01*
X103059626Y-99150702D01*
X102976844Y-99128521D01*
X102976843Y-99128521D01*
X102891137Y-99128521D01*
X102891135Y-99128521D01*
X102808353Y-99150702D01*
X102734124Y-99193558D01*
X102673527Y-99254155D01*
X102630671Y-99328384D01*
X102608490Y-99411166D01*
X102608490Y-99496878D01*
X102616226Y-99525750D01*
X102610331Y-99570520D01*
X102588737Y-99592114D01*
X102558562Y-99609536D01*
X102497964Y-99670134D01*
X102455108Y-99744363D01*
X102432927Y-99827145D01*
X101811926Y-99827145D01*
X101832607Y-99749960D01*
X101832607Y-99664254D01*
X101810425Y-99581469D01*
X101767572Y-99507245D01*
X101767570Y-99507243D01*
X101767569Y-99507241D01*
X101706972Y-99446644D01*
X101690519Y-99437145D01*
X101632745Y-99403789D01*
X101632744Y-99403788D01*
X101632743Y-99403788D01*
X101549961Y-99381607D01*
X101549960Y-99381607D01*
X101464254Y-99381607D01*
X101464252Y-99381607D01*
X101381470Y-99403788D01*
X101307241Y-99446644D01*
X101246643Y-99507243D01*
X101246641Y-99507245D01*
X101204648Y-99579979D01*
X101168823Y-99607469D01*
X101124053Y-99601574D01*
X101102458Y-99579980D01*
X101060465Y-99507245D01*
X101060463Y-99507243D01*
X101060462Y-99507241D01*
X100999865Y-99446644D01*
X100983412Y-99437145D01*
X100925638Y-99403789D01*
X100925637Y-99403788D01*
X100925636Y-99403788D01*
X100842854Y-99381607D01*
X100842853Y-99381607D01*
X100830946Y-99381607D01*
X100789227Y-99364326D01*
X100771946Y-99322607D01*
X100771946Y-99310699D01*
X100771945Y-99310698D01*
X100768219Y-99296793D01*
X100749764Y-99227915D01*
X100706911Y-99153691D01*
X100706909Y-99153689D01*
X100706908Y-99153687D01*
X100646311Y-99093090D01*
X100580702Y-99055211D01*
X100572084Y-99050235D01*
X100572083Y-99050234D01*
X100572082Y-99050234D01*
X100489300Y-99028053D01*
X100489299Y-99028053D01*
X100477393Y-99028053D01*
X100435674Y-99010772D01*
X100418393Y-98969053D01*
X100418393Y-98957146D01*
X100418392Y-98957145D01*
X100396211Y-98874362D01*
X100396209Y-98874359D01*
X100372207Y-98832785D01*
X100372205Y-98832783D01*
X100357403Y-98807145D01*
X101331606Y-98807145D01*
X101331606Y-98892854D01*
X101353694Y-98975290D01*
X101353788Y-98975638D01*
X101392594Y-99042853D01*
X101396643Y-99049865D01*
X101457240Y-99110462D01*
X101457242Y-99110463D01*
X101457244Y-99110465D01*
X101531468Y-99153318D01*
X101614253Y-99175500D01*
X101699959Y-99175500D01*
X101782744Y-99153318D01*
X101856968Y-99110465D01*
X101917571Y-99049862D01*
X101960424Y-98975638D01*
X101982606Y-98892853D01*
X101982606Y-98807147D01*
X101960424Y-98724362D01*
X101917571Y-98650138D01*
X101917569Y-98650136D01*
X101917568Y-98650134D01*
X101856971Y-98589537D01*
X101804997Y-98559530D01*
X101782744Y-98546682D01*
X101782743Y-98546681D01*
X101782742Y-98546681D01*
X101699960Y-98524500D01*
X101699959Y-98524500D01*
X101614253Y-98524500D01*
X101614251Y-98524500D01*
X101531469Y-98546681D01*
X101457240Y-98589537D01*
X101396643Y-98650134D01*
X101353787Y-98724363D01*
X101331606Y-98807145D01*
X100357403Y-98807145D01*
X100353358Y-98800138D01*
X100353356Y-98800136D01*
X100353355Y-98800134D01*
X100292758Y-98739537D01*
X100247345Y-98713318D01*
X100218531Y-98696682D01*
X100218530Y-98696681D01*
X100218529Y-98696681D01*
X100135747Y-98674500D01*
X100135746Y-98674500D01*
X100050040Y-98674500D01*
X100050038Y-98674500D01*
X99967256Y-98696681D01*
X99893027Y-98739537D01*
X99832430Y-98800134D01*
X99789574Y-98874363D01*
X99767393Y-98957145D01*
X99767393Y-99042854D01*
X99788189Y-99120468D01*
X99789575Y-99125638D01*
X99828825Y-99193622D01*
X99832430Y-99199865D01*
X99893027Y-99260462D01*
X99893029Y-99260463D01*
X99893031Y-99260465D01*
X99965766Y-99302458D01*
X99993255Y-99338282D01*
X99987361Y-99383053D01*
X99965765Y-99404648D01*
X99893031Y-99446641D01*
X99893029Y-99446643D01*
X99832430Y-99507241D01*
X99789574Y-99581470D01*
X99767393Y-99664252D01*
X99767393Y-99676160D01*
X99750112Y-99717879D01*
X99708393Y-99735160D01*
X99696485Y-99735160D01*
X99613703Y-99757341D01*
X99539474Y-99800197D01*
X99478877Y-99860794D01*
X99436021Y-99935023D01*
X99413840Y-100017805D01*
X99413840Y-100029714D01*
X99396559Y-100071433D01*
X99354840Y-100088714D01*
X99342931Y-100088714D01*
X99260149Y-100110895D01*
X99185920Y-100153751D01*
X99125322Y-100214350D01*
X99125320Y-100214352D01*
X99083327Y-100287086D01*
X99047502Y-100314576D01*
X99002732Y-100308681D01*
X98981137Y-100287087D01*
X98939144Y-100214352D01*
X98939142Y-100214350D01*
X98939141Y-100214348D01*
X98878544Y-100153751D01*
X98842950Y-100133201D01*
X98804317Y-100110896D01*
X98804316Y-100110895D01*
X98804315Y-100110895D01*
X98721533Y-100088714D01*
X98721532Y-100088714D01*
X98635826Y-100088714D01*
X98635824Y-100088714D01*
X98553042Y-100110895D01*
X98478813Y-100153751D01*
X98418216Y-100214348D01*
X98375360Y-100288577D01*
X98353179Y-100371359D01*
X98353179Y-100383267D01*
X98335898Y-100424986D01*
X98294179Y-100442267D01*
X98282271Y-100442267D01*
X98199489Y-100464448D01*
X98125260Y-100507304D01*
X98064663Y-100567901D01*
X98021807Y-100642130D01*
X97999626Y-100724912D01*
X97999626Y-100810621D01*
X98019222Y-100883756D01*
X98021808Y-100893405D01*
X98038004Y-100921458D01*
X98064663Y-100967632D01*
X98125260Y-101028229D01*
X98125262Y-101028230D01*
X98125264Y-101028232D01*
X98199488Y-101071085D01*
X98282273Y-101093267D01*
X98294179Y-101093267D01*
X98335898Y-101110548D01*
X98353179Y-101152267D01*
X98353179Y-101164174D01*
X98370515Y-101228875D01*
X98375361Y-101246958D01*
X98401104Y-101291547D01*
X98418216Y-101321185D01*
X98478813Y-101381782D01*
X98478815Y-101381783D01*
X98478817Y-101381785D01*
X98553041Y-101424638D01*
X98635826Y-101446820D01*
X98721532Y-101446820D01*
X98804317Y-101424638D01*
X98878541Y-101381785D01*
X98939144Y-101321182D01*
X98981997Y-101246958D01*
X99004179Y-101164173D01*
X99004179Y-101152267D01*
X99021460Y-101110548D01*
X99063179Y-101093267D01*
X99075086Y-101093267D01*
X99157871Y-101071085D01*
X99232095Y-101028232D01*
X99292698Y-100967629D01*
X99335551Y-100893405D01*
X99357733Y-100810620D01*
X99357733Y-100798714D01*
X99375014Y-100756995D01*
X99416733Y-100739714D01*
X99428639Y-100739714D01*
X99511424Y-100717532D01*
X99585648Y-100674679D01*
X99646251Y-100614076D01*
X99689104Y-100539852D01*
X99711286Y-100457067D01*
X99711286Y-100445160D01*
X99728567Y-100403441D01*
X99770286Y-100386160D01*
X99782193Y-100386160D01*
X99864978Y-100363978D01*
X99939202Y-100321125D01*
X99999805Y-100260522D01*
X100042658Y-100186298D01*
X100064840Y-100103513D01*
X100064840Y-100091607D01*
X100082121Y-100049888D01*
X100112930Y-100033625D01*
X100118340Y-100032607D01*
X100135746Y-100032607D01*
X100176796Y-100021607D01*
X100178989Y-100021195D01*
X100199064Y-100025404D01*
X100219398Y-100028081D01*
X100222244Y-100030264D01*
X100223184Y-100030462D01*
X100223870Y-100031513D01*
X100231618Y-100037458D01*
X100569937Y-100375777D01*
X100587218Y-100417496D01*
X100569937Y-100459215D01*
X100528218Y-100476496D01*
X100512950Y-100474486D01*
X100486008Y-100467267D01*
X100406884Y-100467267D01*
X100386406Y-100472754D01*
X100330458Y-100487745D01*
X100261931Y-100527309D01*
X100205988Y-100583252D01*
X100166424Y-100651779D01*
X100158518Y-100681285D01*
X100146829Y-100724912D01*
X100145946Y-100728206D01*
X100145946Y-100736820D01*
X100128665Y-100778539D01*
X100086946Y-100795820D01*
X100050038Y-100795820D01*
X99967256Y-100818001D01*
X99893027Y-100860857D01*
X99832430Y-100921454D01*
X99789574Y-100995683D01*
X99767393Y-101078465D01*
X99767393Y-101164174D01*
X99784729Y-101228875D01*
X99789575Y-101246958D01*
X99815318Y-101291547D01*
X99832430Y-101321185D01*
X99893027Y-101381782D01*
X99893029Y-101381783D01*
X99893031Y-101381785D01*
X99965766Y-101423778D01*
X99993255Y-101459602D01*
X99987361Y-101504373D01*
X99965765Y-101525968D01*
X99893031Y-101567961D01*
X99893029Y-101567963D01*
X99832430Y-101628561D01*
X99789574Y-101702790D01*
X99767393Y-101785572D01*
X99767393Y-101871281D01*
X99774187Y-101896638D01*
X99789575Y-101954065D01*
X99801293Y-101974362D01*
X99832430Y-102028292D01*
X99893027Y-102088889D01*
X99893029Y-102088890D01*
X99893031Y-102088892D01*
X99967255Y-102131745D01*
X100050040Y-102153927D01*
X100061946Y-102153927D01*
X100103665Y-102171208D01*
X100120946Y-102212927D01*
X100120946Y-102224835D01*
X100142255Y-102304363D01*
X100143128Y-102307619D01*
X100173638Y-102360465D01*
X100185983Y-102381846D01*
X100246580Y-102442443D01*
X100246582Y-102442444D01*
X100246584Y-102442446D01*
X100320808Y-102485299D01*
X100403593Y-102507481D01*
X100489299Y-102507481D01*
X100572084Y-102485299D01*
X100646308Y-102442446D01*
X100706911Y-102381843D01*
X100749764Y-102307619D01*
X100771946Y-102224834D01*
X100771946Y-102212927D01*
X100789227Y-102171208D01*
X100830946Y-102153927D01*
X100842853Y-102153927D01*
X100925638Y-102131745D01*
X100999862Y-102088892D01*
X101060465Y-102028289D01*
X101103318Y-101954065D01*
X101125500Y-101871280D01*
X101125500Y-101859374D01*
X101142781Y-101817655D01*
X101184500Y-101800374D01*
X101196406Y-101800374D01*
X101279191Y-101778192D01*
X101353415Y-101735339D01*
X101360609Y-101728145D01*
X103174500Y-101728145D01*
X103174500Y-101813854D01*
X103189887Y-101871281D01*
X103196682Y-101896638D01*
X103229837Y-101954065D01*
X103239537Y-101970865D01*
X103300134Y-102031462D01*
X103300136Y-102031463D01*
X103300138Y-102031465D01*
X103374362Y-102074318D01*
X103457147Y-102096500D01*
X103542853Y-102096500D01*
X103625638Y-102074318D01*
X103699862Y-102031465D01*
X103760465Y-101970862D01*
X103803318Y-101896638D01*
X103825500Y-101813853D01*
X103825500Y-101728147D01*
X103803318Y-101645362D01*
X103760465Y-101571138D01*
X103760463Y-101571136D01*
X103760462Y-101571134D01*
X103699865Y-101510537D01*
X103664541Y-101490143D01*
X103625638Y-101467682D01*
X103625637Y-101467681D01*
X103625636Y-101467681D01*
X103542854Y-101445500D01*
X103542853Y-101445500D01*
X103457147Y-101445500D01*
X103457145Y-101445500D01*
X103374363Y-101467681D01*
X103300134Y-101510537D01*
X103239537Y-101571134D01*
X103196681Y-101645363D01*
X103174500Y-101728145D01*
X101360609Y-101728145D01*
X101365860Y-101722894D01*
X101406194Y-101682561D01*
X101414015Y-101674739D01*
X101414018Y-101674736D01*
X101456871Y-101600512D01*
X101479053Y-101517727D01*
X101479053Y-101432021D01*
X101468634Y-101393136D01*
X101469674Y-101385230D01*
X101466624Y-101377865D01*
X101472517Y-101363638D01*
X101474528Y-101348366D01*
X101483906Y-101336146D01*
X101528507Y-101291547D01*
X101570225Y-101274267D01*
X104127406Y-101274267D01*
X104127414Y-101274268D01*
X104134280Y-101274268D01*
X104188186Y-101274268D01*
X104224142Y-101259374D01*
X104237988Y-101253639D01*
X104276105Y-101215522D01*
X104276105Y-101215520D01*
X104285851Y-101205773D01*
X104288160Y-101203889D01*
X104307156Y-101198180D01*
X104325471Y-101190594D01*
X104328384Y-101191800D01*
X104331406Y-101190893D01*
X104348874Y-101200288D01*
X104367190Y-101207875D01*
X104368445Y-101210814D01*
X104371176Y-101212283D01*
X104376162Y-101228875D01*
X104384457Y-101248290D01*
X104436596Y-103606681D01*
X104478196Y-105488420D01*
X104478667Y-105509696D01*
X104462312Y-105551787D01*
X104420985Y-105569986D01*
X104419681Y-105570000D01*
X96944062Y-105570000D01*
X96902343Y-105552719D01*
X96885062Y-105511000D01*
X96902343Y-105469281D01*
X96968771Y-105402853D01*
X97306751Y-105064873D01*
X97306755Y-105064872D01*
X97344872Y-105026755D01*
X97356955Y-104997581D01*
X97365501Y-104976953D01*
X97365501Y-104923047D01*
X97365501Y-104918298D01*
X97365500Y-104918284D01*
X97365500Y-104151329D01*
X98327972Y-104151329D01*
X98327972Y-104237038D01*
X98350153Y-104319820D01*
X98393009Y-104394049D01*
X98453606Y-104454646D01*
X98453608Y-104454647D01*
X98453610Y-104454649D01*
X98527834Y-104497502D01*
X98610619Y-104519684D01*
X98696325Y-104519684D01*
X98779110Y-104497502D01*
X98808414Y-104480582D01*
X98853182Y-104474688D01*
X98879633Y-104489960D01*
X98900134Y-104510462D01*
X98900136Y-104510463D01*
X98900138Y-104510465D01*
X98974362Y-104553318D01*
X99057147Y-104575500D01*
X99142853Y-104575500D01*
X99225638Y-104553318D01*
X99299862Y-104510465D01*
X99360465Y-104449862D01*
X99403318Y-104375638D01*
X99425500Y-104292853D01*
X99425500Y-104207147D01*
X99403318Y-104124362D01*
X99360465Y-104050138D01*
X99360463Y-104050136D01*
X99360462Y-104050134D01*
X99299865Y-103989537D01*
X99294147Y-103986236D01*
X99225638Y-103946682D01*
X99225637Y-103946681D01*
X99225636Y-103946681D01*
X99142854Y-103924500D01*
X99142853Y-103924500D01*
X99057147Y-103924500D01*
X99057145Y-103924500D01*
X98974363Y-103946681D01*
X98974358Y-103946683D01*
X98945057Y-103963600D01*
X98900286Y-103969493D01*
X98880363Y-103959857D01*
X98876892Y-103957277D01*
X98853334Y-103933719D01*
X98779110Y-103890866D01*
X98779109Y-103890865D01*
X98779108Y-103890865D01*
X98696326Y-103868684D01*
X98696325Y-103868684D01*
X98610619Y-103868684D01*
X98610617Y-103868684D01*
X98527835Y-103890865D01*
X98453606Y-103933721D01*
X98393009Y-103994318D01*
X98350153Y-104068547D01*
X98327972Y-104151329D01*
X97365500Y-104151329D01*
X97365500Y-103867145D01*
X100434500Y-103867145D01*
X100434500Y-103952854D01*
X100456680Y-104035634D01*
X100456682Y-104035638D01*
X100475681Y-104068546D01*
X100499537Y-104109865D01*
X100560134Y-104170462D01*
X100560136Y-104170463D01*
X100560138Y-104170465D01*
X100634362Y-104213318D01*
X100717147Y-104235500D01*
X100802853Y-104235500D01*
X100885638Y-104213318D01*
X100959862Y-104170465D01*
X101020465Y-104109862D01*
X101063318Y-104035638D01*
X101070037Y-104010560D01*
X101097524Y-103974736D01*
X101142292Y-103968840D01*
X101167147Y-103975500D01*
X101167151Y-103975500D01*
X101252853Y-103975500D01*
X101335638Y-103953318D01*
X101409862Y-103910465D01*
X101470465Y-103849862D01*
X101513318Y-103775638D01*
X101535500Y-103692853D01*
X101535500Y-103607147D01*
X101535500Y-103607146D01*
X101535499Y-103607140D01*
X101528172Y-103579797D01*
X101534065Y-103535027D01*
X101569888Y-103507537D01*
X101585638Y-103503318D01*
X101659862Y-103460465D01*
X101720465Y-103399862D01*
X101763318Y-103325638D01*
X101785500Y-103242853D01*
X101785500Y-103157147D01*
X101763318Y-103074362D01*
X101720465Y-103000138D01*
X101720463Y-103000136D01*
X101720462Y-103000134D01*
X101659865Y-102939537D01*
X101608944Y-102910138D01*
X101585638Y-102896682D01*
X101585637Y-102896681D01*
X101585636Y-102896681D01*
X101502854Y-102874500D01*
X101502853Y-102874500D01*
X101417147Y-102874500D01*
X101417145Y-102874500D01*
X101334363Y-102896681D01*
X101260134Y-102939537D01*
X101199537Y-103000134D01*
X101156681Y-103074363D01*
X101134500Y-103157145D01*
X101134500Y-103242854D01*
X101141828Y-103270202D01*
X101135934Y-103314972D01*
X101100111Y-103342461D01*
X101084365Y-103346680D01*
X101010134Y-103389537D01*
X100949537Y-103450134D01*
X100906680Y-103524365D01*
X100906680Y-103524366D01*
X100899961Y-103549440D01*
X100872471Y-103585264D01*
X100827702Y-103591158D01*
X100802854Y-103584500D01*
X100802853Y-103584500D01*
X100717147Y-103584500D01*
X100717145Y-103584500D01*
X100634363Y-103606681D01*
X100560134Y-103649537D01*
X100499537Y-103710134D01*
X100456681Y-103784363D01*
X100434500Y-103867145D01*
X97365500Y-103867145D01*
X97365500Y-103441688D01*
X97382781Y-103399969D01*
X97394998Y-103390593D01*
X97429862Y-103370465D01*
X97490465Y-103309862D01*
X97533318Y-103235638D01*
X97555500Y-103152853D01*
X97555500Y-103067147D01*
X97533318Y-102984362D01*
X97490465Y-102910138D01*
X97490463Y-102910136D01*
X97490462Y-102910134D01*
X97429865Y-102849537D01*
X97378944Y-102820138D01*
X97355638Y-102806682D01*
X97355637Y-102806681D01*
X97355636Y-102806681D01*
X97272854Y-102784500D01*
X97272853Y-102784500D01*
X97187147Y-102784500D01*
X97187145Y-102784500D01*
X97104363Y-102806681D01*
X97030134Y-102849537D01*
X96969537Y-102910134D01*
X96926681Y-102984363D01*
X96904500Y-103067145D01*
X96904500Y-103152854D01*
X96922455Y-103219865D01*
X96926682Y-103235638D01*
X96946637Y-103270202D01*
X96969537Y-103309865D01*
X97030134Y-103370462D01*
X97030136Y-103370463D01*
X97030138Y-103370465D01*
X97065000Y-103390592D01*
X97092490Y-103426418D01*
X97094500Y-103441688D01*
X97094500Y-104869436D01*
X97077219Y-104911155D01*
X96435655Y-105552719D01*
X96393936Y-105570000D01*
X94645674Y-105570000D01*
X94603955Y-105552719D01*
X94586674Y-105511000D01*
X94591166Y-105488420D01*
X94592317Y-105485640D01*
X94592318Y-105485638D01*
X94614500Y-105402853D01*
X94614500Y-105317147D01*
X94592318Y-105234362D01*
X94549465Y-105160138D01*
X94549463Y-105160136D01*
X94549462Y-105160134D01*
X94488865Y-105099537D01*
X94428823Y-105064872D01*
X94414638Y-105056682D01*
X94414637Y-105056681D01*
X94414636Y-105056681D01*
X94331854Y-105034500D01*
X94331853Y-105034500D01*
X94246147Y-105034500D01*
X94246145Y-105034500D01*
X94184270Y-105051079D01*
X94139500Y-105045184D01*
X94112010Y-105009359D01*
X94110000Y-104994089D01*
X94110000Y-102057145D01*
X98054500Y-102057145D01*
X98054500Y-102142854D01*
X98076681Y-102225636D01*
X98119537Y-102299865D01*
X98180134Y-102360462D01*
X98180136Y-102360463D01*
X98180138Y-102360465D01*
X98254362Y-102403318D01*
X98337147Y-102425500D01*
X98422853Y-102425500D01*
X98505638Y-102403318D01*
X98505637Y-102403318D01*
X98509374Y-102402317D01*
X98509945Y-102404449D01*
X98548055Y-102404433D01*
X98579999Y-102436350D01*
X98584500Y-102458952D01*
X98584500Y-102472854D01*
X98606681Y-102555636D01*
X98649537Y-102629865D01*
X98677594Y-102657922D01*
X98694875Y-102699641D01*
X98677594Y-102741360D01*
X98665378Y-102750735D01*
X98650135Y-102759536D01*
X98589537Y-102820134D01*
X98546681Y-102894363D01*
X98524500Y-102977145D01*
X98524500Y-103062854D01*
X98546681Y-103145636D01*
X98589537Y-103219865D01*
X98650134Y-103280462D01*
X98650136Y-103280463D01*
X98650138Y-103280465D01*
X98724362Y-103323318D01*
X98807147Y-103345500D01*
X98892849Y-103345500D01*
X98892853Y-103345500D01*
X98922992Y-103337424D01*
X98967761Y-103343317D01*
X98989355Y-103364910D01*
X99003573Y-103389535D01*
X99009537Y-103399865D01*
X99070134Y-103460462D01*
X99070136Y-103460463D01*
X99070138Y-103460465D01*
X99144362Y-103503318D01*
X99227147Y-103525500D01*
X99312853Y-103525500D01*
X99395638Y-103503318D01*
X99469862Y-103460465D01*
X99530465Y-103399862D01*
X99573318Y-103325638D01*
X99595500Y-103242853D01*
X99595500Y-103157147D01*
X99573318Y-103074362D01*
X99530465Y-103000138D01*
X99530463Y-103000136D01*
X99530462Y-103000134D01*
X99469865Y-102939537D01*
X99418944Y-102910138D01*
X99395638Y-102896682D01*
X99395637Y-102896681D01*
X99395636Y-102896681D01*
X99312854Y-102874500D01*
X99312853Y-102874500D01*
X99227147Y-102874500D01*
X99227143Y-102874500D01*
X99197006Y-102882575D01*
X99185345Y-102881039D01*
X99173982Y-102884073D01*
X99165549Y-102878433D01*
X99152236Y-102876680D01*
X99134896Y-102861459D01*
X99132563Y-102858412D01*
X99110465Y-102820138D01*
X99079651Y-102789324D01*
X99077283Y-102786232D01*
X99072387Y-102767892D01*
X99065124Y-102750358D01*
X99066694Y-102746567D01*
X99065636Y-102742603D01*
X99075142Y-102726172D01*
X99082405Y-102708639D01*
X99087587Y-102704661D01*
X99088250Y-102703517D01*
X99089521Y-102703177D01*
X99094620Y-102699264D01*
X99109862Y-102690465D01*
X99170465Y-102629862D01*
X99213318Y-102555638D01*
X99235500Y-102472853D01*
X99235500Y-102387147D01*
X99213318Y-102304362D01*
X99170465Y-102230138D01*
X99170463Y-102230136D01*
X99170462Y-102230134D01*
X99109865Y-102169537D01*
X99035636Y-102126681D01*
X98952854Y-102104500D01*
X98952853Y-102104500D01*
X98867147Y-102104500D01*
X98867145Y-102104500D01*
X98780626Y-102127683D01*
X98780058Y-102125564D01*
X98741891Y-102125543D01*
X98709978Y-102093595D01*
X98705500Y-102071047D01*
X98705500Y-102057146D01*
X98705499Y-102057145D01*
X98698618Y-102031465D01*
X98683318Y-101974362D01*
X98640465Y-101900138D01*
X98640463Y-101900136D01*
X98640462Y-101900134D01*
X98579865Y-101839537D01*
X98541964Y-101817655D01*
X98505638Y-101796682D01*
X98505637Y-101796681D01*
X98505636Y-101796681D01*
X98422854Y-101774500D01*
X98422853Y-101774500D01*
X98337147Y-101774500D01*
X98337145Y-101774500D01*
X98254363Y-101796681D01*
X98180134Y-101839537D01*
X98119537Y-101900134D01*
X98076681Y-101974363D01*
X98054500Y-102057145D01*
X94110000Y-102057145D01*
X94110000Y-100681283D01*
X96313500Y-100681283D01*
X96313500Y-100766992D01*
X96330006Y-100828595D01*
X96335682Y-100849776D01*
X96377067Y-100921458D01*
X96378537Y-100924003D01*
X96439134Y-100984600D01*
X96439136Y-100984601D01*
X96439138Y-100984603D01*
X96513362Y-101027456D01*
X96596147Y-101049638D01*
X96681853Y-101049638D01*
X96764638Y-101027456D01*
X96838862Y-100984603D01*
X96899465Y-100924000D01*
X96942318Y-100849776D01*
X96964500Y-100766991D01*
X96964500Y-100681285D01*
X96942318Y-100598500D01*
X96899465Y-100524276D01*
X96899463Y-100524274D01*
X96899462Y-100524272D01*
X96838865Y-100463675D01*
X96827421Y-100457068D01*
X96764638Y-100420820D01*
X96764637Y-100420819D01*
X96764636Y-100420819D01*
X96681854Y-100398638D01*
X96681853Y-100398638D01*
X96596147Y-100398638D01*
X96596145Y-100398638D01*
X96513363Y-100420819D01*
X96439134Y-100463675D01*
X96378537Y-100524272D01*
X96335681Y-100598501D01*
X96313500Y-100681283D01*
X94110000Y-100681283D01*
X94110000Y-100123856D01*
X94789500Y-100123856D01*
X94789500Y-100216144D01*
X94799594Y-100253819D01*
X94813385Y-100305287D01*
X94813387Y-100305290D01*
X94859530Y-100385211D01*
X94859532Y-100385214D01*
X94924786Y-100450468D01*
X94924788Y-100450469D01*
X95004712Y-100496614D01*
X95093856Y-100520500D01*
X95093860Y-100520500D01*
X95186140Y-100520500D01*
X95186144Y-100520500D01*
X95275288Y-100496614D01*
X95355212Y-100450469D01*
X95355212Y-100450468D01*
X95355214Y-100450468D01*
X95420468Y-100385214D01*
X95420469Y-100385212D01*
X95466614Y-100305288D01*
X95490500Y-100216144D01*
X95490500Y-100123856D01*
X95466614Y-100034712D01*
X95451196Y-100008007D01*
X96755362Y-100008007D01*
X96755362Y-100093716D01*
X96771447Y-100153748D01*
X96777544Y-100176500D01*
X96800432Y-100216144D01*
X96820399Y-100250727D01*
X96880996Y-100311324D01*
X96880998Y-100311325D01*
X96881000Y-100311327D01*
X96955224Y-100354180D01*
X97038009Y-100376362D01*
X97123715Y-100376362D01*
X97206500Y-100354180D01*
X97280724Y-100311327D01*
X97341327Y-100250724D01*
X97384180Y-100176500D01*
X97406362Y-100093715D01*
X97406362Y-100008009D01*
X97384180Y-99925224D01*
X97341327Y-99851000D01*
X97341325Y-99850998D01*
X97341324Y-99850996D01*
X97280727Y-99790399D01*
X97268462Y-99783318D01*
X97206500Y-99747544D01*
X97206499Y-99747543D01*
X97206498Y-99747543D01*
X97123716Y-99725362D01*
X97123715Y-99725362D01*
X97038009Y-99725362D01*
X97038007Y-99725362D01*
X96955225Y-99747543D01*
X96880996Y-99790399D01*
X96820399Y-99850996D01*
X96777543Y-99925225D01*
X96755362Y-100008007D01*
X95451196Y-100008007D01*
X95420469Y-99954788D01*
X95420468Y-99954786D01*
X95355214Y-99889532D01*
X95355211Y-99889530D01*
X95275290Y-99843387D01*
X95275287Y-99843385D01*
X95214698Y-99827151D01*
X95186144Y-99819500D01*
X95093856Y-99819500D01*
X95085474Y-99821746D01*
X95004712Y-99843385D01*
X95004709Y-99843387D01*
X94924788Y-99889530D01*
X94859530Y-99954788D01*
X94813387Y-100034709D01*
X94813385Y-100034712D01*
X94798141Y-100091607D01*
X94789500Y-100123856D01*
X94110000Y-100123856D01*
X94110000Y-99514100D01*
X95416329Y-99514100D01*
X95416329Y-99619557D01*
X95441763Y-99714480D01*
X95443622Y-99721416D01*
X95496289Y-99812638D01*
X95496351Y-99812745D01*
X95570912Y-99887306D01*
X95570914Y-99887307D01*
X95570916Y-99887309D01*
X95662242Y-99940036D01*
X95764102Y-99967329D01*
X95869556Y-99967329D01*
X95971416Y-99940036D01*
X96062742Y-99887309D01*
X96137309Y-99812742D01*
X96190036Y-99721416D01*
X96217329Y-99619556D01*
X96217329Y-99514102D01*
X96199765Y-99448550D01*
X96199765Y-99448548D01*
X96196709Y-99437145D01*
X97364500Y-99437145D01*
X97364500Y-99522854D01*
X97379806Y-99579979D01*
X97386682Y-99605638D01*
X97429067Y-99679052D01*
X97429537Y-99679865D01*
X97490134Y-99740462D01*
X97490136Y-99740463D01*
X97490138Y-99740465D01*
X97564362Y-99783318D01*
X97647147Y-99805500D01*
X97732853Y-99805500D01*
X97815638Y-99783318D01*
X97889862Y-99740465D01*
X97950465Y-99679862D01*
X97950466Y-99679859D01*
X97952129Y-99678197D01*
X97993849Y-99660916D01*
X98009120Y-99662927D01*
X98079828Y-99681874D01*
X98079835Y-99681875D01*
X98165541Y-99681875D01*
X98248326Y-99659693D01*
X98322550Y-99616840D01*
X98383153Y-99556237D01*
X98426006Y-99482013D01*
X98448188Y-99399228D01*
X98448188Y-99313522D01*
X98447431Y-99310698D01*
X98706733Y-99310698D01*
X98706733Y-99396407D01*
X98728914Y-99479189D01*
X98771770Y-99553418D01*
X98832367Y-99614015D01*
X98832369Y-99614016D01*
X98832371Y-99614018D01*
X98906595Y-99656871D01*
X98989380Y-99679053D01*
X99075086Y-99679053D01*
X99157871Y-99656871D01*
X99232095Y-99614018D01*
X99292698Y-99553415D01*
X99335551Y-99479191D01*
X99357733Y-99396406D01*
X99357733Y-99310700D01*
X99335551Y-99227915D01*
X99292698Y-99153691D01*
X99292696Y-99153689D01*
X99292695Y-99153687D01*
X99232098Y-99093090D01*
X99166489Y-99055211D01*
X99157871Y-99050235D01*
X99157870Y-99050234D01*
X99157869Y-99050234D01*
X99075087Y-99028053D01*
X99075086Y-99028053D01*
X98989380Y-99028053D01*
X98989378Y-99028053D01*
X98906596Y-99050234D01*
X98832367Y-99093090D01*
X98771770Y-99153687D01*
X98728914Y-99227916D01*
X98706733Y-99310698D01*
X98447431Y-99310698D01*
X98436392Y-99269500D01*
X98426006Y-99230737D01*
X98383153Y-99156513D01*
X98383151Y-99156511D01*
X98383150Y-99156509D01*
X98322553Y-99095912D01*
X98317665Y-99093090D01*
X98248326Y-99053057D01*
X98248325Y-99053056D01*
X98248324Y-99053056D01*
X98165542Y-99030875D01*
X98165541Y-99030875D01*
X98079835Y-99030875D01*
X98079833Y-99030875D01*
X97997051Y-99053056D01*
X97922824Y-99095911D01*
X97860557Y-99158178D01*
X97818838Y-99175458D01*
X97803568Y-99173448D01*
X97732854Y-99154500D01*
X97732853Y-99154500D01*
X97647147Y-99154500D01*
X97647145Y-99154500D01*
X97564363Y-99176681D01*
X97490134Y-99219537D01*
X97429537Y-99280134D01*
X97386681Y-99354363D01*
X97364500Y-99437145D01*
X96196709Y-99437145D01*
X96190038Y-99412248D01*
X96190036Y-99412243D01*
X96190036Y-99412242D01*
X96137309Y-99320916D01*
X96137307Y-99320914D01*
X96137306Y-99320912D01*
X96093391Y-99276997D01*
X96076110Y-99235278D01*
X96093390Y-99193560D01*
X96528781Y-98758169D01*
X96570500Y-98740889D01*
X96612219Y-98758170D01*
X96629500Y-98799889D01*
X96629500Y-98886144D01*
X96639594Y-98923819D01*
X96653385Y-98975287D01*
X96653387Y-98975290D01*
X96699530Y-99055211D01*
X96699532Y-99055214D01*
X96764786Y-99120468D01*
X96764788Y-99120469D01*
X96844712Y-99166614D01*
X96933856Y-99190500D01*
X96933860Y-99190500D01*
X97026140Y-99190500D01*
X97026144Y-99190500D01*
X97115288Y-99166614D01*
X97195212Y-99120469D01*
X97195212Y-99120468D01*
X97195214Y-99120468D01*
X97260468Y-99055214D01*
X97260469Y-99055212D01*
X97306614Y-98975288D01*
X97330500Y-98886144D01*
X97330500Y-98793856D01*
X97306614Y-98704712D01*
X97260469Y-98624788D01*
X97260468Y-98624786D01*
X97195214Y-98559532D01*
X97195211Y-98559530D01*
X97115290Y-98513387D01*
X97115287Y-98513385D01*
X97049051Y-98495638D01*
X97026144Y-98489500D01*
X96939889Y-98489500D01*
X96898170Y-98472219D01*
X96880889Y-98430500D01*
X96898170Y-98388781D01*
X96919806Y-98367145D01*
X98434500Y-98367145D01*
X98434500Y-98452854D01*
X98453697Y-98524500D01*
X98456682Y-98535638D01*
X98487800Y-98589537D01*
X98499537Y-98609865D01*
X98560134Y-98670462D01*
X98560136Y-98670463D01*
X98560138Y-98670465D01*
X98634362Y-98713318D01*
X98717147Y-98735500D01*
X98802853Y-98735500D01*
X98885638Y-98713318D01*
X98959862Y-98670465D01*
X99020465Y-98609862D01*
X99063318Y-98535638D01*
X99085500Y-98452853D01*
X99085500Y-98367147D01*
X99063318Y-98284362D01*
X99020465Y-98210138D01*
X99020463Y-98210136D01*
X99020462Y-98210134D01*
X98959865Y-98149537D01*
X98890579Y-98109535D01*
X98885638Y-98106682D01*
X98885637Y-98106681D01*
X98885636Y-98106681D01*
X98802854Y-98084500D01*
X98802853Y-98084500D01*
X98717147Y-98084500D01*
X98717145Y-98084500D01*
X98634363Y-98106681D01*
X98560134Y-98149537D01*
X98499537Y-98210134D01*
X98456681Y-98284363D01*
X98434500Y-98367145D01*
X96919806Y-98367145D01*
X97076817Y-98210134D01*
X97359806Y-97927145D01*
X100724500Y-97927145D01*
X100724500Y-98012854D01*
X100744002Y-98085638D01*
X100746682Y-98095638D01*
X100777800Y-98149537D01*
X100789537Y-98169865D01*
X100850134Y-98230462D01*
X100850136Y-98230463D01*
X100850138Y-98230465D01*
X100924362Y-98273318D01*
X101007147Y-98295500D01*
X101092853Y-98295500D01*
X101175638Y-98273318D01*
X101249862Y-98230465D01*
X101310465Y-98169862D01*
X101353318Y-98095638D01*
X101375500Y-98012853D01*
X101375500Y-97927147D01*
X101353318Y-97844362D01*
X101310465Y-97770138D01*
X101310463Y-97770136D01*
X101310462Y-97770134D01*
X101249865Y-97709537D01*
X101175636Y-97666681D01*
X101092854Y-97644500D01*
X101092853Y-97644500D01*
X101007147Y-97644500D01*
X101007145Y-97644500D01*
X100924363Y-97666681D01*
X100850134Y-97709537D01*
X100789537Y-97770134D01*
X100746681Y-97844363D01*
X100724500Y-97927145D01*
X97359806Y-97927145D01*
X98113171Y-97173781D01*
X98153333Y-97157145D01*
X101274500Y-97157145D01*
X101274500Y-97242854D01*
X101296681Y-97325636D01*
X101339537Y-97399865D01*
X101400134Y-97460462D01*
X101400136Y-97460463D01*
X101400138Y-97460465D01*
X101474362Y-97503318D01*
X101557147Y-97525500D01*
X101642853Y-97525500D01*
X101725638Y-97503318D01*
X101799862Y-97460465D01*
X101860465Y-97399862D01*
X101903318Y-97325638D01*
X101925500Y-97242853D01*
X101925500Y-97157147D01*
X101903318Y-97074362D01*
X101860465Y-97000138D01*
X101860463Y-97000136D01*
X101860462Y-97000134D01*
X101799865Y-96939537D01*
X101742000Y-96906129D01*
X101725638Y-96896682D01*
X101725637Y-96896681D01*
X101725636Y-96896681D01*
X101642854Y-96874500D01*
X101642853Y-96874500D01*
X101557147Y-96874500D01*
X101557145Y-96874500D01*
X101474363Y-96896681D01*
X101400134Y-96939537D01*
X101339537Y-97000134D01*
X101296681Y-97074363D01*
X101274500Y-97157145D01*
X98153333Y-97157145D01*
X98154890Y-97156500D01*
X99675173Y-97156500D01*
X99675181Y-97156501D01*
X99682047Y-97156501D01*
X99735952Y-97156501D01*
X99735953Y-97156501D01*
X99771167Y-97141913D01*
X99785755Y-97135872D01*
X99823872Y-97097755D01*
X99823872Y-97097753D01*
X100332903Y-96588721D01*
X100374621Y-96571441D01*
X100389891Y-96573451D01*
X100405956Y-96577755D01*
X100428777Y-96583870D01*
X100514483Y-96583870D01*
X100597268Y-96561688D01*
X100671492Y-96518835D01*
X100732095Y-96458232D01*
X100774948Y-96384008D01*
X100797130Y-96301223D01*
X100797130Y-96215517D01*
X100774948Y-96132732D01*
X100732095Y-96058508D01*
X100732093Y-96058506D01*
X100732092Y-96058504D01*
X100671495Y-95997907D01*
X100597266Y-95955051D01*
X100514484Y-95932870D01*
X100514483Y-95932870D01*
X100428777Y-95932870D01*
X100428775Y-95932870D01*
X100345993Y-95955051D01*
X100271764Y-95997907D01*
X100211167Y-96058504D01*
X100168311Y-96132733D01*
X100146130Y-96215515D01*
X100146130Y-96301226D01*
X100156548Y-96340107D01*
X100150653Y-96384877D01*
X100141277Y-96397095D01*
X99670155Y-96868219D01*
X99628436Y-96885500D01*
X99592080Y-96885500D01*
X99550361Y-96868219D01*
X99533080Y-96826500D01*
X99540985Y-96797000D01*
X99544098Y-96791606D01*
X99553318Y-96775638D01*
X99575500Y-96692853D01*
X99575500Y-96607147D01*
X99553318Y-96524362D01*
X99510465Y-96450138D01*
X99510463Y-96450136D01*
X99510462Y-96450134D01*
X99449865Y-96389537D01*
X99440288Y-96384008D01*
X99375638Y-96346682D01*
X99375637Y-96346681D01*
X99375636Y-96346681D01*
X99292854Y-96324500D01*
X99292853Y-96324500D01*
X99207147Y-96324500D01*
X99207145Y-96324500D01*
X99124363Y-96346681D01*
X99050134Y-96389537D01*
X98989537Y-96450134D01*
X98946681Y-96524363D01*
X98924500Y-96607145D01*
X98924500Y-96692854D01*
X98946681Y-96775637D01*
X98946683Y-96775640D01*
X98959015Y-96797000D01*
X98964910Y-96841770D01*
X98937420Y-96877595D01*
X98907920Y-96885500D01*
X98108153Y-96885500D01*
X98108145Y-96885499D01*
X98101279Y-96885499D01*
X98047373Y-96885499D01*
X98047372Y-96885499D01*
X98020375Y-96896681D01*
X98020376Y-96896682D01*
X97997571Y-96906128D01*
X97997569Y-96906129D01*
X97959453Y-96944246D01*
X95740075Y-99163623D01*
X95740059Y-99163639D01*
X95738748Y-99164949D01*
X95712316Y-99180203D01*
X95662248Y-99193619D01*
X95662245Y-99193620D01*
X95570912Y-99246351D01*
X95496351Y-99320912D01*
X95443622Y-99412242D01*
X95443621Y-99412243D01*
X95416329Y-99514100D01*
X94110000Y-99514100D01*
X94110000Y-94197145D01*
X95324500Y-94197145D01*
X95324500Y-94282854D01*
X95346681Y-94365636D01*
X95389537Y-94439865D01*
X95450134Y-94500462D01*
X95450136Y-94500463D01*
X95450138Y-94500465D01*
X95524362Y-94543318D01*
X95607147Y-94565500D01*
X95692853Y-94565500D01*
X95775638Y-94543318D01*
X95849862Y-94500465D01*
X95910465Y-94439862D01*
X95953318Y-94365638D01*
X95975500Y-94282853D01*
X95975500Y-94197147D01*
X95953318Y-94114362D01*
X95914583Y-94047271D01*
X102369500Y-94047271D01*
X102369500Y-94152728D01*
X102381401Y-94197145D01*
X102396793Y-94254587D01*
X102413113Y-94282854D01*
X102449522Y-94345916D01*
X102524083Y-94420477D01*
X102524085Y-94420478D01*
X102524087Y-94420480D01*
X102615413Y-94473207D01*
X102717273Y-94500500D01*
X102822727Y-94500500D01*
X102924587Y-94473207D01*
X103015913Y-94420480D01*
X103090480Y-94345913D01*
X103143207Y-94254587D01*
X103170500Y-94152727D01*
X103170500Y-94047273D01*
X103143207Y-93945413D01*
X103090480Y-93854087D01*
X103090478Y-93854085D01*
X103090477Y-93854083D01*
X103015916Y-93779522D01*
X102981864Y-93759862D01*
X102924587Y-93726793D01*
X102924585Y-93726792D01*
X102822728Y-93699500D01*
X102822727Y-93699500D01*
X102717273Y-93699500D01*
X102717271Y-93699500D01*
X102615414Y-93726792D01*
X102615413Y-93726793D01*
X102524083Y-93779522D01*
X102449522Y-93854083D01*
X102396793Y-93945413D01*
X102396792Y-93945414D01*
X102369500Y-94047271D01*
X95914583Y-94047271D01*
X95910465Y-94040138D01*
X95910463Y-94040136D01*
X95910462Y-94040134D01*
X95849865Y-93979537D01*
X95790760Y-93945413D01*
X95775638Y-93936682D01*
X95775637Y-93936681D01*
X95775636Y-93936681D01*
X95692854Y-93914500D01*
X95692853Y-93914500D01*
X95607147Y-93914500D01*
X95607145Y-93914500D01*
X95524363Y-93936681D01*
X95450134Y-93979537D01*
X95389537Y-94040134D01*
X95346681Y-94114363D01*
X95324500Y-94197145D01*
X94110000Y-94197145D01*
X94110000Y-93517145D01*
X94784500Y-93517145D01*
X94784500Y-93602854D01*
X94806681Y-93685636D01*
X94849537Y-93759865D01*
X94910134Y-93820462D01*
X94910136Y-93820463D01*
X94910138Y-93820465D01*
X94984362Y-93863318D01*
X95067147Y-93885500D01*
X95152853Y-93885500D01*
X95235638Y-93863318D01*
X95309862Y-93820465D01*
X95370465Y-93759862D01*
X95413318Y-93685638D01*
X95435500Y-93602853D01*
X95435500Y-93517147D01*
X95413318Y-93434362D01*
X95370465Y-93360138D01*
X95370463Y-93360136D01*
X95370462Y-93360134D01*
X95309865Y-93299537D01*
X95235636Y-93256681D01*
X95152854Y-93234500D01*
X95152853Y-93234500D01*
X95067147Y-93234500D01*
X95067145Y-93234500D01*
X94984363Y-93256681D01*
X94910134Y-93299537D01*
X94849537Y-93360134D01*
X94806681Y-93434363D01*
X94784500Y-93517145D01*
X94110000Y-93517145D01*
X94110000Y-92039117D01*
X94127281Y-91997398D01*
X94168999Y-91980117D01*
X104122404Y-91999885D01*
G37*
%TD.AperFunction*%
%TD*%
%TA.AperFunction,Conductor*%
%TO.N,+5V*%
G36*
X95308124Y-69717781D02*
G01*
X95325405Y-69759500D01*
X95308124Y-69801219D01*
X95255890Y-69853452D01*
X95179223Y-69968191D01*
X95126421Y-70095669D01*
X95126417Y-70095682D01*
X95099500Y-70231002D01*
X95099500Y-70968997D01*
X95126417Y-71104317D01*
X95126421Y-71104330D01*
X95179223Y-71231808D01*
X95179224Y-71231810D01*
X95179225Y-71231811D01*
X95255886Y-71346542D01*
X95255887Y-71346543D01*
X95255890Y-71346547D01*
X95353452Y-71444109D01*
X95353455Y-71444111D01*
X95353458Y-71444114D01*
X95468189Y-71520775D01*
X95595672Y-71573580D01*
X95595681Y-71573581D01*
X95595682Y-71573582D01*
X95731002Y-71600499D01*
X95731005Y-71600500D01*
X95731007Y-71600500D01*
X95868995Y-71600500D01*
X95868996Y-71600499D01*
X96004328Y-71573580D01*
X96131811Y-71520775D01*
X96246542Y-71444114D01*
X96344114Y-71346542D01*
X96420775Y-71231811D01*
X96473580Y-71104328D01*
X96500500Y-70968993D01*
X96500500Y-70231007D01*
X96500500Y-70231004D01*
X96500499Y-70231002D01*
X96473582Y-70095682D01*
X96473581Y-70095681D01*
X96473580Y-70095672D01*
X96420775Y-69968189D01*
X96344114Y-69853458D01*
X96344111Y-69853455D01*
X96344109Y-69853452D01*
X96291876Y-69801219D01*
X96274595Y-69759500D01*
X96291876Y-69717781D01*
X96333595Y-69700500D01*
X103906405Y-69700500D01*
X103948124Y-69717781D01*
X103965405Y-69759500D01*
X103948124Y-69801219D01*
X103895890Y-69853452D01*
X103819223Y-69968191D01*
X103766421Y-70095669D01*
X103766417Y-70095682D01*
X103739500Y-70231002D01*
X103739500Y-70968997D01*
X103766417Y-71104317D01*
X103766421Y-71104330D01*
X103819223Y-71231808D01*
X103819224Y-71231810D01*
X103819225Y-71231811D01*
X103895886Y-71346542D01*
X103895887Y-71346543D01*
X103895890Y-71346547D01*
X103993452Y-71444109D01*
X103993455Y-71444111D01*
X103993458Y-71444114D01*
X104108189Y-71520775D01*
X104235672Y-71573580D01*
X104235681Y-71573581D01*
X104235682Y-71573582D01*
X104371002Y-71600499D01*
X104371005Y-71600500D01*
X104371007Y-71600500D01*
X104508995Y-71600500D01*
X104508996Y-71600499D01*
X104644328Y-71573580D01*
X104771811Y-71520775D01*
X104886542Y-71444114D01*
X104984114Y-71346542D01*
X105060775Y-71231811D01*
X105113580Y-71104328D01*
X105140500Y-70968993D01*
X105140500Y-70231007D01*
X105140500Y-70231004D01*
X105140499Y-70231002D01*
X105113582Y-70095682D01*
X105113581Y-70095681D01*
X105113580Y-70095672D01*
X105060775Y-69968189D01*
X104984114Y-69853458D01*
X104984111Y-69853455D01*
X104984109Y-69853452D01*
X104931876Y-69801219D01*
X104914595Y-69759500D01*
X104931876Y-69717781D01*
X104973595Y-69700500D01*
X109502674Y-69700500D01*
X109544393Y-69717781D01*
X109561672Y-69759252D01*
X109566742Y-70968995D01*
X109649753Y-90781246D01*
X109632648Y-90823037D01*
X109591248Y-90840491D01*
X94110001Y-90969999D01*
X91119324Y-91009221D01*
X91077381Y-90992489D01*
X91059555Y-90951000D01*
X91059552Y-90950672D01*
X91052631Y-90034106D01*
X107239500Y-90034106D01*
X107239500Y-90165893D01*
X107273607Y-90293185D01*
X107273609Y-90293188D01*
X107339499Y-90407313D01*
X107339501Y-90407316D01*
X107432684Y-90500499D01*
X107432686Y-90500500D01*
X107546814Y-90566392D01*
X107674108Y-90600500D01*
X107805892Y-90600500D01*
X107933186Y-90566392D01*
X108047314Y-90500500D01*
X108047314Y-90500499D01*
X108047316Y-90500499D01*
X108140499Y-90407316D01*
X108140500Y-90407314D01*
X108206392Y-90293186D01*
X108240500Y-90165892D01*
X108240500Y-90034108D01*
X108206392Y-89906814D01*
X108140500Y-89792686D01*
X108140499Y-89792684D01*
X108047316Y-89699501D01*
X108047313Y-89699499D01*
X107933188Y-89633609D01*
X107933185Y-89633607D01*
X107805893Y-89599500D01*
X107805892Y-89599500D01*
X107674108Y-89599500D01*
X107674106Y-89599500D01*
X107546814Y-89633607D01*
X107546811Y-89633609D01*
X107432686Y-89699499D01*
X107339499Y-89792686D01*
X107273609Y-89906811D01*
X107273607Y-89906814D01*
X107239500Y-90034106D01*
X91052631Y-90034106D01*
X91052605Y-90030687D01*
X91038231Y-88127145D01*
X100704500Y-88127145D01*
X100704500Y-88212854D01*
X100726681Y-88295636D01*
X100769537Y-88369865D01*
X100823453Y-88423781D01*
X100840734Y-88465500D01*
X100823453Y-88507219D01*
X100790537Y-88540134D01*
X100747681Y-88614363D01*
X100725500Y-88697145D01*
X100725500Y-88782854D01*
X100747681Y-88865636D01*
X100790537Y-88939865D01*
X100851134Y-89000462D01*
X100851136Y-89000463D01*
X100851138Y-89000465D01*
X100925362Y-89043318D01*
X101008147Y-89065500D01*
X101093853Y-89065500D01*
X101176638Y-89043318D01*
X101250862Y-89000465D01*
X101311465Y-88939862D01*
X101354318Y-88865638D01*
X101376500Y-88782853D01*
X101376500Y-88697147D01*
X101354318Y-88614362D01*
X101311465Y-88540138D01*
X101311463Y-88540136D01*
X101311462Y-88540134D01*
X101257547Y-88486219D01*
X101240266Y-88444500D01*
X101257547Y-88402781D01*
X101290462Y-88369865D01*
X101290465Y-88369862D01*
X101333318Y-88295638D01*
X101355500Y-88212853D01*
X101355500Y-88127147D01*
X101333318Y-88044362D01*
X101290465Y-87970138D01*
X101290463Y-87970136D01*
X101290462Y-87970134D01*
X101229865Y-87909537D01*
X101155636Y-87866681D01*
X101072854Y-87844500D01*
X101072853Y-87844500D01*
X100987147Y-87844500D01*
X100987145Y-87844500D01*
X100904363Y-87866681D01*
X100830134Y-87909537D01*
X100769537Y-87970134D01*
X100726681Y-88044363D01*
X100704500Y-88127145D01*
X91038231Y-88127145D01*
X91038205Y-88123726D01*
X91036264Y-87866681D01*
X91031712Y-87263856D01*
X94659500Y-87263856D01*
X94659500Y-87356144D01*
X94669594Y-87393819D01*
X94683385Y-87445287D01*
X94683387Y-87445290D01*
X94729530Y-87525211D01*
X94729532Y-87525214D01*
X94794786Y-87590468D01*
X94794788Y-87590469D01*
X94874712Y-87636614D01*
X94963856Y-87660500D01*
X94963860Y-87660500D01*
X95056140Y-87660500D01*
X95056144Y-87660500D01*
X95145288Y-87636614D01*
X95225212Y-87590469D01*
X95225212Y-87590468D01*
X95225214Y-87590468D01*
X95290468Y-87525214D01*
X95290469Y-87525212D01*
X95336614Y-87445288D01*
X95360500Y-87356144D01*
X95360500Y-87263856D01*
X95336614Y-87174712D01*
X95290469Y-87094788D01*
X95290468Y-87094786D01*
X95225214Y-87029532D01*
X95225211Y-87029530D01*
X95145290Y-86983387D01*
X95145287Y-86983385D01*
X95093819Y-86969594D01*
X95056144Y-86959500D01*
X94963856Y-86959500D01*
X94945018Y-86964547D01*
X94874712Y-86983385D01*
X94874709Y-86983387D01*
X94794788Y-87029530D01*
X94729530Y-87094788D01*
X94683387Y-87174709D01*
X94683385Y-87174712D01*
X94664547Y-87245018D01*
X94659500Y-87263856D01*
X91031712Y-87263856D01*
X91020460Y-85773856D01*
X94579500Y-85773856D01*
X94579500Y-85866144D01*
X94589594Y-85903819D01*
X94603385Y-85955287D01*
X94603387Y-85955290D01*
X94649530Y-86035211D01*
X94649532Y-86035214D01*
X94714786Y-86100468D01*
X94714788Y-86100469D01*
X94794712Y-86146614D01*
X94883856Y-86170500D01*
X94883860Y-86170500D01*
X94976140Y-86170500D01*
X94976144Y-86170500D01*
X95065288Y-86146614D01*
X95145212Y-86100469D01*
X95145212Y-86100468D01*
X95145214Y-86100468D01*
X95210468Y-86035214D01*
X95210469Y-86035212D01*
X95256614Y-85955288D01*
X95280500Y-85866144D01*
X95280500Y-85773856D01*
X95256614Y-85684712D01*
X95210469Y-85604788D01*
X95210468Y-85604786D01*
X95145214Y-85539532D01*
X95145211Y-85539530D01*
X95065290Y-85493387D01*
X95065287Y-85493385D01*
X95013819Y-85479594D01*
X94976144Y-85469500D01*
X94883856Y-85469500D01*
X94865018Y-85474547D01*
X94794712Y-85493385D01*
X94794709Y-85493387D01*
X94714788Y-85539530D01*
X94649530Y-85604788D01*
X94603387Y-85684709D01*
X94603385Y-85684712D01*
X94584547Y-85755018D01*
X94579500Y-85773856D01*
X91020460Y-85773856D01*
X90990435Y-81797699D01*
X91007400Y-81755852D01*
X91047674Y-81738281D01*
X94010000Y-81650000D01*
X94010000Y-81649999D01*
X93955601Y-74161002D01*
X95099500Y-74161002D01*
X95099500Y-75398997D01*
X95126417Y-75534317D01*
X95126421Y-75534330D01*
X95179223Y-75661808D01*
X95179224Y-75661810D01*
X95179225Y-75661811D01*
X95255886Y-75776542D01*
X95255887Y-75776543D01*
X95255890Y-75776547D01*
X95353452Y-75874109D01*
X95353455Y-75874111D01*
X95353458Y-75874114D01*
X95468189Y-75950775D01*
X95595672Y-76003580D01*
X95595681Y-76003581D01*
X95595682Y-76003582D01*
X95731002Y-76030499D01*
X95731005Y-76030500D01*
X95731007Y-76030500D01*
X95868995Y-76030500D01*
X95868996Y-76030499D01*
X96004328Y-76003580D01*
X96131811Y-75950775D01*
X96246542Y-75874114D01*
X96344114Y-75776542D01*
X96420775Y-75661811D01*
X96473580Y-75534328D01*
X96500500Y-75398993D01*
X96500500Y-74204232D01*
X96654500Y-74204232D01*
X96654500Y-74355767D01*
X96693718Y-74502134D01*
X96693720Y-74502137D01*
X96769484Y-74633364D01*
X96769486Y-74633367D01*
X96876633Y-74740514D01*
X96876635Y-74740515D01*
X97007865Y-74816281D01*
X97154234Y-74855500D01*
X97305766Y-74855500D01*
X97452135Y-74816281D01*
X97583365Y-74740515D01*
X97583365Y-74740514D01*
X97583367Y-74740514D01*
X97690514Y-74633367D01*
X97690515Y-74633365D01*
X97766281Y-74502135D01*
X97805500Y-74355766D01*
X97805500Y-74204234D01*
X97805499Y-74204232D01*
X102434500Y-74204232D01*
X102434500Y-74355767D01*
X102473718Y-74502134D01*
X102473720Y-74502137D01*
X102549484Y-74633364D01*
X102549486Y-74633367D01*
X102656633Y-74740514D01*
X102656635Y-74740515D01*
X102787865Y-74816281D01*
X102934234Y-74855500D01*
X103085766Y-74855500D01*
X103232135Y-74816281D01*
X103363365Y-74740515D01*
X103363365Y-74740514D01*
X103363367Y-74740514D01*
X103470514Y-74633367D01*
X103470515Y-74633365D01*
X103546281Y-74502135D01*
X103585500Y-74355766D01*
X103585500Y-74204234D01*
X103585500Y-74204233D01*
X103585499Y-74204227D01*
X103577233Y-74173379D01*
X103577232Y-74173378D01*
X103573916Y-74161004D01*
X103573915Y-74161002D01*
X103739500Y-74161002D01*
X103739500Y-75398997D01*
X103766417Y-75534317D01*
X103766421Y-75534330D01*
X103819223Y-75661808D01*
X103819224Y-75661810D01*
X103819225Y-75661811D01*
X103895886Y-75776542D01*
X103895887Y-75776543D01*
X103895890Y-75776547D01*
X103993452Y-75874109D01*
X103993455Y-75874111D01*
X103993458Y-75874114D01*
X104108189Y-75950775D01*
X104235672Y-76003580D01*
X104235681Y-76003581D01*
X104235682Y-76003582D01*
X104371002Y-76030499D01*
X104371005Y-76030500D01*
X104371007Y-76030500D01*
X104508995Y-76030500D01*
X104508996Y-76030499D01*
X104644328Y-76003580D01*
X104771811Y-75950775D01*
X104886542Y-75874114D01*
X104984114Y-75776542D01*
X105060775Y-75661811D01*
X105113580Y-75534328D01*
X105140500Y-75398993D01*
X105140500Y-74434106D01*
X107099500Y-74434106D01*
X107099500Y-74565893D01*
X107133607Y-74693185D01*
X107133609Y-74693188D01*
X107199499Y-74807313D01*
X107199501Y-74807316D01*
X107292684Y-74900499D01*
X107292686Y-74900500D01*
X107406814Y-74966392D01*
X107534108Y-75000500D01*
X107665892Y-75000500D01*
X107793186Y-74966392D01*
X107907314Y-74900500D01*
X107907314Y-74900499D01*
X107907316Y-74900499D01*
X108000499Y-74807316D01*
X108000500Y-74807314D01*
X108066392Y-74693186D01*
X108100500Y-74565892D01*
X108100500Y-74434108D01*
X108066392Y-74306814D01*
X108000500Y-74192686D01*
X108000499Y-74192684D01*
X107907316Y-74099501D01*
X107907313Y-74099499D01*
X107793188Y-74033609D01*
X107793185Y-74033607D01*
X107665893Y-73999500D01*
X107665892Y-73999500D01*
X107534108Y-73999500D01*
X107534106Y-73999500D01*
X107406814Y-74033607D01*
X107406811Y-74033609D01*
X107292686Y-74099499D01*
X107199499Y-74192686D01*
X107133609Y-74306811D01*
X107133607Y-74306814D01*
X107099500Y-74434106D01*
X105140500Y-74434106D01*
X105140500Y-74161007D01*
X105140500Y-74161004D01*
X105140499Y-74161002D01*
X105113582Y-74025682D01*
X105113581Y-74025681D01*
X105113580Y-74025672D01*
X105060775Y-73898189D01*
X104984114Y-73783458D01*
X104984111Y-73783455D01*
X104984109Y-73783452D01*
X104886547Y-73685890D01*
X104886543Y-73685887D01*
X104886542Y-73685886D01*
X104771811Y-73609225D01*
X104771810Y-73609224D01*
X104771808Y-73609223D01*
X104644330Y-73556421D01*
X104644331Y-73556421D01*
X104644328Y-73556420D01*
X104644324Y-73556419D01*
X104644317Y-73556417D01*
X104508996Y-73529500D01*
X104508993Y-73529500D01*
X104371007Y-73529500D01*
X104371004Y-73529500D01*
X104235682Y-73556417D01*
X104235669Y-73556421D01*
X104108191Y-73609223D01*
X103993452Y-73685890D01*
X103895890Y-73783452D01*
X103819223Y-73898191D01*
X103766421Y-74025669D01*
X103766417Y-74025682D01*
X103739500Y-74161002D01*
X103573915Y-74161002D01*
X103546281Y-74057865D01*
X103470515Y-73926635D01*
X103470514Y-73926633D01*
X103363367Y-73819486D01*
X103363364Y-73819484D01*
X103232137Y-73743720D01*
X103232134Y-73743718D01*
X103085767Y-73704500D01*
X103085766Y-73704500D01*
X102934234Y-73704500D01*
X102934232Y-73704500D01*
X102787865Y-73743718D01*
X102787862Y-73743720D01*
X102656635Y-73819484D01*
X102549484Y-73926635D01*
X102473720Y-74057862D01*
X102473718Y-74057865D01*
X102434500Y-74204232D01*
X97805499Y-74204232D01*
X97766281Y-74057865D01*
X97690515Y-73926635D01*
X97690514Y-73926633D01*
X97583367Y-73819486D01*
X97583364Y-73819484D01*
X97452137Y-73743720D01*
X97452134Y-73743718D01*
X97305767Y-73704500D01*
X97305766Y-73704500D01*
X97154234Y-73704500D01*
X97154232Y-73704500D01*
X97007865Y-73743718D01*
X97007862Y-73743720D01*
X96876635Y-73819484D01*
X96769484Y-73926635D01*
X96693720Y-74057862D01*
X96693718Y-74057865D01*
X96654500Y-74204232D01*
X96500500Y-74204232D01*
X96500500Y-74161007D01*
X96500500Y-74161004D01*
X96500499Y-74161002D01*
X96473582Y-74025682D01*
X96473581Y-74025681D01*
X96473580Y-74025672D01*
X96420775Y-73898189D01*
X96344114Y-73783458D01*
X96344111Y-73783455D01*
X96344109Y-73783452D01*
X96246547Y-73685890D01*
X96246543Y-73685887D01*
X96246542Y-73685886D01*
X96131811Y-73609225D01*
X96131810Y-73609224D01*
X96131808Y-73609223D01*
X96004330Y-73556421D01*
X96004331Y-73556421D01*
X96004328Y-73556420D01*
X96004324Y-73556419D01*
X96004317Y-73556417D01*
X95868996Y-73529500D01*
X95868993Y-73529500D01*
X95731007Y-73529500D01*
X95731004Y-73529500D01*
X95595682Y-73556417D01*
X95595669Y-73556421D01*
X95468191Y-73609223D01*
X95353452Y-73685890D01*
X95255890Y-73783452D01*
X95179223Y-73898191D01*
X95126421Y-74025669D01*
X95126417Y-74025682D01*
X95099500Y-74161002D01*
X93955601Y-74161002D01*
X93955583Y-74158537D01*
X93943130Y-72444106D01*
X99879500Y-72444106D01*
X99879500Y-72575893D01*
X99913607Y-72703185D01*
X99913609Y-72703188D01*
X99979499Y-72817313D01*
X99979501Y-72817316D01*
X100072684Y-72910499D01*
X100072686Y-72910500D01*
X100186814Y-72976392D01*
X100314108Y-73010500D01*
X100445892Y-73010500D01*
X100573186Y-72976392D01*
X100687314Y-72910500D01*
X100687314Y-72910499D01*
X100687316Y-72910499D01*
X100780499Y-72817316D01*
X100780500Y-72817314D01*
X100846392Y-72703186D01*
X100880500Y-72575892D01*
X100880500Y-72444108D01*
X100846392Y-72316814D01*
X100780500Y-72202686D01*
X100780499Y-72202684D01*
X100687316Y-72109501D01*
X100687313Y-72109499D01*
X100573188Y-72043609D01*
X100573185Y-72043607D01*
X100445893Y-72009500D01*
X100445892Y-72009500D01*
X100314108Y-72009500D01*
X100314106Y-72009500D01*
X100186814Y-72043607D01*
X100186811Y-72043609D01*
X100072686Y-72109499D01*
X99979499Y-72202686D01*
X99913609Y-72316811D01*
X99913607Y-72316814D01*
X99879500Y-72444106D01*
X93943130Y-72444106D01*
X93943105Y-72440670D01*
X93923632Y-69759929D01*
X93940609Y-69718085D01*
X93982201Y-69700502D01*
X93982630Y-69700500D01*
X95266405Y-69700500D01*
X95308124Y-69717781D01*
G37*
%TD.AperFunction*%
%TD*%
M02*
