%TF.GenerationSoftware,KiCad,Pcbnew,9.0.6*%
%TF.CreationDate,2026-07-15T15:39:03+05:00*%
%TF.ProjectId,NS FPGA,4e532046-5047-4412-9e6b-696361645f70,rev?*%
%TF.SameCoordinates,Original*%
%TF.FileFunction,Copper,L3,Inr*%
%TF.FilePolarity,Positive*%
%FSLAX46Y46*%
G04 Gerber Fmt 4.6, Leading zero omitted, Abs format (unit mm)*
G04 Created by KiCad (PCBNEW 9.0.6) date 2026-07-15 15:39:03*
%MOMM*%
%LPD*%
G01*
G04 APERTURE LIST*
%TA.AperFunction,ComponentPad*%
%ADD10R,1.700000X1.700000*%
%TD*%
%TA.AperFunction,ComponentPad*%
%ADD11C,1.700000*%
%TD*%
%TA.AperFunction,HeatsinkPad*%
%ADD12O,1.000000X2.100000*%
%TD*%
%TA.AperFunction,HeatsinkPad*%
%ADD13O,1.000000X1.600000*%
%TD*%
%TA.AperFunction,ViaPad*%
%ADD14C,0.250000*%
%TD*%
%TA.AperFunction,ViaPad*%
%ADD15C,0.300000*%
%TD*%
%TA.AperFunction,ViaPad*%
%ADD16C,0.600000*%
%TD*%
%TA.AperFunction,Conductor*%
%ADD17C,0.090000*%
%TD*%
G04 APERTURE END LIST*
D10*
%TO.N,+3V3*%
%TO.C,J4*%
X106160000Y-132200000D03*
D11*
%TO.N,/JTAG_TCK*%
X103620000Y-132200000D03*
%TO.N,/JTAG_TDO*%
X101080000Y-132200000D03*
%TO.N,/JTAG_TDI*%
X98540000Y-132200000D03*
%TO.N,/JTAG_TMS*%
X96000000Y-132200000D03*
%TO.N,GND*%
X93460000Y-132200000D03*
%TD*%
D10*
%TO.N,/IO_H8*%
%TO.C,J3*%
X111500000Y-71000000D03*
D11*
%TO.N,/IO_H7*%
X111500000Y-73540000D03*
%TO.N,GND*%
X111500000Y-76080000D03*
%TO.N,/IO_H6*%
X111500000Y-78620000D03*
%TO.N,/IO_H5*%
X111500000Y-81160000D03*
%TO.N,/IO_H4*%
X111500000Y-83700000D03*
%TO.N,/IO_H3*%
X111500000Y-86240000D03*
%TO.N,+3V3*%
X111500000Y-88780000D03*
%TO.N,/IO_H2*%
X111500000Y-91320000D03*
%TO.N,unconnected-(J3-Pin_10-Pad10)*%
X111500000Y-93860000D03*
%TO.N,/IO_F1*%
X111500000Y-96400000D03*
%TO.N,unconnected-(J3-Pin_12-Pad12)*%
X111500000Y-98940000D03*
%TO.N,unconnected-(J3-Pin_13-Pad13)*%
X111500000Y-101480000D03*
%TO.N,GND*%
X111500000Y-104020000D03*
%TO.N,/IO_E1*%
X111500000Y-106560000D03*
%TO.N,/IO_G5*%
X111500000Y-109100000D03*
%TO.N,unconnected-(J3-Pin_17-Pad17)*%
X111500000Y-111640000D03*
%TO.N,/IO_D1*%
X111500000Y-114180000D03*
%TO.N,/IO_E8*%
X111500000Y-116720000D03*
%TO.N,+5V*%
X111500000Y-119260000D03*
%TO.N,/IO_G4*%
X111500000Y-121800000D03*
%TO.N,GND*%
X111500000Y-124340000D03*
%TO.N,/IO_G3*%
X111500000Y-126880000D03*
%TO.N,/IO_D8*%
X111500000Y-129420000D03*
%TD*%
D10*
%TO.N,/IO_D7*%
%TO.C,J2*%
X88000000Y-71000000D03*
D11*
%TO.N,unconnected-(J2-Pin_2-Pad2)*%
X88000000Y-73540000D03*
%TO.N,GND*%
X88000000Y-76080000D03*
%TO.N,/IO_C8*%
X88000000Y-78620000D03*
%TO.N,+5V*%
X88000000Y-81160000D03*
%TO.N,/IO_C7*%
X88000000Y-83700000D03*
%TO.N,/IO_C5*%
X88000000Y-86240000D03*
%TO.N,/IO_C4*%
X88000000Y-88780000D03*
%TO.N,/IO_C2*%
X88000000Y-91320000D03*
%TO.N,/IO_A1*%
X88000000Y-93860000D03*
%TO.N,GND*%
X88000000Y-96400000D03*
%TO.N,/IO_A2*%
X88000000Y-98940000D03*
%TO.N,/IO_A3*%
X88000000Y-101480000D03*
%TO.N,/IO_A4*%
X88000000Y-104020000D03*
%TO.N,/IO_A5*%
X88000000Y-106560000D03*
%TO.N,/IO_A6*%
X88000000Y-109100000D03*
%TO.N,+3V3*%
X88000000Y-111640000D03*
%TO.N,/IO_B1*%
X88000000Y-114180000D03*
%TO.N,/IO_B2*%
X88000000Y-116720000D03*
%TO.N,/IO_B3*%
X88000000Y-119260000D03*
%TO.N,unconnected-(J2-Pin_21-Pad21)*%
X88000000Y-121800000D03*
%TO.N,GND*%
X88000000Y-124340000D03*
%TO.N,+3V3*%
X88000000Y-126880000D03*
%TO.N,GND*%
X88000000Y-129420000D03*
%TD*%
D12*
%TO.N,GND*%
%TO.C,J1*%
X104440000Y-74780000D03*
D13*
X104440000Y-70600000D03*
D12*
X95800000Y-74780000D03*
D13*
X95800000Y-70600000D03*
%TD*%
D14*
%TO.N,GND*%
X101600000Y-97200000D03*
%TO.N,Net-(U2-~{RST})*%
X95010000Y-87310000D03*
X94930000Y-85820000D03*
%TO.N,+3V3*%
X99770000Y-107940000D03*
%TO.N,GND*%
X95140000Y-100170000D03*
X96980000Y-98840000D03*
D15*
X100446446Y-100767767D03*
D16*
%TO.N,+3V3*%
X107740000Y-90100000D03*
X102770000Y-94100000D03*
%TO.N,GND*%
X104850000Y-99670000D03*
X105954475Y-102716273D03*
X105580000Y-101460000D03*
X108400000Y-96510000D03*
%TO.N,+5V*%
X92690000Y-85290000D03*
%TO.N,GND*%
X97605000Y-114850000D03*
%TO.N,+1V2*%
X96110000Y-92570000D03*
X93340000Y-77730000D03*
%TO.N,+5V*%
X106500000Y-85290000D03*
%TO.N,+3V3*%
X107600000Y-74500000D03*
X100380000Y-72510000D03*
X95816829Y-99566829D03*
D14*
%TO.N,+1V2*%
X96480000Y-99140000D03*
%TO.N,/MCU_UART_RX*%
X101030000Y-88170000D03*
%TO.N,/MCU_UART_TX*%
X101051000Y-88740000D03*
X99270000Y-103200000D03*
%TO.N,/IO_F1*%
X98850000Y-103020000D03*
%TO.N,/IO_B1*%
X97230000Y-103110000D03*
D15*
%TO.N,+1V2*%
X100092893Y-100414214D03*
D14*
X98650000Y-96280000D03*
X99310000Y-97480000D03*
%TO.N,/IO_G5*%
X106430000Y-98870000D03*
%TO.N,/IO_E1*%
X107590000Y-109750000D03*
X98910000Y-102430000D03*
%TO.N,/IO_D1*%
X98380000Y-102100000D03*
%TO.N,/IO_G3*%
X100446446Y-102181981D03*
%TO.N,/IO_G4*%
X100800000Y-101828427D03*
%TO.N,Net-(U1B-MODE0)*%
X102933990Y-99454021D03*
%TO.N,Net-(Q1-G)*%
X104890000Y-97960000D03*
%TO.N,+3V3*%
X100471630Y-96258370D03*
%TO.N,/JTAG_TCK*%
X98653472Y-104194184D03*
%TO.N,/IO_A5*%
X95110000Y-93560000D03*
X99032233Y-99353553D03*
%TO.N,/IO_A4*%
X98122688Y-99356375D03*
%TO.N,/IO_A3*%
X97690000Y-99480000D03*
%TO.N,/IO_C2*%
X94289000Y-105360000D03*
%TO.N,/IO_B2*%
X93820000Y-115750000D03*
%TO.N,/IO_A2*%
X97080862Y-100050862D03*
%TO.N,/IO_A1*%
X96639000Y-100724138D03*
%TO.N,+3V3*%
X99100000Y-104250000D03*
%TO.N,Net-(U1B-RECONFIG_N)*%
X106111202Y-103801001D03*
X106930000Y-106350000D03*
X106900000Y-102070000D03*
X107080000Y-99240000D03*
X105130000Y-98370000D03*
X102758427Y-99870000D03*
%TO.N,/IO_D8*%
X106710000Y-99760000D03*
X104490000Y-98370000D03*
X101657106Y-98850000D03*
%TO.N,/JTAG_TDO*%
X92710000Y-107920000D03*
X95650000Y-94240000D03*
X101050000Y-97970000D03*
%TO.N,/IO_A6*%
X99250000Y-96650000D03*
X98760000Y-98410000D03*
%TO.N,/IO_E8*%
X101507107Y-99707107D03*
%TO.N,/MCU_UART_RX*%
X100760000Y-103910000D03*
%TO.N,/IO_H2*%
X101210000Y-103650000D03*
%TO.N,/IO_H3*%
X101460000Y-103200000D03*
%TO.N,+3V3*%
X103500000Y-101771000D03*
%TO.N,/IO_G5*%
X101153553Y-101474874D03*
%TO.N,/IO_C2*%
X98678679Y-101121320D03*
%TO.N,Net-(Q1-G)*%
X101860660Y-100767767D03*
%TO.N,Net-(U1B-MODE0)*%
X101507107Y-100414214D03*
%TO.N,/IO_D7*%
X100800000Y-99707107D03*
%TO.N,/IO_C7*%
X100446446Y-99353553D03*
%TO.N,/JTAG_TCK*%
X100092893Y-99000000D03*
%TO.N,/IO_B3*%
X98678679Y-100414214D03*
%TO.N,/IO_B2*%
X98325126Y-100767767D03*
%TO.N,/IO_C5*%
X99739340Y-100060660D03*
%TO.N,/IO_C4*%
X99385786Y-100414214D03*
%TO.N,+3V3*%
X100092893Y-101828427D03*
X100092893Y-99707107D03*
X99032233Y-100767767D03*
X101153553Y-100767767D03*
X100092893Y-101121320D03*
%TD*%
D17*
%TO.N,/JTAG_TCK*%
X99352893Y-99740000D02*
X100092893Y-99000000D01*
X98828219Y-99740000D02*
X99352893Y-99740000D01*
X97954126Y-103494838D02*
X97954126Y-100614093D01*
X98653472Y-104194184D02*
X97954126Y-103494838D01*
X97954126Y-100614093D02*
X98828219Y-99740000D01*
%TO.N,+1V2*%
X98650000Y-96820000D02*
X98650000Y-96280000D01*
X99310000Y-97480000D02*
X98650000Y-96820000D01*
%TO.N,/IO_E8*%
X105740202Y-110960202D02*
X111500000Y-116720000D01*
X105740202Y-103460202D02*
X105740202Y-110960202D01*
X101987107Y-99707107D02*
X105740202Y-103460202D01*
X101507107Y-99707107D02*
X101987107Y-99707107D01*
%TD*%
M02*
