%TF.GenerationSoftware,KiCad,Pcbnew,9.0.6*%
%TF.CreationDate,2026-07-15T15:39:03+05:00*%
%TF.ProjectId,NS FPGA,4e532046-5047-4412-9e6b-696361645f70,rev?*%
%TF.SameCoordinates,Original*%
%TF.FileFunction,Copper,L2,Inr*%
%TF.FilePolarity,Positive*%
%FSLAX46Y46*%
G04 Gerber Fmt 4.6, Leading zero omitted, Abs format (unit mm)*
G04 Created by KiCad (PCBNEW 9.0.6) date 2026-07-15 15:39:03*
%MOMM*%
%LPD*%
G01*
G04 APERTURE LIST*
%TA.AperFunction,ComponentPad*%
%ADD10R,1.700000X1.700000*%
%TD*%
%TA.AperFunction,ComponentPad*%
%ADD11C,1.700000*%
%TD*%
%TA.AperFunction,HeatsinkPad*%
%ADD12O,1.000000X2.100000*%
%TD*%
%TA.AperFunction,HeatsinkPad*%
%ADD13O,1.000000X1.600000*%
%TD*%
%TA.AperFunction,ViaPad*%
%ADD14C,0.250000*%
%TD*%
%TA.AperFunction,ViaPad*%
%ADD15C,0.300000*%
%TD*%
%TA.AperFunction,ViaPad*%
%ADD16C,0.600000*%
%TD*%
%TA.AperFunction,Conductor*%
%ADD17C,0.090000*%
%TD*%
G04 APERTURE END LIST*
D10*
%TO.N,+3V3*%
%TO.C,J4*%
X106160000Y-132200000D03*
D11*
%TO.N,/JTAG_TCK*%
X103620000Y-132200000D03*
%TO.N,/JTAG_TDO*%
X101080000Y-132200000D03*
%TO.N,/JTAG_TDI*%
X98540000Y-132200000D03*
%TO.N,/JTAG_TMS*%
X96000000Y-132200000D03*
%TO.N,GND*%
X93460000Y-132200000D03*
%TD*%
D10*
%TO.N,/IO_H8*%
%TO.C,J3*%
X111500000Y-71000000D03*
D11*
%TO.N,/IO_H7*%
X111500000Y-73540000D03*
%TO.N,GND*%
X111500000Y-76080000D03*
%TO.N,/IO_H6*%
X111500000Y-78620000D03*
%TO.N,/IO_H5*%
X111500000Y-81160000D03*
%TO.N,/IO_H4*%
X111500000Y-83700000D03*
%TO.N,/IO_H3*%
X111500000Y-86240000D03*
%TO.N,+3V3*%
X111500000Y-88780000D03*
%TO.N,/IO_H2*%
X111500000Y-91320000D03*
%TO.N,unconnected-(J3-Pin_10-Pad10)*%
X111500000Y-93860000D03*
%TO.N,/IO_F1*%
X111500000Y-96400000D03*
%TO.N,unconnected-(J3-Pin_12-Pad12)*%
X111500000Y-98940000D03*
%TO.N,unconnected-(J3-Pin_13-Pad13)*%
X111500000Y-101480000D03*
%TO.N,GND*%
X111500000Y-104020000D03*
%TO.N,/IO_E1*%
X111500000Y-106560000D03*
%TO.N,/IO_G5*%
X111500000Y-109100000D03*
%TO.N,unconnected-(J3-Pin_17-Pad17)*%
X111500000Y-111640000D03*
%TO.N,/IO_D1*%
X111500000Y-114180000D03*
%TO.N,/IO_E8*%
X111500000Y-116720000D03*
%TO.N,+5V*%
X111500000Y-119260000D03*
%TO.N,/IO_G4*%
X111500000Y-121800000D03*
%TO.N,GND*%
X111500000Y-124340000D03*
%TO.N,/IO_G3*%
X111500000Y-126880000D03*
%TO.N,/IO_D8*%
X111500000Y-129420000D03*
%TD*%
D10*
%TO.N,/IO_D7*%
%TO.C,J2*%
X88000000Y-71000000D03*
D11*
%TO.N,unconnected-(J2-Pin_2-Pad2)*%
X88000000Y-73540000D03*
%TO.N,GND*%
X88000000Y-76080000D03*
%TO.N,/IO_C8*%
X88000000Y-78620000D03*
%TO.N,+5V*%
X88000000Y-81160000D03*
%TO.N,/IO_C7*%
X88000000Y-83700000D03*
%TO.N,/IO_C5*%
X88000000Y-86240000D03*
%TO.N,/IO_C4*%
X88000000Y-88780000D03*
%TO.N,/IO_C2*%
X88000000Y-91320000D03*
%TO.N,/IO_A1*%
X88000000Y-93860000D03*
%TO.N,GND*%
X88000000Y-96400000D03*
%TO.N,/IO_A2*%
X88000000Y-98940000D03*
%TO.N,/IO_A3*%
X88000000Y-101480000D03*
%TO.N,/IO_A4*%
X88000000Y-104020000D03*
%TO.N,/IO_A5*%
X88000000Y-106560000D03*
%TO.N,/IO_A6*%
X88000000Y-109100000D03*
%TO.N,+3V3*%
X88000000Y-111640000D03*
%TO.N,/IO_B1*%
X88000000Y-114180000D03*
%TO.N,/IO_B2*%
X88000000Y-116720000D03*
%TO.N,/IO_B3*%
X88000000Y-119260000D03*
%TO.N,unconnected-(J2-Pin_21-Pad21)*%
X88000000Y-121800000D03*
%TO.N,GND*%
X88000000Y-124340000D03*
%TO.N,+3V3*%
X88000000Y-126880000D03*
%TO.N,GND*%
X88000000Y-129420000D03*
%TD*%
D12*
%TO.N,GND*%
%TO.C,J1*%
X104440000Y-74780000D03*
D13*
X104440000Y-70600000D03*
D12*
X95800000Y-74780000D03*
D13*
X95800000Y-70600000D03*
%TD*%
D14*
%TO.N,GND*%
X101600000Y-97200000D03*
%TO.N,Net-(U2-~{RST})*%
X95010000Y-87310000D03*
X94930000Y-85820000D03*
%TO.N,+3V3*%
X99770000Y-107940000D03*
%TO.N,GND*%
X95140000Y-100170000D03*
X96980000Y-98840000D03*
D15*
X100446446Y-100767767D03*
D16*
%TO.N,+3V3*%
X107740000Y-90100000D03*
X102770000Y-94100000D03*
%TO.N,GND*%
X104850000Y-99670000D03*
X105954475Y-102716273D03*
X105580000Y-101460000D03*
X108400000Y-96510000D03*
%TO.N,+5V*%
X92690000Y-85290000D03*
%TO.N,GND*%
X97605000Y-114850000D03*
%TO.N,+1V2*%
X96110000Y-92570000D03*
X93340000Y-77730000D03*
%TO.N,+5V*%
X106500000Y-85290000D03*
%TO.N,+3V3*%
X107600000Y-74500000D03*
X100380000Y-72510000D03*
X95816829Y-99566829D03*
D14*
%TO.N,+1V2*%
X96480000Y-99140000D03*
%TO.N,/MCU_UART_RX*%
X101030000Y-88170000D03*
%TO.N,/MCU_UART_TX*%
X101051000Y-88740000D03*
X99270000Y-103200000D03*
%TO.N,/IO_F1*%
X98850000Y-103020000D03*
%TO.N,/IO_B1*%
X97230000Y-103110000D03*
D15*
%TO.N,+1V2*%
X100092893Y-100414214D03*
D14*
X98650000Y-96280000D03*
X99310000Y-97480000D03*
%TO.N,/IO_G5*%
X106430000Y-98870000D03*
%TO.N,/IO_E1*%
X107590000Y-109750000D03*
X98910000Y-102430000D03*
%TO.N,/IO_D1*%
X98380000Y-102100000D03*
%TO.N,/IO_G3*%
X100446446Y-102181981D03*
%TO.N,/IO_G4*%
X100800000Y-101828427D03*
%TO.N,Net-(U1B-MODE0)*%
X102933990Y-99454021D03*
%TO.N,Net-(Q1-G)*%
X104890000Y-97960000D03*
%TO.N,+3V3*%
X100471630Y-96258370D03*
%TO.N,/JTAG_TCK*%
X98653472Y-104194184D03*
%TO.N,/IO_A5*%
X95110000Y-93560000D03*
X99032233Y-99353553D03*
%TO.N,/IO_A4*%
X98122688Y-99356375D03*
%TO.N,/IO_A3*%
X97690000Y-99480000D03*
%TO.N,/IO_C2*%
X94289000Y-105360000D03*
%TO.N,/IO_B2*%
X93820000Y-115750000D03*
%TO.N,/IO_A2*%
X97080862Y-100050862D03*
%TO.N,/IO_A1*%
X96639000Y-100724138D03*
%TO.N,+3V3*%
X99100000Y-104250000D03*
%TO.N,Net-(U1B-RECONFIG_N)*%
X106111202Y-103801001D03*
X106930000Y-106350000D03*
X106900000Y-102070000D03*
X107080000Y-99240000D03*
X105130000Y-98370000D03*
X102758427Y-99870000D03*
%TO.N,/IO_D8*%
X106710000Y-99760000D03*
X104490000Y-98370000D03*
X101657106Y-98850000D03*
%TO.N,/JTAG_TDO*%
X92710000Y-107920000D03*
X95650000Y-94240000D03*
X101050000Y-97970000D03*
%TO.N,/IO_A6*%
X99250000Y-96650000D03*
X98760000Y-98410000D03*
%TO.N,/IO_E8*%
X101507107Y-99707107D03*
%TO.N,/MCU_UART_RX*%
X100760000Y-103910000D03*
%TO.N,/IO_H2*%
X101210000Y-103650000D03*
%TO.N,/IO_H3*%
X101460000Y-103200000D03*
%TO.N,+3V3*%
X103500000Y-101771000D03*
%TO.N,/IO_G5*%
X101153553Y-101474874D03*
%TO.N,/IO_C2*%
X98678679Y-101121320D03*
%TO.N,Net-(Q1-G)*%
X101860660Y-100767767D03*
%TO.N,Net-(U1B-MODE0)*%
X101507107Y-100414214D03*
%TO.N,/IO_D7*%
X100800000Y-99707107D03*
%TO.N,/IO_C7*%
X100446446Y-99353553D03*
%TO.N,/JTAG_TCK*%
X100092893Y-99000000D03*
%TO.N,/IO_B3*%
X98678679Y-100414214D03*
%TO.N,/IO_B2*%
X98325126Y-100767767D03*
%TO.N,/IO_C5*%
X99739340Y-100060660D03*
%TO.N,/IO_C4*%
X99385786Y-100414214D03*
%TO.N,+3V3*%
X100092893Y-101828427D03*
X100092893Y-99707107D03*
X99032233Y-100767767D03*
X101153553Y-100767767D03*
X100092893Y-101121320D03*
%TD*%
D17*
%TO.N,/IO_D7*%
X101180000Y-84180000D02*
X88000000Y-71000000D01*
X101180000Y-87799000D02*
X101180000Y-84180000D01*
X101183674Y-87799000D02*
X101180000Y-87799000D01*
X101401000Y-88016326D02*
X101183674Y-87799000D01*
X101401000Y-88323674D02*
X101401000Y-88016326D01*
X101422000Y-88893674D02*
X101422000Y-88586326D01*
X101204674Y-89111000D02*
X101422000Y-88893674D01*
X101180000Y-89111000D02*
X101204674Y-89111000D01*
X101180000Y-97530000D02*
X101180000Y-89111000D01*
X101421000Y-97771000D02*
X101180000Y-97530000D01*
X101421000Y-98123674D02*
X101421000Y-97771000D01*
X101422000Y-88586326D02*
X101280174Y-88444500D01*
X101203674Y-99303433D02*
X101203674Y-98341000D01*
X101280174Y-88444500D02*
X101401000Y-88323674D01*
X100800000Y-99707107D02*
X101203674Y-99303433D01*
X101203674Y-98341000D02*
X101421000Y-98123674D01*
%TO.N,/IO_C5*%
X89060000Y-87300000D02*
X88000000Y-86240000D01*
X90020000Y-90272455D02*
X90020000Y-87810000D01*
X98855778Y-99779553D02*
X98606233Y-99530008D01*
X98606233Y-99530008D02*
X98606233Y-98858688D01*
X89510000Y-87300000D02*
X89060000Y-87300000D01*
X99458233Y-99779553D02*
X98855778Y-99779553D01*
X98606233Y-98858688D02*
X90020000Y-90272455D01*
X90020000Y-87810000D02*
X89510000Y-87300000D01*
X99739340Y-100060660D02*
X99458233Y-99779553D01*
%TO.N,/IO_D1*%
X98380000Y-102440000D02*
X98380000Y-102100000D01*
X98150000Y-102670000D02*
X98380000Y-102440000D01*
X98150000Y-115079979D02*
X98150000Y-102670000D01*
X111046021Y-127976000D02*
X98150000Y-115079979D01*
X111953979Y-127976000D02*
X111046021Y-127976000D01*
X112596000Y-127333979D02*
X111953979Y-127976000D01*
X112596000Y-115276000D02*
X112596000Y-127333979D01*
X111500000Y-114180000D02*
X112596000Y-115276000D01*
%TO.N,/IO_G3*%
X100331446Y-115711446D02*
X111500000Y-126880000D01*
X100331446Y-102296981D02*
X100331446Y-115711446D01*
X100446446Y-102181981D02*
X100331446Y-102296981D01*
%TO.N,/IO_G4*%
X105150000Y-115450000D02*
X111500000Y-121800000D01*
X105150000Y-106178427D02*
X105150000Y-115450000D01*
X100800000Y-101828427D02*
X105150000Y-106178427D01*
%TO.N,Net-(U1B-MODE0)*%
X102467300Y-99454021D02*
X102933990Y-99454021D01*
X101507107Y-100414214D02*
X102467300Y-99454021D01*
%TO.N,/IO_C7*%
X100842630Y-96412044D02*
X100842630Y-95340549D01*
X89202081Y-83700000D02*
X88000000Y-83700000D01*
X100625304Y-96629370D02*
X100842630Y-96412044D01*
X100625304Y-99174695D02*
X100625304Y-96629370D01*
X100446446Y-99353553D02*
X100625304Y-99174695D01*
%TO.N,+3V3*%
X99721893Y-97008107D02*
X100471630Y-96258370D01*
X99721893Y-99336107D02*
X99721893Y-97008107D01*
X100092893Y-99707107D02*
X99721893Y-99336107D01*
%TO.N,/IO_C7*%
X100842630Y-95340549D02*
X89202081Y-83700000D01*
%TD*%
%TA.AperFunction,Conductor*%
%TO.N,GND*%
G36*
X101879614Y-103100381D02*
G01*
X101885417Y-103105470D01*
X104997219Y-106217272D01*
X105014500Y-106258991D01*
X105014500Y-115423044D01*
X105014499Y-115423047D01*
X105014499Y-115476953D01*
X105019711Y-115489535D01*
X105023002Y-115497482D01*
X105023003Y-115497484D01*
X105035127Y-115526753D01*
X105035128Y-115526755D01*
X105073245Y-115564872D01*
X105081543Y-115573170D01*
X105081546Y-115573172D01*
X110710943Y-121202569D01*
X110728224Y-121244288D01*
X110718281Y-121277066D01*
X110666539Y-121354504D01*
X110666538Y-121354506D01*
X110595644Y-121525663D01*
X110595640Y-121525676D01*
X110559500Y-121707365D01*
X110559500Y-121892634D01*
X110595640Y-122074323D01*
X110595644Y-122074336D01*
X110666537Y-122245491D01*
X110666538Y-122245493D01*
X110666539Y-122245494D01*
X110769466Y-122399534D01*
X110769467Y-122399535D01*
X110769470Y-122399539D01*
X110900460Y-122530529D01*
X110900463Y-122530531D01*
X110900466Y-122530534D01*
X111054506Y-122633461D01*
X111225666Y-122704357D01*
X111407365Y-122740499D01*
X111407366Y-122740500D01*
X111407369Y-122740500D01*
X111592634Y-122740500D01*
X111592634Y-122740499D01*
X111774334Y-122704357D01*
X111945494Y-122633461D01*
X112099534Y-122530534D01*
X112230534Y-122399534D01*
X112333461Y-122245494D01*
X112346991Y-122212828D01*
X112378921Y-122180898D01*
X112424078Y-122180898D01*
X112456009Y-122212828D01*
X112460500Y-122235407D01*
X112460500Y-123575640D01*
X112443219Y-123617359D01*
X112401500Y-123634640D01*
X112396872Y-123634458D01*
X112383378Y-123633396D01*
X111930728Y-124086045D01*
X111900099Y-124032993D01*
X111807007Y-123939901D01*
X111753952Y-123909270D01*
X112206601Y-123456620D01*
X112092241Y-123373532D01*
X111933771Y-123292788D01*
X111764618Y-123237827D01*
X111764611Y-123237825D01*
X111588929Y-123210000D01*
X111411071Y-123210000D01*
X111235388Y-123237825D01*
X111235381Y-123237827D01*
X111066229Y-123292788D01*
X111066228Y-123292788D01*
X110907756Y-123373533D01*
X110907745Y-123373540D01*
X110793397Y-123456619D01*
X110793396Y-123456619D01*
X111246046Y-123909270D01*
X111192993Y-123939901D01*
X111099901Y-124032993D01*
X111069270Y-124086046D01*
X110616619Y-123633396D01*
X110616619Y-123633397D01*
X110533540Y-123747745D01*
X110533533Y-123747756D01*
X110452788Y-123906228D01*
X110452788Y-123906229D01*
X110397827Y-124075381D01*
X110397825Y-124075388D01*
X110370000Y-124251071D01*
X110370000Y-124428928D01*
X110397825Y-124604611D01*
X110397827Y-124604618D01*
X110452788Y-124773770D01*
X110452788Y-124773771D01*
X110533532Y-124932241D01*
X110616620Y-125046601D01*
X111069269Y-124593952D01*
X111099901Y-124647007D01*
X111192993Y-124740099D01*
X111246045Y-124770728D01*
X110793396Y-125223378D01*
X110907758Y-125306467D01*
X111066228Y-125387211D01*
X111235381Y-125442172D01*
X111235388Y-125442174D01*
X111411071Y-125470000D01*
X111588929Y-125470000D01*
X111764611Y-125442174D01*
X111764618Y-125442172D01*
X111933770Y-125387211D01*
X111933771Y-125387211D01*
X112092241Y-125306467D01*
X112206602Y-125223378D01*
X111753953Y-124770729D01*
X111807007Y-124740099D01*
X111900099Y-124647007D01*
X111930729Y-124593953D01*
X112383377Y-125046601D01*
X112396871Y-125045540D01*
X112439817Y-125059494D01*
X112460318Y-125099729D01*
X112460500Y-125104358D01*
X112460500Y-126444592D01*
X112443219Y-126486311D01*
X112401500Y-126503592D01*
X112359781Y-126486311D01*
X112346991Y-126467170D01*
X112333462Y-126434508D01*
X112333461Y-126434506D01*
X112230534Y-126280466D01*
X112230531Y-126280463D01*
X112230529Y-126280460D01*
X112099539Y-126149470D01*
X112099535Y-126149467D01*
X112099534Y-126149466D01*
X111945494Y-126046539D01*
X111945493Y-126046538D01*
X111945491Y-126046537D01*
X111774336Y-125975644D01*
X111774337Y-125975644D01*
X111774334Y-125975643D01*
X111774330Y-125975642D01*
X111774323Y-125975640D01*
X111592634Y-125939500D01*
X111592631Y-125939500D01*
X111407369Y-125939500D01*
X111407366Y-125939500D01*
X111225676Y-125975640D01*
X111225663Y-125975644D01*
X111054506Y-126046538D01*
X111054504Y-126046539D01*
X110977066Y-126098281D01*
X110932777Y-126107090D01*
X110902569Y-126090943D01*
X100484227Y-115672601D01*
X100466946Y-115630882D01*
X100466946Y-104218596D01*
X100484227Y-104176877D01*
X100525946Y-104159596D01*
X100556046Y-104169817D01*
X100556789Y-104168531D01*
X100560136Y-104170463D01*
X100560138Y-104170465D01*
X100634362Y-104213318D01*
X100717147Y-104235500D01*
X100802853Y-104235500D01*
X100885638Y-104213318D01*
X100959862Y-104170465D01*
X101020465Y-104109862D01*
X101063318Y-104035638D01*
X101070037Y-104010560D01*
X101097524Y-103974736D01*
X101142292Y-103968840D01*
X101167147Y-103975500D01*
X101167151Y-103975500D01*
X101252853Y-103975500D01*
X101335638Y-103953318D01*
X101409862Y-103910465D01*
X101470465Y-103849862D01*
X101513318Y-103775638D01*
X101535500Y-103692853D01*
X101535500Y-103607147D01*
X101535500Y-103607146D01*
X101535499Y-103607140D01*
X101528172Y-103579797D01*
X101534065Y-103535027D01*
X101569888Y-103507537D01*
X101585638Y-103503318D01*
X101659862Y-103460465D01*
X101720465Y-103399862D01*
X101763318Y-103325638D01*
X101785500Y-103242853D01*
X101785500Y-103157147D01*
X101785500Y-103157146D01*
X101785203Y-103154891D01*
X101785500Y-103153782D01*
X101785500Y-103153280D01*
X101785635Y-103153280D01*
X101796890Y-103111273D01*
X101835996Y-103088694D01*
X101879614Y-103100381D01*
G37*
%TD.AperFunction*%
%TA.AperFunction,Conductor*%
G36*
X101183052Y-99812638D02*
G01*
X101204648Y-99834233D01*
X101239400Y-99894425D01*
X101246644Y-99906972D01*
X101307241Y-99967569D01*
X101307243Y-99967570D01*
X101307245Y-99967572D01*
X101379980Y-100009565D01*
X101407469Y-100045389D01*
X101401575Y-100090160D01*
X101379979Y-100111755D01*
X101307245Y-100153748D01*
X101307243Y-100153750D01*
X101246644Y-100214348D01*
X101203788Y-100288577D01*
X101181607Y-100371359D01*
X101181607Y-100383267D01*
X101164326Y-100424986D01*
X101122607Y-100442267D01*
X101110698Y-100442267D01*
X101027916Y-100464448D01*
X100953687Y-100507304D01*
X100893090Y-100567901D01*
X100850234Y-100642130D01*
X100828053Y-100724912D01*
X100828053Y-100810621D01*
X100841513Y-100860857D01*
X100850235Y-100893405D01*
X100866431Y-100921458D01*
X100893090Y-100967632D01*
X100953687Y-101028229D01*
X100953689Y-101028230D01*
X100953691Y-101028232D01*
X101026426Y-101070225D01*
X101053915Y-101106049D01*
X101048021Y-101150820D01*
X101026425Y-101172415D01*
X100953691Y-101214408D01*
X100953689Y-101214410D01*
X100893090Y-101275008D01*
X100850234Y-101349237D01*
X100828053Y-101432019D01*
X100828053Y-101443927D01*
X100810772Y-101485646D01*
X100769053Y-101502927D01*
X100757145Y-101502927D01*
X100674363Y-101525108D01*
X100600134Y-101567964D01*
X100539536Y-101628563D01*
X100539534Y-101628565D01*
X100497541Y-101701299D01*
X100461716Y-101728789D01*
X100416946Y-101722894D01*
X100395351Y-101701300D01*
X100353358Y-101628565D01*
X100353356Y-101628563D01*
X100353355Y-101628561D01*
X100292758Y-101567964D01*
X100292753Y-101567961D01*
X100220019Y-101525968D01*
X100192530Y-101490143D01*
X100198424Y-101445373D01*
X100220019Y-101423778D01*
X100292755Y-101381785D01*
X100353358Y-101321182D01*
X100396211Y-101246958D01*
X100418393Y-101164173D01*
X100418393Y-101078467D01*
X100396211Y-100995682D01*
X100353358Y-100921458D01*
X100353356Y-100921456D01*
X100353355Y-100921454D01*
X100292758Y-100860857D01*
X100273562Y-100849774D01*
X100218531Y-100818002D01*
X100218530Y-100818001D01*
X100218527Y-100818000D01*
X100218524Y-100817999D01*
X100195442Y-100811814D01*
X100159617Y-100784324D01*
X100153724Y-100739554D01*
X100181214Y-100703729D01*
X100195444Y-100697835D01*
X100208882Y-100694235D01*
X100277404Y-100654674D01*
X100333353Y-100598725D01*
X100372914Y-100530203D01*
X100393393Y-100453776D01*
X100393393Y-100374652D01*
X100372914Y-100298225D01*
X100333353Y-100229703D01*
X100333351Y-100229701D01*
X100333350Y-100229699D01*
X100277407Y-100173756D01*
X100277404Y-100173754D01*
X100208882Y-100134193D01*
X100208881Y-100134192D01*
X100208878Y-100134191D01*
X100195439Y-100130590D01*
X100159615Y-100103100D01*
X100153722Y-100058329D01*
X100181212Y-100022505D01*
X100195440Y-100016612D01*
X100218531Y-100010425D01*
X100292755Y-99967572D01*
X100353358Y-99906969D01*
X100395351Y-99834233D01*
X100431175Y-99806745D01*
X100475945Y-99812638D01*
X100497541Y-99834233D01*
X100532293Y-99894425D01*
X100539537Y-99906972D01*
X100600134Y-99967569D01*
X100600136Y-99967570D01*
X100600138Y-99967572D01*
X100674362Y-100010425D01*
X100757147Y-100032607D01*
X100842853Y-100032607D01*
X100925638Y-100010425D01*
X100999862Y-99967572D01*
X101060465Y-99906969D01*
X101102458Y-99834233D01*
X101138282Y-99806745D01*
X101183052Y-99812638D01*
G37*
%TD.AperFunction*%
%TA.AperFunction,Conductor*%
G36*
X95195694Y-69717781D02*
G01*
X95212975Y-69759500D01*
X95195694Y-69801219D01*
X95194137Y-69802775D01*
X95194134Y-69802778D01*
X95108774Y-69930527D01*
X95108772Y-69930531D01*
X95049976Y-70072479D01*
X95049972Y-70072492D01*
X95020000Y-70223173D01*
X95020000Y-70475000D01*
X95500000Y-70475000D01*
X95500000Y-70725000D01*
X95020000Y-70725000D01*
X95020000Y-70976826D01*
X95049972Y-71127507D01*
X95049976Y-71127520D01*
X95108772Y-71269468D01*
X95108774Y-71269472D01*
X95194134Y-71397221D01*
X95302778Y-71505865D01*
X95430527Y-71591225D01*
X95430531Y-71591227D01*
X95572479Y-71650023D01*
X95572492Y-71650027D01*
X95674999Y-71670417D01*
X95675000Y-71670416D01*
X95675000Y-71174242D01*
X95684204Y-71179556D01*
X95760504Y-71200000D01*
X95839496Y-71200000D01*
X95915796Y-71179556D01*
X95925000Y-71174242D01*
X95925000Y-71670417D01*
X96027507Y-71650027D01*
X96027520Y-71650023D01*
X96169468Y-71591227D01*
X96169472Y-71591225D01*
X96297221Y-71505865D01*
X96405865Y-71397221D01*
X96491225Y-71269472D01*
X96491227Y-71269468D01*
X96550023Y-71127520D01*
X96550027Y-71127507D01*
X96579999Y-70976826D01*
X96580000Y-70976826D01*
X96580000Y-70725000D01*
X96100000Y-70725000D01*
X96100000Y-70475000D01*
X96580000Y-70475000D01*
X96580000Y-70223174D01*
X96579999Y-70223173D01*
X96550027Y-70072492D01*
X96550023Y-70072479D01*
X96491227Y-69930531D01*
X96491225Y-69930527D01*
X96405865Y-69802778D01*
X96404306Y-69801219D01*
X96387025Y-69759500D01*
X96404306Y-69717781D01*
X96446025Y-69700500D01*
X103793975Y-69700500D01*
X103835694Y-69717781D01*
X103852975Y-69759500D01*
X103835694Y-69801219D01*
X103834137Y-69802775D01*
X103834134Y-69802778D01*
X103748774Y-69930527D01*
X103748772Y-69930531D01*
X103689976Y-70072479D01*
X103689972Y-70072492D01*
X103660000Y-70223173D01*
X103660000Y-70475000D01*
X104140000Y-70475000D01*
X104140000Y-70725000D01*
X103660000Y-70725000D01*
X103660000Y-70976826D01*
X103689972Y-71127507D01*
X103689976Y-71127520D01*
X103748772Y-71269468D01*
X103748774Y-71269472D01*
X103834134Y-71397221D01*
X103942778Y-71505865D01*
X104070527Y-71591225D01*
X104070531Y-71591227D01*
X104212479Y-71650023D01*
X104212492Y-71650027D01*
X104314999Y-71670417D01*
X104315000Y-71670416D01*
X104315000Y-71174242D01*
X104324204Y-71179556D01*
X104400504Y-71200000D01*
X104479496Y-71200000D01*
X104555796Y-71179556D01*
X104565000Y-71174242D01*
X104565000Y-71670417D01*
X104667507Y-71650027D01*
X104667520Y-71650023D01*
X104809468Y-71591227D01*
X104809472Y-71591225D01*
X104937221Y-71505865D01*
X105045865Y-71397221D01*
X105131225Y-71269472D01*
X105131227Y-71269468D01*
X105190023Y-71127520D01*
X105190027Y-71127507D01*
X105219999Y-70976826D01*
X105220000Y-70976826D01*
X105220000Y-70725000D01*
X104740000Y-70725000D01*
X104740000Y-70475000D01*
X105220000Y-70475000D01*
X105220000Y-70223174D01*
X105219999Y-70223172D01*
X105205385Y-70149698D01*
X105203671Y-70141082D01*
X110559500Y-70141082D01*
X110559500Y-71858910D01*
X110564751Y-71885312D01*
X110584752Y-71915246D01*
X110584753Y-71915247D01*
X110614689Y-71935249D01*
X110614691Y-71935249D01*
X110614692Y-71935250D01*
X110632207Y-71938733D01*
X110641087Y-71940500D01*
X112358912Y-71940499D01*
X112385311Y-71935249D01*
X112415247Y-71915247D01*
X112435249Y-71885311D01*
X112440500Y-71858913D01*
X112440499Y-70141088D01*
X112435249Y-70114689D01*
X112415247Y-70084753D01*
X112385311Y-70064751D01*
X112385309Y-70064750D01*
X112385307Y-70064749D01*
X112358916Y-70059500D01*
X110641089Y-70059500D01*
X110614687Y-70064751D01*
X110584753Y-70084752D01*
X110564749Y-70114691D01*
X110564749Y-70114693D01*
X110559500Y-70141082D01*
X105203671Y-70141082D01*
X105190026Y-70072490D01*
X105190023Y-70072479D01*
X105131227Y-69930531D01*
X105131225Y-69930527D01*
X105045865Y-69802778D01*
X105044306Y-69801219D01*
X105027025Y-69759500D01*
X105044306Y-69717781D01*
X105086025Y-69700500D01*
X112840500Y-69700500D01*
X112882219Y-69717781D01*
X112899500Y-69759500D01*
X112899500Y-130640500D01*
X112882219Y-130682219D01*
X112840500Y-130699500D01*
X110235691Y-130699500D01*
X110205791Y-130695214D01*
X110170075Y-130699500D01*
X110134104Y-130699500D01*
X110108995Y-130706228D01*
X110100758Y-130707817D01*
X110074950Y-130710914D01*
X110074941Y-130710917D01*
X110044825Y-130722986D01*
X110044826Y-130722987D01*
X110041550Y-130724300D01*
X110006814Y-130733608D01*
X109980658Y-130748708D01*
X109976752Y-130750274D01*
X109952622Y-130759946D01*
X109952620Y-130759947D01*
X109926658Y-130779400D01*
X109923834Y-130781516D01*
X109892686Y-130799500D01*
X109871336Y-130820848D01*
X109867967Y-130823373D01*
X109867968Y-130823373D01*
X109847157Y-130838967D01*
X109827110Y-130864479D01*
X109827111Y-130864480D01*
X109824933Y-130867252D01*
X109799500Y-130892686D01*
X109784398Y-130918841D01*
X109781798Y-130922151D01*
X109781796Y-130922151D01*
X107774456Y-133476951D01*
X107735093Y-133499080D01*
X107728063Y-133499500D01*
X92043982Y-133499500D01*
X92002263Y-133482219D01*
X92000747Y-133480647D01*
X91648254Y-133101039D01*
X90764121Y-132148896D01*
X90728998Y-132111071D01*
X92330000Y-132111071D01*
X92330000Y-132288928D01*
X92357825Y-132464611D01*
X92357827Y-132464618D01*
X92412788Y-132633770D01*
X92412788Y-132633771D01*
X92493532Y-132792241D01*
X92576620Y-132906601D01*
X93029269Y-132453952D01*
X93059901Y-132507007D01*
X93152993Y-132600099D01*
X93206045Y-132630728D01*
X92753396Y-133083378D01*
X92867758Y-133166467D01*
X93026228Y-133247211D01*
X93195381Y-133302172D01*
X93195388Y-133302174D01*
X93371071Y-133330000D01*
X93548929Y-133330000D01*
X93724611Y-133302174D01*
X93724618Y-133302172D01*
X93893770Y-133247211D01*
X93893771Y-133247211D01*
X94052241Y-133166467D01*
X94166602Y-133083378D01*
X93713953Y-132630729D01*
X93767007Y-132600099D01*
X93860099Y-132507007D01*
X93890729Y-132453953D01*
X94343378Y-132906602D01*
X94426467Y-132792241D01*
X94507211Y-132633771D01*
X94507211Y-132633770D01*
X94562172Y-132464618D01*
X94562174Y-132464611D01*
X94590000Y-132288928D01*
X94590000Y-132111071D01*
X94589413Y-132107365D01*
X95059500Y-132107365D01*
X95059500Y-132292634D01*
X95095640Y-132474323D01*
X95095644Y-132474336D01*
X95166537Y-132645491D01*
X95166538Y-132645493D01*
X95166539Y-132645494D01*
X95269466Y-132799534D01*
X95269467Y-132799535D01*
X95269470Y-132799539D01*
X95400460Y-132930529D01*
X95400463Y-132930531D01*
X95400466Y-132930534D01*
X95554506Y-133033461D01*
X95725666Y-133104357D01*
X95907365Y-133140499D01*
X95907366Y-133140500D01*
X95907369Y-133140500D01*
X96092634Y-133140500D01*
X96092634Y-133140499D01*
X96274334Y-133104357D01*
X96445494Y-133033461D01*
X96599534Y-132930534D01*
X96730534Y-132799534D01*
X96833461Y-132645494D01*
X96904357Y-132474334D01*
X96940499Y-132292634D01*
X96940500Y-132292634D01*
X96940500Y-132107366D01*
X96940499Y-132107365D01*
X97599500Y-132107365D01*
X97599500Y-132292634D01*
X97635640Y-132474323D01*
X97635644Y-132474336D01*
X97706537Y-132645491D01*
X97706538Y-132645493D01*
X97706539Y-132645494D01*
X97809466Y-132799534D01*
X97809467Y-132799535D01*
X97809470Y-132799539D01*
X97940460Y-132930529D01*
X97940463Y-132930531D01*
X97940466Y-132930534D01*
X98094506Y-133033461D01*
X98265666Y-133104357D01*
X98447365Y-133140499D01*
X98447366Y-133140500D01*
X98447369Y-133140500D01*
X98632634Y-133140500D01*
X98632634Y-133140499D01*
X98814334Y-133104357D01*
X98985494Y-133033461D01*
X99139534Y-132930534D01*
X99270534Y-132799534D01*
X99373461Y-132645494D01*
X99444357Y-132474334D01*
X99480499Y-132292634D01*
X99480500Y-132292634D01*
X99480500Y-132107366D01*
X99480499Y-132107365D01*
X100139500Y-132107365D01*
X100139500Y-132292634D01*
X100175640Y-132474323D01*
X100175644Y-132474336D01*
X100246537Y-132645491D01*
X100246538Y-132645493D01*
X100246539Y-132645494D01*
X100349466Y-132799534D01*
X100349467Y-132799535D01*
X100349470Y-132799539D01*
X100480460Y-132930529D01*
X100480463Y-132930531D01*
X100480466Y-132930534D01*
X100634506Y-133033461D01*
X100805666Y-133104357D01*
X100987365Y-133140499D01*
X100987366Y-133140500D01*
X100987369Y-133140500D01*
X101172634Y-133140500D01*
X101172634Y-133140499D01*
X101354334Y-133104357D01*
X101525494Y-133033461D01*
X101679534Y-132930534D01*
X101810534Y-132799534D01*
X101913461Y-132645494D01*
X101984357Y-132474334D01*
X102020499Y-132292634D01*
X102020500Y-132292634D01*
X102020500Y-132107366D01*
X102020499Y-132107365D01*
X102679500Y-132107365D01*
X102679500Y-132292634D01*
X102715640Y-132474323D01*
X102715644Y-132474336D01*
X102786537Y-132645491D01*
X102786538Y-132645493D01*
X102786539Y-132645494D01*
X102889466Y-132799534D01*
X102889467Y-132799535D01*
X102889470Y-132799539D01*
X103020460Y-132930529D01*
X103020463Y-132930531D01*
X103020466Y-132930534D01*
X103174506Y-133033461D01*
X103345666Y-133104357D01*
X103527365Y-133140499D01*
X103527366Y-133140500D01*
X103527369Y-133140500D01*
X103712634Y-133140500D01*
X103712634Y-133140499D01*
X103894334Y-133104357D01*
X104065494Y-133033461D01*
X104219534Y-132930534D01*
X104350534Y-132799534D01*
X104453461Y-132645494D01*
X104524357Y-132474334D01*
X104560499Y-132292634D01*
X104560500Y-132292634D01*
X104560500Y-132107366D01*
X104560499Y-132107365D01*
X104524359Y-131925676D01*
X104524358Y-131925675D01*
X104524357Y-131925666D01*
X104453461Y-131754506D01*
X104350534Y-131600466D01*
X104350531Y-131600463D01*
X104350529Y-131600460D01*
X104219539Y-131469470D01*
X104219535Y-131469467D01*
X104219534Y-131469466D01*
X104065494Y-131366539D01*
X104065493Y-131366538D01*
X104065491Y-131366537D01*
X104004036Y-131341082D01*
X105219500Y-131341082D01*
X105219500Y-133058910D01*
X105224751Y-133085312D01*
X105237478Y-133104359D01*
X105244753Y-133115247D01*
X105274689Y-133135249D01*
X105274691Y-133135249D01*
X105274692Y-133135250D01*
X105292207Y-133138733D01*
X105301087Y-133140500D01*
X107018912Y-133140499D01*
X107045311Y-133135249D01*
X107075247Y-133115247D01*
X107095249Y-133085311D01*
X107100500Y-133058913D01*
X107100499Y-131341088D01*
X107095249Y-131314689D01*
X107075247Y-131284753D01*
X107045311Y-131264751D01*
X107045309Y-131264750D01*
X107045307Y-131264749D01*
X107018916Y-131259500D01*
X105301089Y-131259500D01*
X105274687Y-131264751D01*
X105244753Y-131284752D01*
X105224749Y-131314691D01*
X105224749Y-131314693D01*
X105219500Y-131341082D01*
X104004036Y-131341082D01*
X103894336Y-131295644D01*
X103894337Y-131295644D01*
X103894334Y-131295643D01*
X103894330Y-131295642D01*
X103894323Y-131295640D01*
X103712634Y-131259500D01*
X103712631Y-131259500D01*
X103527369Y-131259500D01*
X103527366Y-131259500D01*
X103345676Y-131295640D01*
X103345663Y-131295644D01*
X103174508Y-131366537D01*
X103020460Y-131469470D01*
X102889470Y-131600460D01*
X102786537Y-131754508D01*
X102715644Y-131925663D01*
X102715640Y-131925676D01*
X102679500Y-132107365D01*
X102020499Y-132107365D01*
X101984359Y-131925676D01*
X101984358Y-131925675D01*
X101984357Y-131925666D01*
X101913461Y-131754506D01*
X101810534Y-131600466D01*
X101810531Y-131600463D01*
X101810529Y-131600460D01*
X101679539Y-131469470D01*
X101679535Y-131469467D01*
X101679534Y-131469466D01*
X101525494Y-131366539D01*
X101525493Y-131366538D01*
X101525491Y-131366537D01*
X101354336Y-131295644D01*
X101354337Y-131295644D01*
X101354334Y-131295643D01*
X101354330Y-131295642D01*
X101354323Y-131295640D01*
X101172634Y-131259500D01*
X101172631Y-131259500D01*
X100987369Y-131259500D01*
X100987366Y-131259500D01*
X100805676Y-131295640D01*
X100805663Y-131295644D01*
X100634508Y-131366537D01*
X100480460Y-131469470D01*
X100349470Y-131600460D01*
X100246537Y-131754508D01*
X100175644Y-131925663D01*
X100175640Y-131925676D01*
X100139500Y-132107365D01*
X99480499Y-132107365D01*
X99444359Y-131925676D01*
X99444358Y-131925675D01*
X99444357Y-131925666D01*
X99373461Y-131754506D01*
X99270534Y-131600466D01*
X99270531Y-131600463D01*
X99270529Y-131600460D01*
X99139539Y-131469470D01*
X99139535Y-131469467D01*
X99139534Y-131469466D01*
X98985494Y-131366539D01*
X98985493Y-131366538D01*
X98985491Y-131366537D01*
X98814336Y-131295644D01*
X98814337Y-131295644D01*
X98814334Y-131295643D01*
X98814330Y-131295642D01*
X98814323Y-131295640D01*
X98632634Y-131259500D01*
X98632631Y-131259500D01*
X98447369Y-131259500D01*
X98447366Y-131259500D01*
X98265676Y-131295640D01*
X98265663Y-131295644D01*
X98094508Y-131366537D01*
X97940460Y-131469470D01*
X97809470Y-131600460D01*
X97706537Y-131754508D01*
X97635644Y-131925663D01*
X97635640Y-131925676D01*
X97599500Y-132107365D01*
X96940499Y-132107365D01*
X96904359Y-131925676D01*
X96904358Y-131925675D01*
X96904357Y-131925666D01*
X96833461Y-131754506D01*
X96730534Y-131600466D01*
X96730531Y-131600463D01*
X96730529Y-131600460D01*
X96599539Y-131469470D01*
X96599535Y-131469467D01*
X96599534Y-131469466D01*
X96445494Y-131366539D01*
X96445493Y-131366538D01*
X96445491Y-131366537D01*
X96274336Y-131295644D01*
X96274337Y-131295644D01*
X96274334Y-131295643D01*
X96274330Y-131295642D01*
X96274323Y-131295640D01*
X96092634Y-131259500D01*
X96092631Y-131259500D01*
X95907369Y-131259500D01*
X95907366Y-131259500D01*
X95725676Y-131295640D01*
X95725663Y-131295644D01*
X95554508Y-131366537D01*
X95400460Y-131469470D01*
X95269470Y-131600460D01*
X95166537Y-131754508D01*
X95095644Y-131925663D01*
X95095640Y-131925676D01*
X95059500Y-132107365D01*
X94589413Y-132107365D01*
X94562174Y-131935388D01*
X94562172Y-131935381D01*
X94507211Y-131766229D01*
X94507211Y-131766228D01*
X94426467Y-131607758D01*
X94343377Y-131493396D01*
X93890728Y-131946045D01*
X93860099Y-131892993D01*
X93767007Y-131799901D01*
X93713952Y-131769270D01*
X94166601Y-131316620D01*
X94052241Y-131233532D01*
X93893771Y-131152788D01*
X93724618Y-131097827D01*
X93724611Y-131097825D01*
X93548929Y-131070000D01*
X93371071Y-131070000D01*
X93195388Y-131097825D01*
X93195381Y-131097827D01*
X93026229Y-131152788D01*
X93026228Y-131152788D01*
X92867756Y-131233533D01*
X92867745Y-131233540D01*
X92753397Y-131316619D01*
X92753396Y-131316619D01*
X93206046Y-131769270D01*
X93152993Y-131799901D01*
X93059901Y-131892993D01*
X93029270Y-131946046D01*
X92576619Y-131493396D01*
X92576619Y-131493397D01*
X92493540Y-131607745D01*
X92493533Y-131607756D01*
X92412788Y-131766228D01*
X92412788Y-131766229D01*
X92357827Y-131935381D01*
X92357825Y-131935388D01*
X92330000Y-132111071D01*
X90728998Y-132111071D01*
X90049452Y-131379253D01*
X89609731Y-130905707D01*
X89605200Y-130900827D01*
X89600500Y-130892686D01*
X89560458Y-130852644D01*
X89521927Y-130811149D01*
X89521926Y-130811148D01*
X89520859Y-130810478D01*
X89513963Y-130806149D01*
X89507314Y-130799500D01*
X89458265Y-130771181D01*
X89410315Y-130741078D01*
X89410314Y-130741077D01*
X89410313Y-130741077D01*
X89408677Y-130740573D01*
X89407693Y-130740270D01*
X89395566Y-130734982D01*
X89393184Y-130733606D01*
X89339518Y-130719226D01*
X89339518Y-130719227D01*
X89338459Y-130718943D01*
X89284372Y-130702282D01*
X89274975Y-130701933D01*
X89273195Y-130701456D01*
X89268544Y-130700210D01*
X89268542Y-130700208D01*
X89265895Y-130699500D01*
X89265892Y-130699500D01*
X89210368Y-130699500D01*
X89208184Y-130699460D01*
X89152677Y-130697404D01*
X89152676Y-130697404D01*
X89152675Y-130697404D01*
X89149999Y-130698016D01*
X89136849Y-130699500D01*
X86759500Y-130699500D01*
X86717781Y-130682219D01*
X86700500Y-130640500D01*
X86700500Y-129331071D01*
X86870000Y-129331071D01*
X86870000Y-129508928D01*
X86897825Y-129684611D01*
X86897827Y-129684618D01*
X86952788Y-129853770D01*
X86952788Y-129853771D01*
X87033532Y-130012241D01*
X87116620Y-130126601D01*
X87569269Y-129673952D01*
X87599901Y-129727007D01*
X87692993Y-129820099D01*
X87746045Y-129850728D01*
X87293396Y-130303378D01*
X87407758Y-130386467D01*
X87566228Y-130467211D01*
X87735381Y-130522172D01*
X87735388Y-130522174D01*
X87911071Y-130550000D01*
X88088929Y-130550000D01*
X88264611Y-130522174D01*
X88264618Y-130522172D01*
X88433770Y-130467211D01*
X88433771Y-130467211D01*
X88592241Y-130386467D01*
X88706602Y-130303378D01*
X88253953Y-129850729D01*
X88307007Y-129820099D01*
X88400099Y-129727007D01*
X88430729Y-129673953D01*
X88883378Y-130126602D01*
X88966467Y-130012241D01*
X89047211Y-129853771D01*
X89047211Y-129853770D01*
X89102172Y-129684618D01*
X89102174Y-129684611D01*
X89130000Y-129508928D01*
X89130000Y-129331071D01*
X89129413Y-129327365D01*
X110559500Y-129327365D01*
X110559500Y-129512634D01*
X110595640Y-129694323D01*
X110595644Y-129694336D01*
X110666537Y-129865491D01*
X110666538Y-129865493D01*
X110666539Y-129865494D01*
X110769466Y-130019534D01*
X110769467Y-130019535D01*
X110769470Y-130019539D01*
X110900460Y-130150529D01*
X110900463Y-130150531D01*
X110900466Y-130150534D01*
X111054506Y-130253461D01*
X111225666Y-130324357D01*
X111407365Y-130360499D01*
X111407366Y-130360500D01*
X111407369Y-130360500D01*
X111592634Y-130360500D01*
X111592634Y-130360499D01*
X111774334Y-130324357D01*
X111945494Y-130253461D01*
X112099534Y-130150534D01*
X112230534Y-130019534D01*
X112333461Y-129865494D01*
X112404357Y-129694334D01*
X112440499Y-129512634D01*
X112440500Y-129512634D01*
X112440500Y-129327366D01*
X112440499Y-129327365D01*
X112404359Y-129145676D01*
X112404358Y-129145675D01*
X112404357Y-129145666D01*
X112333461Y-128974506D01*
X112230534Y-128820466D01*
X112230531Y-128820463D01*
X112230529Y-128820460D01*
X112099539Y-128689470D01*
X112099535Y-128689467D01*
X112099534Y-128689466D01*
X111945494Y-128586539D01*
X111945493Y-128586538D01*
X111945491Y-128586537D01*
X111774336Y-128515644D01*
X111774337Y-128515644D01*
X111774334Y-128515643D01*
X111774330Y-128515642D01*
X111774323Y-128515640D01*
X111592634Y-128479500D01*
X111592631Y-128479500D01*
X111407369Y-128479500D01*
X111407366Y-128479500D01*
X111225676Y-128515640D01*
X111225663Y-128515644D01*
X111054508Y-128586537D01*
X110900460Y-128689470D01*
X110769470Y-128820460D01*
X110666537Y-128974508D01*
X110595644Y-129145663D01*
X110595640Y-129145676D01*
X110559500Y-129327365D01*
X89129413Y-129327365D01*
X89102174Y-129155388D01*
X89102172Y-129155381D01*
X89047211Y-128986229D01*
X89047211Y-128986228D01*
X88966467Y-128827758D01*
X88883377Y-128713396D01*
X88430728Y-129166045D01*
X88400099Y-129112993D01*
X88307007Y-129019901D01*
X88253952Y-128989270D01*
X88706601Y-128536620D01*
X88592241Y-128453532D01*
X88433771Y-128372788D01*
X88264618Y-128317827D01*
X88264611Y-128317825D01*
X88088929Y-128290000D01*
X87911071Y-128290000D01*
X87735388Y-128317825D01*
X87735381Y-128317827D01*
X87566229Y-128372788D01*
X87566228Y-128372788D01*
X87407756Y-128453533D01*
X87407745Y-128453540D01*
X87293397Y-128536619D01*
X87293396Y-128536619D01*
X87746046Y-128989270D01*
X87692993Y-129019901D01*
X87599901Y-129112993D01*
X87569270Y-129166046D01*
X87116619Y-128713396D01*
X87116619Y-128713397D01*
X87033540Y-128827745D01*
X87033533Y-128827756D01*
X86952788Y-128986228D01*
X86952788Y-128986229D01*
X86897827Y-129155381D01*
X86897825Y-129155388D01*
X86870000Y-129331071D01*
X86700500Y-129331071D01*
X86700500Y-126787365D01*
X87059500Y-126787365D01*
X87059500Y-126972634D01*
X87095640Y-127154323D01*
X87095642Y-127154330D01*
X87095643Y-127154334D01*
X87108738Y-127185949D01*
X87166537Y-127325491D01*
X87166538Y-127325493D01*
X87166539Y-127325494D01*
X87269466Y-127479534D01*
X87269467Y-127479535D01*
X87269470Y-127479539D01*
X87400460Y-127610529D01*
X87400463Y-127610531D01*
X87400466Y-127610534D01*
X87554506Y-127713461D01*
X87725666Y-127784357D01*
X87907365Y-127820499D01*
X87907366Y-127820500D01*
X87907369Y-127820500D01*
X88092634Y-127820500D01*
X88092634Y-127820499D01*
X88274334Y-127784357D01*
X88445494Y-127713461D01*
X88599534Y-127610534D01*
X88730534Y-127479534D01*
X88833461Y-127325494D01*
X88904357Y-127154334D01*
X88940499Y-126972634D01*
X88940500Y-126972634D01*
X88940500Y-126787366D01*
X88940499Y-126787365D01*
X88904359Y-126605676D01*
X88904358Y-126605675D01*
X88904357Y-126605666D01*
X88833461Y-126434506D01*
X88730534Y-126280466D01*
X88730531Y-126280463D01*
X88730529Y-126280460D01*
X88599539Y-126149470D01*
X88599535Y-126149467D01*
X88599534Y-126149466D01*
X88445494Y-126046539D01*
X88445493Y-126046538D01*
X88445491Y-126046537D01*
X88274336Y-125975644D01*
X88274337Y-125975644D01*
X88274334Y-125975643D01*
X88274330Y-125975642D01*
X88274323Y-125975640D01*
X88092634Y-125939500D01*
X88092631Y-125939500D01*
X87907369Y-125939500D01*
X87907366Y-125939500D01*
X87725676Y-125975640D01*
X87725663Y-125975644D01*
X87554508Y-126046537D01*
X87400460Y-126149470D01*
X87269470Y-126280460D01*
X87166537Y-126434508D01*
X87095644Y-126605663D01*
X87095640Y-126605676D01*
X87059500Y-126787365D01*
X86700500Y-126787365D01*
X86700500Y-124251071D01*
X86870000Y-124251071D01*
X86870000Y-124428928D01*
X86897825Y-124604611D01*
X86897827Y-124604618D01*
X86952788Y-124773770D01*
X86952788Y-124773771D01*
X87033532Y-124932241D01*
X87116620Y-125046601D01*
X87569269Y-124593952D01*
X87599901Y-124647007D01*
X87692993Y-124740099D01*
X87746045Y-124770728D01*
X87293396Y-125223378D01*
X87407758Y-125306467D01*
X87566228Y-125387211D01*
X87735381Y-125442172D01*
X87735388Y-125442174D01*
X87911071Y-125470000D01*
X88088929Y-125470000D01*
X88264611Y-125442174D01*
X88264618Y-125442172D01*
X88433770Y-125387211D01*
X88433771Y-125387211D01*
X88592241Y-125306467D01*
X88706602Y-125223378D01*
X88253953Y-124770729D01*
X88307007Y-124740099D01*
X88400099Y-124647007D01*
X88430729Y-124593953D01*
X88883378Y-125046602D01*
X88966467Y-124932241D01*
X89047211Y-124773771D01*
X89047211Y-124773770D01*
X89102172Y-124604618D01*
X89102174Y-124604611D01*
X89130000Y-124428928D01*
X89130000Y-124251071D01*
X89102174Y-124075388D01*
X89102172Y-124075381D01*
X89047211Y-123906229D01*
X89047211Y-123906228D01*
X88966467Y-123747758D01*
X88883377Y-123633396D01*
X88430728Y-124086045D01*
X88400099Y-124032993D01*
X88307007Y-123939901D01*
X88253952Y-123909270D01*
X88706601Y-123456620D01*
X88592241Y-123373532D01*
X88433771Y-123292788D01*
X88264618Y-123237827D01*
X88264611Y-123237825D01*
X88088929Y-123210000D01*
X87911071Y-123210000D01*
X87735388Y-123237825D01*
X87735381Y-123237827D01*
X87566229Y-123292788D01*
X87566228Y-123292788D01*
X87407756Y-123373533D01*
X87407745Y-123373540D01*
X87293397Y-123456619D01*
X87293396Y-123456619D01*
X87746046Y-123909270D01*
X87692993Y-123939901D01*
X87599901Y-124032993D01*
X87569270Y-124086046D01*
X87116619Y-123633396D01*
X87116619Y-123633397D01*
X87033540Y-123747745D01*
X87033533Y-123747756D01*
X86952788Y-123906228D01*
X86952788Y-123906229D01*
X86897827Y-124075381D01*
X86897825Y-124075388D01*
X86870000Y-124251071D01*
X86700500Y-124251071D01*
X86700500Y-121707365D01*
X87059500Y-121707365D01*
X87059500Y-121892634D01*
X87095640Y-122074323D01*
X87095644Y-122074336D01*
X87166537Y-122245491D01*
X87166538Y-122245493D01*
X87166539Y-122245494D01*
X87269466Y-122399534D01*
X87269467Y-122399535D01*
X87269470Y-122399539D01*
X87400460Y-122530529D01*
X87400463Y-122530531D01*
X87400466Y-122530534D01*
X87554506Y-122633461D01*
X87725666Y-122704357D01*
X87907365Y-122740499D01*
X87907366Y-122740500D01*
X87907369Y-122740500D01*
X88092634Y-122740500D01*
X88092634Y-122740499D01*
X88274334Y-122704357D01*
X88445494Y-122633461D01*
X88599534Y-122530534D01*
X88730534Y-122399534D01*
X88833461Y-122245494D01*
X88904357Y-122074334D01*
X88940499Y-121892634D01*
X88940500Y-121892634D01*
X88940500Y-121707366D01*
X88940499Y-121707365D01*
X88904359Y-121525676D01*
X88904358Y-121525675D01*
X88904357Y-121525666D01*
X88833461Y-121354506D01*
X88730534Y-121200466D01*
X88730531Y-121200463D01*
X88730529Y-121200460D01*
X88599539Y-121069470D01*
X88599535Y-121069467D01*
X88599534Y-121069466D01*
X88445494Y-120966539D01*
X88445493Y-120966538D01*
X88445491Y-120966537D01*
X88274336Y-120895644D01*
X88274337Y-120895644D01*
X88274334Y-120895643D01*
X88274330Y-120895642D01*
X88274323Y-120895640D01*
X88092634Y-120859500D01*
X88092631Y-120859500D01*
X87907369Y-120859500D01*
X87907366Y-120859500D01*
X87725676Y-120895640D01*
X87725663Y-120895644D01*
X87554508Y-120966537D01*
X87400460Y-121069470D01*
X87269470Y-121200460D01*
X87166537Y-121354508D01*
X87095644Y-121525663D01*
X87095640Y-121525676D01*
X87059500Y-121707365D01*
X86700500Y-121707365D01*
X86700500Y-119167365D01*
X87059500Y-119167365D01*
X87059500Y-119352634D01*
X87095640Y-119534323D01*
X87095644Y-119534336D01*
X87166537Y-119705491D01*
X87166538Y-119705493D01*
X87166539Y-119705494D01*
X87269466Y-119859534D01*
X87269467Y-119859535D01*
X87269470Y-119859539D01*
X87400460Y-119990529D01*
X87400463Y-119990531D01*
X87400466Y-119990534D01*
X87554506Y-120093461D01*
X87725666Y-120164357D01*
X87907365Y-120200499D01*
X87907366Y-120200500D01*
X87907369Y-120200500D01*
X88092634Y-120200500D01*
X88092634Y-120200499D01*
X88274334Y-120164357D01*
X88445494Y-120093461D01*
X88599534Y-119990534D01*
X88730534Y-119859534D01*
X88833461Y-119705494D01*
X88904357Y-119534334D01*
X88940499Y-119352634D01*
X88940500Y-119352634D01*
X88940500Y-119167366D01*
X88940499Y-119167365D01*
X88904359Y-118985676D01*
X88904358Y-118985675D01*
X88904357Y-118985666D01*
X88833461Y-118814506D01*
X88730534Y-118660466D01*
X88730531Y-118660463D01*
X88730529Y-118660460D01*
X88599539Y-118529470D01*
X88599535Y-118529467D01*
X88599534Y-118529466D01*
X88445494Y-118426539D01*
X88445493Y-118426538D01*
X88445491Y-118426537D01*
X88274336Y-118355644D01*
X88274337Y-118355644D01*
X88274334Y-118355643D01*
X88274330Y-118355642D01*
X88274323Y-118355640D01*
X88092634Y-118319500D01*
X88092631Y-118319500D01*
X87907369Y-118319500D01*
X87907366Y-118319500D01*
X87725676Y-118355640D01*
X87725663Y-118355644D01*
X87554508Y-118426537D01*
X87400460Y-118529470D01*
X87269470Y-118660460D01*
X87166537Y-118814508D01*
X87095644Y-118985663D01*
X87095640Y-118985676D01*
X87059500Y-119167365D01*
X86700500Y-119167365D01*
X86700500Y-116627365D01*
X87059500Y-116627365D01*
X87059500Y-116812634D01*
X87095640Y-116994323D01*
X87095644Y-116994336D01*
X87166537Y-117165491D01*
X87166538Y-117165493D01*
X87166539Y-117165494D01*
X87269466Y-117319534D01*
X87269467Y-117319535D01*
X87269470Y-117319539D01*
X87400460Y-117450529D01*
X87400463Y-117450531D01*
X87400466Y-117450534D01*
X87554506Y-117553461D01*
X87725666Y-117624357D01*
X87907365Y-117660499D01*
X87907366Y-117660500D01*
X87907369Y-117660500D01*
X88092634Y-117660500D01*
X88092634Y-117660499D01*
X88274334Y-117624357D01*
X88445494Y-117553461D01*
X88599534Y-117450534D01*
X88730534Y-117319534D01*
X88833461Y-117165494D01*
X88904357Y-116994334D01*
X88940499Y-116812634D01*
X88940500Y-116812634D01*
X88940500Y-116627366D01*
X88940499Y-116627365D01*
X88904359Y-116445676D01*
X88904358Y-116445675D01*
X88904357Y-116445666D01*
X88833461Y-116274506D01*
X88730534Y-116120466D01*
X88730531Y-116120463D01*
X88730529Y-116120460D01*
X88599539Y-115989470D01*
X88599535Y-115989467D01*
X88599534Y-115989466D01*
X88445494Y-115886539D01*
X88445493Y-115886538D01*
X88445491Y-115886537D01*
X88274336Y-115815644D01*
X88274337Y-115815644D01*
X88274334Y-115815643D01*
X88274330Y-115815642D01*
X88274323Y-115815640D01*
X88092634Y-115779500D01*
X88092631Y-115779500D01*
X87907369Y-115779500D01*
X87907366Y-115779500D01*
X87725676Y-115815640D01*
X87725663Y-115815644D01*
X87554508Y-115886537D01*
X87400460Y-115989470D01*
X87269470Y-116120460D01*
X87166537Y-116274508D01*
X87095644Y-116445663D01*
X87095640Y-116445676D01*
X87059500Y-116627365D01*
X86700500Y-116627365D01*
X86700500Y-115707145D01*
X93494500Y-115707145D01*
X93494500Y-115792854D01*
X93516681Y-115875636D01*
X93559537Y-115949865D01*
X93620134Y-116010462D01*
X93620136Y-116010463D01*
X93620138Y-116010465D01*
X93694362Y-116053318D01*
X93777147Y-116075500D01*
X93862853Y-116075500D01*
X93945638Y-116053318D01*
X94019862Y-116010465D01*
X94080465Y-115949862D01*
X94123318Y-115875638D01*
X94145500Y-115792853D01*
X94145500Y-115707147D01*
X94123318Y-115624362D01*
X94080465Y-115550138D01*
X94080463Y-115550136D01*
X94080462Y-115550134D01*
X94019865Y-115489537D01*
X93945636Y-115446681D01*
X93862854Y-115424500D01*
X93862853Y-115424500D01*
X93777147Y-115424500D01*
X93777145Y-115424500D01*
X93694363Y-115446681D01*
X93620134Y-115489537D01*
X93559537Y-115550134D01*
X93516681Y-115624363D01*
X93494500Y-115707145D01*
X86700500Y-115707145D01*
X86700500Y-114087365D01*
X87059500Y-114087365D01*
X87059500Y-114272634D01*
X87095640Y-114454323D01*
X87095644Y-114454336D01*
X87166537Y-114625491D01*
X87166538Y-114625493D01*
X87166539Y-114625494D01*
X87269466Y-114779534D01*
X87269467Y-114779535D01*
X87269470Y-114779539D01*
X87400460Y-114910529D01*
X87400463Y-114910531D01*
X87400466Y-114910534D01*
X87554506Y-115013461D01*
X87725666Y-115084357D01*
X87907365Y-115120499D01*
X87907366Y-115120500D01*
X87907369Y-115120500D01*
X88092634Y-115120500D01*
X88092634Y-115120499D01*
X88274334Y-115084357D01*
X88445494Y-115013461D01*
X88599534Y-114910534D01*
X88730534Y-114779534D01*
X88833461Y-114625494D01*
X88904357Y-114454334D01*
X88940499Y-114272634D01*
X88940500Y-114272634D01*
X88940500Y-114087366D01*
X88940499Y-114087365D01*
X88904359Y-113905676D01*
X88904358Y-113905675D01*
X88904357Y-113905666D01*
X88833461Y-113734506D01*
X88730534Y-113580466D01*
X88730531Y-113580463D01*
X88730529Y-113580460D01*
X88599539Y-113449470D01*
X88599535Y-113449467D01*
X88599534Y-113449466D01*
X88445494Y-113346539D01*
X88445493Y-113346538D01*
X88445491Y-113346537D01*
X88274336Y-113275644D01*
X88274337Y-113275644D01*
X88274334Y-113275643D01*
X88274330Y-113275642D01*
X88274323Y-113275640D01*
X88092634Y-113239500D01*
X88092631Y-113239500D01*
X87907369Y-113239500D01*
X87907366Y-113239500D01*
X87725676Y-113275640D01*
X87725663Y-113275644D01*
X87554508Y-113346537D01*
X87400460Y-113449470D01*
X87269470Y-113580460D01*
X87166537Y-113734508D01*
X87095644Y-113905663D01*
X87095640Y-113905676D01*
X87059500Y-114087365D01*
X86700500Y-114087365D01*
X86700500Y-111547365D01*
X87059500Y-111547365D01*
X87059500Y-111732634D01*
X87095640Y-111914323D01*
X87095644Y-111914336D01*
X87166537Y-112085491D01*
X87166538Y-112085493D01*
X87166539Y-112085494D01*
X87269466Y-112239534D01*
X87269467Y-112239535D01*
X87269470Y-112239539D01*
X87400460Y-112370529D01*
X87400463Y-112370531D01*
X87400466Y-112370534D01*
X87554506Y-112473461D01*
X87725666Y-112544357D01*
X87907365Y-112580499D01*
X87907366Y-112580500D01*
X87907369Y-112580500D01*
X88092634Y-112580500D01*
X88092634Y-112580499D01*
X88274334Y-112544357D01*
X88445494Y-112473461D01*
X88599534Y-112370534D01*
X88730534Y-112239534D01*
X88833461Y-112085494D01*
X88904357Y-111914334D01*
X88940499Y-111732634D01*
X88940500Y-111732634D01*
X88940500Y-111547366D01*
X88940499Y-111547365D01*
X88904359Y-111365676D01*
X88904358Y-111365675D01*
X88904357Y-111365666D01*
X88833461Y-111194506D01*
X88730534Y-111040466D01*
X88730531Y-111040463D01*
X88730529Y-111040460D01*
X88599539Y-110909470D01*
X88599535Y-110909467D01*
X88599534Y-110909466D01*
X88445494Y-110806539D01*
X88445493Y-110806538D01*
X88445491Y-110806537D01*
X88274336Y-110735644D01*
X88274337Y-110735644D01*
X88274334Y-110735643D01*
X88274330Y-110735642D01*
X88274323Y-110735640D01*
X88092634Y-110699500D01*
X88092631Y-110699500D01*
X87907369Y-110699500D01*
X87907366Y-110699500D01*
X87725676Y-110735640D01*
X87725663Y-110735644D01*
X87554508Y-110806537D01*
X87400460Y-110909470D01*
X87269470Y-111040460D01*
X87166537Y-111194508D01*
X87095644Y-111365663D01*
X87095640Y-111365676D01*
X87059500Y-111547365D01*
X86700500Y-111547365D01*
X86700500Y-109007365D01*
X87059500Y-109007365D01*
X87059500Y-109192634D01*
X87095640Y-109374323D01*
X87095644Y-109374336D01*
X87166537Y-109545491D01*
X87166538Y-109545493D01*
X87166539Y-109545494D01*
X87269466Y-109699534D01*
X87269467Y-109699535D01*
X87269470Y-109699539D01*
X87400460Y-109830529D01*
X87400463Y-109830531D01*
X87400466Y-109830534D01*
X87554506Y-109933461D01*
X87725666Y-110004357D01*
X87907365Y-110040499D01*
X87907366Y-110040500D01*
X87907369Y-110040500D01*
X88092634Y-110040500D01*
X88092634Y-110040499D01*
X88274334Y-110004357D01*
X88445494Y-109933461D01*
X88599534Y-109830534D01*
X88730534Y-109699534D01*
X88833461Y-109545494D01*
X88904357Y-109374334D01*
X88940499Y-109192634D01*
X88940500Y-109192634D01*
X88940500Y-109007366D01*
X88940499Y-109007365D01*
X88904359Y-108825676D01*
X88904358Y-108825675D01*
X88904357Y-108825666D01*
X88833461Y-108654506D01*
X88730534Y-108500466D01*
X88730531Y-108500463D01*
X88730529Y-108500460D01*
X88599539Y-108369470D01*
X88599535Y-108369467D01*
X88599534Y-108369466D01*
X88445494Y-108266539D01*
X88445493Y-108266538D01*
X88445491Y-108266537D01*
X88274336Y-108195644D01*
X88274337Y-108195644D01*
X88274334Y-108195643D01*
X88274330Y-108195642D01*
X88274323Y-108195640D01*
X88092634Y-108159500D01*
X88092631Y-108159500D01*
X87907369Y-108159500D01*
X87907366Y-108159500D01*
X87725676Y-108195640D01*
X87725663Y-108195644D01*
X87554508Y-108266537D01*
X87400460Y-108369470D01*
X87269470Y-108500460D01*
X87166537Y-108654508D01*
X87095644Y-108825663D01*
X87095640Y-108825676D01*
X87059500Y-109007365D01*
X86700500Y-109007365D01*
X86700500Y-107877145D01*
X92384500Y-107877145D01*
X92384500Y-107962854D01*
X92390740Y-107986144D01*
X92406682Y-108045638D01*
X92423801Y-108075290D01*
X92449537Y-108119865D01*
X92510134Y-108180462D01*
X92510136Y-108180463D01*
X92510138Y-108180465D01*
X92584362Y-108223318D01*
X92667147Y-108245500D01*
X92752853Y-108245500D01*
X92835638Y-108223318D01*
X92909862Y-108180465D01*
X92970465Y-108119862D01*
X93013318Y-108045638D01*
X93035500Y-107962853D01*
X93035500Y-107877147D01*
X93013318Y-107794362D01*
X92970465Y-107720138D01*
X92970463Y-107720136D01*
X92970462Y-107720134D01*
X92909865Y-107659537D01*
X92909856Y-107659532D01*
X92835638Y-107616682D01*
X92835637Y-107616681D01*
X92835636Y-107616681D01*
X92752854Y-107594500D01*
X92752853Y-107594500D01*
X92667147Y-107594500D01*
X92667145Y-107594500D01*
X92584363Y-107616681D01*
X92510134Y-107659537D01*
X92449537Y-107720134D01*
X92406681Y-107794363D01*
X92384500Y-107877145D01*
X86700500Y-107877145D01*
X86700500Y-106467365D01*
X87059500Y-106467365D01*
X87059500Y-106652634D01*
X87095640Y-106834323D01*
X87095644Y-106834336D01*
X87166537Y-107005491D01*
X87166538Y-107005493D01*
X87166539Y-107005494D01*
X87269466Y-107159534D01*
X87269467Y-107159535D01*
X87269470Y-107159539D01*
X87400460Y-107290529D01*
X87400463Y-107290531D01*
X87400466Y-107290534D01*
X87554506Y-107393461D01*
X87725666Y-107464357D01*
X87907365Y-107500499D01*
X87907366Y-107500500D01*
X87907369Y-107500500D01*
X88092634Y-107500500D01*
X88092634Y-107500499D01*
X88274334Y-107464357D01*
X88445494Y-107393461D01*
X88599534Y-107290534D01*
X88730534Y-107159534D01*
X88833461Y-107005494D01*
X88904357Y-106834334D01*
X88940499Y-106652634D01*
X88940500Y-106652634D01*
X88940500Y-106467366D01*
X88940499Y-106467365D01*
X88904359Y-106285676D01*
X88904358Y-106285675D01*
X88904357Y-106285666D01*
X88833461Y-106114506D01*
X88730534Y-105960466D01*
X88730531Y-105960463D01*
X88730529Y-105960460D01*
X88599539Y-105829470D01*
X88599535Y-105829467D01*
X88599534Y-105829466D01*
X88445494Y-105726539D01*
X88445493Y-105726538D01*
X88445491Y-105726537D01*
X88274336Y-105655644D01*
X88274337Y-105655644D01*
X88274334Y-105655643D01*
X88274330Y-105655642D01*
X88274323Y-105655640D01*
X88092634Y-105619500D01*
X88092631Y-105619500D01*
X87907369Y-105619500D01*
X87907366Y-105619500D01*
X87725676Y-105655640D01*
X87725663Y-105655644D01*
X87554508Y-105726537D01*
X87400460Y-105829470D01*
X87269470Y-105960460D01*
X87166537Y-106114508D01*
X87095644Y-106285663D01*
X87095640Y-106285676D01*
X87059500Y-106467365D01*
X86700500Y-106467365D01*
X86700500Y-105317145D01*
X93963500Y-105317145D01*
X93963500Y-105402854D01*
X93985681Y-105485636D01*
X94028537Y-105559865D01*
X94089134Y-105620462D01*
X94089136Y-105620463D01*
X94089138Y-105620465D01*
X94163362Y-105663318D01*
X94246147Y-105685500D01*
X94331853Y-105685500D01*
X94414638Y-105663318D01*
X94488862Y-105620465D01*
X94549465Y-105559862D01*
X94592318Y-105485638D01*
X94614500Y-105402853D01*
X94614500Y-105317147D01*
X94592318Y-105234362D01*
X94549465Y-105160138D01*
X94549463Y-105160136D01*
X94549462Y-105160134D01*
X94488865Y-105099537D01*
X94414636Y-105056681D01*
X94331854Y-105034500D01*
X94331853Y-105034500D01*
X94246147Y-105034500D01*
X94246145Y-105034500D01*
X94163363Y-105056681D01*
X94089134Y-105099537D01*
X94028537Y-105160134D01*
X93985681Y-105234363D01*
X93963500Y-105317145D01*
X86700500Y-105317145D01*
X86700500Y-103927365D01*
X87059500Y-103927365D01*
X87059500Y-104112634D01*
X87095640Y-104294323D01*
X87095644Y-104294336D01*
X87166537Y-104465491D01*
X87166538Y-104465493D01*
X87166539Y-104465494D01*
X87269466Y-104619534D01*
X87269467Y-104619535D01*
X87269470Y-104619539D01*
X87400460Y-104750529D01*
X87400463Y-104750531D01*
X87400466Y-104750534D01*
X87554506Y-104853461D01*
X87725666Y-104924357D01*
X87907365Y-104960499D01*
X87907366Y-104960500D01*
X87907369Y-104960500D01*
X88092634Y-104960500D01*
X88092634Y-104960499D01*
X88274334Y-104924357D01*
X88445494Y-104853461D01*
X88599534Y-104750534D01*
X88730534Y-104619534D01*
X88833461Y-104465494D01*
X88904357Y-104294334D01*
X88940499Y-104112634D01*
X88940500Y-104112634D01*
X88940500Y-103927366D01*
X88940499Y-103927365D01*
X88937137Y-103910465D01*
X88904357Y-103745666D01*
X88833461Y-103574506D01*
X88730534Y-103420466D01*
X88730531Y-103420463D01*
X88730529Y-103420460D01*
X88599539Y-103289470D01*
X88599535Y-103289467D01*
X88599534Y-103289466D01*
X88445494Y-103186539D01*
X88445493Y-103186538D01*
X88445491Y-103186537D01*
X88336666Y-103141461D01*
X88274334Y-103115643D01*
X88274329Y-103115642D01*
X88274323Y-103115640D01*
X88092634Y-103079500D01*
X88092631Y-103079500D01*
X87907369Y-103079500D01*
X87907366Y-103079500D01*
X87725676Y-103115640D01*
X87725663Y-103115644D01*
X87554508Y-103186537D01*
X87400460Y-103289470D01*
X87269470Y-103420460D01*
X87166537Y-103574508D01*
X87095644Y-103745663D01*
X87095640Y-103745676D01*
X87059500Y-103927365D01*
X86700500Y-103927365D01*
X86700500Y-103067145D01*
X96904500Y-103067145D01*
X96904500Y-103152854D01*
X96922455Y-103219865D01*
X96926682Y-103235638D01*
X96957759Y-103289466D01*
X96969537Y-103309865D01*
X97030134Y-103370462D01*
X97030136Y-103370463D01*
X97030138Y-103370465D01*
X97104362Y-103413318D01*
X97187147Y-103435500D01*
X97272853Y-103435500D01*
X97355638Y-103413318D01*
X97429862Y-103370465D01*
X97490465Y-103309862D01*
X97533318Y-103235638D01*
X97555500Y-103152853D01*
X97555500Y-103067147D01*
X97533318Y-102984362D01*
X97490465Y-102910138D01*
X97490463Y-102910136D01*
X97490462Y-102910134D01*
X97429865Y-102849537D01*
X97378944Y-102820138D01*
X97355638Y-102806682D01*
X97355637Y-102806681D01*
X97355636Y-102806681D01*
X97272854Y-102784500D01*
X97272853Y-102784500D01*
X97187147Y-102784500D01*
X97187145Y-102784500D01*
X97104363Y-102806681D01*
X97030134Y-102849537D01*
X96969537Y-102910134D01*
X96926681Y-102984363D01*
X96904500Y-103067145D01*
X86700500Y-103067145D01*
X86700500Y-101387365D01*
X87059500Y-101387365D01*
X87059500Y-101572634D01*
X87095640Y-101754323D01*
X87095644Y-101754336D01*
X87166537Y-101925491D01*
X87166538Y-101925493D01*
X87166539Y-101925494D01*
X87269466Y-102079534D01*
X87269467Y-102079535D01*
X87269470Y-102079539D01*
X87400460Y-102210529D01*
X87400463Y-102210531D01*
X87400466Y-102210534D01*
X87554506Y-102313461D01*
X87725666Y-102384357D01*
X87907365Y-102420499D01*
X87907366Y-102420500D01*
X87907369Y-102420500D01*
X88092634Y-102420500D01*
X88092634Y-102420499D01*
X88274334Y-102384357D01*
X88445494Y-102313461D01*
X88599534Y-102210534D01*
X88730534Y-102079534D01*
X88833461Y-101925494D01*
X88904357Y-101754334D01*
X88940499Y-101572634D01*
X88940500Y-101572634D01*
X88940500Y-101387366D01*
X88940499Y-101387365D01*
X88939388Y-101381782D01*
X88904357Y-101205666D01*
X88833461Y-101034506D01*
X88730534Y-100880466D01*
X88730531Y-100880463D01*
X88730529Y-100880460D01*
X88599539Y-100749470D01*
X88599535Y-100749467D01*
X88599534Y-100749466D01*
X88497492Y-100681283D01*
X96313500Y-100681283D01*
X96313500Y-100766992D01*
X96327167Y-100818000D01*
X96335682Y-100849776D01*
X96377067Y-100921458D01*
X96378537Y-100924003D01*
X96439134Y-100984600D01*
X96439136Y-100984601D01*
X96439138Y-100984603D01*
X96513362Y-101027456D01*
X96596147Y-101049638D01*
X96681853Y-101049638D01*
X96764638Y-101027456D01*
X96838862Y-100984603D01*
X96899465Y-100924000D01*
X96942318Y-100849776D01*
X96964500Y-100766991D01*
X96964500Y-100681285D01*
X96942318Y-100598500D01*
X96899465Y-100524276D01*
X96899463Y-100524274D01*
X96899462Y-100524272D01*
X96838865Y-100463675D01*
X96821719Y-100453776D01*
X96764638Y-100420820D01*
X96764637Y-100420819D01*
X96764636Y-100420819D01*
X96681854Y-100398638D01*
X96681853Y-100398638D01*
X96596147Y-100398638D01*
X96596145Y-100398638D01*
X96513363Y-100420819D01*
X96439134Y-100463675D01*
X96378537Y-100524272D01*
X96335681Y-100598501D01*
X96313500Y-100681283D01*
X88497492Y-100681283D01*
X88445494Y-100646539D01*
X88445493Y-100646538D01*
X88445491Y-100646537D01*
X88274336Y-100575644D01*
X88274337Y-100575644D01*
X88274334Y-100575643D01*
X88274330Y-100575642D01*
X88274323Y-100575640D01*
X88092634Y-100539500D01*
X88092631Y-100539500D01*
X87907369Y-100539500D01*
X87907366Y-100539500D01*
X87725676Y-100575640D01*
X87725663Y-100575644D01*
X87554508Y-100646537D01*
X87400460Y-100749470D01*
X87269470Y-100880460D01*
X87166537Y-101034508D01*
X87095644Y-101205663D01*
X87095640Y-101205676D01*
X87059500Y-101387365D01*
X86700500Y-101387365D01*
X86700500Y-100008007D01*
X96755362Y-100008007D01*
X96755362Y-100093716D01*
X96776808Y-100173756D01*
X96777544Y-100176500D01*
X96808258Y-100229699D01*
X96820399Y-100250727D01*
X96880996Y-100311324D01*
X96880998Y-100311325D01*
X96881000Y-100311327D01*
X96955224Y-100354180D01*
X97038009Y-100376362D01*
X97123715Y-100376362D01*
X97206500Y-100354180D01*
X97280724Y-100311327D01*
X97341327Y-100250724D01*
X97384180Y-100176500D01*
X97406362Y-100093715D01*
X97406362Y-100008009D01*
X97384180Y-99925224D01*
X97341327Y-99851000D01*
X97341325Y-99850998D01*
X97341324Y-99850996D01*
X97280727Y-99790399D01*
X97268462Y-99783318D01*
X97206500Y-99747544D01*
X97206499Y-99747543D01*
X97206498Y-99747543D01*
X97123716Y-99725362D01*
X97123715Y-99725362D01*
X97038009Y-99725362D01*
X97038007Y-99725362D01*
X96955225Y-99747543D01*
X96880996Y-99790399D01*
X96820399Y-99850996D01*
X96777543Y-99925225D01*
X96755362Y-100008007D01*
X86700500Y-100008007D01*
X86700500Y-98847365D01*
X87059500Y-98847365D01*
X87059500Y-99032634D01*
X87095640Y-99214323D01*
X87095644Y-99214336D01*
X87166537Y-99385491D01*
X87166538Y-99385493D01*
X87166539Y-99385494D01*
X87269466Y-99539534D01*
X87269467Y-99539535D01*
X87269470Y-99539539D01*
X87400460Y-99670529D01*
X87400463Y-99670531D01*
X87400466Y-99670534D01*
X87554506Y-99773461D01*
X87725666Y-99844357D01*
X87907365Y-99880499D01*
X87907366Y-99880500D01*
X87907369Y-99880500D01*
X88092634Y-99880500D01*
X88092634Y-99880499D01*
X88274334Y-99844357D01*
X88445494Y-99773461D01*
X88599534Y-99670534D01*
X88730534Y-99539534D01*
X88747529Y-99514100D01*
X95416329Y-99514100D01*
X95416329Y-99619557D01*
X95443261Y-99720072D01*
X95443622Y-99721416D01*
X95492168Y-99805500D01*
X95496351Y-99812745D01*
X95570912Y-99887306D01*
X95570914Y-99887307D01*
X95570916Y-99887309D01*
X95662242Y-99940036D01*
X95764102Y-99967329D01*
X95869556Y-99967329D01*
X95971416Y-99940036D01*
X96062742Y-99887309D01*
X96137309Y-99812742D01*
X96190036Y-99721416D01*
X96217329Y-99619556D01*
X96217329Y-99514102D01*
X96217329Y-99514101D01*
X96217328Y-99514095D01*
X96206679Y-99474354D01*
X96212572Y-99429584D01*
X96248397Y-99402094D01*
X96293167Y-99407987D01*
X96293168Y-99407988D01*
X96298676Y-99411168D01*
X96354362Y-99443318D01*
X96437147Y-99465500D01*
X96522853Y-99465500D01*
X96605638Y-99443318D01*
X96679862Y-99400465D01*
X96740465Y-99339862D01*
X96783318Y-99265638D01*
X96805500Y-99182853D01*
X96805500Y-99097147D01*
X96783318Y-99014362D01*
X96740465Y-98940138D01*
X96740463Y-98940136D01*
X96740462Y-98940134D01*
X96679865Y-98879537D01*
X96672488Y-98875278D01*
X96605638Y-98836682D01*
X96605637Y-98836681D01*
X96605636Y-98836681D01*
X96522854Y-98814500D01*
X96522853Y-98814500D01*
X96437147Y-98814500D01*
X96437145Y-98814500D01*
X96354363Y-98836681D01*
X96280134Y-98879537D01*
X96219537Y-98940134D01*
X96176681Y-99014363D01*
X96154500Y-99097145D01*
X96154500Y-99182859D01*
X96154682Y-99183536D01*
X96154635Y-99183885D01*
X96155005Y-99186691D01*
X96154253Y-99186789D01*
X96148781Y-99228305D01*
X96112952Y-99255790D01*
X96068183Y-99249889D01*
X96063803Y-99246962D01*
X96062743Y-99246350D01*
X96062742Y-99246349D01*
X95971416Y-99193622D01*
X95971414Y-99193621D01*
X95869557Y-99166329D01*
X95869556Y-99166329D01*
X95764102Y-99166329D01*
X95764100Y-99166329D01*
X95662243Y-99193621D01*
X95662242Y-99193622D01*
X95570912Y-99246351D01*
X95496351Y-99320912D01*
X95443622Y-99412242D01*
X95443621Y-99412243D01*
X95416329Y-99514100D01*
X88747529Y-99514100D01*
X88833461Y-99385494D01*
X88904357Y-99214334D01*
X88940499Y-99032634D01*
X88940500Y-99032634D01*
X88940500Y-98847366D01*
X88940499Y-98847365D01*
X88940183Y-98845778D01*
X88904357Y-98665666D01*
X88833461Y-98494506D01*
X88730534Y-98340466D01*
X88730531Y-98340463D01*
X88730529Y-98340460D01*
X88599539Y-98209470D01*
X88599535Y-98209467D01*
X88599534Y-98209466D01*
X88445494Y-98106539D01*
X88445493Y-98106538D01*
X88445491Y-98106537D01*
X88295717Y-98044500D01*
X88274334Y-98035643D01*
X88274330Y-98035642D01*
X88274323Y-98035640D01*
X88092634Y-97999500D01*
X88092631Y-97999500D01*
X87907369Y-97999500D01*
X87907366Y-97999500D01*
X87725676Y-98035640D01*
X87725663Y-98035644D01*
X87554508Y-98106537D01*
X87400460Y-98209470D01*
X87269470Y-98340460D01*
X87166537Y-98494508D01*
X87095644Y-98665663D01*
X87095640Y-98665676D01*
X87059500Y-98847365D01*
X86700500Y-98847365D01*
X86700500Y-96311071D01*
X86870000Y-96311071D01*
X86870000Y-96488928D01*
X86897825Y-96664611D01*
X86897827Y-96664618D01*
X86952788Y-96833770D01*
X86952788Y-96833771D01*
X87033532Y-96992241D01*
X87116620Y-97106601D01*
X87569269Y-96653952D01*
X87599901Y-96707007D01*
X87692993Y-96800099D01*
X87746045Y-96830728D01*
X87293396Y-97283378D01*
X87407758Y-97366467D01*
X87566228Y-97447211D01*
X87735381Y-97502172D01*
X87735388Y-97502174D01*
X87911071Y-97530000D01*
X88088929Y-97530000D01*
X88264611Y-97502174D01*
X88264618Y-97502172D01*
X88433770Y-97447211D01*
X88433771Y-97447211D01*
X88592241Y-97366467D01*
X88706602Y-97283378D01*
X88253953Y-96830729D01*
X88307007Y-96800099D01*
X88400099Y-96707007D01*
X88430729Y-96653953D01*
X88883378Y-97106602D01*
X88966467Y-96992241D01*
X89047211Y-96833771D01*
X89047211Y-96833770D01*
X89102172Y-96664618D01*
X89102174Y-96664611D01*
X89130000Y-96488928D01*
X89130000Y-96311071D01*
X89102174Y-96135388D01*
X89102172Y-96135381D01*
X89047211Y-95966229D01*
X89047211Y-95966228D01*
X88966467Y-95807758D01*
X88883377Y-95693396D01*
X88430728Y-96146045D01*
X88400099Y-96092993D01*
X88307007Y-95999901D01*
X88253952Y-95969270D01*
X88706601Y-95516620D01*
X88592241Y-95433532D01*
X88433771Y-95352788D01*
X88264618Y-95297827D01*
X88264611Y-95297825D01*
X88088929Y-95270000D01*
X87911071Y-95270000D01*
X87735388Y-95297825D01*
X87735381Y-95297827D01*
X87566229Y-95352788D01*
X87566228Y-95352788D01*
X87407756Y-95433533D01*
X87407745Y-95433540D01*
X87293397Y-95516619D01*
X87293396Y-95516619D01*
X87746046Y-95969270D01*
X87692993Y-95999901D01*
X87599901Y-96092993D01*
X87569270Y-96146046D01*
X87116619Y-95693396D01*
X87116619Y-95693397D01*
X87033540Y-95807745D01*
X87033533Y-95807756D01*
X86952788Y-95966228D01*
X86952788Y-95966229D01*
X86897827Y-96135381D01*
X86897825Y-96135388D01*
X86870000Y-96311071D01*
X86700500Y-96311071D01*
X86700500Y-93767365D01*
X87059500Y-93767365D01*
X87059500Y-93952634D01*
X87095640Y-94134323D01*
X87095644Y-94134336D01*
X87166537Y-94305491D01*
X87166538Y-94305493D01*
X87166539Y-94305494D01*
X87269466Y-94459534D01*
X87269467Y-94459535D01*
X87269470Y-94459539D01*
X87400460Y-94590529D01*
X87400463Y-94590531D01*
X87400466Y-94590534D01*
X87554506Y-94693461D01*
X87725666Y-94764357D01*
X87907365Y-94800499D01*
X87907366Y-94800500D01*
X87907369Y-94800500D01*
X88092634Y-94800500D01*
X88092634Y-94800499D01*
X88274334Y-94764357D01*
X88445494Y-94693461D01*
X88599534Y-94590534D01*
X88730534Y-94459534D01*
X88833461Y-94305494D01*
X88904357Y-94134334D01*
X88940499Y-93952634D01*
X88940500Y-93952634D01*
X88940500Y-93767366D01*
X88940499Y-93767365D01*
X88904359Y-93585676D01*
X88904358Y-93585675D01*
X88904357Y-93585666D01*
X88833461Y-93414506D01*
X88730534Y-93260466D01*
X88730531Y-93260463D01*
X88730529Y-93260460D01*
X88599539Y-93129470D01*
X88599535Y-93129467D01*
X88599534Y-93129466D01*
X88445494Y-93026539D01*
X88445493Y-93026538D01*
X88445491Y-93026537D01*
X88274336Y-92955644D01*
X88274337Y-92955644D01*
X88274334Y-92955643D01*
X88274330Y-92955642D01*
X88274323Y-92955640D01*
X88092634Y-92919500D01*
X88092631Y-92919500D01*
X87907369Y-92919500D01*
X87907366Y-92919500D01*
X87725676Y-92955640D01*
X87725663Y-92955644D01*
X87554508Y-93026537D01*
X87400460Y-93129470D01*
X87269470Y-93260460D01*
X87166537Y-93414508D01*
X87095644Y-93585663D01*
X87095640Y-93585676D01*
X87059500Y-93767365D01*
X86700500Y-93767365D01*
X86700500Y-91227365D01*
X87059500Y-91227365D01*
X87059500Y-91412634D01*
X87095640Y-91594323D01*
X87095644Y-91594336D01*
X87166537Y-91765491D01*
X87166538Y-91765493D01*
X87166539Y-91765494D01*
X87269466Y-91919534D01*
X87269467Y-91919535D01*
X87269470Y-91919539D01*
X87400460Y-92050529D01*
X87400463Y-92050531D01*
X87400466Y-92050534D01*
X87554506Y-92153461D01*
X87725666Y-92224357D01*
X87907365Y-92260499D01*
X87907366Y-92260500D01*
X87907369Y-92260500D01*
X88092634Y-92260500D01*
X88092634Y-92260499D01*
X88274334Y-92224357D01*
X88445494Y-92153461D01*
X88599534Y-92050534D01*
X88730534Y-91919534D01*
X88833461Y-91765494D01*
X88904357Y-91594334D01*
X88940499Y-91412634D01*
X88940500Y-91412634D01*
X88940500Y-91227366D01*
X88940499Y-91227365D01*
X88904359Y-91045676D01*
X88904358Y-91045675D01*
X88904357Y-91045666D01*
X88833461Y-90874506D01*
X88730534Y-90720466D01*
X88730531Y-90720463D01*
X88730529Y-90720460D01*
X88599539Y-90589470D01*
X88599535Y-90589467D01*
X88599534Y-90589466D01*
X88445494Y-90486539D01*
X88445493Y-90486538D01*
X88445491Y-90486537D01*
X88305949Y-90428738D01*
X88274334Y-90415643D01*
X88274330Y-90415642D01*
X88274323Y-90415640D01*
X88092634Y-90379500D01*
X88092631Y-90379500D01*
X87907369Y-90379500D01*
X87907366Y-90379500D01*
X87725676Y-90415640D01*
X87725663Y-90415644D01*
X87554508Y-90486537D01*
X87400460Y-90589470D01*
X87269470Y-90720460D01*
X87166537Y-90874508D01*
X87095644Y-91045663D01*
X87095640Y-91045676D01*
X87059500Y-91227365D01*
X86700500Y-91227365D01*
X86700500Y-88687365D01*
X87059500Y-88687365D01*
X87059500Y-88872634D01*
X87095640Y-89054323D01*
X87095644Y-89054336D01*
X87166537Y-89225491D01*
X87166538Y-89225493D01*
X87166539Y-89225494D01*
X87269466Y-89379534D01*
X87269467Y-89379535D01*
X87269470Y-89379539D01*
X87400460Y-89510529D01*
X87400463Y-89510531D01*
X87400466Y-89510534D01*
X87554506Y-89613461D01*
X87725666Y-89684357D01*
X87907365Y-89720499D01*
X87907366Y-89720500D01*
X87907369Y-89720500D01*
X88092634Y-89720500D01*
X88092634Y-89720499D01*
X88274334Y-89684357D01*
X88445494Y-89613461D01*
X88599534Y-89510534D01*
X88730534Y-89379534D01*
X88833461Y-89225494D01*
X88904357Y-89054334D01*
X88940499Y-88872634D01*
X88940500Y-88872634D01*
X88940500Y-88687366D01*
X88940499Y-88687365D01*
X88925762Y-88613279D01*
X88904357Y-88505666D01*
X88846556Y-88366121D01*
X88833462Y-88334508D01*
X88833461Y-88334506D01*
X88730534Y-88180466D01*
X88730531Y-88180463D01*
X88730529Y-88180460D01*
X88599539Y-88049470D01*
X88599535Y-88049467D01*
X88599534Y-88049466D01*
X88445494Y-87946539D01*
X88445493Y-87946538D01*
X88445491Y-87946537D01*
X88274336Y-87875644D01*
X88274337Y-87875644D01*
X88274334Y-87875643D01*
X88274330Y-87875642D01*
X88274323Y-87875640D01*
X88092634Y-87839500D01*
X88092631Y-87839500D01*
X87907369Y-87839500D01*
X87907366Y-87839500D01*
X87725676Y-87875640D01*
X87725663Y-87875644D01*
X87554508Y-87946537D01*
X87400460Y-88049470D01*
X87269470Y-88180460D01*
X87166537Y-88334508D01*
X87095644Y-88505663D01*
X87095640Y-88505676D01*
X87059500Y-88687365D01*
X86700500Y-88687365D01*
X86700500Y-81067365D01*
X87059500Y-81067365D01*
X87059500Y-81252634D01*
X87095640Y-81434323D01*
X87095644Y-81434336D01*
X87166537Y-81605491D01*
X87166538Y-81605493D01*
X87166539Y-81605494D01*
X87269466Y-81759534D01*
X87269467Y-81759535D01*
X87269470Y-81759539D01*
X87400460Y-81890529D01*
X87400463Y-81890531D01*
X87400466Y-81890534D01*
X87554506Y-81993461D01*
X87725666Y-82064357D01*
X87907365Y-82100499D01*
X87907366Y-82100500D01*
X87907369Y-82100500D01*
X88092634Y-82100500D01*
X88092634Y-82100499D01*
X88274334Y-82064357D01*
X88445494Y-81993461D01*
X88599534Y-81890534D01*
X88730534Y-81759534D01*
X88833461Y-81605494D01*
X88904357Y-81434334D01*
X88940499Y-81252634D01*
X88940500Y-81252634D01*
X88940500Y-81067366D01*
X88940499Y-81067365D01*
X88904359Y-80885676D01*
X88904358Y-80885675D01*
X88904357Y-80885666D01*
X88833461Y-80714506D01*
X88730534Y-80560466D01*
X88730531Y-80560463D01*
X88730529Y-80560460D01*
X88599539Y-80429470D01*
X88599535Y-80429467D01*
X88599534Y-80429466D01*
X88445494Y-80326539D01*
X88445493Y-80326538D01*
X88445491Y-80326537D01*
X88274336Y-80255644D01*
X88274337Y-80255644D01*
X88274334Y-80255643D01*
X88274330Y-80255642D01*
X88274323Y-80255640D01*
X88092634Y-80219500D01*
X88092631Y-80219500D01*
X87907369Y-80219500D01*
X87907366Y-80219500D01*
X87725676Y-80255640D01*
X87725663Y-80255644D01*
X87554508Y-80326537D01*
X87400460Y-80429470D01*
X87269470Y-80560460D01*
X87166537Y-80714508D01*
X87095644Y-80885663D01*
X87095640Y-80885676D01*
X87059500Y-81067365D01*
X86700500Y-81067365D01*
X86700500Y-78527365D01*
X87059500Y-78527365D01*
X87059500Y-78712634D01*
X87095640Y-78894323D01*
X87095644Y-78894336D01*
X87166537Y-79065491D01*
X87166538Y-79065493D01*
X87166539Y-79065494D01*
X87269466Y-79219534D01*
X87269467Y-79219535D01*
X87269470Y-79219539D01*
X87400460Y-79350529D01*
X87400463Y-79350531D01*
X87400466Y-79350534D01*
X87554506Y-79453461D01*
X87725666Y-79524357D01*
X87907365Y-79560499D01*
X87907366Y-79560500D01*
X87907369Y-79560500D01*
X88092634Y-79560500D01*
X88092634Y-79560499D01*
X88274334Y-79524357D01*
X88445494Y-79453461D01*
X88599534Y-79350534D01*
X88730534Y-79219534D01*
X88833461Y-79065494D01*
X88904357Y-78894334D01*
X88940499Y-78712634D01*
X88940500Y-78712634D01*
X88940500Y-78527366D01*
X88940499Y-78527365D01*
X88904359Y-78345676D01*
X88904358Y-78345675D01*
X88904357Y-78345666D01*
X88833461Y-78174506D01*
X88730534Y-78020466D01*
X88730531Y-78020463D01*
X88730529Y-78020460D01*
X88599539Y-77889470D01*
X88599535Y-77889467D01*
X88599534Y-77889466D01*
X88445494Y-77786539D01*
X88445493Y-77786538D01*
X88445491Y-77786537D01*
X88337160Y-77741666D01*
X88274334Y-77715643D01*
X88274330Y-77715642D01*
X88274323Y-77715640D01*
X88092634Y-77679500D01*
X88092631Y-77679500D01*
X87907369Y-77679500D01*
X87907366Y-77679500D01*
X87725676Y-77715640D01*
X87725663Y-77715644D01*
X87554508Y-77786537D01*
X87400460Y-77889470D01*
X87269470Y-78020460D01*
X87166537Y-78174508D01*
X87095644Y-78345663D01*
X87095640Y-78345676D01*
X87059500Y-78527365D01*
X86700500Y-78527365D01*
X86700500Y-77677271D01*
X92939500Y-77677271D01*
X92939500Y-77677272D01*
X92939500Y-77677273D01*
X92939500Y-77782727D01*
X92966793Y-77884587D01*
X93019520Y-77975913D01*
X93019522Y-77975916D01*
X93094083Y-78050477D01*
X93094085Y-78050478D01*
X93094087Y-78050480D01*
X93185413Y-78103207D01*
X93287273Y-78130500D01*
X93392727Y-78130500D01*
X93494587Y-78103207D01*
X93585913Y-78050480D01*
X93660480Y-77975913D01*
X93713207Y-77884587D01*
X93740500Y-77782727D01*
X93740500Y-77677273D01*
X93713207Y-77575413D01*
X93660480Y-77484087D01*
X93660478Y-77484085D01*
X93660477Y-77484083D01*
X93585916Y-77409522D01*
X93585913Y-77409520D01*
X93494587Y-77356793D01*
X93494585Y-77356792D01*
X93392728Y-77329500D01*
X93392727Y-77329500D01*
X93287273Y-77329500D01*
X93287271Y-77329500D01*
X93185414Y-77356792D01*
X93185413Y-77356793D01*
X93094083Y-77409522D01*
X93019522Y-77484083D01*
X92966793Y-77575413D01*
X92966792Y-77575414D01*
X92939500Y-77677271D01*
X86700500Y-77677271D01*
X86700500Y-75991071D01*
X86870000Y-75991071D01*
X86870000Y-76168928D01*
X86897825Y-76344611D01*
X86897827Y-76344618D01*
X86952788Y-76513770D01*
X86952788Y-76513771D01*
X87033532Y-76672241D01*
X87116620Y-76786601D01*
X87569269Y-76333952D01*
X87599901Y-76387007D01*
X87692993Y-76480099D01*
X87746045Y-76510728D01*
X87293396Y-76963378D01*
X87407758Y-77046467D01*
X87566228Y-77127211D01*
X87735381Y-77182172D01*
X87735388Y-77182174D01*
X87911071Y-77210000D01*
X88088929Y-77210000D01*
X88264611Y-77182174D01*
X88264618Y-77182172D01*
X88433770Y-77127211D01*
X88433771Y-77127211D01*
X88592241Y-77046467D01*
X88706602Y-76963378D01*
X88253953Y-76510729D01*
X88307007Y-76480099D01*
X88400099Y-76387007D01*
X88430729Y-76333953D01*
X88883378Y-76786602D01*
X88966467Y-76672241D01*
X89047211Y-76513771D01*
X89047211Y-76513770D01*
X89102172Y-76344618D01*
X89102174Y-76344611D01*
X89130000Y-76168928D01*
X89130000Y-75991071D01*
X89102174Y-75815388D01*
X89102172Y-75815381D01*
X89047211Y-75646229D01*
X89047211Y-75646228D01*
X88966467Y-75487758D01*
X88883377Y-75373396D01*
X88430728Y-75826045D01*
X88400099Y-75772993D01*
X88307007Y-75679901D01*
X88253952Y-75649270D01*
X88706601Y-75196620D01*
X88592241Y-75113532D01*
X88433771Y-75032788D01*
X88264618Y-74977827D01*
X88264611Y-74977825D01*
X88088929Y-74950000D01*
X87911071Y-74950000D01*
X87735388Y-74977825D01*
X87735381Y-74977827D01*
X87566229Y-75032788D01*
X87566228Y-75032788D01*
X87407756Y-75113533D01*
X87407745Y-75113540D01*
X87293397Y-75196619D01*
X87293396Y-75196619D01*
X87746046Y-75649270D01*
X87692993Y-75679901D01*
X87599901Y-75772993D01*
X87569270Y-75826046D01*
X87116619Y-75373396D01*
X87116619Y-75373397D01*
X87033540Y-75487745D01*
X87033533Y-75487756D01*
X86952788Y-75646228D01*
X86952788Y-75646229D01*
X86897827Y-75815381D01*
X86897825Y-75815388D01*
X86870000Y-75991071D01*
X86700500Y-75991071D01*
X86700500Y-73447365D01*
X87059500Y-73447365D01*
X87059500Y-73632634D01*
X87095640Y-73814323D01*
X87095644Y-73814336D01*
X87166537Y-73985491D01*
X87166538Y-73985493D01*
X87166539Y-73985494D01*
X87269466Y-74139534D01*
X87269467Y-74139535D01*
X87269470Y-74139539D01*
X87400460Y-74270529D01*
X87400463Y-74270531D01*
X87400466Y-74270534D01*
X87554506Y-74373461D01*
X87725666Y-74444357D01*
X87907365Y-74480499D01*
X87907366Y-74480500D01*
X87907369Y-74480500D01*
X88092634Y-74480500D01*
X88092634Y-74480499D01*
X88274334Y-74444357D01*
X88445494Y-74373461D01*
X88599534Y-74270534D01*
X88730534Y-74139534D01*
X88833461Y-73985494D01*
X88904357Y-73814334D01*
X88940499Y-73632634D01*
X88940500Y-73632634D01*
X88940500Y-73447366D01*
X88940499Y-73447365D01*
X88904359Y-73265676D01*
X88904358Y-73265675D01*
X88904357Y-73265666D01*
X88833461Y-73094506D01*
X88730534Y-72940466D01*
X88730531Y-72940463D01*
X88730529Y-72940460D01*
X88599539Y-72809470D01*
X88599535Y-72809467D01*
X88599534Y-72809466D01*
X88445494Y-72706539D01*
X88445493Y-72706538D01*
X88445491Y-72706537D01*
X88274336Y-72635644D01*
X88274337Y-72635644D01*
X88274334Y-72635643D01*
X88274330Y-72635642D01*
X88274323Y-72635640D01*
X88092634Y-72599500D01*
X88092631Y-72599500D01*
X87907369Y-72599500D01*
X87907366Y-72599500D01*
X87725676Y-72635640D01*
X87725663Y-72635644D01*
X87554508Y-72706537D01*
X87400460Y-72809470D01*
X87269470Y-72940460D01*
X87166537Y-73094508D01*
X87095644Y-73265663D01*
X87095640Y-73265676D01*
X87059500Y-73447365D01*
X86700500Y-73447365D01*
X86700500Y-70141082D01*
X87059500Y-70141082D01*
X87059500Y-71858910D01*
X87064751Y-71885312D01*
X87084752Y-71915246D01*
X87084753Y-71915247D01*
X87114689Y-71935249D01*
X87114691Y-71935249D01*
X87114692Y-71935250D01*
X87132207Y-71938733D01*
X87141087Y-71940500D01*
X88724435Y-71940499D01*
X88766154Y-71957780D01*
X101027219Y-84218845D01*
X101044500Y-84260564D01*
X101044500Y-87785500D01*
X101027219Y-87827219D01*
X100990756Y-87842322D01*
X100990977Y-87843996D01*
X100987145Y-87844500D01*
X100904363Y-87866681D01*
X100830134Y-87909537D01*
X100769537Y-87970134D01*
X100726681Y-88044363D01*
X100704500Y-88127145D01*
X100704500Y-88212854D01*
X100725699Y-88291972D01*
X100726682Y-88295638D01*
X100749123Y-88334508D01*
X100769537Y-88369865D01*
X100823453Y-88423781D01*
X100840734Y-88465500D01*
X100823453Y-88507219D01*
X100790537Y-88540134D01*
X100747681Y-88614363D01*
X100725500Y-88697145D01*
X100725500Y-88697147D01*
X100725500Y-88782853D01*
X100747682Y-88865638D01*
X100751719Y-88872631D01*
X100790537Y-88939865D01*
X100851134Y-89000462D01*
X100851136Y-89000463D01*
X100851138Y-89000465D01*
X100925362Y-89043318D01*
X101000770Y-89063523D01*
X101036595Y-89091013D01*
X101044500Y-89120513D01*
X101044500Y-95208353D01*
X101027220Y-95250073D01*
X100985501Y-95267354D01*
X100985500Y-95267353D01*
X100985500Y-95267354D01*
X100943782Y-95250074D01*
X100919385Y-95225677D01*
X100919383Y-95225676D01*
X92957563Y-87263856D01*
X94659500Y-87263856D01*
X94659500Y-87356144D01*
X94664121Y-87373388D01*
X94683385Y-87445287D01*
X94683387Y-87445290D01*
X94729530Y-87525211D01*
X94729532Y-87525214D01*
X94794786Y-87590468D01*
X94794788Y-87590469D01*
X94874712Y-87636614D01*
X94963856Y-87660500D01*
X94963860Y-87660500D01*
X95056140Y-87660500D01*
X95056144Y-87660500D01*
X95145288Y-87636614D01*
X95225212Y-87590469D01*
X95225212Y-87590468D01*
X95225214Y-87590468D01*
X95290468Y-87525214D01*
X95290469Y-87525212D01*
X95336614Y-87445288D01*
X95360500Y-87356144D01*
X95360500Y-87263856D01*
X95336614Y-87174712D01*
X95336614Y-87174711D01*
X95336612Y-87174709D01*
X95320740Y-87147219D01*
X95290469Y-87094788D01*
X95290468Y-87094786D01*
X95225214Y-87029532D01*
X95225211Y-87029530D01*
X95145290Y-86983387D01*
X95145287Y-86983385D01*
X95093819Y-86969594D01*
X95056144Y-86959500D01*
X94963856Y-86959500D01*
X94945018Y-86964547D01*
X94874712Y-86983385D01*
X94874709Y-86983387D01*
X94794788Y-87029530D01*
X94729530Y-87094788D01*
X94683387Y-87174709D01*
X94683386Y-87174711D01*
X94683386Y-87174712D01*
X94659500Y-87263856D01*
X92957563Y-87263856D01*
X91467563Y-85773856D01*
X94579500Y-85773856D01*
X94579500Y-85866144D01*
X94589594Y-85903819D01*
X94603385Y-85955287D01*
X94603387Y-85955290D01*
X94649530Y-86035211D01*
X94649532Y-86035214D01*
X94714786Y-86100468D01*
X94714788Y-86100469D01*
X94794712Y-86146614D01*
X94883856Y-86170500D01*
X94883860Y-86170500D01*
X94976140Y-86170500D01*
X94976144Y-86170500D01*
X95065288Y-86146614D01*
X95145212Y-86100469D01*
X95145212Y-86100468D01*
X95145214Y-86100468D01*
X95210468Y-86035214D01*
X95210469Y-86035212D01*
X95256614Y-85955288D01*
X95280500Y-85866144D01*
X95280500Y-85773856D01*
X95256614Y-85684712D01*
X95210469Y-85604788D01*
X95210468Y-85604786D01*
X95145214Y-85539532D01*
X95145211Y-85539530D01*
X95065290Y-85493387D01*
X95065287Y-85493385D01*
X95013819Y-85479594D01*
X94976144Y-85469500D01*
X94883856Y-85469500D01*
X94865018Y-85474547D01*
X94794712Y-85493385D01*
X94794709Y-85493387D01*
X94714788Y-85539530D01*
X94649530Y-85604788D01*
X94603387Y-85684709D01*
X94603385Y-85684712D01*
X94584547Y-85755018D01*
X94579500Y-85773856D01*
X91467563Y-85773856D01*
X90930978Y-85237271D01*
X92289500Y-85237271D01*
X92289500Y-85342728D01*
X92306597Y-85406537D01*
X92316793Y-85444587D01*
X92369520Y-85535913D01*
X92369522Y-85535916D01*
X92444083Y-85610477D01*
X92444085Y-85610478D01*
X92444087Y-85610480D01*
X92535413Y-85663207D01*
X92637273Y-85690500D01*
X92742727Y-85690500D01*
X92844587Y-85663207D01*
X92935913Y-85610480D01*
X93010480Y-85535913D01*
X93063207Y-85444587D01*
X93090500Y-85342727D01*
X93090500Y-85237273D01*
X93063207Y-85135413D01*
X93010480Y-85044087D01*
X93010478Y-85044085D01*
X93010477Y-85044083D01*
X92935916Y-84969522D01*
X92935913Y-84969520D01*
X92844587Y-84916793D01*
X92844585Y-84916792D01*
X92742728Y-84889500D01*
X92742727Y-84889500D01*
X92637273Y-84889500D01*
X92637271Y-84889500D01*
X92535414Y-84916792D01*
X92535413Y-84916793D01*
X92444083Y-84969522D01*
X92369522Y-85044083D01*
X92316793Y-85135413D01*
X92316792Y-85135414D01*
X92289500Y-85237271D01*
X90930978Y-85237271D01*
X89316953Y-83623246D01*
X89316953Y-83623245D01*
X89278836Y-83585128D01*
X89264248Y-83579086D01*
X89229034Y-83564499D01*
X89175128Y-83564499D01*
X89168262Y-83564499D01*
X89168254Y-83564500D01*
X88980393Y-83564500D01*
X88938674Y-83547219D01*
X88922527Y-83517010D01*
X88904359Y-83425676D01*
X88904358Y-83425675D01*
X88904357Y-83425666D01*
X88833461Y-83254506D01*
X88730534Y-83100466D01*
X88730531Y-83100463D01*
X88730529Y-83100460D01*
X88599539Y-82969470D01*
X88599535Y-82969467D01*
X88599534Y-82969466D01*
X88445494Y-82866539D01*
X88445493Y-82866538D01*
X88445491Y-82866537D01*
X88274336Y-82795644D01*
X88274337Y-82795644D01*
X88274334Y-82795643D01*
X88274330Y-82795642D01*
X88274323Y-82795640D01*
X88092634Y-82759500D01*
X88092631Y-82759500D01*
X87907369Y-82759500D01*
X87907366Y-82759500D01*
X87725676Y-82795640D01*
X87725663Y-82795644D01*
X87554508Y-82866537D01*
X87400460Y-82969470D01*
X87269470Y-83100460D01*
X87166537Y-83254508D01*
X87095644Y-83425663D01*
X87095640Y-83425676D01*
X87059500Y-83607365D01*
X87059500Y-83792634D01*
X87095640Y-83974323D01*
X87095644Y-83974336D01*
X87166537Y-84145491D01*
X87166538Y-84145493D01*
X87166539Y-84145494D01*
X87269466Y-84299534D01*
X87269467Y-84299535D01*
X87269470Y-84299539D01*
X87400460Y-84430529D01*
X87400463Y-84430531D01*
X87400466Y-84430534D01*
X87554506Y-84533461D01*
X87725666Y-84604357D01*
X87907365Y-84640499D01*
X87907366Y-84640500D01*
X87907369Y-84640500D01*
X88092634Y-84640500D01*
X88092634Y-84640499D01*
X88274334Y-84604357D01*
X88445494Y-84533461D01*
X88599534Y-84430534D01*
X88730534Y-84299534D01*
X88833461Y-84145494D01*
X88904357Y-83974334D01*
X88922527Y-83882990D01*
X88947614Y-83845443D01*
X88980393Y-83835500D01*
X89121517Y-83835500D01*
X89163236Y-83852781D01*
X100689849Y-95379394D01*
X100707130Y-95421113D01*
X100707130Y-95916289D01*
X100689849Y-95958008D01*
X100648130Y-95975289D01*
X100618631Y-95967385D01*
X100597269Y-95955052D01*
X100597267Y-95955051D01*
X100514484Y-95932870D01*
X100514483Y-95932870D01*
X100428777Y-95932870D01*
X100428775Y-95932870D01*
X100345993Y-95955051D01*
X100271764Y-95997907D01*
X100211167Y-96058504D01*
X100168311Y-96132733D01*
X100146130Y-96215515D01*
X100146130Y-96215517D01*
X100146130Y-96301223D01*
X100156549Y-96340106D01*
X100150654Y-96384877D01*
X100141278Y-96397095D01*
X99646365Y-96892007D01*
X99646356Y-96892016D01*
X99645139Y-96893234D01*
X99645138Y-96893235D01*
X99607021Y-96931352D01*
X99607021Y-96931353D01*
X99603215Y-96940538D01*
X99603214Y-96940541D01*
X99586392Y-96981153D01*
X99586392Y-97041925D01*
X99586393Y-97041934D01*
X99586393Y-97161529D01*
X99569112Y-97203248D01*
X99527393Y-97220529D01*
X99497893Y-97212625D01*
X99435636Y-97176681D01*
X99352854Y-97154500D01*
X99352853Y-97154500D01*
X99267147Y-97154500D01*
X99267145Y-97154500D01*
X99184363Y-97176681D01*
X99110134Y-97219537D01*
X99049537Y-97280134D01*
X99006681Y-97354363D01*
X98984500Y-97437145D01*
X98984500Y-97522854D01*
X99000376Y-97582106D01*
X99006682Y-97605638D01*
X99033892Y-97652768D01*
X99049537Y-97679865D01*
X99110134Y-97740462D01*
X99110136Y-97740463D01*
X99110138Y-97740465D01*
X99184362Y-97783318D01*
X99267147Y-97805500D01*
X99352853Y-97805500D01*
X99435638Y-97783318D01*
X99497893Y-97747374D01*
X99542663Y-97741480D01*
X99578488Y-97768970D01*
X99586393Y-97798470D01*
X99586393Y-99309151D01*
X99586392Y-99309154D01*
X99586392Y-99363060D01*
X99593487Y-99380188D01*
X99596615Y-99387741D01*
X99596616Y-99387743D01*
X99607020Y-99412860D01*
X99607021Y-99412862D01*
X99645138Y-99450979D01*
X99653436Y-99459277D01*
X99653439Y-99459279D01*
X99762540Y-99568380D01*
X99764733Y-99573676D01*
X99769534Y-99576812D01*
X99771982Y-99591175D01*
X99779821Y-99610099D01*
X99778804Y-99621007D01*
X99778388Y-99623215D01*
X99767393Y-99664254D01*
X99767393Y-99681662D01*
X99766376Y-99687068D01*
X99756806Y-99701716D01*
X99750112Y-99717879D01*
X99744815Y-99720072D01*
X99741680Y-99724873D01*
X99724556Y-99728464D01*
X99708393Y-99735160D01*
X99696483Y-99735160D01*
X99657601Y-99745578D01*
X99649696Y-99744537D01*
X99642332Y-99747588D01*
X99628102Y-99741693D01*
X99612831Y-99739683D01*
X99600613Y-99730307D01*
X99581405Y-99711099D01*
X99581401Y-99711093D01*
X99534989Y-99664681D01*
X99534986Y-99664679D01*
X99520402Y-99658639D01*
X99520398Y-99658638D01*
X99485186Y-99644052D01*
X99431280Y-99644052D01*
X99424414Y-99644052D01*
X99424406Y-99644053D01*
X99342559Y-99644053D01*
X99300840Y-99626772D01*
X99283559Y-99585053D01*
X99291463Y-99555553D01*
X99292696Y-99553416D01*
X99292698Y-99553415D01*
X99335551Y-99479191D01*
X99357733Y-99396406D01*
X99357733Y-99310700D01*
X99335551Y-99227915D01*
X99292698Y-99153691D01*
X99292696Y-99153689D01*
X99292695Y-99153687D01*
X99232098Y-99093090D01*
X99229342Y-99091499D01*
X99157871Y-99050235D01*
X99157870Y-99050234D01*
X99157869Y-99050234D01*
X99075087Y-99028053D01*
X99075086Y-99028053D01*
X98989380Y-99028053D01*
X98989378Y-99028053D01*
X98906595Y-99050234D01*
X98906594Y-99050235D01*
X98830232Y-99094322D01*
X98785462Y-99100215D01*
X98749637Y-99072725D01*
X98741733Y-99043226D01*
X98741733Y-98895680D01*
X98741733Y-98885643D01*
X98741734Y-98885641D01*
X98741734Y-98831735D01*
X98732420Y-98809250D01*
X98731512Y-98800821D01*
X98735663Y-98786670D01*
X98735663Y-98771923D01*
X98741785Y-98765800D01*
X98744223Y-98757490D01*
X98757165Y-98750419D01*
X98767593Y-98739991D01*
X98781210Y-98737282D01*
X98783851Y-98735840D01*
X98785714Y-98736386D01*
X98790172Y-98735500D01*
X98802853Y-98735500D01*
X98885638Y-98713318D01*
X98959862Y-98670465D01*
X99020465Y-98609862D01*
X99063318Y-98535638D01*
X99085500Y-98452853D01*
X99085500Y-98367147D01*
X99063318Y-98284362D01*
X99020465Y-98210138D01*
X99020463Y-98210136D01*
X99020462Y-98210134D01*
X98959865Y-98149537D01*
X98890579Y-98109535D01*
X98885638Y-98106682D01*
X98885637Y-98106681D01*
X98885636Y-98106681D01*
X98802854Y-98084500D01*
X98802853Y-98084500D01*
X98717147Y-98084500D01*
X98717145Y-98084500D01*
X98634363Y-98106681D01*
X98560134Y-98149537D01*
X98499537Y-98210134D01*
X98456680Y-98284365D01*
X98456679Y-98284367D01*
X98433859Y-98369532D01*
X98406369Y-98405357D01*
X98361599Y-98411250D01*
X98335151Y-98395980D01*
X96176316Y-96237145D01*
X98324500Y-96237145D01*
X98324500Y-96322854D01*
X98344392Y-96397095D01*
X98346682Y-96405638D01*
X98381431Y-96465826D01*
X98389537Y-96479865D01*
X98450134Y-96540462D01*
X98450136Y-96540463D01*
X98450138Y-96540465D01*
X98524362Y-96583318D01*
X98607147Y-96605500D01*
X98692853Y-96605500D01*
X98775638Y-96583318D01*
X98836529Y-96548163D01*
X98881299Y-96542268D01*
X98917124Y-96569758D01*
X98923794Y-96603280D01*
X98924500Y-96603280D01*
X98924500Y-96606826D01*
X98924525Y-96606952D01*
X98924500Y-96607142D01*
X98924500Y-96692854D01*
X98929076Y-96709933D01*
X98946682Y-96775638D01*
X98987011Y-96845491D01*
X98989537Y-96849865D01*
X99050134Y-96910462D01*
X99050136Y-96910463D01*
X99050138Y-96910465D01*
X99124362Y-96953318D01*
X99207147Y-96975500D01*
X99292853Y-96975500D01*
X99375638Y-96953318D01*
X99449862Y-96910465D01*
X99510465Y-96849862D01*
X99553318Y-96775638D01*
X99575500Y-96692853D01*
X99575500Y-96607147D01*
X99553318Y-96524362D01*
X99510465Y-96450138D01*
X99510463Y-96450136D01*
X99510462Y-96450134D01*
X99449865Y-96389537D01*
X99446735Y-96387730D01*
X99375638Y-96346682D01*
X99375637Y-96346681D01*
X99375636Y-96346681D01*
X99292854Y-96324500D01*
X99292853Y-96324500D01*
X99207147Y-96324500D01*
X99207145Y-96324500D01*
X99124362Y-96346681D01*
X99124361Y-96346682D01*
X99063469Y-96381837D01*
X99018699Y-96387730D01*
X98982874Y-96360240D01*
X98976209Y-96326720D01*
X98975500Y-96326720D01*
X98975500Y-96323151D01*
X98975476Y-96323031D01*
X98975498Y-96322857D01*
X98975500Y-96322853D01*
X98975500Y-96237147D01*
X98953318Y-96154362D01*
X98910465Y-96080138D01*
X98910463Y-96080136D01*
X98910462Y-96080134D01*
X98849865Y-96019537D01*
X98815854Y-95999901D01*
X98775638Y-95976682D01*
X98775637Y-95976681D01*
X98775636Y-95976681D01*
X98692854Y-95954500D01*
X98692853Y-95954500D01*
X98607147Y-95954500D01*
X98607145Y-95954500D01*
X98524363Y-95976681D01*
X98450134Y-96019537D01*
X98389537Y-96080134D01*
X98346681Y-96154363D01*
X98324500Y-96237145D01*
X96176316Y-96237145D01*
X94136316Y-94197145D01*
X95324500Y-94197145D01*
X95324500Y-94282854D01*
X95346681Y-94365636D01*
X95389537Y-94439865D01*
X95450134Y-94500462D01*
X95450136Y-94500463D01*
X95450138Y-94500465D01*
X95524362Y-94543318D01*
X95607147Y-94565500D01*
X95692853Y-94565500D01*
X95775638Y-94543318D01*
X95849862Y-94500465D01*
X95910465Y-94439862D01*
X95953318Y-94365638D01*
X95975500Y-94282853D01*
X95975500Y-94197147D01*
X95953318Y-94114362D01*
X95910465Y-94040138D01*
X95910463Y-94040136D01*
X95910462Y-94040134D01*
X95849865Y-93979537D01*
X95803267Y-93952634D01*
X95775638Y-93936682D01*
X95775637Y-93936681D01*
X95775636Y-93936681D01*
X95692854Y-93914500D01*
X95692853Y-93914500D01*
X95607147Y-93914500D01*
X95607145Y-93914500D01*
X95524363Y-93936681D01*
X95450134Y-93979537D01*
X95389537Y-94040134D01*
X95346681Y-94114363D01*
X95324500Y-94197145D01*
X94136316Y-94197145D01*
X93456316Y-93517145D01*
X94784500Y-93517145D01*
X94784500Y-93602854D01*
X94806681Y-93685636D01*
X94849537Y-93759865D01*
X94910134Y-93820462D01*
X94910136Y-93820463D01*
X94910138Y-93820465D01*
X94984362Y-93863318D01*
X95067147Y-93885500D01*
X95152853Y-93885500D01*
X95235638Y-93863318D01*
X95309862Y-93820465D01*
X95370465Y-93759862D01*
X95413318Y-93685638D01*
X95435500Y-93602853D01*
X95435500Y-93517147D01*
X95413318Y-93434362D01*
X95370465Y-93360138D01*
X95370463Y-93360136D01*
X95370462Y-93360134D01*
X95309865Y-93299537D01*
X95242181Y-93260460D01*
X95235638Y-93256682D01*
X95235637Y-93256681D01*
X95235636Y-93256681D01*
X95152854Y-93234500D01*
X95152853Y-93234500D01*
X95067147Y-93234500D01*
X95067145Y-93234500D01*
X94984363Y-93256681D01*
X94910134Y-93299537D01*
X94849537Y-93360134D01*
X94806681Y-93434363D01*
X94784500Y-93517145D01*
X93456316Y-93517145D01*
X92456442Y-92517271D01*
X95709500Y-92517271D01*
X95709500Y-92517272D01*
X95709500Y-92517273D01*
X95709500Y-92622727D01*
X95736793Y-92724587D01*
X95789520Y-92815913D01*
X95789522Y-92815916D01*
X95864083Y-92890477D01*
X95864085Y-92890478D01*
X95864087Y-92890480D01*
X95955413Y-92943207D01*
X96057273Y-92970500D01*
X96162727Y-92970500D01*
X96264587Y-92943207D01*
X96355913Y-92890480D01*
X96430480Y-92815913D01*
X96483207Y-92724587D01*
X96510500Y-92622727D01*
X96510500Y-92517273D01*
X96483207Y-92415413D01*
X96430480Y-92324087D01*
X96430478Y-92324085D01*
X96430477Y-92324083D01*
X96355916Y-92249522D01*
X96355913Y-92249520D01*
X96264587Y-92196793D01*
X96264585Y-92196792D01*
X96162728Y-92169500D01*
X96162727Y-92169500D01*
X96057273Y-92169500D01*
X96057271Y-92169500D01*
X95955414Y-92196792D01*
X95955413Y-92196793D01*
X95864083Y-92249522D01*
X95789522Y-92324083D01*
X95736793Y-92415413D01*
X95736792Y-92415414D01*
X95709500Y-92517271D01*
X92456442Y-92517271D01*
X90172781Y-90233610D01*
X90155500Y-90191891D01*
X90155500Y-87843827D01*
X90155501Y-87843818D01*
X90155501Y-87783047D01*
X90134872Y-87733246D01*
X90134872Y-87733245D01*
X90096755Y-87695128D01*
X90096753Y-87695127D01*
X89633172Y-87231546D01*
X89633171Y-87231544D01*
X89624872Y-87223245D01*
X89586755Y-87185128D01*
X89575582Y-87180500D01*
X89568663Y-87177634D01*
X89568662Y-87177633D01*
X89561608Y-87174712D01*
X89536953Y-87164499D01*
X89483047Y-87164499D01*
X89483045Y-87164500D01*
X89140564Y-87164500D01*
X89098845Y-87147219D01*
X88789055Y-86837429D01*
X88771774Y-86795710D01*
X88781718Y-86762931D01*
X88833461Y-86685494D01*
X88904357Y-86514334D01*
X88940499Y-86332634D01*
X88940500Y-86332634D01*
X88940500Y-86147366D01*
X88940499Y-86147365D01*
X88918190Y-86035212D01*
X88904357Y-85965666D01*
X88833461Y-85794506D01*
X88730534Y-85640466D01*
X88730531Y-85640463D01*
X88730529Y-85640460D01*
X88599539Y-85509470D01*
X88599535Y-85509467D01*
X88599534Y-85509466D01*
X88445494Y-85406539D01*
X88445493Y-85406538D01*
X88445491Y-85406537D01*
X88274336Y-85335644D01*
X88274337Y-85335644D01*
X88274334Y-85335643D01*
X88274330Y-85335642D01*
X88274323Y-85335640D01*
X88092634Y-85299500D01*
X88092631Y-85299500D01*
X87907369Y-85299500D01*
X87907366Y-85299500D01*
X87725676Y-85335640D01*
X87725663Y-85335644D01*
X87554508Y-85406537D01*
X87400460Y-85509470D01*
X87269470Y-85640460D01*
X87166537Y-85794508D01*
X87095644Y-85965663D01*
X87095640Y-85965676D01*
X87059500Y-86147365D01*
X87059500Y-86332634D01*
X87095640Y-86514323D01*
X87095644Y-86514336D01*
X87166537Y-86685491D01*
X87166538Y-86685493D01*
X87166539Y-86685494D01*
X87269466Y-86839534D01*
X87269467Y-86839535D01*
X87269470Y-86839539D01*
X87400460Y-86970529D01*
X87400463Y-86970531D01*
X87400466Y-86970534D01*
X87554506Y-87073461D01*
X87725666Y-87144357D01*
X87907365Y-87180499D01*
X87907366Y-87180500D01*
X87907369Y-87180500D01*
X88092634Y-87180500D01*
X88092634Y-87180499D01*
X88274334Y-87144357D01*
X88445494Y-87073461D01*
X88522931Y-87021717D01*
X88567219Y-87012907D01*
X88597429Y-87029055D01*
X88941762Y-87373388D01*
X88941765Y-87373392D01*
X88945128Y-87376755D01*
X88983245Y-87414872D01*
X89014650Y-87427880D01*
X89033044Y-87435499D01*
X89033045Y-87435499D01*
X89033047Y-87435500D01*
X89429436Y-87435500D01*
X89471155Y-87452781D01*
X89867219Y-87848845D01*
X89884500Y-87890564D01*
X89884500Y-90245499D01*
X89884499Y-90245502D01*
X89884499Y-90299408D01*
X89899086Y-90334622D01*
X89901696Y-90340924D01*
X89901697Y-90340928D01*
X89905126Y-90349208D01*
X89905128Y-90349211D01*
X89951540Y-90395623D01*
X89951546Y-90395627D01*
X98453452Y-98897533D01*
X98470733Y-98939252D01*
X98470733Y-99101654D01*
X98453452Y-99143373D01*
X98411733Y-99160654D01*
X98370014Y-99143373D01*
X98322553Y-99095912D01*
X98317708Y-99093115D01*
X98248326Y-99053057D01*
X98248325Y-99053056D01*
X98248324Y-99053056D01*
X98165542Y-99030875D01*
X98165541Y-99030875D01*
X98079835Y-99030875D01*
X98079833Y-99030875D01*
X97997051Y-99053056D01*
X97922824Y-99095911D01*
X97860557Y-99158178D01*
X97818838Y-99175458D01*
X97803568Y-99173448D01*
X97732854Y-99154500D01*
X97732853Y-99154500D01*
X97647147Y-99154500D01*
X97647145Y-99154500D01*
X97564363Y-99176681D01*
X97490134Y-99219537D01*
X97429537Y-99280134D01*
X97386681Y-99354363D01*
X97364500Y-99437145D01*
X97364500Y-99522854D01*
X97383831Y-99595000D01*
X97386682Y-99605638D01*
X97420770Y-99664681D01*
X97429537Y-99679865D01*
X97490134Y-99740462D01*
X97490136Y-99740463D01*
X97490138Y-99740465D01*
X97564362Y-99783318D01*
X97647147Y-99805500D01*
X97732853Y-99805500D01*
X97815638Y-99783318D01*
X97889862Y-99740465D01*
X97950465Y-99679862D01*
X97950466Y-99679859D01*
X97952129Y-99678197D01*
X97993849Y-99660916D01*
X98009120Y-99662927D01*
X98079828Y-99681874D01*
X98079835Y-99681875D01*
X98165541Y-99681875D01*
X98248326Y-99659693D01*
X98322550Y-99616840D01*
X98382431Y-99556958D01*
X98393272Y-99552467D01*
X98401570Y-99544170D01*
X98413306Y-99544169D01*
X98424150Y-99539678D01*
X98434991Y-99544168D01*
X98446727Y-99544168D01*
X98455026Y-99552466D01*
X98465869Y-99556958D01*
X98478658Y-99576098D01*
X98484218Y-99589520D01*
X98491359Y-99606760D01*
X98491360Y-99606761D01*
X98491361Y-99606763D01*
X98529478Y-99644880D01*
X98537776Y-99653178D01*
X98537779Y-99653180D01*
X98740905Y-99856306D01*
X98740906Y-99856308D01*
X98779023Y-99894425D01*
X98793610Y-99900466D01*
X98828825Y-99915054D01*
X98828826Y-99915054D01*
X98889597Y-99915054D01*
X98889605Y-99915053D01*
X99364482Y-99915053D01*
X99369380Y-99917081D01*
X99374552Y-99915919D01*
X99389670Y-99925486D01*
X99406201Y-99932334D01*
X99408229Y-99937231D01*
X99412710Y-99940067D01*
X99415198Y-99954054D01*
X99423482Y-99974053D01*
X99422616Y-99984123D01*
X99422160Y-99986752D01*
X99413840Y-100017807D01*
X99413840Y-100034784D01*
X99412974Y-100039784D01*
X99403406Y-100054902D01*
X99396559Y-100071433D01*
X99391661Y-100073461D01*
X99388826Y-100077942D01*
X99371369Y-100081867D01*
X99354840Y-100088714D01*
X99342931Y-100088714D01*
X99260149Y-100110895D01*
X99185920Y-100153751D01*
X99125322Y-100214350D01*
X99125320Y-100214352D01*
X99083327Y-100287086D01*
X99047502Y-100314576D01*
X99002732Y-100308681D01*
X98981137Y-100287087D01*
X98939144Y-100214352D01*
X98939142Y-100214350D01*
X98939141Y-100214348D01*
X98878544Y-100153751D01*
X98844668Y-100134193D01*
X98804317Y-100110896D01*
X98804316Y-100110895D01*
X98804315Y-100110895D01*
X98721533Y-100088714D01*
X98721532Y-100088714D01*
X98635826Y-100088714D01*
X98635824Y-100088714D01*
X98553042Y-100110895D01*
X98478813Y-100153751D01*
X98418216Y-100214348D01*
X98375360Y-100288577D01*
X98353179Y-100371359D01*
X98353179Y-100383267D01*
X98335898Y-100424986D01*
X98294179Y-100442267D01*
X98282271Y-100442267D01*
X98199489Y-100464448D01*
X98125260Y-100507304D01*
X98064663Y-100567901D01*
X98021807Y-100642130D01*
X97999626Y-100724912D01*
X97999626Y-100810621D01*
X98013086Y-100860857D01*
X98021808Y-100893405D01*
X98038004Y-100921458D01*
X98064663Y-100967632D01*
X98125260Y-101028229D01*
X98125262Y-101028230D01*
X98125264Y-101028232D01*
X98199488Y-101071085D01*
X98282273Y-101093267D01*
X98294179Y-101093267D01*
X98335898Y-101110548D01*
X98353179Y-101152267D01*
X98353179Y-101164174D01*
X98375360Y-101246956D01*
X98418216Y-101321185D01*
X98478813Y-101381782D01*
X98478815Y-101381783D01*
X98478817Y-101381785D01*
X98553041Y-101424638D01*
X98635826Y-101446820D01*
X98721532Y-101446820D01*
X98804317Y-101424638D01*
X98878541Y-101381785D01*
X98939144Y-101321182D01*
X98981997Y-101246958D01*
X99004179Y-101164173D01*
X99004179Y-101152267D01*
X99021460Y-101110548D01*
X99063179Y-101093267D01*
X99075086Y-101093267D01*
X99157871Y-101071085D01*
X99232095Y-101028232D01*
X99292698Y-100967629D01*
X99335551Y-100893405D01*
X99357733Y-100810620D01*
X99357733Y-100798714D01*
X99375014Y-100756995D01*
X99416733Y-100739714D01*
X99428639Y-100739714D01*
X99511424Y-100717532D01*
X99585648Y-100674679D01*
X99646251Y-100614076D01*
X99689104Y-100539852D01*
X99695290Y-100516763D01*
X99722778Y-100480938D01*
X99767548Y-100475042D01*
X99803374Y-100502530D01*
X99809269Y-100516760D01*
X99812870Y-100530198D01*
X99812870Y-100530199D01*
X99812871Y-100530201D01*
X99812872Y-100530203D01*
X99852303Y-100598500D01*
X99852435Y-100598728D01*
X99908378Y-100654671D01*
X99908380Y-100654672D01*
X99908382Y-100654674D01*
X99976904Y-100694235D01*
X99976906Y-100694235D01*
X99976907Y-100694236D01*
X99982893Y-100695840D01*
X99990340Y-100697835D01*
X100026166Y-100725323D01*
X100032062Y-100770093D01*
X100004574Y-100805919D01*
X99990344Y-100811814D01*
X99967259Y-100818000D01*
X99967258Y-100818000D01*
X99893027Y-100860857D01*
X99832430Y-100921454D01*
X99789574Y-100995683D01*
X99767393Y-101078465D01*
X99767393Y-101164174D01*
X99789574Y-101246956D01*
X99832430Y-101321185D01*
X99893027Y-101381782D01*
X99893029Y-101381783D01*
X99893031Y-101381785D01*
X99965766Y-101423778D01*
X99993255Y-101459602D01*
X99987361Y-101504373D01*
X99965765Y-101525968D01*
X99893031Y-101567961D01*
X99893029Y-101567963D01*
X99832430Y-101628561D01*
X99789574Y-101702790D01*
X99767393Y-101785572D01*
X99767393Y-101871281D01*
X99786972Y-101944353D01*
X99789575Y-101954065D01*
X99801293Y-101974362D01*
X99832430Y-102028292D01*
X99893027Y-102088889D01*
X99893029Y-102088890D01*
X99893031Y-102088892D01*
X99967255Y-102131745D01*
X100050040Y-102153927D01*
X100061946Y-102153927D01*
X100103665Y-102171208D01*
X100120946Y-102212927D01*
X100120946Y-102224835D01*
X100142255Y-102304363D01*
X100143128Y-102307619D01*
X100181059Y-102373318D01*
X100187915Y-102385192D01*
X100186190Y-102386187D01*
X100195946Y-102414857D01*
X100195946Y-107756569D01*
X100178665Y-107798288D01*
X100136946Y-107815569D01*
X100095227Y-107798288D01*
X100085851Y-107786070D01*
X100050467Y-107724785D01*
X99985214Y-107659532D01*
X99985211Y-107659530D01*
X99905290Y-107613387D01*
X99905287Y-107613385D01*
X99853819Y-107599594D01*
X99816144Y-107589500D01*
X99723856Y-107589500D01*
X99705196Y-107594500D01*
X99634712Y-107613385D01*
X99634709Y-107613387D01*
X99554788Y-107659530D01*
X99489530Y-107724788D01*
X99443387Y-107804709D01*
X99443385Y-107804712D01*
X99424547Y-107875018D01*
X99419500Y-107893856D01*
X99419500Y-107986144D01*
X99429594Y-108023819D01*
X99443385Y-108075287D01*
X99443387Y-108075290D01*
X99489530Y-108155211D01*
X99489532Y-108155214D01*
X99554786Y-108220468D01*
X99554788Y-108220469D01*
X99634712Y-108266614D01*
X99723856Y-108290500D01*
X99723860Y-108290500D01*
X99816140Y-108290500D01*
X99816144Y-108290500D01*
X99905288Y-108266614D01*
X99985212Y-108220469D01*
X99985212Y-108220468D01*
X99985214Y-108220468D01*
X100050468Y-108155214D01*
X100050469Y-108155212D01*
X100085851Y-108093930D01*
X100121676Y-108066440D01*
X100166446Y-108072335D01*
X100193936Y-108108160D01*
X100195946Y-108123430D01*
X100195946Y-115684490D01*
X100195945Y-115684493D01*
X100195945Y-115738399D01*
X100210532Y-115773613D01*
X100213142Y-115779915D01*
X100213143Y-115779919D01*
X100216572Y-115788199D01*
X100216574Y-115788202D01*
X100262986Y-115834614D01*
X100262992Y-115834618D01*
X110710943Y-126282569D01*
X110728224Y-126324288D01*
X110718281Y-126357066D01*
X110666539Y-126434504D01*
X110666538Y-126434506D01*
X110595644Y-126605663D01*
X110595640Y-126605676D01*
X110559500Y-126787365D01*
X110559500Y-126972634D01*
X110595640Y-127154323D01*
X110595645Y-127154340D01*
X110609174Y-127187003D01*
X110609173Y-127232159D01*
X110577242Y-127264089D01*
X110532086Y-127264088D01*
X110512946Y-127251299D01*
X98302781Y-115041134D01*
X98285500Y-114999415D01*
X98285500Y-104427748D01*
X98302781Y-104386029D01*
X98344500Y-104368748D01*
X98386219Y-104386029D01*
X98391311Y-104391835D01*
X98393011Y-104394051D01*
X98453606Y-104454646D01*
X98453608Y-104454647D01*
X98453610Y-104454649D01*
X98527834Y-104497502D01*
X98610619Y-104519684D01*
X98696325Y-104519684D01*
X98779110Y-104497502D01*
X98808414Y-104480582D01*
X98853182Y-104474688D01*
X98879633Y-104489960D01*
X98900134Y-104510462D01*
X98900136Y-104510463D01*
X98900138Y-104510465D01*
X98974362Y-104553318D01*
X99057147Y-104575500D01*
X99142853Y-104575500D01*
X99225638Y-104553318D01*
X99299862Y-104510465D01*
X99360465Y-104449862D01*
X99403318Y-104375638D01*
X99425500Y-104292853D01*
X99425500Y-104207147D01*
X99403318Y-104124362D01*
X99360465Y-104050138D01*
X99360463Y-104050136D01*
X99360462Y-104050134D01*
X99299865Y-103989537D01*
X99294147Y-103986236D01*
X99225638Y-103946682D01*
X99225637Y-103946681D01*
X99225636Y-103946681D01*
X99142854Y-103924500D01*
X99142853Y-103924500D01*
X99057147Y-103924500D01*
X99057145Y-103924500D01*
X98974363Y-103946681D01*
X98974358Y-103946683D01*
X98945057Y-103963600D01*
X98900286Y-103969493D01*
X98873839Y-103954223D01*
X98853337Y-103933721D01*
X98848747Y-103931071D01*
X98779110Y-103890866D01*
X98779109Y-103890865D01*
X98779108Y-103890865D01*
X98696326Y-103868684D01*
X98696325Y-103868684D01*
X98610619Y-103868684D01*
X98610617Y-103868684D01*
X98527835Y-103890865D01*
X98453606Y-103933721D01*
X98393009Y-103994318D01*
X98391308Y-103996536D01*
X98352201Y-104019114D01*
X98308583Y-104007427D01*
X98286005Y-103968320D01*
X98285500Y-103960619D01*
X98285500Y-102750563D01*
X98302780Y-102708845D01*
X98456753Y-102554872D01*
X98456755Y-102554872D01*
X98494872Y-102516755D01*
X98495886Y-102514304D01*
X98501623Y-102508396D01*
X98517792Y-102501416D01*
X98532435Y-102491629D01*
X98537934Y-102492722D01*
X98543082Y-102490500D01*
X98559453Y-102496999D01*
X98576725Y-102500433D01*
X98580155Y-102505218D01*
X98585052Y-102507163D01*
X98590356Y-102519452D01*
X98600944Y-102534224D01*
X98606545Y-102555129D01*
X98606682Y-102555638D01*
X98611212Y-102563485D01*
X98649537Y-102629865D01*
X98677594Y-102657922D01*
X98694875Y-102699641D01*
X98677594Y-102741360D01*
X98665378Y-102750735D01*
X98650135Y-102759536D01*
X98589537Y-102820134D01*
X98546681Y-102894363D01*
X98524500Y-102977145D01*
X98524500Y-103062854D01*
X98546681Y-103145636D01*
X98589537Y-103219865D01*
X98650134Y-103280462D01*
X98650136Y-103280463D01*
X98650138Y-103280465D01*
X98724362Y-103323318D01*
X98807147Y-103345500D01*
X98892849Y-103345500D01*
X98892853Y-103345500D01*
X98922992Y-103337424D01*
X98967761Y-103343317D01*
X98989355Y-103364910D01*
X99003573Y-103389535D01*
X99009537Y-103399865D01*
X99070134Y-103460462D01*
X99070136Y-103460463D01*
X99070138Y-103460465D01*
X99144362Y-103503318D01*
X99227147Y-103525500D01*
X99312853Y-103525500D01*
X99395638Y-103503318D01*
X99469862Y-103460465D01*
X99530465Y-103399862D01*
X99573318Y-103325638D01*
X99595500Y-103242853D01*
X99595500Y-103157147D01*
X99573318Y-103074362D01*
X99530465Y-103000138D01*
X99530463Y-103000136D01*
X99530462Y-103000134D01*
X99469865Y-102939537D01*
X99418944Y-102910138D01*
X99395638Y-102896682D01*
X99395637Y-102896681D01*
X99395636Y-102896681D01*
X99312854Y-102874500D01*
X99312853Y-102874500D01*
X99227147Y-102874500D01*
X99227143Y-102874500D01*
X99197006Y-102882575D01*
X99185345Y-102881039D01*
X99173982Y-102884073D01*
X99165549Y-102878433D01*
X99152236Y-102876680D01*
X99134896Y-102861459D01*
X99132563Y-102858412D01*
X99110465Y-102820138D01*
X99079651Y-102789324D01*
X99077283Y-102786232D01*
X99072387Y-102767892D01*
X99065124Y-102750358D01*
X99066694Y-102746567D01*
X99065636Y-102742603D01*
X99075142Y-102726172D01*
X99082405Y-102708639D01*
X99087587Y-102704661D01*
X99088250Y-102703517D01*
X99089521Y-102703177D01*
X99094620Y-102699264D01*
X99109862Y-102690465D01*
X99170465Y-102629862D01*
X99213318Y-102555638D01*
X99235500Y-102472853D01*
X99235500Y-102387147D01*
X99213318Y-102304362D01*
X99170465Y-102230138D01*
X99170463Y-102230136D01*
X99170462Y-102230134D01*
X99109865Y-102169537D01*
X99074988Y-102149401D01*
X99035638Y-102126682D01*
X99035637Y-102126681D01*
X99035636Y-102126681D01*
X98952854Y-102104500D01*
X98952853Y-102104500D01*
X98867147Y-102104500D01*
X98867145Y-102104500D01*
X98780626Y-102127683D01*
X98780058Y-102125564D01*
X98741891Y-102125543D01*
X98709978Y-102093595D01*
X98705500Y-102071047D01*
X98705500Y-102057146D01*
X98705499Y-102057145D01*
X98698618Y-102031465D01*
X98683318Y-101974362D01*
X98640465Y-101900138D01*
X98640463Y-101900136D01*
X98640462Y-101900134D01*
X98579865Y-101839537D01*
X98541964Y-101817655D01*
X98505638Y-101796682D01*
X98505637Y-101796681D01*
X98505636Y-101796681D01*
X98422854Y-101774500D01*
X98422853Y-101774500D01*
X98337147Y-101774500D01*
X98337145Y-101774500D01*
X98254363Y-101796681D01*
X98180134Y-101839537D01*
X98119537Y-101900134D01*
X98076681Y-101974363D01*
X98054500Y-102057145D01*
X98054500Y-102142854D01*
X98076466Y-102224835D01*
X98076682Y-102225638D01*
X98102216Y-102269865D01*
X98119537Y-102299865D01*
X98182303Y-102362631D01*
X98199584Y-102404350D01*
X98182303Y-102446069D01*
X98126957Y-102501416D01*
X98073246Y-102555127D01*
X98073245Y-102555128D01*
X98035128Y-102593245D01*
X98035128Y-102593246D01*
X98014499Y-102643046D01*
X98014499Y-102703818D01*
X98014500Y-102703827D01*
X98014500Y-115053023D01*
X98014499Y-115053026D01*
X98014499Y-115106932D01*
X98028404Y-115140500D01*
X98035128Y-115156734D01*
X98073245Y-115194851D01*
X98081543Y-115203149D01*
X98081546Y-115203151D01*
X110931148Y-128052753D01*
X110931149Y-128052755D01*
X110969266Y-128090872D01*
X110983853Y-128096913D01*
X111019068Y-128111501D01*
X111019069Y-128111501D01*
X111079840Y-128111501D01*
X111079848Y-128111500D01*
X111920152Y-128111500D01*
X111920160Y-128111501D01*
X111927026Y-128111501D01*
X111980931Y-128111501D01*
X111980932Y-128111501D01*
X112016146Y-128096913D01*
X112030734Y-128090872D01*
X112068851Y-128052755D01*
X112068851Y-128052753D01*
X112664454Y-127457149D01*
X112664458Y-127457147D01*
X112672754Y-127448851D01*
X112672755Y-127448851D01*
X112710872Y-127410734D01*
X112716913Y-127396146D01*
X112731501Y-127360932D01*
X112731501Y-127307026D01*
X112731501Y-127302277D01*
X112731500Y-127302263D01*
X112731500Y-115309827D01*
X112731501Y-115309818D01*
X112731501Y-115249047D01*
X112710872Y-115199246D01*
X112710872Y-115199245D01*
X112672755Y-115161128D01*
X112672753Y-115161127D01*
X112289055Y-114777429D01*
X112271774Y-114735710D01*
X112281718Y-114702931D01*
X112333461Y-114625494D01*
X112404357Y-114454334D01*
X112440499Y-114272634D01*
X112440500Y-114272634D01*
X112440500Y-114087366D01*
X112440499Y-114087365D01*
X112404359Y-113905676D01*
X112404358Y-113905675D01*
X112404357Y-113905666D01*
X112333461Y-113734506D01*
X112230534Y-113580466D01*
X112230531Y-113580463D01*
X112230529Y-113580460D01*
X112099539Y-113449470D01*
X112099535Y-113449467D01*
X112099534Y-113449466D01*
X111945494Y-113346539D01*
X111945493Y-113346538D01*
X111945491Y-113346537D01*
X111774336Y-113275644D01*
X111774337Y-113275644D01*
X111774334Y-113275643D01*
X111774330Y-113275642D01*
X111774323Y-113275640D01*
X111592634Y-113239500D01*
X111592631Y-113239500D01*
X111407369Y-113239500D01*
X111407366Y-113239500D01*
X111225676Y-113275640D01*
X111225663Y-113275644D01*
X111054508Y-113346537D01*
X110900460Y-113449470D01*
X110769470Y-113580460D01*
X110666537Y-113734508D01*
X110595644Y-113905663D01*
X110595640Y-113905676D01*
X110559500Y-114087365D01*
X110559500Y-114272634D01*
X110595640Y-114454323D01*
X110595644Y-114454336D01*
X110666537Y-114625491D01*
X110666538Y-114625493D01*
X110666539Y-114625494D01*
X110769466Y-114779534D01*
X110769467Y-114779535D01*
X110769470Y-114779539D01*
X110900460Y-114910529D01*
X110900463Y-114910531D01*
X110900466Y-114910534D01*
X111054506Y-115013461D01*
X111225666Y-115084357D01*
X111407365Y-115120499D01*
X111407366Y-115120500D01*
X111407369Y-115120500D01*
X111592634Y-115120500D01*
X111592634Y-115120499D01*
X111774334Y-115084357D01*
X111945494Y-115013461D01*
X112022931Y-114961717D01*
X112067219Y-114952907D01*
X112097429Y-114969055D01*
X112443219Y-115314845D01*
X112460500Y-115356564D01*
X112460500Y-116284592D01*
X112443219Y-116326311D01*
X112401500Y-116343592D01*
X112359781Y-116326311D01*
X112346991Y-116307170D01*
X112333462Y-116274508D01*
X112333461Y-116274506D01*
X112230534Y-116120466D01*
X112230531Y-116120463D01*
X112230529Y-116120460D01*
X112099539Y-115989470D01*
X112099535Y-115989467D01*
X112099534Y-115989466D01*
X111945494Y-115886539D01*
X111945493Y-115886538D01*
X111945491Y-115886537D01*
X111774336Y-115815644D01*
X111774337Y-115815644D01*
X111774334Y-115815643D01*
X111774330Y-115815642D01*
X111774323Y-115815640D01*
X111592634Y-115779500D01*
X111592631Y-115779500D01*
X111407369Y-115779500D01*
X111407366Y-115779500D01*
X111225676Y-115815640D01*
X111225663Y-115815644D01*
X111054508Y-115886537D01*
X110900460Y-115989470D01*
X110769470Y-116120460D01*
X110666537Y-116274508D01*
X110595644Y-116445663D01*
X110595640Y-116445676D01*
X110559500Y-116627365D01*
X110559500Y-116812634D01*
X110595640Y-116994323D01*
X110595644Y-116994336D01*
X110666537Y-117165491D01*
X110666538Y-117165493D01*
X110666539Y-117165494D01*
X110769466Y-117319534D01*
X110769467Y-117319535D01*
X110769470Y-117319539D01*
X110900460Y-117450529D01*
X110900463Y-117450531D01*
X110900466Y-117450534D01*
X111054506Y-117553461D01*
X111225666Y-117624357D01*
X111407365Y-117660499D01*
X111407366Y-117660500D01*
X111407369Y-117660500D01*
X111592634Y-117660500D01*
X111592634Y-117660499D01*
X111774334Y-117624357D01*
X111945494Y-117553461D01*
X112099534Y-117450534D01*
X112230534Y-117319534D01*
X112333461Y-117165494D01*
X112346991Y-117132828D01*
X112378921Y-117100898D01*
X112424078Y-117100898D01*
X112456009Y-117132828D01*
X112460500Y-117155407D01*
X112460500Y-118824592D01*
X112443219Y-118866311D01*
X112401500Y-118883592D01*
X112359781Y-118866311D01*
X112346991Y-118847170D01*
X112333462Y-118814508D01*
X112333461Y-118814506D01*
X112230534Y-118660466D01*
X112230531Y-118660463D01*
X112230529Y-118660460D01*
X112099539Y-118529470D01*
X112099535Y-118529467D01*
X112099534Y-118529466D01*
X111945494Y-118426539D01*
X111945493Y-118426538D01*
X111945491Y-118426537D01*
X111774336Y-118355644D01*
X111774337Y-118355644D01*
X111774334Y-118355643D01*
X111774330Y-118355642D01*
X111774323Y-118355640D01*
X111592634Y-118319500D01*
X111592631Y-118319500D01*
X111407369Y-118319500D01*
X111407366Y-118319500D01*
X111225676Y-118355640D01*
X111225663Y-118355644D01*
X111054508Y-118426537D01*
X110900460Y-118529470D01*
X110769470Y-118660460D01*
X110666537Y-118814508D01*
X110595644Y-118985663D01*
X110595640Y-118985676D01*
X110559500Y-119167365D01*
X110559500Y-119352634D01*
X110595640Y-119534323D01*
X110595644Y-119534336D01*
X110666537Y-119705491D01*
X110666538Y-119705493D01*
X110666539Y-119705494D01*
X110769466Y-119859534D01*
X110769467Y-119859535D01*
X110769470Y-119859539D01*
X110900460Y-119990529D01*
X110900463Y-119990531D01*
X110900466Y-119990534D01*
X111054506Y-120093461D01*
X111225666Y-120164357D01*
X111407365Y-120200499D01*
X111407366Y-120200500D01*
X111407369Y-120200500D01*
X111592634Y-120200500D01*
X111592634Y-120200499D01*
X111774334Y-120164357D01*
X111945494Y-120093461D01*
X112099534Y-119990534D01*
X112230534Y-119859534D01*
X112333461Y-119705494D01*
X112346991Y-119672828D01*
X112378921Y-119640898D01*
X112424078Y-119640898D01*
X112456009Y-119672828D01*
X112460500Y-119695407D01*
X112460500Y-121364592D01*
X112443219Y-121406311D01*
X112401500Y-121423592D01*
X112359781Y-121406311D01*
X112346991Y-121387170D01*
X112333462Y-121354508D01*
X112333461Y-121354506D01*
X112230534Y-121200466D01*
X112230531Y-121200463D01*
X112230529Y-121200460D01*
X112099539Y-121069470D01*
X112099535Y-121069467D01*
X112099534Y-121069466D01*
X111945494Y-120966539D01*
X111945493Y-120966538D01*
X111945491Y-120966537D01*
X111774336Y-120895644D01*
X111774337Y-120895644D01*
X111774334Y-120895643D01*
X111774330Y-120895642D01*
X111774323Y-120895640D01*
X111592634Y-120859500D01*
X111592631Y-120859500D01*
X111407369Y-120859500D01*
X111407366Y-120859500D01*
X111225676Y-120895640D01*
X111225663Y-120895644D01*
X111054506Y-120966538D01*
X111054504Y-120966539D01*
X110977066Y-121018281D01*
X110932777Y-121027090D01*
X110902569Y-121010943D01*
X105302781Y-115411155D01*
X105285500Y-115369436D01*
X105285500Y-111547365D01*
X110559500Y-111547365D01*
X110559500Y-111732634D01*
X110595640Y-111914323D01*
X110595644Y-111914336D01*
X110666537Y-112085491D01*
X110666538Y-112085493D01*
X110666539Y-112085494D01*
X110769466Y-112239534D01*
X110769467Y-112239535D01*
X110769470Y-112239539D01*
X110900460Y-112370529D01*
X110900463Y-112370531D01*
X110900466Y-112370534D01*
X111054506Y-112473461D01*
X111225666Y-112544357D01*
X111407365Y-112580499D01*
X111407366Y-112580500D01*
X111407369Y-112580500D01*
X111592634Y-112580500D01*
X111592634Y-112580499D01*
X111774334Y-112544357D01*
X111945494Y-112473461D01*
X112099534Y-112370534D01*
X112230534Y-112239534D01*
X112333461Y-112085494D01*
X112404357Y-111914334D01*
X112440499Y-111732634D01*
X112440500Y-111732634D01*
X112440500Y-111547366D01*
X112440499Y-111547365D01*
X112404359Y-111365676D01*
X112404358Y-111365675D01*
X112404357Y-111365666D01*
X112333461Y-111194506D01*
X112230534Y-111040466D01*
X112230531Y-111040463D01*
X112230529Y-111040460D01*
X112099539Y-110909470D01*
X112099535Y-110909467D01*
X112099534Y-110909466D01*
X111945494Y-110806539D01*
X111945493Y-110806538D01*
X111945491Y-110806537D01*
X111774336Y-110735644D01*
X111774337Y-110735644D01*
X111774334Y-110735643D01*
X111774330Y-110735642D01*
X111774323Y-110735640D01*
X111592634Y-110699500D01*
X111592631Y-110699500D01*
X111407369Y-110699500D01*
X111407366Y-110699500D01*
X111225676Y-110735640D01*
X111225663Y-110735644D01*
X111054508Y-110806537D01*
X110900460Y-110909470D01*
X110769470Y-111040460D01*
X110666537Y-111194508D01*
X110595644Y-111365663D01*
X110595640Y-111365676D01*
X110559500Y-111547365D01*
X105285500Y-111547365D01*
X105285500Y-109707145D01*
X107264500Y-109707145D01*
X107264500Y-109792854D01*
X107286681Y-109875636D01*
X107329537Y-109949865D01*
X107390134Y-110010462D01*
X107390136Y-110010463D01*
X107390138Y-110010465D01*
X107464362Y-110053318D01*
X107547147Y-110075500D01*
X107632853Y-110075500D01*
X107715638Y-110053318D01*
X107789862Y-110010465D01*
X107850465Y-109949862D01*
X107893318Y-109875638D01*
X107915500Y-109792853D01*
X107915500Y-109707147D01*
X107893318Y-109624362D01*
X107850465Y-109550138D01*
X107850463Y-109550136D01*
X107850462Y-109550134D01*
X107789865Y-109489537D01*
X107715636Y-109446681D01*
X107632854Y-109424500D01*
X107632853Y-109424500D01*
X107547147Y-109424500D01*
X107547145Y-109424500D01*
X107464363Y-109446681D01*
X107390134Y-109489537D01*
X107329537Y-109550134D01*
X107286681Y-109624363D01*
X107264500Y-109707145D01*
X105285500Y-109707145D01*
X105285500Y-109007365D01*
X110559500Y-109007365D01*
X110559500Y-109192634D01*
X110595640Y-109374323D01*
X110595644Y-109374336D01*
X110666537Y-109545491D01*
X110666538Y-109545493D01*
X110666539Y-109545494D01*
X110769466Y-109699534D01*
X110769467Y-109699535D01*
X110769470Y-109699539D01*
X110900460Y-109830529D01*
X110900463Y-109830531D01*
X110900466Y-109830534D01*
X111054506Y-109933461D01*
X111225666Y-110004357D01*
X111407365Y-110040499D01*
X111407366Y-110040500D01*
X111407369Y-110040500D01*
X111592634Y-110040500D01*
X111592634Y-110040499D01*
X111774334Y-110004357D01*
X111945494Y-109933461D01*
X112099534Y-109830534D01*
X112230534Y-109699534D01*
X112333461Y-109545494D01*
X112404357Y-109374334D01*
X112440499Y-109192634D01*
X112440500Y-109192634D01*
X112440500Y-109007366D01*
X112440499Y-109007365D01*
X112404359Y-108825676D01*
X112404358Y-108825675D01*
X112404357Y-108825666D01*
X112333461Y-108654506D01*
X112230534Y-108500466D01*
X112230531Y-108500463D01*
X112230529Y-108500460D01*
X112099539Y-108369470D01*
X112099535Y-108369467D01*
X112099534Y-108369466D01*
X111945494Y-108266539D01*
X111945493Y-108266538D01*
X111945491Y-108266537D01*
X111774336Y-108195644D01*
X111774337Y-108195644D01*
X111774334Y-108195643D01*
X111774330Y-108195642D01*
X111774323Y-108195640D01*
X111592634Y-108159500D01*
X111592631Y-108159500D01*
X111407369Y-108159500D01*
X111407366Y-108159500D01*
X111225676Y-108195640D01*
X111225663Y-108195644D01*
X111054508Y-108266537D01*
X110900460Y-108369470D01*
X110769470Y-108500460D01*
X110666537Y-108654508D01*
X110595644Y-108825663D01*
X110595640Y-108825676D01*
X110559500Y-109007365D01*
X105285500Y-109007365D01*
X105285500Y-106307145D01*
X106604500Y-106307145D01*
X106604500Y-106392854D01*
X106626681Y-106475636D01*
X106669537Y-106549865D01*
X106730134Y-106610462D01*
X106730136Y-106610463D01*
X106730138Y-106610465D01*
X106804362Y-106653318D01*
X106887147Y-106675500D01*
X106972853Y-106675500D01*
X107055638Y-106653318D01*
X107129862Y-106610465D01*
X107190465Y-106549862D01*
X107233318Y-106475638D01*
X107235535Y-106467365D01*
X110559500Y-106467365D01*
X110559500Y-106652634D01*
X110595640Y-106834323D01*
X110595644Y-106834336D01*
X110666537Y-107005491D01*
X110666538Y-107005493D01*
X110666539Y-107005494D01*
X110769466Y-107159534D01*
X110769467Y-107159535D01*
X110769470Y-107159539D01*
X110900460Y-107290529D01*
X110900463Y-107290531D01*
X110900466Y-107290534D01*
X111054506Y-107393461D01*
X111225666Y-107464357D01*
X111407365Y-107500499D01*
X111407366Y-107500500D01*
X111407369Y-107500500D01*
X111592634Y-107500500D01*
X111592634Y-107500499D01*
X111774334Y-107464357D01*
X111945494Y-107393461D01*
X112099534Y-107290534D01*
X112230534Y-107159534D01*
X112333461Y-107005494D01*
X112404357Y-106834334D01*
X112440499Y-106652634D01*
X112440500Y-106652634D01*
X112440500Y-106467366D01*
X112440499Y-106467365D01*
X112404359Y-106285676D01*
X112404358Y-106285675D01*
X112404357Y-106285666D01*
X112333461Y-106114506D01*
X112230534Y-105960466D01*
X112230531Y-105960463D01*
X112230529Y-105960460D01*
X112099539Y-105829470D01*
X112099535Y-105829467D01*
X112099534Y-105829466D01*
X111945494Y-105726539D01*
X111945493Y-105726538D01*
X111945491Y-105726537D01*
X111774336Y-105655644D01*
X111774337Y-105655644D01*
X111774334Y-105655643D01*
X111774330Y-105655642D01*
X111774323Y-105655640D01*
X111592634Y-105619500D01*
X111592631Y-105619500D01*
X111407369Y-105619500D01*
X111407366Y-105619500D01*
X111225676Y-105655640D01*
X111225663Y-105655644D01*
X111054508Y-105726537D01*
X110900460Y-105829470D01*
X110769470Y-105960460D01*
X110666537Y-106114508D01*
X110595644Y-106285663D01*
X110595640Y-106285676D01*
X110559500Y-106467365D01*
X107235535Y-106467365D01*
X107255500Y-106392853D01*
X107255500Y-106307147D01*
X107233318Y-106224362D01*
X107190465Y-106150138D01*
X107190463Y-106150136D01*
X107190462Y-106150134D01*
X107129865Y-106089537D01*
X107077018Y-106059026D01*
X107055638Y-106046682D01*
X107055637Y-106046681D01*
X107055636Y-106046681D01*
X106972854Y-106024500D01*
X106972853Y-106024500D01*
X106887147Y-106024500D01*
X106887145Y-106024500D01*
X106804363Y-106046681D01*
X106730134Y-106089537D01*
X106669537Y-106150134D01*
X106626681Y-106224363D01*
X106604500Y-106307145D01*
X105285500Y-106307145D01*
X105285500Y-106212254D01*
X105285501Y-106212245D01*
X105285501Y-106151474D01*
X105264872Y-106101673D01*
X105264872Y-106101672D01*
X105226755Y-106063555D01*
X105226753Y-106063554D01*
X102921345Y-103758146D01*
X105785702Y-103758146D01*
X105785702Y-103843855D01*
X105807310Y-103924500D01*
X105807884Y-103926639D01*
X105846958Y-103994318D01*
X105850739Y-104000866D01*
X105911336Y-104061463D01*
X105911338Y-104061464D01*
X105911340Y-104061466D01*
X105985564Y-104104319D01*
X106068349Y-104126501D01*
X106154055Y-104126501D01*
X106236840Y-104104319D01*
X106311064Y-104061466D01*
X106371667Y-104000863D01*
X106411961Y-103931071D01*
X110370000Y-103931071D01*
X110370000Y-104108928D01*
X110397825Y-104284611D01*
X110397827Y-104284618D01*
X110452788Y-104453770D01*
X110452788Y-104453771D01*
X110533532Y-104612241D01*
X110616620Y-104726601D01*
X111069269Y-104273952D01*
X111099901Y-104327007D01*
X111192993Y-104420099D01*
X111246045Y-104450728D01*
X110793396Y-104903378D01*
X110907758Y-104986467D01*
X111066228Y-105067211D01*
X111235381Y-105122172D01*
X111235388Y-105122174D01*
X111411071Y-105150000D01*
X111588929Y-105150000D01*
X111764611Y-105122174D01*
X111764618Y-105122172D01*
X111933770Y-105067211D01*
X111933771Y-105067211D01*
X112092241Y-104986467D01*
X112206602Y-104903378D01*
X111753953Y-104450729D01*
X111807007Y-104420099D01*
X111900099Y-104327007D01*
X111930729Y-104273953D01*
X112383378Y-104726602D01*
X112466467Y-104612241D01*
X112547211Y-104453771D01*
X112547211Y-104453770D01*
X112602172Y-104284618D01*
X112602174Y-104284611D01*
X112630000Y-104108928D01*
X112630000Y-103931071D01*
X112602174Y-103755388D01*
X112602172Y-103755381D01*
X112547211Y-103586229D01*
X112547211Y-103586228D01*
X112466467Y-103427758D01*
X112383377Y-103313396D01*
X111930728Y-103766045D01*
X111900099Y-103712993D01*
X111807007Y-103619901D01*
X111753952Y-103589270D01*
X112206601Y-103136620D01*
X112092241Y-103053532D01*
X111933771Y-102972788D01*
X111764618Y-102917827D01*
X111764611Y-102917825D01*
X111588929Y-102890000D01*
X111411071Y-102890000D01*
X111235388Y-102917825D01*
X111235381Y-102917827D01*
X111066229Y-102972788D01*
X111066228Y-102972788D01*
X110907756Y-103053533D01*
X110907745Y-103053540D01*
X110793397Y-103136619D01*
X110793396Y-103136619D01*
X111246046Y-103589270D01*
X111192993Y-103619901D01*
X111099901Y-103712993D01*
X111069270Y-103766046D01*
X110616619Y-103313396D01*
X110616619Y-103313397D01*
X110533540Y-103427745D01*
X110533533Y-103427756D01*
X110452788Y-103586228D01*
X110452788Y-103586229D01*
X110397827Y-103755381D01*
X110397825Y-103755388D01*
X110370000Y-103931071D01*
X106411961Y-103931071D01*
X106414520Y-103926639D01*
X106436702Y-103843854D01*
X106436702Y-103758148D01*
X106414520Y-103675363D01*
X106371667Y-103601139D01*
X106371665Y-103601137D01*
X106371664Y-103601135D01*
X106311067Y-103540538D01*
X106285020Y-103525500D01*
X106236840Y-103497683D01*
X106236839Y-103497682D01*
X106236838Y-103497682D01*
X106154056Y-103475501D01*
X106154055Y-103475501D01*
X106068349Y-103475501D01*
X106068347Y-103475501D01*
X105985565Y-103497682D01*
X105911336Y-103540538D01*
X105850739Y-103601135D01*
X105807883Y-103675364D01*
X105785702Y-103758146D01*
X102921345Y-103758146D01*
X101130351Y-101967152D01*
X101128156Y-101961854D01*
X101123355Y-101958718D01*
X101120907Y-101944353D01*
X101113070Y-101925433D01*
X101114088Y-101914523D01*
X101114500Y-101912330D01*
X101125500Y-101871280D01*
X101125500Y-101853874D01*
X101126518Y-101848464D01*
X101136086Y-101833817D01*
X101142781Y-101817655D01*
X101148078Y-101815460D01*
X101151215Y-101810659D01*
X101168338Y-101807068D01*
X101184500Y-101800374D01*
X101196406Y-101800374D01*
X101279191Y-101778192D01*
X101353415Y-101735339D01*
X101360609Y-101728145D01*
X103174500Y-101728145D01*
X103174500Y-101813854D01*
X103189887Y-101871281D01*
X103196682Y-101896638D01*
X103234334Y-101961854D01*
X103239537Y-101970865D01*
X103300134Y-102031462D01*
X103300136Y-102031463D01*
X103300138Y-102031465D01*
X103374362Y-102074318D01*
X103457147Y-102096500D01*
X103542853Y-102096500D01*
X103625638Y-102074318D01*
X103699862Y-102031465D01*
X103704182Y-102027145D01*
X106574500Y-102027145D01*
X106574500Y-102112854D01*
X106589687Y-102169535D01*
X106596682Y-102195638D01*
X106616600Y-102230138D01*
X106639537Y-102269865D01*
X106700134Y-102330462D01*
X106700136Y-102330463D01*
X106700138Y-102330465D01*
X106774362Y-102373318D01*
X106857147Y-102395500D01*
X106942853Y-102395500D01*
X107025638Y-102373318D01*
X107099862Y-102330465D01*
X107160465Y-102269862D01*
X107203318Y-102195638D01*
X107225500Y-102112853D01*
X107225500Y-102027147D01*
X107203318Y-101944362D01*
X107160465Y-101870138D01*
X107160463Y-101870136D01*
X107160462Y-101870134D01*
X107099865Y-101809537D01*
X107083994Y-101800374D01*
X107025638Y-101766682D01*
X107025637Y-101766681D01*
X107025636Y-101766681D01*
X106942854Y-101744500D01*
X106942853Y-101744500D01*
X106857147Y-101744500D01*
X106857145Y-101744500D01*
X106774363Y-101766681D01*
X106700134Y-101809537D01*
X106639537Y-101870134D01*
X106596681Y-101944363D01*
X106574500Y-102027145D01*
X103704182Y-102027145D01*
X103749767Y-101981561D01*
X103760462Y-101970865D01*
X103760465Y-101970862D01*
X103803318Y-101896638D01*
X103825500Y-101813853D01*
X103825500Y-101728147D01*
X103803318Y-101645362D01*
X103760465Y-101571138D01*
X103760463Y-101571136D01*
X103760462Y-101571134D01*
X103699865Y-101510537D01*
X103664541Y-101490143D01*
X103625638Y-101467682D01*
X103625637Y-101467681D01*
X103625636Y-101467681D01*
X103542854Y-101445500D01*
X103542853Y-101445500D01*
X103457147Y-101445500D01*
X103457145Y-101445500D01*
X103374363Y-101467681D01*
X103300134Y-101510537D01*
X103239537Y-101571134D01*
X103196681Y-101645363D01*
X103174500Y-101728145D01*
X101360609Y-101728145D01*
X101365860Y-101722894D01*
X101406194Y-101682561D01*
X101414015Y-101674739D01*
X101414018Y-101674736D01*
X101456871Y-101600512D01*
X101479053Y-101517727D01*
X101479053Y-101432021D01*
X101467087Y-101387365D01*
X110559500Y-101387365D01*
X110559500Y-101572634D01*
X110595640Y-101754323D01*
X110595644Y-101754336D01*
X110666537Y-101925491D01*
X110666538Y-101925493D01*
X110666539Y-101925494D01*
X110769466Y-102079534D01*
X110769467Y-102079535D01*
X110769470Y-102079539D01*
X110900460Y-102210529D01*
X110900463Y-102210531D01*
X110900466Y-102210534D01*
X111054506Y-102313461D01*
X111225666Y-102384357D01*
X111407365Y-102420499D01*
X111407366Y-102420500D01*
X111407369Y-102420500D01*
X111592634Y-102420500D01*
X111592634Y-102420499D01*
X111774334Y-102384357D01*
X111945494Y-102313461D01*
X112099534Y-102210534D01*
X112230534Y-102079534D01*
X112333461Y-101925494D01*
X112404357Y-101754334D01*
X112440499Y-101572634D01*
X112440500Y-101572634D01*
X112440500Y-101387366D01*
X112440499Y-101387365D01*
X112439388Y-101381782D01*
X112404357Y-101205666D01*
X112333461Y-101034506D01*
X112230534Y-100880466D01*
X112230531Y-100880463D01*
X112230529Y-100880460D01*
X112099539Y-100749470D01*
X112099535Y-100749467D01*
X112099534Y-100749466D01*
X111945494Y-100646539D01*
X111945493Y-100646538D01*
X111945491Y-100646537D01*
X111774336Y-100575644D01*
X111774337Y-100575644D01*
X111774334Y-100575643D01*
X111774330Y-100575642D01*
X111774323Y-100575640D01*
X111592634Y-100539500D01*
X111592631Y-100539500D01*
X111407369Y-100539500D01*
X111407366Y-100539500D01*
X111225676Y-100575640D01*
X111225663Y-100575644D01*
X111054508Y-100646537D01*
X110900460Y-100749470D01*
X110769470Y-100880460D01*
X110666537Y-101034508D01*
X110595644Y-101205663D01*
X110595640Y-101205676D01*
X110559500Y-101387365D01*
X101467087Y-101387365D01*
X101465592Y-101381785D01*
X101456871Y-101349237D01*
X101456871Y-101349236D01*
X101414018Y-101275012D01*
X101414016Y-101275010D01*
X101414015Y-101275008D01*
X101353418Y-101214411D01*
X101353413Y-101214408D01*
X101280679Y-101172415D01*
X101253190Y-101136590D01*
X101259084Y-101091820D01*
X101280679Y-101070225D01*
X101353415Y-101028232D01*
X101414018Y-100967629D01*
X101456011Y-100894893D01*
X101491835Y-100867405D01*
X101536605Y-100873298D01*
X101558201Y-100894893D01*
X101575006Y-100924000D01*
X101600197Y-100967632D01*
X101660794Y-101028229D01*
X101660796Y-101028230D01*
X101660798Y-101028232D01*
X101735022Y-101071085D01*
X101817807Y-101093267D01*
X101903513Y-101093267D01*
X101986298Y-101071085D01*
X102060522Y-101028232D01*
X102121125Y-100967629D01*
X102163978Y-100893405D01*
X102186160Y-100810620D01*
X102186160Y-100724914D01*
X102163978Y-100642129D01*
X102121125Y-100567905D01*
X102121123Y-100567903D01*
X102121122Y-100567901D01*
X102060525Y-100507304D01*
X102052256Y-100502530D01*
X101986298Y-100464449D01*
X101986297Y-100464448D01*
X101986296Y-100464448D01*
X101903514Y-100442267D01*
X101903513Y-100442267D01*
X101891607Y-100442267D01*
X101849888Y-100424986D01*
X101833624Y-100394176D01*
X101832607Y-100388770D01*
X101832607Y-100371361D01*
X101821609Y-100330317D01*
X101821195Y-100328114D01*
X101825405Y-100308035D01*
X101828083Y-100287705D01*
X101830266Y-100284858D01*
X101830464Y-100283919D01*
X101831514Y-100283232D01*
X101837455Y-100275490D01*
X102332333Y-99780613D01*
X102374051Y-99763333D01*
X102415770Y-99780614D01*
X102433051Y-99822333D01*
X102432927Y-99824236D01*
X102432927Y-99912854D01*
X102452023Y-99984123D01*
X102455109Y-99995638D01*
X102491303Y-100058329D01*
X102497964Y-100069865D01*
X102558561Y-100130462D01*
X102558563Y-100130463D01*
X102558565Y-100130465D01*
X102632789Y-100173318D01*
X102715574Y-100195500D01*
X102801280Y-100195500D01*
X102884065Y-100173318D01*
X102958289Y-100130465D01*
X103018892Y-100069862D01*
X103061745Y-99995638D01*
X103083927Y-99912853D01*
X103083927Y-99827147D01*
X103076189Y-99798269D01*
X103082084Y-99753499D01*
X103103679Y-99731905D01*
X103133852Y-99714486D01*
X103194455Y-99653883D01*
X103237308Y-99579659D01*
X103259490Y-99496874D01*
X103259490Y-99411168D01*
X103237308Y-99328383D01*
X103194455Y-99254159D01*
X103194453Y-99254157D01*
X103194452Y-99254155D01*
X103133855Y-99193558D01*
X103130829Y-99191811D01*
X103059628Y-99150703D01*
X103059627Y-99150702D01*
X103059626Y-99150702D01*
X102976844Y-99128521D01*
X102976843Y-99128521D01*
X102891137Y-99128521D01*
X102891135Y-99128521D01*
X102808353Y-99150702D01*
X102734124Y-99193558D01*
X102673527Y-99254155D01*
X102673525Y-99254159D01*
X102658529Y-99280134D01*
X102653398Y-99289021D01*
X102647071Y-99293875D01*
X102644021Y-99301240D01*
X102629793Y-99307133D01*
X102617572Y-99316511D01*
X102602302Y-99318521D01*
X102501127Y-99318521D01*
X102501119Y-99318520D01*
X102494253Y-99318520D01*
X102440347Y-99318520D01*
X102418766Y-99327459D01*
X102418764Y-99327460D01*
X102411701Y-99330386D01*
X102390545Y-99339149D01*
X102352428Y-99377266D01*
X102352427Y-99377267D01*
X102349607Y-99380086D01*
X102349603Y-99380090D01*
X101933201Y-99796492D01*
X101891482Y-99813773D01*
X101849763Y-99796492D01*
X101832482Y-99754773D01*
X101832607Y-99752871D01*
X101832607Y-99664253D01*
X101832606Y-99664252D01*
X101831712Y-99660916D01*
X101810425Y-99581469D01*
X101767572Y-99507245D01*
X101767570Y-99507243D01*
X101767569Y-99507241D01*
X101706972Y-99446644D01*
X101701211Y-99443318D01*
X101632745Y-99403789D01*
X101632744Y-99403788D01*
X101632743Y-99403788D01*
X101549961Y-99381607D01*
X101549960Y-99381607D01*
X101464254Y-99381607D01*
X101464252Y-99381607D01*
X101413017Y-99395335D01*
X101368246Y-99389440D01*
X101340757Y-99353615D01*
X101338748Y-99337967D01*
X101338790Y-99331313D01*
X101339175Y-99330386D01*
X101339175Y-99276480D01*
X101339174Y-99276477D01*
X101339174Y-99134834D01*
X101356455Y-99093115D01*
X101398174Y-99075834D01*
X101439893Y-99093115D01*
X101457240Y-99110462D01*
X101457242Y-99110463D01*
X101457244Y-99110465D01*
X101531468Y-99153318D01*
X101614253Y-99175500D01*
X101699959Y-99175500D01*
X101782744Y-99153318D01*
X101856968Y-99110465D01*
X101917571Y-99049862D01*
X101960424Y-98975638D01*
X101982606Y-98892853D01*
X101982606Y-98827145D01*
X106104500Y-98827145D01*
X106104500Y-98912854D01*
X106122367Y-98979537D01*
X106126682Y-98995638D01*
X106158203Y-99050235D01*
X106169537Y-99069865D01*
X106230134Y-99130462D01*
X106230136Y-99130463D01*
X106230138Y-99130465D01*
X106304362Y-99173318D01*
X106387147Y-99195500D01*
X106472853Y-99195500D01*
X106555638Y-99173318D01*
X106629862Y-99130465D01*
X106668828Y-99091498D01*
X106710546Y-99074218D01*
X106752266Y-99091498D01*
X106769547Y-99133217D01*
X106767537Y-99148487D01*
X106754500Y-99197143D01*
X106754500Y-99282854D01*
X106764057Y-99318520D01*
X106773460Y-99353615D01*
X106775233Y-99360230D01*
X106769339Y-99405000D01*
X106733513Y-99432490D01*
X106718243Y-99434500D01*
X106667145Y-99434500D01*
X106584363Y-99456681D01*
X106510134Y-99499537D01*
X106449537Y-99560134D01*
X106406681Y-99634363D01*
X106384500Y-99717145D01*
X106384500Y-99802854D01*
X106398822Y-99856306D01*
X106406682Y-99885638D01*
X106441543Y-99946020D01*
X106449537Y-99959865D01*
X106510134Y-100020462D01*
X106510136Y-100020463D01*
X106510138Y-100020465D01*
X106584362Y-100063318D01*
X106667147Y-100085500D01*
X106752853Y-100085500D01*
X106835638Y-100063318D01*
X106909862Y-100020465D01*
X106970465Y-99959862D01*
X107013318Y-99885638D01*
X107035500Y-99802853D01*
X107035500Y-99717147D01*
X107014767Y-99639769D01*
X107020661Y-99595000D01*
X107056487Y-99567510D01*
X107071757Y-99565500D01*
X107122853Y-99565500D01*
X107205638Y-99543318D01*
X107279862Y-99500465D01*
X107340465Y-99439862D01*
X107383318Y-99365638D01*
X107405500Y-99282853D01*
X107405500Y-99197147D01*
X107383318Y-99114362D01*
X107340465Y-99040138D01*
X107340463Y-99040136D01*
X107340462Y-99040134D01*
X107279865Y-98979537D01*
X107273108Y-98975636D01*
X107205638Y-98936682D01*
X107205637Y-98936681D01*
X107205636Y-98936681D01*
X107122854Y-98914500D01*
X107122853Y-98914500D01*
X107037147Y-98914500D01*
X107037145Y-98914500D01*
X106954363Y-98936681D01*
X106880136Y-98979536D01*
X106841171Y-99018501D01*
X106799451Y-99035781D01*
X106757732Y-99018500D01*
X106740452Y-98976780D01*
X106742462Y-98961510D01*
X106743632Y-98957147D01*
X106755500Y-98912853D01*
X106755500Y-98847365D01*
X110559500Y-98847365D01*
X110559500Y-99032634D01*
X110595640Y-99214323D01*
X110595644Y-99214336D01*
X110666537Y-99385491D01*
X110666538Y-99385493D01*
X110666539Y-99385494D01*
X110769466Y-99539534D01*
X110769467Y-99539535D01*
X110769470Y-99539539D01*
X110900460Y-99670529D01*
X110900463Y-99670531D01*
X110900466Y-99670534D01*
X111054506Y-99773461D01*
X111225666Y-99844357D01*
X111407365Y-99880499D01*
X111407366Y-99880500D01*
X111407369Y-99880500D01*
X111592634Y-99880500D01*
X111592634Y-99880499D01*
X111774334Y-99844357D01*
X111945494Y-99773461D01*
X112099534Y-99670534D01*
X112230534Y-99539534D01*
X112333461Y-99385494D01*
X112404357Y-99214334D01*
X112440499Y-99032634D01*
X112440500Y-99032634D01*
X112440500Y-98847366D01*
X112440499Y-98847365D01*
X112440183Y-98845778D01*
X112404357Y-98665666D01*
X112333461Y-98494506D01*
X112230534Y-98340466D01*
X112230531Y-98340463D01*
X112230529Y-98340460D01*
X112099539Y-98209470D01*
X112099535Y-98209467D01*
X112099534Y-98209466D01*
X111945494Y-98106539D01*
X111945493Y-98106538D01*
X111945491Y-98106537D01*
X111795717Y-98044500D01*
X111774334Y-98035643D01*
X111774330Y-98035642D01*
X111774323Y-98035640D01*
X111592634Y-97999500D01*
X111592631Y-97999500D01*
X111407369Y-97999500D01*
X111407366Y-97999500D01*
X111225676Y-98035640D01*
X111225663Y-98035644D01*
X111054508Y-98106537D01*
X110900460Y-98209470D01*
X110769470Y-98340460D01*
X110666537Y-98494508D01*
X110595644Y-98665663D01*
X110595640Y-98665676D01*
X110559500Y-98847365D01*
X106755500Y-98847365D01*
X106755500Y-98827147D01*
X106733318Y-98744362D01*
X106690465Y-98670138D01*
X106690463Y-98670136D01*
X106690462Y-98670134D01*
X106629865Y-98609537D01*
X106595220Y-98589535D01*
X106555638Y-98566682D01*
X106555637Y-98566681D01*
X106555636Y-98566681D01*
X106472854Y-98544500D01*
X106472853Y-98544500D01*
X106387147Y-98544500D01*
X106387145Y-98544500D01*
X106304363Y-98566681D01*
X106230134Y-98609537D01*
X106169537Y-98670134D01*
X106126681Y-98744363D01*
X106104500Y-98827145D01*
X101982606Y-98827145D01*
X101982606Y-98807147D01*
X101960424Y-98724362D01*
X101917571Y-98650138D01*
X101917569Y-98650136D01*
X101917568Y-98650134D01*
X101856971Y-98589537D01*
X101822896Y-98569864D01*
X101782744Y-98546682D01*
X101782743Y-98546681D01*
X101782742Y-98546681D01*
X101699960Y-98524500D01*
X101699959Y-98524500D01*
X101614253Y-98524500D01*
X101614251Y-98524500D01*
X101531469Y-98546681D01*
X101457240Y-98589537D01*
X101439893Y-98606885D01*
X101398174Y-98624166D01*
X101356455Y-98606885D01*
X101339174Y-98565166D01*
X101339174Y-98421563D01*
X101356452Y-98379847D01*
X101409154Y-98327145D01*
X104164500Y-98327145D01*
X104164500Y-98412854D01*
X104186378Y-98494506D01*
X104186682Y-98495638D01*
X104227698Y-98566681D01*
X104229537Y-98569865D01*
X104290134Y-98630462D01*
X104290136Y-98630463D01*
X104290138Y-98630465D01*
X104364362Y-98673318D01*
X104447147Y-98695500D01*
X104532853Y-98695500D01*
X104615638Y-98673318D01*
X104689862Y-98630465D01*
X104750465Y-98569862D01*
X104758904Y-98555244D01*
X104794729Y-98527755D01*
X104839499Y-98533648D01*
X104861096Y-98555245D01*
X104869536Y-98569864D01*
X104930134Y-98630462D01*
X104930136Y-98630463D01*
X104930138Y-98630465D01*
X105004362Y-98673318D01*
X105087147Y-98695500D01*
X105172853Y-98695500D01*
X105255638Y-98673318D01*
X105329862Y-98630465D01*
X105390465Y-98569862D01*
X105433318Y-98495638D01*
X105455500Y-98412853D01*
X105455500Y-98327147D01*
X105433318Y-98244362D01*
X105390465Y-98170138D01*
X105390463Y-98170136D01*
X105390462Y-98170134D01*
X105329865Y-98109537D01*
X105324920Y-98106682D01*
X105255638Y-98066682D01*
X105255636Y-98066681D01*
X105255634Y-98066680D01*
X105252063Y-98065201D01*
X105252943Y-98063075D01*
X105222896Y-98040007D01*
X105216282Y-98006720D01*
X105215500Y-98006720D01*
X105215500Y-97917146D01*
X105215499Y-97917145D01*
X105193318Y-97834363D01*
X105193318Y-97834362D01*
X105150465Y-97760138D01*
X105150463Y-97760136D01*
X105150462Y-97760134D01*
X105089865Y-97699537D01*
X105080695Y-97694243D01*
X105015638Y-97656682D01*
X105015637Y-97656681D01*
X105015636Y-97656681D01*
X104932854Y-97634500D01*
X104932853Y-97634500D01*
X104847147Y-97634500D01*
X104847145Y-97634500D01*
X104764363Y-97656681D01*
X104690134Y-97699537D01*
X104629537Y-97760134D01*
X104586681Y-97834363D01*
X104564500Y-97917145D01*
X104564500Y-97985500D01*
X104547219Y-98027219D01*
X104505500Y-98044500D01*
X104447145Y-98044500D01*
X104364363Y-98066681D01*
X104290134Y-98109537D01*
X104229537Y-98170134D01*
X104186681Y-98244363D01*
X104164500Y-98327145D01*
X101409154Y-98327145D01*
X101489454Y-98246844D01*
X101489458Y-98246842D01*
X101497754Y-98238546D01*
X101497755Y-98238546D01*
X101535872Y-98200429D01*
X101556500Y-98150627D01*
X101556500Y-97744047D01*
X101555016Y-97740465D01*
X101535872Y-97694246D01*
X101535872Y-97694245D01*
X101497755Y-97656128D01*
X101494395Y-97652768D01*
X101494388Y-97652762D01*
X101332781Y-97491155D01*
X101315500Y-97449436D01*
X101315500Y-96307365D01*
X110559500Y-96307365D01*
X110559500Y-96492634D01*
X110595640Y-96674323D01*
X110595642Y-96674330D01*
X110595643Y-96674334D01*
X110603314Y-96692853D01*
X110666537Y-96845491D01*
X110666538Y-96845493D01*
X110666539Y-96845494D01*
X110769466Y-96999534D01*
X110769467Y-96999535D01*
X110769470Y-96999539D01*
X110900460Y-97130529D01*
X110900463Y-97130531D01*
X110900466Y-97130534D01*
X111054506Y-97233461D01*
X111225666Y-97304357D01*
X111407365Y-97340499D01*
X111407366Y-97340500D01*
X111407369Y-97340500D01*
X111592634Y-97340500D01*
X111592634Y-97340499D01*
X111774334Y-97304357D01*
X111945494Y-97233461D01*
X112099534Y-97130534D01*
X112230534Y-96999534D01*
X112333461Y-96845494D01*
X112404357Y-96674334D01*
X112440499Y-96492634D01*
X112440500Y-96492634D01*
X112440500Y-96307366D01*
X112440499Y-96307365D01*
X112426531Y-96237145D01*
X112404357Y-96125666D01*
X112346556Y-95986121D01*
X112333462Y-95954508D01*
X112307925Y-95916289D01*
X112230534Y-95800466D01*
X112230531Y-95800463D01*
X112230529Y-95800460D01*
X112099539Y-95669470D01*
X112099535Y-95669467D01*
X112099534Y-95669466D01*
X111945494Y-95566539D01*
X111945493Y-95566538D01*
X111945491Y-95566537D01*
X111774336Y-95495644D01*
X111774337Y-95495644D01*
X111774334Y-95495643D01*
X111774330Y-95495642D01*
X111774323Y-95495640D01*
X111592634Y-95459500D01*
X111592631Y-95459500D01*
X111407369Y-95459500D01*
X111407366Y-95459500D01*
X111225676Y-95495640D01*
X111225663Y-95495644D01*
X111054508Y-95566537D01*
X110900460Y-95669470D01*
X110769470Y-95800460D01*
X110666537Y-95954508D01*
X110595644Y-96125663D01*
X110595640Y-96125676D01*
X110559500Y-96307365D01*
X101315500Y-96307365D01*
X101315500Y-94047271D01*
X102369500Y-94047271D01*
X102369500Y-94152728D01*
X102381401Y-94197145D01*
X102396793Y-94254587D01*
X102449520Y-94345913D01*
X102449522Y-94345916D01*
X102524083Y-94420477D01*
X102524085Y-94420478D01*
X102524087Y-94420480D01*
X102615413Y-94473207D01*
X102717273Y-94500500D01*
X102822727Y-94500500D01*
X102924587Y-94473207D01*
X103015913Y-94420480D01*
X103090480Y-94345913D01*
X103143207Y-94254587D01*
X103170500Y-94152727D01*
X103170500Y-94047273D01*
X103143207Y-93945413D01*
X103090480Y-93854087D01*
X103090478Y-93854085D01*
X103090477Y-93854083D01*
X103015916Y-93779522D01*
X103015913Y-93779520D01*
X102994860Y-93767365D01*
X110559500Y-93767365D01*
X110559500Y-93952634D01*
X110595640Y-94134323D01*
X110595644Y-94134336D01*
X110666537Y-94305491D01*
X110666538Y-94305493D01*
X110666539Y-94305494D01*
X110769466Y-94459534D01*
X110769467Y-94459535D01*
X110769470Y-94459539D01*
X110900460Y-94590529D01*
X110900463Y-94590531D01*
X110900466Y-94590534D01*
X111054506Y-94693461D01*
X111225666Y-94764357D01*
X111407365Y-94800499D01*
X111407366Y-94800500D01*
X111407369Y-94800500D01*
X111592634Y-94800500D01*
X111592634Y-94800499D01*
X111774334Y-94764357D01*
X111945494Y-94693461D01*
X112099534Y-94590534D01*
X112230534Y-94459534D01*
X112333461Y-94305494D01*
X112404357Y-94134334D01*
X112440499Y-93952634D01*
X112440500Y-93952634D01*
X112440500Y-93767366D01*
X112440499Y-93767365D01*
X112404359Y-93585676D01*
X112404358Y-93585675D01*
X112404357Y-93585666D01*
X112333461Y-93414506D01*
X112230534Y-93260466D01*
X112230531Y-93260463D01*
X112230529Y-93260460D01*
X112099539Y-93129470D01*
X112099535Y-93129467D01*
X112099534Y-93129466D01*
X111945494Y-93026539D01*
X111945493Y-93026538D01*
X111945491Y-93026537D01*
X111774336Y-92955644D01*
X111774337Y-92955644D01*
X111774334Y-92955643D01*
X111774330Y-92955642D01*
X111774323Y-92955640D01*
X111592634Y-92919500D01*
X111592631Y-92919500D01*
X111407369Y-92919500D01*
X111407366Y-92919500D01*
X111225676Y-92955640D01*
X111225663Y-92955644D01*
X111054508Y-93026537D01*
X110900460Y-93129470D01*
X110769470Y-93260460D01*
X110666537Y-93414508D01*
X110595644Y-93585663D01*
X110595640Y-93585676D01*
X110559500Y-93767365D01*
X102994860Y-93767365D01*
X102924587Y-93726793D01*
X102924585Y-93726792D01*
X102822728Y-93699500D01*
X102822727Y-93699500D01*
X102717273Y-93699500D01*
X102717271Y-93699500D01*
X102615414Y-93726792D01*
X102615413Y-93726793D01*
X102524083Y-93779522D01*
X102449522Y-93854083D01*
X102396793Y-93945413D01*
X102396792Y-93945414D01*
X102369500Y-94047271D01*
X101315500Y-94047271D01*
X101315500Y-91227365D01*
X110559500Y-91227365D01*
X110559500Y-91412634D01*
X110595640Y-91594323D01*
X110595644Y-91594336D01*
X110666537Y-91765491D01*
X110666538Y-91765493D01*
X110666539Y-91765494D01*
X110769466Y-91919534D01*
X110769467Y-91919535D01*
X110769470Y-91919539D01*
X110900460Y-92050529D01*
X110900463Y-92050531D01*
X110900466Y-92050534D01*
X111054506Y-92153461D01*
X111225666Y-92224357D01*
X111407365Y-92260499D01*
X111407366Y-92260500D01*
X111407369Y-92260500D01*
X111592634Y-92260500D01*
X111592634Y-92260499D01*
X111774334Y-92224357D01*
X111945494Y-92153461D01*
X112099534Y-92050534D01*
X112230534Y-91919534D01*
X112333461Y-91765494D01*
X112404357Y-91594334D01*
X112440499Y-91412634D01*
X112440500Y-91412634D01*
X112440500Y-91227366D01*
X112440499Y-91227365D01*
X112404359Y-91045676D01*
X112404358Y-91045675D01*
X112404357Y-91045666D01*
X112333461Y-90874506D01*
X112230534Y-90720466D01*
X112230531Y-90720463D01*
X112230529Y-90720460D01*
X112099539Y-90589470D01*
X112099535Y-90589467D01*
X112099534Y-90589466D01*
X111945494Y-90486539D01*
X111945493Y-90486538D01*
X111945491Y-90486537D01*
X111805949Y-90428738D01*
X111774334Y-90415643D01*
X111774330Y-90415642D01*
X111774323Y-90415640D01*
X111592634Y-90379500D01*
X111592631Y-90379500D01*
X111407369Y-90379500D01*
X111407366Y-90379500D01*
X111225676Y-90415640D01*
X111225663Y-90415644D01*
X111054508Y-90486537D01*
X110900460Y-90589470D01*
X110769470Y-90720460D01*
X110666537Y-90874508D01*
X110595644Y-91045663D01*
X110595640Y-91045676D01*
X110559500Y-91227365D01*
X101315500Y-91227365D01*
X101315500Y-90047271D01*
X107339500Y-90047271D01*
X107339500Y-90152728D01*
X107364358Y-90245502D01*
X107366793Y-90254587D01*
X107413001Y-90334622D01*
X107419522Y-90345916D01*
X107494083Y-90420477D01*
X107494085Y-90420478D01*
X107494087Y-90420480D01*
X107585413Y-90473207D01*
X107687273Y-90500500D01*
X107792727Y-90500500D01*
X107894587Y-90473207D01*
X107985913Y-90420480D01*
X108060480Y-90345913D01*
X108113207Y-90254587D01*
X108140500Y-90152727D01*
X108140500Y-90047273D01*
X108113207Y-89945413D01*
X108060480Y-89854087D01*
X108060478Y-89854085D01*
X108060477Y-89854083D01*
X107985916Y-89779522D01*
X107985913Y-89779520D01*
X107894587Y-89726793D01*
X107894585Y-89726792D01*
X107792728Y-89699500D01*
X107792727Y-89699500D01*
X107687273Y-89699500D01*
X107687271Y-89699500D01*
X107585414Y-89726792D01*
X107585413Y-89726793D01*
X107494083Y-89779522D01*
X107419522Y-89854083D01*
X107366793Y-89945413D01*
X107366792Y-89945414D01*
X107339500Y-90047271D01*
X101315500Y-90047271D01*
X101315500Y-89216237D01*
X101332781Y-89174518D01*
X101386786Y-89120513D01*
X101490454Y-89016844D01*
X101490458Y-89016842D01*
X101498754Y-89008546D01*
X101498755Y-89008546D01*
X101536872Y-88970429D01*
X101557500Y-88920627D01*
X101557500Y-88687365D01*
X110559500Y-88687365D01*
X110559500Y-88872634D01*
X110595640Y-89054323D01*
X110595644Y-89054336D01*
X110666537Y-89225491D01*
X110666538Y-89225493D01*
X110666539Y-89225494D01*
X110769466Y-89379534D01*
X110769467Y-89379535D01*
X110769470Y-89379539D01*
X110900460Y-89510529D01*
X110900463Y-89510531D01*
X110900466Y-89510534D01*
X111054506Y-89613461D01*
X111225666Y-89684357D01*
X111407365Y-89720499D01*
X111407366Y-89720500D01*
X111407369Y-89720500D01*
X111592634Y-89720500D01*
X111592634Y-89720499D01*
X111774334Y-89684357D01*
X111945494Y-89613461D01*
X112099534Y-89510534D01*
X112230534Y-89379534D01*
X112333461Y-89225494D01*
X112404357Y-89054334D01*
X112440499Y-88872634D01*
X112440500Y-88872634D01*
X112440500Y-88687366D01*
X112440499Y-88687365D01*
X112425762Y-88613279D01*
X112404357Y-88505666D01*
X112346556Y-88366121D01*
X112333462Y-88334508D01*
X112333461Y-88334506D01*
X112230534Y-88180466D01*
X112230531Y-88180463D01*
X112230529Y-88180460D01*
X112099539Y-88049470D01*
X112099535Y-88049467D01*
X112099534Y-88049466D01*
X111945494Y-87946539D01*
X111945493Y-87946538D01*
X111945491Y-87946537D01*
X111774336Y-87875644D01*
X111774337Y-87875644D01*
X111774334Y-87875643D01*
X111774330Y-87875642D01*
X111774323Y-87875640D01*
X111592634Y-87839500D01*
X111592631Y-87839500D01*
X111407369Y-87839500D01*
X111407366Y-87839500D01*
X111225676Y-87875640D01*
X111225663Y-87875644D01*
X111054508Y-87946537D01*
X110900460Y-88049470D01*
X110769470Y-88180460D01*
X110666537Y-88334508D01*
X110595644Y-88505663D01*
X110595640Y-88505676D01*
X110559500Y-88687365D01*
X101557500Y-88687365D01*
X101557500Y-88620153D01*
X101557501Y-88620144D01*
X101557501Y-88559373D01*
X101551217Y-88544204D01*
X101551216Y-88544203D01*
X101548955Y-88538744D01*
X101536872Y-88509571D01*
X101509479Y-88482178D01*
X101506289Y-88477437D01*
X101502858Y-88460479D01*
X101496239Y-88444499D01*
X101498514Y-88439006D01*
X101497335Y-88433177D01*
X101506900Y-88418759D01*
X101513519Y-88402781D01*
X101515872Y-88400429D01*
X101528533Y-88369862D01*
X101536501Y-88350627D01*
X101536501Y-88296721D01*
X101536501Y-88291972D01*
X101536500Y-88291958D01*
X101536500Y-87989374D01*
X101536499Y-87989370D01*
X101515872Y-87939572D01*
X101515872Y-87939571D01*
X101477755Y-87901454D01*
X101474395Y-87898094D01*
X101474388Y-87898088D01*
X101332781Y-87756481D01*
X101315500Y-87714762D01*
X101315500Y-86147365D01*
X110559500Y-86147365D01*
X110559500Y-86332634D01*
X110595640Y-86514323D01*
X110595644Y-86514336D01*
X110666537Y-86685491D01*
X110666538Y-86685493D01*
X110666539Y-86685494D01*
X110769466Y-86839534D01*
X110769467Y-86839535D01*
X110769470Y-86839539D01*
X110900460Y-86970529D01*
X110900463Y-86970531D01*
X110900466Y-86970534D01*
X111054506Y-87073461D01*
X111225666Y-87144357D01*
X111407365Y-87180499D01*
X111407366Y-87180500D01*
X111407369Y-87180500D01*
X111592634Y-87180500D01*
X111592634Y-87180499D01*
X111774334Y-87144357D01*
X111945494Y-87073461D01*
X112099534Y-86970534D01*
X112230534Y-86839534D01*
X112333461Y-86685494D01*
X112404357Y-86514334D01*
X112440499Y-86332634D01*
X112440500Y-86332634D01*
X112440500Y-86147366D01*
X112440499Y-86147365D01*
X112418190Y-86035212D01*
X112404357Y-85965666D01*
X112333461Y-85794506D01*
X112230534Y-85640466D01*
X112230531Y-85640463D01*
X112230529Y-85640460D01*
X112099539Y-85509470D01*
X112099535Y-85509467D01*
X112099534Y-85509466D01*
X111945494Y-85406539D01*
X111945493Y-85406538D01*
X111945491Y-85406537D01*
X111774336Y-85335644D01*
X111774337Y-85335644D01*
X111774334Y-85335643D01*
X111774330Y-85335642D01*
X111774323Y-85335640D01*
X111592634Y-85299500D01*
X111592631Y-85299500D01*
X111407369Y-85299500D01*
X111407366Y-85299500D01*
X111225676Y-85335640D01*
X111225663Y-85335644D01*
X111054508Y-85406537D01*
X110900460Y-85509470D01*
X110769470Y-85640460D01*
X110666537Y-85794508D01*
X110595644Y-85965663D01*
X110595640Y-85965676D01*
X110559500Y-86147365D01*
X101315500Y-86147365D01*
X101315500Y-85237271D01*
X106099500Y-85237271D01*
X106099500Y-85342728D01*
X106116597Y-85406537D01*
X106126793Y-85444587D01*
X106179520Y-85535913D01*
X106179522Y-85535916D01*
X106254083Y-85610477D01*
X106254085Y-85610478D01*
X106254087Y-85610480D01*
X106345413Y-85663207D01*
X106447273Y-85690500D01*
X106552727Y-85690500D01*
X106654587Y-85663207D01*
X106745913Y-85610480D01*
X106820480Y-85535913D01*
X106873207Y-85444587D01*
X106900500Y-85342727D01*
X106900500Y-85237273D01*
X106873207Y-85135413D01*
X106820480Y-85044087D01*
X106820478Y-85044085D01*
X106820477Y-85044083D01*
X106745916Y-84969522D01*
X106745913Y-84969520D01*
X106654587Y-84916793D01*
X106654585Y-84916792D01*
X106552728Y-84889500D01*
X106552727Y-84889500D01*
X106447273Y-84889500D01*
X106447271Y-84889500D01*
X106345414Y-84916792D01*
X106345413Y-84916793D01*
X106254083Y-84969522D01*
X106179522Y-85044083D01*
X106126793Y-85135413D01*
X106126792Y-85135414D01*
X106099500Y-85237271D01*
X101315500Y-85237271D01*
X101315500Y-84213827D01*
X101315501Y-84213818D01*
X101315501Y-84153047D01*
X101294872Y-84103246D01*
X101294872Y-84103245D01*
X101256755Y-84065128D01*
X101256753Y-84065127D01*
X100798991Y-83607365D01*
X110559500Y-83607365D01*
X110559500Y-83792634D01*
X110595640Y-83974323D01*
X110595644Y-83974336D01*
X110666537Y-84145491D01*
X110666538Y-84145493D01*
X110666539Y-84145494D01*
X110769466Y-84299534D01*
X110769467Y-84299535D01*
X110769470Y-84299539D01*
X110900460Y-84430529D01*
X110900463Y-84430531D01*
X110900466Y-84430534D01*
X111054506Y-84533461D01*
X111225666Y-84604357D01*
X111407365Y-84640499D01*
X111407366Y-84640500D01*
X111407369Y-84640500D01*
X111592634Y-84640500D01*
X111592634Y-84640499D01*
X111774334Y-84604357D01*
X111945494Y-84533461D01*
X112099534Y-84430534D01*
X112230534Y-84299534D01*
X112333461Y-84145494D01*
X112404357Y-83974334D01*
X112440499Y-83792634D01*
X112440500Y-83792634D01*
X112440500Y-83607366D01*
X112440499Y-83607365D01*
X112431972Y-83564499D01*
X112404357Y-83425666D01*
X112333461Y-83254506D01*
X112230534Y-83100466D01*
X112230531Y-83100463D01*
X112230529Y-83100460D01*
X112099539Y-82969470D01*
X112099535Y-82969467D01*
X112099534Y-82969466D01*
X111945494Y-82866539D01*
X111945493Y-82866538D01*
X111945491Y-82866537D01*
X111774336Y-82795644D01*
X111774337Y-82795644D01*
X111774334Y-82795643D01*
X111774330Y-82795642D01*
X111774323Y-82795640D01*
X111592634Y-82759500D01*
X111592631Y-82759500D01*
X111407369Y-82759500D01*
X111407366Y-82759500D01*
X111225676Y-82795640D01*
X111225663Y-82795644D01*
X111054508Y-82866537D01*
X110900460Y-82969470D01*
X110769470Y-83100460D01*
X110666537Y-83254508D01*
X110595644Y-83425663D01*
X110595640Y-83425676D01*
X110559500Y-83607365D01*
X100798991Y-83607365D01*
X98258991Y-81067365D01*
X110559500Y-81067365D01*
X110559500Y-81252634D01*
X110595640Y-81434323D01*
X110595644Y-81434336D01*
X110666537Y-81605491D01*
X110666538Y-81605493D01*
X110666539Y-81605494D01*
X110769466Y-81759534D01*
X110769467Y-81759535D01*
X110769470Y-81759539D01*
X110900460Y-81890529D01*
X110900463Y-81890531D01*
X110900466Y-81890534D01*
X111054506Y-81993461D01*
X111225666Y-82064357D01*
X111407365Y-82100499D01*
X111407366Y-82100500D01*
X111407369Y-82100500D01*
X111592634Y-82100500D01*
X111592634Y-82100499D01*
X111774334Y-82064357D01*
X111945494Y-81993461D01*
X112099534Y-81890534D01*
X112230534Y-81759534D01*
X112333461Y-81605494D01*
X112404357Y-81434334D01*
X112440499Y-81252634D01*
X112440500Y-81252634D01*
X112440500Y-81067366D01*
X112440499Y-81067365D01*
X112404359Y-80885676D01*
X112404358Y-80885675D01*
X112404357Y-80885666D01*
X112333461Y-80714506D01*
X112230534Y-80560466D01*
X112230531Y-80560463D01*
X112230529Y-80560460D01*
X112099539Y-80429470D01*
X112099535Y-80429467D01*
X112099534Y-80429466D01*
X111945494Y-80326539D01*
X111945493Y-80326538D01*
X111945491Y-80326537D01*
X111774336Y-80255644D01*
X111774337Y-80255644D01*
X111774334Y-80255643D01*
X111774330Y-80255642D01*
X111774323Y-80255640D01*
X111592634Y-80219500D01*
X111592631Y-80219500D01*
X111407369Y-80219500D01*
X111407366Y-80219500D01*
X111225676Y-80255640D01*
X111225663Y-80255644D01*
X111054508Y-80326537D01*
X110900460Y-80429470D01*
X110769470Y-80560460D01*
X110666537Y-80714508D01*
X110595644Y-80885663D01*
X110595640Y-80885676D01*
X110559500Y-81067365D01*
X98258991Y-81067365D01*
X95718991Y-78527365D01*
X110559500Y-78527365D01*
X110559500Y-78712634D01*
X110595640Y-78894323D01*
X110595644Y-78894336D01*
X110666537Y-79065491D01*
X110666538Y-79065493D01*
X110666539Y-79065494D01*
X110769466Y-79219534D01*
X110769467Y-79219535D01*
X110769470Y-79219539D01*
X110900460Y-79350529D01*
X110900463Y-79350531D01*
X110900466Y-79350534D01*
X111054506Y-79453461D01*
X111225666Y-79524357D01*
X111407365Y-79560499D01*
X111407366Y-79560500D01*
X111407369Y-79560500D01*
X111592634Y-79560500D01*
X111592634Y-79560499D01*
X111774334Y-79524357D01*
X111945494Y-79453461D01*
X112099534Y-79350534D01*
X112230534Y-79219534D01*
X112333461Y-79065494D01*
X112404357Y-78894334D01*
X112440499Y-78712634D01*
X112440500Y-78712634D01*
X112440500Y-78527366D01*
X112440499Y-78527365D01*
X112404359Y-78345676D01*
X112404358Y-78345675D01*
X112404357Y-78345666D01*
X112333461Y-78174506D01*
X112230534Y-78020466D01*
X112230531Y-78020463D01*
X112230529Y-78020460D01*
X112099539Y-77889470D01*
X112099535Y-77889467D01*
X112099534Y-77889466D01*
X111945494Y-77786539D01*
X111945493Y-77786538D01*
X111945491Y-77786537D01*
X111774336Y-77715644D01*
X111774337Y-77715644D01*
X111774334Y-77715643D01*
X111774330Y-77715642D01*
X111774323Y-77715640D01*
X111592634Y-77679500D01*
X111592631Y-77679500D01*
X111407369Y-77679500D01*
X111407366Y-77679500D01*
X111225676Y-77715640D01*
X111225663Y-77715644D01*
X111054508Y-77786537D01*
X110900460Y-77889470D01*
X110769470Y-78020460D01*
X110666537Y-78174508D01*
X110595644Y-78345663D01*
X110595640Y-78345676D01*
X110559500Y-78527365D01*
X95718991Y-78527365D01*
X91344799Y-74153173D01*
X95020000Y-74153173D01*
X95020000Y-74655000D01*
X95500000Y-74655000D01*
X95500000Y-74905000D01*
X95020000Y-74905000D01*
X95020000Y-75406826D01*
X95049972Y-75557507D01*
X95049976Y-75557520D01*
X95108772Y-75699468D01*
X95108774Y-75699472D01*
X95194134Y-75827221D01*
X95302778Y-75935865D01*
X95430527Y-76021225D01*
X95430531Y-76021227D01*
X95572479Y-76080023D01*
X95572492Y-76080027D01*
X95674999Y-76100417D01*
X95675000Y-76100416D01*
X95675000Y-75604242D01*
X95684204Y-75609556D01*
X95760504Y-75630000D01*
X95839496Y-75630000D01*
X95915796Y-75609556D01*
X95925000Y-75604242D01*
X95925000Y-76100417D01*
X96027507Y-76080027D01*
X96027520Y-76080023D01*
X96169468Y-76021227D01*
X96169472Y-76021225D01*
X96297221Y-75935865D01*
X96405865Y-75827221D01*
X96491225Y-75699472D01*
X96491227Y-75699468D01*
X96550023Y-75557520D01*
X96550027Y-75557507D01*
X96579999Y-75406826D01*
X96580000Y-75406826D01*
X96580000Y-74905000D01*
X96100000Y-74905000D01*
X96100000Y-74655000D01*
X96580000Y-74655000D01*
X96580000Y-74524206D01*
X96597281Y-74482487D01*
X96639000Y-74465206D01*
X96680719Y-74482487D01*
X96691658Y-74498858D01*
X96691785Y-74498786D01*
X96692897Y-74500712D01*
X96693509Y-74501628D01*
X96693720Y-74502137D01*
X96769484Y-74633364D01*
X96769486Y-74633367D01*
X96876633Y-74740514D01*
X96876635Y-74740515D01*
X97007865Y-74816281D01*
X97154234Y-74855500D01*
X97305766Y-74855500D01*
X97452135Y-74816281D01*
X97583365Y-74740515D01*
X97583365Y-74740514D01*
X97583367Y-74740514D01*
X97690514Y-74633367D01*
X97690515Y-74633365D01*
X97766281Y-74502135D01*
X97805500Y-74355766D01*
X97805500Y-74204234D01*
X97805499Y-74204232D01*
X102434500Y-74204232D01*
X102434500Y-74355767D01*
X102473718Y-74502134D01*
X102473720Y-74502137D01*
X102549484Y-74633364D01*
X102549486Y-74633367D01*
X102656633Y-74740514D01*
X102656635Y-74740515D01*
X102787865Y-74816281D01*
X102934234Y-74855500D01*
X103085766Y-74855500D01*
X103232135Y-74816281D01*
X103363365Y-74740515D01*
X103363365Y-74740514D01*
X103363367Y-74740514D01*
X103470514Y-74633367D01*
X103470515Y-74633365D01*
X103546281Y-74502135D01*
X103546283Y-74502127D01*
X103546491Y-74501628D01*
X103546687Y-74501431D01*
X103548215Y-74498786D01*
X103548923Y-74499195D01*
X103578422Y-74469697D01*
X103623578Y-74469697D01*
X103655509Y-74501628D01*
X103660000Y-74524206D01*
X103660000Y-74655000D01*
X104140000Y-74655000D01*
X104140000Y-74905000D01*
X103660000Y-74905000D01*
X103660000Y-75406826D01*
X103689972Y-75557507D01*
X103689976Y-75557520D01*
X103748772Y-75699468D01*
X103748774Y-75699472D01*
X103834134Y-75827221D01*
X103942778Y-75935865D01*
X104070527Y-76021225D01*
X104070531Y-76021227D01*
X104212479Y-76080023D01*
X104212492Y-76080027D01*
X104314999Y-76100417D01*
X104315000Y-76100416D01*
X104315000Y-75604242D01*
X104324204Y-75609556D01*
X104400504Y-75630000D01*
X104479496Y-75630000D01*
X104555796Y-75609556D01*
X104565000Y-75604242D01*
X104565000Y-76100417D01*
X104667507Y-76080027D01*
X104667520Y-76080023D01*
X104809466Y-76021228D01*
X104854599Y-75991071D01*
X110370000Y-75991071D01*
X110370000Y-76168928D01*
X110397825Y-76344611D01*
X110397827Y-76344618D01*
X110452788Y-76513770D01*
X110452788Y-76513771D01*
X110533532Y-76672241D01*
X110616620Y-76786601D01*
X111069269Y-76333952D01*
X111099901Y-76387007D01*
X111192993Y-76480099D01*
X111246045Y-76510728D01*
X110793396Y-76963378D01*
X110907758Y-77046467D01*
X111066228Y-77127211D01*
X111235381Y-77182172D01*
X111235388Y-77182174D01*
X111411071Y-77210000D01*
X111588929Y-77210000D01*
X111764611Y-77182174D01*
X111764618Y-77182172D01*
X111933770Y-77127211D01*
X111933771Y-77127211D01*
X112092241Y-77046467D01*
X112206602Y-76963378D01*
X111753953Y-76510729D01*
X111807007Y-76480099D01*
X111900099Y-76387007D01*
X111930729Y-76333953D01*
X112383378Y-76786602D01*
X112466467Y-76672241D01*
X112547211Y-76513771D01*
X112547211Y-76513770D01*
X112602172Y-76344618D01*
X112602174Y-76344611D01*
X112630000Y-76168928D01*
X112630000Y-75991071D01*
X112602174Y-75815388D01*
X112602172Y-75815381D01*
X112547211Y-75646229D01*
X112547211Y-75646228D01*
X112466467Y-75487758D01*
X112383377Y-75373396D01*
X111930728Y-75826045D01*
X111900099Y-75772993D01*
X111807007Y-75679901D01*
X111753952Y-75649270D01*
X112206601Y-75196620D01*
X112092241Y-75113532D01*
X111933771Y-75032788D01*
X111764618Y-74977827D01*
X111764611Y-74977825D01*
X111588929Y-74950000D01*
X111411071Y-74950000D01*
X111235388Y-74977825D01*
X111235381Y-74977827D01*
X111066229Y-75032788D01*
X111066228Y-75032788D01*
X110907756Y-75113533D01*
X110907745Y-75113540D01*
X110793397Y-75196619D01*
X110793396Y-75196619D01*
X111246046Y-75649270D01*
X111192993Y-75679901D01*
X111099901Y-75772993D01*
X111069270Y-75826046D01*
X110616619Y-75373396D01*
X110616619Y-75373397D01*
X110533540Y-75487745D01*
X110533533Y-75487756D01*
X110452788Y-75646228D01*
X110452788Y-75646229D01*
X110397827Y-75815381D01*
X110397825Y-75815388D01*
X110370000Y-75991071D01*
X104854599Y-75991071D01*
X104931493Y-75939692D01*
X104931493Y-75939691D01*
X104937224Y-75935862D01*
X105045865Y-75827221D01*
X105131225Y-75699472D01*
X105131227Y-75699468D01*
X105190023Y-75557520D01*
X105190027Y-75557507D01*
X105219999Y-75406826D01*
X105220000Y-75406826D01*
X105220000Y-74905000D01*
X104740000Y-74905000D01*
X104740000Y-74655000D01*
X105220000Y-74655000D01*
X105220000Y-74447271D01*
X107199500Y-74447271D01*
X107199500Y-74552728D01*
X107221106Y-74633365D01*
X107226793Y-74654587D01*
X107279520Y-74745913D01*
X107279522Y-74745916D01*
X107354083Y-74820477D01*
X107354085Y-74820478D01*
X107354087Y-74820480D01*
X107445413Y-74873207D01*
X107547273Y-74900500D01*
X107652727Y-74900500D01*
X107754587Y-74873207D01*
X107845913Y-74820480D01*
X107920480Y-74745913D01*
X107973207Y-74654587D01*
X108000500Y-74552727D01*
X108000500Y-74447273D01*
X107973207Y-74345413D01*
X107920480Y-74254087D01*
X107920478Y-74254085D01*
X107920477Y-74254083D01*
X107845916Y-74179522D01*
X107800280Y-74153174D01*
X107754587Y-74126793D01*
X107754585Y-74126792D01*
X107652728Y-74099500D01*
X107652727Y-74099500D01*
X107547273Y-74099500D01*
X107547271Y-74099500D01*
X107445414Y-74126792D01*
X107445413Y-74126793D01*
X107354083Y-74179522D01*
X107279522Y-74254083D01*
X107226793Y-74345413D01*
X107226792Y-74345414D01*
X107199500Y-74447271D01*
X105220000Y-74447271D01*
X105220000Y-74153174D01*
X105219999Y-74153173D01*
X105190027Y-74002492D01*
X105190023Y-74002479D01*
X105131227Y-73860531D01*
X105131225Y-73860527D01*
X105045865Y-73732778D01*
X104937221Y-73624134D01*
X104809472Y-73538774D01*
X104809468Y-73538772D01*
X104713401Y-73498980D01*
X104667517Y-73479974D01*
X104565000Y-73459582D01*
X104565000Y-73955757D01*
X104555796Y-73950444D01*
X104479496Y-73930000D01*
X104400504Y-73930000D01*
X104324204Y-73950444D01*
X104315000Y-73955757D01*
X104315000Y-73459582D01*
X104314999Y-73459582D01*
X104212482Y-73479974D01*
X104070531Y-73538772D01*
X104070527Y-73538774D01*
X103942778Y-73624134D01*
X103834134Y-73732778D01*
X103748774Y-73860527D01*
X103748772Y-73860531D01*
X103689976Y-74002479D01*
X103689972Y-74002490D01*
X103671794Y-74093880D01*
X103646706Y-74131426D01*
X103602417Y-74140235D01*
X103564871Y-74115147D01*
X103556938Y-74097640D01*
X103546281Y-74057865D01*
X103470515Y-73926635D01*
X103470514Y-73926633D01*
X103363367Y-73819486D01*
X103363364Y-73819484D01*
X103232137Y-73743720D01*
X103232134Y-73743718D01*
X103085767Y-73704500D01*
X103085766Y-73704500D01*
X102934234Y-73704500D01*
X102934232Y-73704500D01*
X102787865Y-73743718D01*
X102787862Y-73743720D01*
X102656635Y-73819484D01*
X102549484Y-73926635D01*
X102473720Y-74057862D01*
X102473718Y-74057865D01*
X102434500Y-74204232D01*
X97805499Y-74204232D01*
X97766281Y-74057865D01*
X97690515Y-73926635D01*
X97690514Y-73926633D01*
X97583367Y-73819486D01*
X97583364Y-73819484D01*
X97452137Y-73743720D01*
X97452134Y-73743718D01*
X97305767Y-73704500D01*
X97305766Y-73704500D01*
X97154234Y-73704500D01*
X97154232Y-73704500D01*
X97007865Y-73743718D01*
X97007862Y-73743720D01*
X96876635Y-73819484D01*
X96769484Y-73926635D01*
X96693720Y-74057862D01*
X96693716Y-74057870D01*
X96683060Y-74097640D01*
X96655570Y-74133465D01*
X96610800Y-74139358D01*
X96574975Y-74111868D01*
X96568205Y-74093879D01*
X96550027Y-74002492D01*
X96550023Y-74002479D01*
X96491227Y-73860531D01*
X96491225Y-73860527D01*
X96405865Y-73732778D01*
X96297221Y-73624134D01*
X96169472Y-73538774D01*
X96169468Y-73538772D01*
X96027517Y-73479974D01*
X95925000Y-73459582D01*
X95925000Y-73955757D01*
X95915796Y-73950444D01*
X95839496Y-73930000D01*
X95760504Y-73930000D01*
X95684204Y-73950444D01*
X95675000Y-73955757D01*
X95675000Y-73459582D01*
X95674999Y-73459582D01*
X95572482Y-73479974D01*
X95430531Y-73538772D01*
X95430527Y-73538774D01*
X95302778Y-73624134D01*
X95194134Y-73732778D01*
X95108774Y-73860527D01*
X95108772Y-73860531D01*
X95049976Y-74002479D01*
X95049972Y-74002492D01*
X95020000Y-74153173D01*
X91344799Y-74153173D01*
X90638991Y-73447365D01*
X110559500Y-73447365D01*
X110559500Y-73632634D01*
X110595640Y-73814323D01*
X110595644Y-73814336D01*
X110666537Y-73985491D01*
X110666538Y-73985493D01*
X110666539Y-73985494D01*
X110769466Y-74139534D01*
X110769467Y-74139535D01*
X110769470Y-74139539D01*
X110900460Y-74270529D01*
X110900463Y-74270531D01*
X110900466Y-74270534D01*
X111054506Y-74373461D01*
X111225666Y-74444357D01*
X111407365Y-74480499D01*
X111407366Y-74480500D01*
X111407369Y-74480500D01*
X111592634Y-74480500D01*
X111592634Y-74480499D01*
X111774334Y-74444357D01*
X111945494Y-74373461D01*
X112099534Y-74270534D01*
X112230534Y-74139534D01*
X112333461Y-73985494D01*
X112404357Y-73814334D01*
X112440499Y-73632634D01*
X112440500Y-73632634D01*
X112440500Y-73447366D01*
X112440499Y-73447365D01*
X112404359Y-73265676D01*
X112404358Y-73265675D01*
X112404357Y-73265666D01*
X112333461Y-73094506D01*
X112230534Y-72940466D01*
X112230531Y-72940463D01*
X112230529Y-72940460D01*
X112099539Y-72809470D01*
X112099535Y-72809467D01*
X112099534Y-72809466D01*
X111945494Y-72706539D01*
X111945493Y-72706538D01*
X111945491Y-72706537D01*
X111774336Y-72635644D01*
X111774337Y-72635644D01*
X111774334Y-72635643D01*
X111774330Y-72635642D01*
X111774323Y-72635640D01*
X111592634Y-72599500D01*
X111592631Y-72599500D01*
X111407369Y-72599500D01*
X111407366Y-72599500D01*
X111225676Y-72635640D01*
X111225663Y-72635644D01*
X111054508Y-72706537D01*
X110900460Y-72809470D01*
X110769470Y-72940460D01*
X110666537Y-73094508D01*
X110595644Y-73265663D01*
X110595640Y-73265676D01*
X110559500Y-73447365D01*
X90638991Y-73447365D01*
X89648897Y-72457271D01*
X99979500Y-72457271D01*
X99979500Y-72562728D01*
X99999037Y-72635644D01*
X100006793Y-72664587D01*
X100031013Y-72706537D01*
X100059522Y-72755916D01*
X100134083Y-72830477D01*
X100134085Y-72830478D01*
X100134087Y-72830480D01*
X100225413Y-72883207D01*
X100327273Y-72910500D01*
X100432727Y-72910500D01*
X100534587Y-72883207D01*
X100625913Y-72830480D01*
X100700480Y-72755913D01*
X100753207Y-72664587D01*
X100780500Y-72562727D01*
X100780500Y-72457273D01*
X100753207Y-72355413D01*
X100700480Y-72264087D01*
X100700478Y-72264085D01*
X100700477Y-72264083D01*
X100625916Y-72189522D01*
X100625913Y-72189520D01*
X100534587Y-72136793D01*
X100534585Y-72136792D01*
X100432728Y-72109500D01*
X100432727Y-72109500D01*
X100327273Y-72109500D01*
X100327271Y-72109500D01*
X100225414Y-72136792D01*
X100225413Y-72136793D01*
X100134083Y-72189522D01*
X100059522Y-72264083D01*
X100006793Y-72355413D01*
X100006792Y-72355414D01*
X99979500Y-72457271D01*
X89648897Y-72457271D01*
X88957780Y-71766154D01*
X88940499Y-71724435D01*
X88940499Y-70141089D01*
X88940498Y-70141082D01*
X88935249Y-70114689D01*
X88915247Y-70084753D01*
X88885311Y-70064751D01*
X88885309Y-70064750D01*
X88885307Y-70064749D01*
X88858916Y-70059500D01*
X87141089Y-70059500D01*
X87114687Y-70064751D01*
X87084753Y-70084752D01*
X87064749Y-70114691D01*
X87064749Y-70114693D01*
X87059500Y-70141082D01*
X86700500Y-70141082D01*
X86700500Y-69759500D01*
X86717781Y-69717781D01*
X86759500Y-69700500D01*
X95153975Y-69700500D01*
X95195694Y-69717781D01*
G37*
%TD.AperFunction*%
%TD*%
M02*
