%TF.GenerationSoftware,KiCad,Pcbnew,9.0.6*%
%TF.CreationDate,2026-07-15T15:39:03+05:00*%
%TF.ProjectId,NS FPGA,4e532046-5047-4412-9e6b-696361645f70,rev?*%
%TF.SameCoordinates,Original*%
%TF.FileFunction,Soldermask,Top*%
%TF.FilePolarity,Negative*%
%FSLAX46Y46*%
G04 Gerber Fmt 4.6, Leading zero omitted, Abs format (unit mm)*
G04 Created by KiCad (PCBNEW 9.0.6) date 2026-07-15 15:39:03*
%MOMM*%
%LPD*%
G01*
G04 APERTURE LIST*
G04 Aperture macros list*
%AMRoundRect*
0 Rectangle with rounded corners*
0 $1 Rounding radius*
0 $2 $3 $4 $5 $6 $7 $8 $9 X,Y pos of 4 corners*
0 Add a 4 corners polygon primitive as box body*
4,1,4,$2,$3,$4,$5,$6,$7,$8,$9,$2,$3,0*
0 Add four circle primitives for the rounded corners*
1,1,$1+$1,$2,$3*
1,1,$1+$1,$4,$5*
1,1,$1+$1,$6,$7*
1,1,$1+$1,$8,$9*
0 Add four rect primitives between the rounded corners*
20,1,$1+$1,$2,$3,$4,$5,0*
20,1,$1+$1,$4,$5,$6,$7,0*
20,1,$1+$1,$6,$7,$8,$9,0*
20,1,$1+$1,$8,$9,$2,$3,0*%
G04 Aperture macros list end*
%ADD10C,0.230000*%
%ADD11C,1.000000*%
%ADD12RoundRect,0.250000X-0.450000X-0.350000X0.450000X-0.350000X0.450000X0.350000X-0.450000X0.350000X0*%
%ADD13RoundRect,0.150000X-0.150000X0.512500X-0.150000X-0.512500X0.150000X-0.512500X0.150000X0.512500X0*%
%ADD14RoundRect,0.062500X-0.062500X0.350000X-0.062500X-0.350000X0.062500X-0.350000X0.062500X0.350000X0*%
%ADD15RoundRect,0.062500X-0.350000X0.062500X-0.350000X-0.062500X0.350000X-0.062500X0.350000X0.062500X0*%
%ADD16R,2.600000X2.600000*%
%ADD17RoundRect,0.250000X-0.250000X0.475000X-0.250000X-0.475000X0.250000X-0.475000X0.250000X0.475000X0*%
%ADD18RoundRect,0.135000X0.185000X-0.135000X0.185000X0.135000X-0.185000X0.135000X-0.185000X-0.135000X0*%
%ADD19RoundRect,0.100000X-0.130000X-0.100000X0.130000X-0.100000X0.130000X0.100000X-0.130000X0.100000X0*%
%ADD20RoundRect,0.100000X0.100000X-0.130000X0.100000X0.130000X-0.100000X0.130000X-0.100000X-0.130000X0*%
%ADD21RoundRect,0.135000X-0.135000X-0.185000X0.135000X-0.185000X0.135000X0.185000X-0.135000X0.185000X0*%
%ADD22RoundRect,0.100000X-0.162635X0.021213X0.021213X-0.162635X0.162635X-0.021213X-0.021213X0.162635X0*%
%ADD23RoundRect,0.100000X0.130000X0.100000X-0.130000X0.100000X-0.130000X-0.100000X0.130000X-0.100000X0*%
%ADD24RoundRect,0.135000X-0.185000X0.135000X-0.185000X-0.135000X0.185000X-0.135000X0.185000X0.135000X0*%
%ADD25RoundRect,0.150000X0.150000X-0.587500X0.150000X0.587500X-0.150000X0.587500X-0.150000X-0.587500X0*%
%ADD26R,1.700000X1.700000*%
%ADD27C,1.700000*%
%ADD28RoundRect,0.150000X0.150000X0.500000X-0.150000X0.500000X-0.150000X-0.500000X0.150000X-0.500000X0*%
%ADD29RoundRect,0.075000X0.075000X0.575000X-0.075000X0.575000X-0.075000X-0.575000X0.075000X-0.575000X0*%
%ADD30O,1.000000X2.100000*%
%ADD31O,1.000000X1.600000*%
%ADD32RoundRect,0.100000X-0.021213X-0.162635X0.162635X0.021213X0.021213X0.162635X-0.162635X-0.021213X0*%
%ADD33RoundRect,0.140000X-0.140000X-0.170000X0.140000X-0.170000X0.140000X0.170000X-0.140000X0.170000X0*%
%ADD34RoundRect,0.140000X0.140000X0.170000X-0.140000X0.170000X-0.140000X-0.170000X0.140000X-0.170000X0*%
%ADD35RoundRect,0.140000X0.170000X-0.140000X0.170000X0.140000X-0.170000X0.140000X-0.170000X-0.140000X0*%
%ADD36RoundRect,0.140000X-0.170000X0.140000X-0.170000X-0.140000X0.170000X-0.140000X0.170000X0.140000X0*%
G04 APERTURE END LIST*
D10*
%TO.C,U1*%
X99739340Y-100767767D03*
X102567767Y-100767767D03*
X102214213Y-101121320D03*
X101860660Y-101474874D03*
X101507107Y-101828427D03*
X101153553Y-102181981D03*
X100800000Y-102535534D03*
X100446446Y-102889087D03*
X100092893Y-103242641D03*
X102214213Y-100414214D03*
X101860660Y-100767767D03*
X101507107Y-101121320D03*
X101153553Y-101474874D03*
X100800000Y-101828427D03*
X100446446Y-102181981D03*
X100092893Y-102535534D03*
X99739340Y-102889087D03*
X101860660Y-100060660D03*
X101507107Y-100414214D03*
X101153553Y-100767767D03*
X100800000Y-101121320D03*
X100446446Y-101474874D03*
X100092893Y-101828427D03*
X99739340Y-102181981D03*
X99385786Y-102535534D03*
X101507107Y-99707107D03*
X101153553Y-100060660D03*
X100800000Y-100414214D03*
X100446446Y-100767767D03*
X100092893Y-101121320D03*
X99739340Y-101474874D03*
X99385786Y-101828427D03*
X99032233Y-102181981D03*
X101153553Y-99353553D03*
X100800000Y-99707107D03*
X100446446Y-100060660D03*
X100092893Y-100414214D03*
X99385786Y-101121320D03*
X99032233Y-101474874D03*
X98678679Y-101828427D03*
X100800000Y-99000000D03*
X100446446Y-99353553D03*
X100092893Y-99707107D03*
X99739340Y-100060660D03*
X99385786Y-100414214D03*
X99032233Y-100767767D03*
X98678679Y-101121320D03*
X98325126Y-101474874D03*
X100446446Y-98646447D03*
X100092893Y-99000000D03*
X99739340Y-99353553D03*
X99385786Y-99707107D03*
X99032233Y-100060660D03*
X98678679Y-100414214D03*
X98325126Y-100767767D03*
X97971573Y-101121320D03*
X100092893Y-98292893D03*
X99739340Y-98646447D03*
X99385786Y-99000000D03*
X99032233Y-99353553D03*
X98678679Y-99707107D03*
X98325126Y-100060660D03*
X97971573Y-100414214D03*
X97618019Y-100767767D03*
%TD*%
D11*
%TO.C,TP4*%
X97600000Y-113200000D03*
%TD*%
%TO.C,TP3*%
X105000000Y-86200000D03*
%TD*%
%TO.C,TP2*%
X105600000Y-113600000D03*
%TD*%
%TO.C,TP1*%
X98000000Y-95600000D03*
%TD*%
D12*
%TO.C,Y1*%
X98999998Y-107100000D03*
X101400000Y-107100000D03*
X101400000Y-105200000D03*
X98999998Y-105200000D03*
%TD*%
D13*
%TO.C,U4*%
X93400000Y-72325000D03*
X92450000Y-72325000D03*
X91500000Y-72325000D03*
X91500000Y-74600000D03*
X93400000Y-74600000D03*
%TD*%
%TO.C,U3*%
X108500000Y-72200000D03*
X107550000Y-72200000D03*
X106600000Y-72200000D03*
X106600000Y-74475000D03*
X108500000Y-74475000D03*
%TD*%
D14*
%TO.C,U2*%
X98850000Y-85662500D03*
X98350000Y-85662500D03*
X97850000Y-85662500D03*
X97350000Y-85662500D03*
X96850000Y-85662500D03*
X96350000Y-85662500D03*
D15*
X95662500Y-86350000D03*
X95662500Y-86850000D03*
X95662500Y-87350000D03*
X95662500Y-87850000D03*
X95662500Y-88350000D03*
X95662500Y-88850000D03*
D14*
X96350000Y-89537500D03*
X96850000Y-89537500D03*
X97350000Y-89537500D03*
X97850000Y-89537500D03*
X98350000Y-89537500D03*
X98850000Y-89537500D03*
D15*
X99537500Y-88850000D03*
X99537500Y-88350000D03*
X99537500Y-87850000D03*
X99537500Y-87350000D03*
X99537500Y-86850000D03*
X99537500Y-86350000D03*
D16*
X97600000Y-87600000D03*
%TD*%
D17*
%TO.C,SW1*%
X107000000Y-103200000D03*
X107000000Y-108350000D03*
X105300000Y-103200000D03*
X105300000Y-108350000D03*
%TD*%
D18*
%TO.C,R12*%
X103800000Y-95000000D03*
X103800000Y-93980000D03*
%TD*%
D19*
%TO.C,R11*%
X105535000Y-93000000D03*
X106175000Y-93000000D03*
%TD*%
D20*
%TO.C,R10*%
X104400000Y-80265000D03*
X104400000Y-79625000D03*
%TD*%
D21*
%TO.C,R9*%
X102290000Y-110000000D03*
X103310000Y-110000000D03*
%TD*%
D22*
%TO.C,R8*%
X102129774Y-98529774D03*
X102582322Y-98982322D03*
%TD*%
D23*
%TO.C,R7*%
X103975000Y-99600000D03*
X103335000Y-99600000D03*
%TD*%
%TO.C,R6*%
X98240000Y-103600000D03*
X97600000Y-103600000D03*
%TD*%
D20*
%TO.C,R5*%
X94337500Y-88815000D03*
X94337500Y-88175000D03*
%TD*%
%TO.C,R4*%
X94337500Y-87015000D03*
X94337500Y-86375000D03*
%TD*%
D18*
%TO.C,R3*%
X94737500Y-85170000D03*
X94737500Y-84150000D03*
%TD*%
D24*
%TO.C,R2*%
X98800000Y-78000000D03*
X98800000Y-79020000D03*
%TD*%
%TO.C,R1*%
X101400000Y-77980000D03*
X101400000Y-79000000D03*
%TD*%
D25*
%TO.C,Q1*%
X106300000Y-97800000D03*
X108200000Y-97800000D03*
X107250000Y-95925000D03*
%TD*%
D26*
%TO.C,J4*%
X106160000Y-132200000D03*
D27*
X103620000Y-132200000D03*
X101080000Y-132200000D03*
X98540000Y-132200000D03*
X96000000Y-132200000D03*
X93460000Y-132200000D03*
%TD*%
D26*
%TO.C,J3*%
X111500000Y-71000000D03*
D27*
X111500000Y-73540000D03*
X111500000Y-76080000D03*
X111500000Y-78620000D03*
X111500000Y-81160000D03*
X111500000Y-83700000D03*
X111500000Y-86240000D03*
X111500000Y-88780000D03*
X111500000Y-91320000D03*
X111500000Y-93860000D03*
X111500000Y-96400000D03*
X111500000Y-98940000D03*
X111500000Y-101480000D03*
X111500000Y-104020000D03*
X111500000Y-106560000D03*
X111500000Y-109100000D03*
X111500000Y-111640000D03*
X111500000Y-114180000D03*
X111500000Y-116720000D03*
X111500000Y-119260000D03*
X111500000Y-121800000D03*
X111500000Y-124340000D03*
X111500000Y-126880000D03*
X111500000Y-129420000D03*
%TD*%
D26*
%TO.C,J2*%
X88000000Y-71000000D03*
D27*
X88000000Y-73540000D03*
X88000000Y-76080000D03*
X88000000Y-78620000D03*
X88000000Y-81160000D03*
X88000000Y-83700000D03*
X88000000Y-86240000D03*
X88000000Y-88780000D03*
X88000000Y-91320000D03*
X88000000Y-93860000D03*
X88000000Y-96400000D03*
X88000000Y-98940000D03*
X88000000Y-101480000D03*
X88000000Y-104020000D03*
X88000000Y-106560000D03*
X88000000Y-109100000D03*
X88000000Y-111640000D03*
X88000000Y-114180000D03*
X88000000Y-116720000D03*
X88000000Y-119260000D03*
X88000000Y-121800000D03*
X88000000Y-124340000D03*
X88000000Y-126880000D03*
X88000000Y-129420000D03*
%TD*%
D28*
%TO.C,J1*%
X103320000Y-75420000D03*
X102520000Y-75420000D03*
D29*
X101370000Y-75420000D03*
X100370000Y-75420000D03*
X99870000Y-75420000D03*
X98870000Y-75420000D03*
D28*
X97720000Y-75420000D03*
X96920000Y-75420000D03*
X96920000Y-75420000D03*
X97720000Y-75420000D03*
D29*
X98370000Y-75420000D03*
X99370000Y-75420000D03*
X100870000Y-75420000D03*
X101870000Y-75420000D03*
D28*
X102520000Y-75420000D03*
X103320000Y-75420000D03*
D30*
X104440000Y-74780000D03*
D31*
X104440000Y-70600000D03*
D30*
X95800000Y-74780000D03*
D31*
X95800000Y-70600000D03*
%TD*%
D20*
%TO.C,D2*%
X107400000Y-93665000D03*
X107400000Y-93025000D03*
%TD*%
D19*
%TO.C,D1*%
X102535000Y-80400000D03*
X103175000Y-80400000D03*
%TD*%
%TO.C,C17*%
X99735000Y-108600000D03*
X100375000Y-108600000D03*
%TD*%
D32*
%TO.C,C16*%
X97217678Y-98582323D03*
X97670226Y-98129773D03*
%TD*%
D20*
%TO.C,C15*%
X104000000Y-101665000D03*
X104000000Y-101025000D03*
%TD*%
D19*
%TO.C,C14*%
X100960000Y-97200000D03*
X101600000Y-97200000D03*
%TD*%
D23*
%TO.C,C13*%
X95865000Y-102800000D03*
X95225000Y-102800000D03*
%TD*%
%TO.C,C12*%
X95840000Y-101400000D03*
X95200000Y-101400000D03*
%TD*%
D19*
%TO.C,C11*%
X95135000Y-100200000D03*
X95775000Y-100200000D03*
%TD*%
D33*
%TO.C,C10*%
X106640000Y-70400000D03*
X107600000Y-70400000D03*
%TD*%
D34*
%TO.C,C9*%
X107800000Y-76200000D03*
X106840000Y-76200000D03*
%TD*%
D33*
%TO.C,C8*%
X93240000Y-76600000D03*
X94200000Y-76600000D03*
%TD*%
%TO.C,C7*%
X91440000Y-70600000D03*
X92400000Y-70600000D03*
%TD*%
D35*
%TO.C,C6*%
X96337500Y-84370000D03*
X96337500Y-83410000D03*
%TD*%
%TO.C,C5*%
X97400000Y-83680000D03*
X97400000Y-82720000D03*
%TD*%
D36*
%TO.C,C4*%
X93137500Y-87790000D03*
X93137500Y-88750000D03*
%TD*%
D34*
%TO.C,C3*%
X93097500Y-86350000D03*
X92137500Y-86350000D03*
%TD*%
%TO.C,C2*%
X96160000Y-78000000D03*
X95200000Y-78000000D03*
%TD*%
D33*
%TO.C,C1*%
X104320000Y-77800000D03*
X105280000Y-77800000D03*
%TD*%
M02*
